<svg version="1.1" viewBox="0.0 0.0 1043.0419947506562 347.67979002624674" fill="none" stroke="none" stroke-linecap="square" stroke-miterlimit="10" xmlns:xlink="http://www.w3.org/1999/xlink" xmlns="http://www.w3.org/2000/svg"><clipPath id="p.0"><path d="m0 0l1043.042 0l0 347.67978l-1043.042 0l0 -347.67978z" clip-rule="nonzero"/></clipPath><g clip-path="url(#p.0)"><path fill="#000000" fill-opacity="0.0" d="m0 0l1043.042 0l0 347.67978l-1043.042 0z" fill-rule="evenodd"/><path fill="#cfe2f3" d="m384.8609 41.49344l161.10236 0l0 65.291336l-161.10236 0z" fill-rule="evenodd"/><path stroke="#000000" stroke-width="1.0" stroke-linejoin="round" stroke-linecap="butt" d="m384.8609 41.49344l161.10236 0l0 65.291336l-161.10236 0z" fill-rule="evenodd"/><path fill="#000000" d="m445.8096 69.3391l0 -2.0l2.265625 0l0 -9.999996l-2.265625 0l0 -2.0l6.6875 0l0 2.0l-2.265625 0l0 9.999996l2.265625 0l0 2.0l-6.6875 0zm14.722473 -6.624996l0 -1.796875l9.3125 0l0 1.796875l-9.3125 0zm0 3.7812462l0 -1.78125l9.3125 0l0 1.78125l-9.3125 0zm20.263733 1.859375l0 -11.359371l0.734375 0.5625l-2.765625 1.46875l-0.578125 -1.890625l3.75 -2.0l1.03125 0l0 13.218746l-2.171875 0zm-2.21875 0.984375l0 -2.078125l6.671875 0l0 2.078125l-6.671875 0z" fill-rule="nonzero"/><path fill="#000000" d="m432.86334 93.54223q-1.71875 0 -3.03125 -0.671875q-1.3125 -0.6875 -2.25 -2.046875l1.484375 -1.703125q0.96875 1.40625 1.875 1.953125q0.90625 0.53125 2.140625 0.53125q0.765625 0 1.375 -0.234375q0.625 -0.25 0.984375 -0.671875q0.359375 -0.421875 0.359375 -0.953125q0 -0.359375 -0.125 -0.671875q-0.109375 -0.328125 -0.359375 -0.59375q-0.25 -0.265625 -0.640625 -0.484375q-0.390625 -0.21875 -0.921875 -0.390625q-0.515625 -0.171875 -1.1875 -0.28125q-1.078125 -0.21875 -1.890625 -0.578125q-0.796875 -0.359375 -1.34375 -0.90625q-0.53125 -0.546875 -0.796875 -1.234375q-0.25 -0.6875 -0.25 -1.546875q0 -1.140625 0.640625 -2.015625q0.640625 -0.890625 1.71875 -1.390625q1.09375 -0.515625 2.453125 -0.515625q1.625 0 2.828125 0.640625q1.21875 0.625 1.921875 1.828125l-1.53125 1.5q-0.59375 -0.984375 -1.421875 -1.5q-0.828125 -0.53125 -1.859375 -0.53125q-0.765625 0 -1.359375 0.25q-0.578125 0.234375 -0.90625 0.671875q-0.328125 0.421875 -0.328125 1.0q0 0.421875 0.15625 0.78125q0.171875 0.34375 0.5 0.609375q0.328125 0.265625 0.875 0.484375q0.5625 0.203125 1.34375 0.375q1.109375 0.234375 1.96875 0.609375q0.859375 0.359375 1.453125 0.859375q0.609375 0.5 0.90625 1.125q0.3125 0.625 0.3125 1.34375q0 1.34375 -0.625 2.328125q-0.609375 0.96875 -1.75 1.5q-1.140625 0.53125 -2.71875 0.53125zm11.323761 0q-1.125 0 -1.953125 -0.515625q-0.828125 -0.53125 -1.28125 -1.46875q-0.453125 -0.9375 -0.453125 -2.234375l0 -6.484375l2.0625 0l0 5.921875q0 1.375 0.640625 2.1875q0.65625 0.796875 1.8125 0.796875q0.59375 0 1.0625 -0.1875q0.484375 -0.203125 0.828125 -0.53125q0.359375 -0.34375 0.546875 -0.828125q0.203125 -0.484375 0.203125 -1.046875l0 -6.3125l2.0625 0l0 10.5l-2.0625 0l0 -2.203125l0.359375 -0.234375q-0.234375 0.734375 -0.8125 1.34375q-0.5625 0.59375 -1.34375 0.953125q-0.78125 0.34375 -1.671875 0.34375zm8.381226 -0.203125l0 -10.5l2.078125 0l0 2.234375l-0.390625 0.25q0.171875 -0.53125 0.515625 -1.0q0.34375 -0.484375 0.859375 -0.84375q0.515625 -0.375 1.09375 -0.59375q0.59375 -0.234375 1.21875 -0.234375q0.90625 0 1.578125 0.3125q0.6875 0.296875 1.125 0.90625q0.4375 0.59375 0.640625 1.484375l-0.328125 -0.078125l0.140625 -0.34375q0.21875 -0.453125 0.609375 -0.859375q0.390625 -0.421875 0.890625 -0.734375q0.5 -0.3125 1.0625 -0.5q0.5625 -0.1875 1.09375 -0.1875q1.1875 0 1.953125 0.484375q0.765625 0.484375 1.15625 1.46875q0.390625 0.96875 0.390625 2.4375l0 6.296875l-2.078125 0l0 -6.1875q0 -1.328125 -0.515625 -1.953125q-0.5 -0.640625 -1.578125 -0.640625q-0.5625 0 -1.0625 0.1875q-0.484375 0.1875 -0.84375 0.53125q-0.359375 0.34375 -0.5625 0.796875q-0.1875 0.453125 -0.1875 0.984375l0 6.28125l-2.078125 0l0 -6.21875q0 -1.234375 -0.53125 -1.890625q-0.53125 -0.671875 -1.53125 -0.671875q-0.5625 0 -1.046875 0.1875q-0.484375 0.1875 -0.84375 0.53125q-0.359375 0.328125 -0.5625 0.78125q-0.1875 0.4375 -0.1875 0.96875l0 6.3125l-2.078125 0zm23.613739 -6.625l0 -1.796875l9.3125 0l0 1.796875l-9.3125 0zm0 3.78125l0 -1.78125l9.3125 0l0 1.78125l-9.3125 0zm21.982483 3.046875q-1.609375 0 -2.765625 -0.875q-1.140625 -0.890625 -1.765625 -2.5q-0.609375 -1.609375 -0.609375 -3.828125q0 -2.21875 0.609375 -3.828125q0.625 -1.609375 1.765625 -2.484375q1.15625 -0.890625 2.765625 -0.890625q1.59375 0 2.75 0.890625q1.171875 0.875 1.78125 2.484375q0.625 1.609375 0.625 3.828125q0 2.21875 -0.625 3.828125q-0.609375 1.609375 -1.78125 2.5q-1.15625 0.875 -2.75 0.875zm0 -1.96875q1.453125 0 2.25 -1.359375q0.8125 -1.375 0.8125 -3.875q0 -2.5 -0.8125 -3.859375q-0.796875 -1.375 -2.25 -1.375q-1.46875 0 -2.265625 1.375q-0.796875 1.359375 -0.796875 3.859375q0 2.5 0.796875 3.875q0.796875 1.359375 2.265625 1.359375z" fill-rule="nonzero"/><path fill="#cfe2f3" d="m176.34645 106.784775l16.322845 -65.291336l144.77953 0l-16.322845 65.291336z" fill-rule="evenodd"/><path stroke="#000000" stroke-width="1.0" stroke-linejoin="round" stroke-linecap="butt" d="m176.34645 106.784775l16.322845 -65.291336l144.77953 0l-16.322845 65.291336z" fill-rule="evenodd"/><path fill="#000000" d="m226.12517 69.3391l0 -2.0l2.265625 0l0 -9.999996l-2.265625 0l0 -2.0l6.6875 0l0 2.0l-2.265625 0l0 9.999996l2.265625 0l0 2.0l-6.6875 0zm10.075623 0l0 -13.999996l1.953125 0l8.546875 11.453121l-0.3125 0.1875q-0.140625 -0.828125 -0.234375 -1.90625q-0.09375 -1.0781212 -0.140625 -2.3749962q-0.03125 -1.296875 -0.03125 -2.765625l0 -4.59375l2.171875 0l0 13.999996l-1.984375 0l-8.421875 -11.046871l0.21875 -0.265625q0.140625 1.515625 0.21875 2.484375q0.078125 0.96875 0.109375 1.546875q0.046875 0.578125 0.0625 0.90625q0.015625 0.328125 0.015625 0.5625l0 5.812496l-2.171875 0zm15.859985 0l0 -13.999996l5.7031097 0q1.140625 0 2.0625 0.578125q0.9375 0.5625 1.5 1.546875q0.5625 0.96875 0.5625 2.171875q0 1.203125 -0.5625 2.1875q-0.5625 0.96875 -1.5 1.5625q-0.921875 0.59375 -2.0625 0.59375l-3.5312347 0l0 5.359371l-2.171875 0zm2.171875 -7.437496l3.4999847 0q0.53125 0 0.96875 -0.3125q0.453125 -0.3125 0.71875 -0.8125q0.265625 -0.515625 0.265625 -1.140625q0 -0.609375 -0.265625 -1.109375q-0.265625 -0.5 -0.71875 -0.796875q-0.4375 -0.3125 -0.96875 -0.3125l-3.4999847 0l0 4.484375zm15.961227 7.562496q-1.625 0 -2.90625 -0.703125q-1.28125 -0.71875 -2.015625 -1.96875q-0.71875 -1.25 -0.71875 -2.8281212l0 -8.640625l2.15625 0l0 8.453125q0 1.0156212 0.46875 1.8281212q0.484375 0.8125 1.265625 1.296875q0.796875 0.484375 1.75 0.484375q1.0 0 1.796875 -0.484375q0.8125 -0.484375 1.296875 -1.296875q0.484375 -0.8125 0.484375 -1.8281212l0 -8.453125l2.0625 0l0 8.640625q0 1.5781212 -0.734375 2.8281212q-0.734375 1.25 -2.015625 1.96875q-1.28125 0.703125 -2.890625 0.703125zm12.018738 -0.125l0 -11.921871l-3.921875 0l0 -2.078125l10.109375 0l0 2.078125l-4.03125 0l0 11.921871l-2.15625 0z" fill-rule="nonzero"/><path fill="#000000" d="m250.55202 93.3391l0 -14.0l3.0625 0l7.3593903 9.984375l-0.65625 -0.078125q-0.140625 -1.125 -0.25 -2.09375q-0.09375 -0.96875 -0.125 -2.03125q-0.03125 -1.0625 -0.03125 -2.4375l0 -3.34375l3.328125 0l0 14.0l-3.109375 0l-7.6250153 -10.28125l0.96875 0.140625q0.140625 1.21875 0.21875 2.03125q0.078125 0.796875 0.125 1.359375q0.046875 0.5625 0.0625 1.0625q0.015625 0.484375 0.015625 1.09375l0 4.59375l-3.34375 0z" fill-rule="nonzero"/><path fill="#ff9900" d="m34.40465 49.648293l76.40686 0l0 0c10.009506 0 18.123817 10.965149 18.123817 24.49134c0 13.526192 -8.114311 24.49134 -18.123817 24.49134l-76.40686 0l0 0c-10.009504 0 -18.123812 -10.965149 -18.123812 -24.49134c0 -13.526192 8.114307 -24.49134 18.123812 -24.49134z" fill-rule="evenodd"/><path stroke="#000000" stroke-width="1.0" stroke-linejoin="round" stroke-linecap="butt" d="m34.40465 49.648293l76.40686 0l0 0c10.009506 0 18.123817 10.965149 18.123817 24.49134c0 13.526192 -8.114311 24.49134 -18.123817 24.49134l-76.40686 0l0 0c-10.009504 0 -18.123812 -10.965149 -18.123812 -24.49134c0 -13.526192 8.114307 -24.49134 18.123812 -24.49134z" fill-rule="evenodd"/><path fill="#000000" d="m47.879353 81.542755q-1.71875 0 -3.03125 -0.671875q-1.3125 -0.6875 -2.25 -2.046875l1.484375 -1.703125q0.96875 1.40625 1.875 1.953125q0.90625 0.53125 2.140625 0.53125q0.765625 0 1.375 -0.234375q0.625 -0.25 0.984375 -0.671875q0.359375 -0.421875 0.359375 -0.953125q0 -0.359375 -0.125 -0.671875q-0.109375 -0.328125 -0.359375 -0.59375q-0.25 -0.265625 -0.640625 -0.484375q-0.390625 -0.21875 -0.921875 -0.390625q-0.515625 -0.171875 -1.1875 -0.28125q-1.078125 -0.21875 -1.890625 -0.578125q-0.796875 -0.359375 -1.34375 -0.90625q-0.53125 -0.546875 -0.796875 -1.234375q-0.25 -0.6875 -0.25 -1.546875q0 -1.140625 0.640625 -2.015625q0.640625 -0.890625 1.71875 -1.390625q1.09375 -0.515625 2.453125 -0.515625q1.625 0 2.828125 0.640625q1.21875 0.625 1.921875 1.828125l-1.53125 1.5q-0.59375 -0.984375 -1.421875 -1.5q-0.828125 -0.53125 -1.859375 -0.53125q-0.765625 0 -1.359375 0.25q-0.578125 0.234375 -0.90625 0.671875q-0.328125 0.421875 -0.328125 1.0q0 0.421875 0.15625 0.78125q0.171875 0.34375 0.5 0.609375q0.328125 0.265625 0.875 0.484375q0.5625 0.203125 1.34375 0.375q1.109375 0.234375 1.96875 0.609375q0.859375 0.359375 1.453125 0.859375q0.609375 0.5 0.90625 1.125q0.3125 0.625 0.3125 1.34375q0 1.34375 -0.625 2.328125q-0.609375 0.96875 -1.75 1.5q-1.140625 0.53125 -2.71875 0.53125zm10.823746 -0.203125l0 -11.921875l-3.921875 0l0 -2.078125l10.109379 0l0 2.078125l-4.031254 0l0 11.921875l-2.15625 0zm6.394993 0l5.421875 -14.0l2.203125 0l5.375 14.0l-2.296875 0l-3.203125 -8.4375q-0.0625 -0.140625 -0.234375 -0.671875q-0.171875 -0.546875 -0.390625 -1.203125q-0.21875 -0.671875 -0.40625 -1.21875q-0.171875 -0.546875 -0.234375 -0.703125l0.46875 -0.03125q-0.125 0.34375 -0.296875 0.875q-0.171875 0.515625 -0.359375 1.09375q-0.1875 0.578125 -0.375 1.09375q-0.171875 0.5 -0.296875 0.84375l-3.171875 8.359375l-2.203125 0zm2.40625 -3.484375l0.796875 -2.078125l6.359375 0l0.921875 2.078125l-8.078125 0zm13.04686 3.484375l0 -14.0l5.96875 0q1.203125 0 2.203125 0.59375q1.015625 0.59375 1.609375 1.609375q0.609375 1.0 0.609375 2.25q0 1.140625 -0.609375 2.125q-0.59375 0.984375 -1.59375 1.578125q-1.0 0.578125 -2.21875 0.578125l-3.796875 0l0 5.265625l-2.171875 0zm8.328125 0l-3.5625 -6.3125l2.21875 -0.5l3.96875 6.828125l-2.625 -0.015625zm-6.15625 -7.34375l4.0 0q0.578125 0 1.03125 -0.28125q0.46875 -0.296875 0.71875 -0.796875q0.265625 -0.515625 0.265625 -1.140625q0 -0.703125 -0.328125 -1.21875q-0.328125 -0.53125 -0.921875 -0.828125q-0.59375 -0.3125 -1.328125 -0.3125l-3.4375 0l0 4.578125zm14.0 7.34375l0 -11.921875l-3.921875 0l0 -2.078125l10.109375 0l0 2.078125l-4.03125 0l0 11.921875l-2.15625 0z" fill-rule="nonzero"/><path fill="#cfe2f3" d="m602.29395 228.22047l95.33862 -75.81102l95.33856 75.81102l-95.33856 75.81102z" fill-rule="evenodd"/><path stroke="#000000" stroke-width="1.0" stroke-linejoin="round" stroke-linecap="butt" d="m602.29395 228.22047l95.33862 -75.81102l95.33856 75.81102l-95.33856 75.81102z" fill-rule="evenodd"/><path fill="#000000" d="m675.5201 235.42047l0 -2.0l2.265625 0l0 -10.0l-2.265625 0l0 -2.0l6.6875 0l0 2.0l-2.265625 0l0 10.0l2.265625 0l0 2.0l-6.6875 0zm15.988098 -0.078125l-0.96875 -1.5l7.1875 -4.125l0 1.34375l-7.1875 -4.125l0.96875 -1.5l7.21875 4.140625l0 1.625l-7.21875 4.140625zm15.767517 0.078125l0 -14.0l1.953125 0l8.546814 11.453125l-0.3125 0.1875q-0.140625 -0.828125 -0.234375 -1.90625q-0.09375 -1.078125 -0.140625 -2.375q-0.03125 -1.296875 -0.03125 -2.765625l0 -4.59375l2.171875 0l0 14.0l-1.984375 0l-8.421814 -11.046875l0.21875 -0.265625q0.140625 1.515625 0.21875 2.484375q0.078125 0.96875 0.109375 1.546875q0.046875 0.578125 0.0625 0.90625q0.015625 0.328125 0.015625 0.5625l0 5.8125l-2.171875 0z" fill-rule="nonzero"/><path fill="#cfe2f3" d="m842.1391 41.49344l181.89508 0l0 65.291336l-181.89508 0z" fill-rule="evenodd"/><path stroke="#000000" stroke-width="1.0" stroke-linejoin="round" stroke-linecap="butt" d="m842.1391 41.49344l181.89508 0l0 65.291336l-181.89508 0z" fill-rule="evenodd"/><path fill="#000000" d="m866.59796 81.54223q-1.71875 0 -3.03125 -0.671875q-1.3125 -0.6875 -2.25 -2.046875l1.484375 -1.703125q0.96875 1.40625 1.875 1.953125q0.90625 0.53125 2.140625 0.53125q0.765625 0 1.375 -0.234375q0.625 -0.25 0.984375 -0.671875q0.359375 -0.421875 0.359375 -0.953125q0 -0.359375 -0.125 -0.671875q-0.109375 -0.328125 -0.359375 -0.59375q-0.25 -0.265625 -0.640625 -0.484375q-0.390625 -0.21875 -0.921875 -0.390625q-0.515625 -0.171875 -1.1875 -0.28125q-1.078125 -0.21875 -1.890625 -0.578125q-0.796875 -0.359375 -1.34375 -0.90625q-0.53125 -0.546875 -0.796875 -1.234375q-0.25 -0.6875 -0.25 -1.546875q0 -1.140625 0.640625 -2.015625q0.640625 -0.890625 1.71875 -1.390625q1.09375 -0.515625 2.453125 -0.515625q1.625 0 2.828125 0.640625q1.21875 0.625 1.921875 1.828125l-1.53125 1.5q-0.59375 -0.984375 -1.421875 -1.5q-0.828125 -0.53125 -1.859375 -0.53125q-0.765625 0 -1.359375 0.25q-0.578125 0.234375 -0.90625 0.671875q-0.328125 0.421875 -0.328125 1.0q0 0.421875 0.15625 0.78125q0.171875 0.34375 0.5 0.609375q0.328125 0.265625 0.875 0.484375q0.5625 0.203125 1.34375 0.375q1.109375 0.234375 1.96875 0.609375q0.859375 0.359375 1.453125 0.859375q0.609375 0.5 0.90625 1.125q0.3125 0.625 0.3125 1.34375q0 1.34375 -0.625 2.328125q-0.609375 0.96875 -1.75 1.5q-1.140625 0.53125 -2.71875 0.53125zm11.32373 0q-1.125 0 -1.953125 -0.515625q-0.828125 -0.53125 -1.28125 -1.46875q-0.453125 -0.9375 -0.453125 -2.234375l0 -6.484375l2.0625 0l0 5.921875q0 1.375 0.640625 2.1875q0.65625 0.796875 1.8125 0.796875q0.59375 0 1.0625 -0.1875q0.484375 -0.203125 0.828125 -0.53125q0.359375 -0.34375 0.546875 -0.828125q0.203125 -0.484375 0.203125 -1.046875l0 -6.3125l2.0625 0l0 10.5l-2.0625 0l0 -2.203125l0.359375 -0.234375q-0.234375 0.734375 -0.8125 1.34375q-0.5625 0.59375 -1.34375 0.953125q-0.78125 0.34375 -1.671875 0.34375zm8.381226 -0.203125l0 -10.5l2.078125 0l0 2.234375l-0.390625 0.25q0.171875 -0.53125 0.515625 -1.0q0.34375 -0.484375 0.859375 -0.84375q0.515625 -0.375 1.09375 -0.59375q0.59375 -0.234375 1.21875 -0.234375q0.90625 0 1.578125 0.3125q0.6875 0.296875 1.125 0.90625q0.4375 0.59375 0.640625 1.484375l-0.328125 -0.078125l0.140625 -0.34375q0.21875 -0.453125 0.609375 -0.859375q0.390625 -0.421875 0.890625 -0.734375q0.5 -0.3125 1.0625 -0.5q0.5625 -0.1875 1.09375 -0.1875q1.1875 0 1.953125 0.484375q0.765625 0.484375 1.15625 1.46875q0.390625 0.96875 0.390625 2.4375l0 6.296875l-2.078125 0l0 -6.1875q0 -1.328125 -0.515625 -1.953125q-0.5 -0.640625 -1.578125 -0.640625q-0.5625 0 -1.0625 0.1875q-0.484375 0.1875 -0.84375 0.53125q-0.359375 0.34375 -0.5625 0.796875q-0.1875 0.453125 -0.1875 0.984375l0 6.28125l-2.078125 0l0 -6.21875q0 -1.234375 -0.53125 -1.890625q-0.53125 -0.671875 -1.53125 -0.671875q-0.5625 0 -1.046875 0.1875q-0.484375 0.1875 -0.84375 0.53125q-0.359375 0.328125 -0.5625 0.78125q-0.1875 0.4375 -0.1875 0.96875l0 6.3125l-2.078125 0zm23.613708 -6.625l0 -1.796875l9.3125 0l0 1.796875l-9.3125 0zm0 3.78125l0 -1.78125l9.3125 0l0 1.78125l-9.3125 0zm22.201233 3.046875q-1.71875 0 -3.03125 -0.671875q-1.3125 -0.6875 -2.25 -2.046875l1.484375 -1.703125q0.96875 1.40625 1.875 1.953125q0.90625 0.53125 2.140625 0.53125q0.765625 0 1.375 -0.234375q0.625 -0.25 0.984375 -0.671875q0.359375 -0.421875 0.359375 -0.953125q0 -0.359375 -0.125 -0.671875q-0.109375 -0.328125 -0.359375 -0.59375q-0.25 -0.265625 -0.640625 -0.484375q-0.390625 -0.21875 -0.921875 -0.390625q-0.515625 -0.171875 -1.1875 -0.28125q-1.078125 -0.21875 -1.890625 -0.578125q-0.796875 -0.359375 -1.34375 -0.90625q-0.53125 -0.546875 -0.796875 -1.234375q-0.25 -0.6875 -0.25 -1.546875q0 -1.140625 0.640625 -2.015625q0.640625 -0.890625 1.71875 -1.390625q1.09375 -0.515625 2.453125 -0.515625q1.625 0 2.828125 0.640625q1.21875 0.625 1.921875 1.828125l-1.53125 1.5q-0.59375 -0.984375 -1.421875 -1.5q-0.828125 -0.53125 -1.859375 -0.53125q-0.765625 0 -1.359375 0.25q-0.578125 0.234375 -0.90625 0.671875q-0.328125 0.421875 -0.328125 1.0q0 0.421875 0.15625 0.78125q0.171875 0.34375 0.5 0.609375q0.328125 0.265625 0.875 0.484375q0.5625 0.203125 1.34375 0.375q1.109375 0.234375 1.96875 0.609375q0.859375 0.359375 1.453125 0.859375q0.609375 0.5 0.90625 1.125q0.3125 0.625 0.3125 1.34375q0 1.34375 -0.625 2.328125q-0.609375 0.96875 -1.75 1.5q-1.140625 0.53125 -2.71875 0.53125zm11.3237915 0q-1.125 0 -1.953125 -0.515625q-0.828125 -0.53125 -1.28125 -1.46875q-0.453125 -0.9375 -0.453125 -2.234375l0 -6.484375l2.0625 0l0 5.921875q0 1.375 0.640625 2.1875q0.65625 0.796875 1.8125 0.796875q0.59375 0 1.0625 -0.1875q0.484375 -0.203125 0.828125 -0.53125q0.359375 -0.34375 0.546875 -0.828125q0.203125 -0.484375 0.203125 -1.046875l0 -6.3125l2.0625 0l0 10.5l-2.0625 0l0 -2.203125l0.359375 -0.234375q-0.234375 0.734375 -0.8125 1.34375q-0.5625 0.59375 -1.34375 0.953125q-0.78125 0.34375 -1.671875 0.34375zm8.381226 -0.203125l0 -10.5l2.078125 0l0 2.234375l-0.390625 0.25q0.171875 -0.53125 0.515625 -1.0q0.34375 -0.484375 0.859375 -0.84375q0.515625 -0.375 1.09375 -0.59375q0.59375 -0.234375 1.21875 -0.234375q0.90625 0 1.578125 0.3125q0.6875 0.296875 1.125 0.90625q0.4375 0.59375 0.640625 1.484375l-0.328125 -0.078125l0.140625 -0.34375q0.21875 -0.453125 0.609375 -0.859375q0.390625 -0.421875 0.890625 -0.734375q0.5 -0.3125 1.0625 -0.5q0.5625 -0.1875 1.09375 -0.1875q1.1875 0 1.953125 0.484375q0.765625 0.484375 1.15625 1.46875q0.390625 0.96875 0.390625 2.4375l0 6.296875l-2.078125 0l0 -6.1875q0 -1.328125 -0.515625 -1.953125q-0.5 -0.640625 -1.578125 -0.640625q-0.5625 0 -1.0625 0.1875q-0.484375 0.1875 -0.84375 0.53125q-0.359375 0.34375 -0.5625 0.796875q-0.1875 0.453125 -0.1875 0.984375l0 6.28125l-2.078125 0l0 -6.21875q0 -1.234375 -0.53125 -1.890625q-0.53125 -0.671875 -1.53125 -0.671875q-0.5625 0 -1.046875 0.1875q-0.484375 0.1875 -0.84375 0.53125q-0.359375 0.328125 -0.5625 0.78125q-0.1875 0.4375 -0.1875 0.96875l0 6.3125l-2.078125 0zm23.519958 -4.703125l0 -1.796875l10.015625 0l0 1.796875l-10.015625 0zm3.9375 3.859375l0 -9.65625l2.09375 0l0 9.65625l-2.09375 0zm13.076233 0.84375l5.421875 -14.0l2.203125 0l5.375 14.0l-2.296875 0l-3.203125 -8.4375q-0.0625 -0.140625 -0.234375 -0.671875q-0.171875 -0.546875 -0.390625 -1.203125q-0.21875 -0.671875 -0.40625 -1.21875q-0.171875 -0.546875 -0.234375 -0.703125l0.46875 -0.03125q-0.125 0.34375 -0.296875 0.875q-0.171875 0.515625 -0.359375 1.09375q-0.1875 0.578125 -0.375 1.09375q-0.171875 0.5 -0.296875 0.84375l-3.171875 8.359375l-2.203125 0zm2.40625 -3.484375l0.796875 -2.078125l6.359375 0l0.921875 2.078125l-8.078125 0z" fill-rule="nonzero"/><path fill="#cfe2f3" d="m842.1391 195.6063l181.89508 0l0 65.29135l-181.89508 0z" fill-rule="evenodd"/><path stroke="#000000" stroke-width="1.0" stroke-linejoin="round" stroke-linecap="butt" d="m842.1391 195.6063l181.89508 0l0 65.29135l-181.89508 0z" fill-rule="evenodd"/><path fill="#000000" d="m897.19415 235.45197l0 -2.0l2.265625 0l0 -10.0l-2.265625 0l0 -2.0l6.6875 0l0 2.0l-2.265625 0l0 10.0l2.265625 0l0 2.0l-6.6875 0zm14.722473 -6.625l0 -1.796875l9.3125 0l0 1.796875l-9.3125 0zm0 3.78125l0 -1.78125l9.3125 0l0 1.78125l-9.3125 0zm17.357483 2.84375l0 -2.0l2.265625 0l0 -10.0l-2.265625 0l0 -2.0l6.6875 0l0 2.0l-2.265625 0l0 10.0l2.265625 0l0 2.0l-6.6875 0zm14.628784 -4.703125l0 -1.796875l10.015625 0l0 1.796875l-10.015625 0zm3.9375 3.859375l0 -9.65625l2.09375 0l0 9.65625l-2.09375 0zm16.919983 -0.140625l0 -11.359375l0.734375 0.5625l-2.765625 1.46875l-0.578125 -1.890625l3.75 -2.0l1.03125 0l0 13.21875l-2.171875 0zm-2.21875 0.984375l0 -2.078125l6.671875 0l0 2.078125l-6.671875 0z" fill-rule="nonzero"/><path fill="#000000" fill-opacity="0.0" d="m128.93533 74.13963l55.55905 0" fill-rule="evenodd"/><path stroke="#000000" stroke-width="2.0" stroke-linejoin="round" stroke-linecap="butt" d="m128.93533 74.13963l43.55905 0" fill-rule="evenodd"/><path fill="#000000" stroke="#000000" stroke-width="2.0" stroke-linecap="butt" d="m172.49438 77.44309l9.076187 -3.3034592l-9.076187 -3.3034668z" fill-rule="evenodd"/><path fill="#000000" fill-opacity="0.0" d="m329.2874 74.13911l55.55905 0" fill-rule="evenodd"/><path stroke="#000000" stroke-width="2.0" stroke-linejoin="round" stroke-linecap="butt" d="m329.2874 74.13911l43.55905 0" fill-rule="evenodd"/><path fill="#000000" stroke="#000000" stroke-width="2.0" stroke-linecap="butt" d="m372.84647 77.44257l9.076172 -3.3034668l-9.076172 -3.3034668z" fill-rule="evenodd"/><path fill="#000000" fill-opacity="0.0" d="m545.96326 74.13911l79.27557 0" fill-rule="evenodd"/><path stroke="#000000" stroke-width="2.0" stroke-linejoin="round" stroke-linecap="butt" d="m545.96326 74.13911l67.27557 0" fill-rule="evenodd"/><path fill="#000000" stroke="#000000" stroke-width="2.0" stroke-linecap="butt" d="m613.23883 77.44257l9.076233 -3.3034668l-9.076233 -3.3034668z" fill-rule="evenodd"/><path fill="#cfe2f3" d="m168.18636 260.83466l16.32283 -65.29135l144.77954 0l-16.322845 65.29135z" fill-rule="evenodd"/><path stroke="#000000" stroke-width="1.0" stroke-linejoin="round" stroke-linecap="butt" d="m168.18636 260.83466l16.32283 -65.29135l144.77954 0l-16.322845 65.29135z" fill-rule="evenodd"/><path fill="#000000" d="m218.93068 223.38898l0 -14.0l5.703125 0q1.140625 0 2.0625 0.578125q0.9375 0.5625 1.5 1.546875q0.5625 0.96875 0.5625 2.171875q0 1.203125 -0.5625 2.1875q-0.5625 0.96875 -1.5 1.5625q-0.921875 0.59375 -2.0625 0.59375l-3.53125 0l0 5.359375l-2.171875 0zm2.171875 -7.4375l3.5 0q0.53125 0 0.96875 -0.3125q0.453125 -0.3125 0.71875 -0.8125q0.265625 -0.515625 0.265625 -1.140625q0 -0.609375 -0.265625 -1.109375q-0.265625 -0.5 -0.71875 -0.796875q-0.4375 -0.3125 -0.96875 -0.3125l-3.5 0l0 4.484375zm10.508118 7.4375l0 -14.0l5.96875 0q1.203125 0 2.203125 0.59375q1.015625 0.59375 1.609375 1.609375q0.609375 1.0 0.609375 2.25q0 1.140625 -0.609375 2.125q-0.59375 0.984375 -1.59375 1.578125q-1.0 0.578125 -2.21875 0.578125l-3.796875 0l0 5.265625l-2.171875 0zm8.328125 0l-3.5625 -6.3125l2.21875 -0.5l3.96875 6.828125l-2.625 -0.015625zm-6.15625 -7.34375l4.0 0q0.578125 0 1.03125 -0.28125q0.46875 -0.296875 0.71875 -0.796875q0.265625 -0.515625 0.265625 -1.140625q0 -0.703125 -0.328125 -1.21875q-0.328125 -0.53125 -0.921875 -0.828125q-0.59375 -0.3125 -1.328125 -0.3125l-3.4375 0l0 4.578125zm11.212494 7.34375l0 -2.0l2.265625 0l0 -10.0l-2.265625 0l0 -2.0l6.6875 0l0 2.0l-2.265625 0l0 10.0l2.265625 0l0 2.0l-6.6875 0zm10.075623 0l0 -14.0l1.9531097 0l8.546875 11.453125l-0.3125 0.1875q-0.140625 -0.828125 -0.234375 -1.90625q-0.09375 -1.078125 -0.140625 -2.375q-0.03125 -1.296875 -0.03125 -2.765625l0 -4.59375l2.171875 0l0 14.0l-1.984375 0l-8.421875 -11.046875l0.21875 -0.265625q0.140625 1.515625 0.21875 2.484375q0.078125 0.96875 0.109375 1.546875q0.046875 0.578125 0.0625 0.90625q0.015625 0.328125 0.015625 0.5625l0 5.8125l-2.1718597 0zm18.531845 0l0 -11.921875l-3.921875 0l0 -2.078125l10.109375 0l0 2.078125l-4.03125 0l0 11.921875l-2.15625 0z" fill-rule="nonzero"/><path fill="#000000" d="m227.84755 247.38898l5.546875 -14.0l2.890625 0l5.5 14.0l-3.4375 0l-2.65625 -7.09375q-0.140625 -0.421875 -0.3125 -0.90625q-0.171875 -0.484375 -0.328125 -1.0q-0.15625 -0.515625 -0.296875 -1.0q-0.140625 -0.484375 -0.25 -0.90625l0.578125 -0.015625q-0.109375 0.5 -0.25 0.984375q-0.140625 0.484375 -0.3125 0.96875q-0.15625 0.46875 -0.328125 0.9375q-0.15625 0.46875 -0.34375 0.96875l-2.640625 7.0625l-3.359375 0zm2.640625 -2.6875l1.078125 -2.59375l6.40625 0l1.078125 2.59375l-8.5625 0zm15.502487 2.6875l-5.609375 -14.0l3.5625 0l2.6875 7.0625q0.234375 0.625 0.40625 1.109375q0.171875 0.46875 0.296875 0.875q0.140625 0.40625 0.25 0.828125q0.125 0.40625 0.265625 0.921875l-0.625 0q0.1875 -0.703125 0.34375 -1.234375q0.15625 -0.546875 0.359375 -1.125q0.203125 -0.578125 0.5 -1.375l2.578125 -7.0625l3.4843903 0l-5.6250153 14.0l-2.875 0zm16.251251 0.203125q-1.671875 0 -3.03125 -0.53125q-1.34375 -0.546875 -2.328125 -1.53125q-0.96875 -0.984375 -1.5 -2.296875q-0.515625 -1.328125 -0.515625 -2.890625q0 -1.546875 0.5625 -2.859375q0.5625 -1.328125 1.5625 -2.3125q1.015625 -0.984375 2.40625 -1.515625q1.390625 -0.546875 3.046875 -0.546875q1.140625 0 2.171875 0.296875q1.03125 0.296875 1.875 0.828125q0.859375 0.515625 1.421875 1.171875l-2.109375 2.203125q-0.71875 -0.671875 -1.546875 -1.0625q-0.828125 -0.390625 -1.875 -0.390625q-0.859375 0 -1.59375 0.3125q-0.71875 0.296875 -1.28125 0.875q-0.546875 0.5625 -0.84375 1.34375q-0.296875 0.765625 -0.296875 1.65625q0 0.90625 0.3125 1.671875q0.328125 0.75 0.890625 1.328125q0.578125 0.5625 1.328125 0.890625q0.765625 0.3125 1.65625 0.3125q0.609375 0 1.140625 -0.1875q0.53125 -0.1875 0.9375 -0.515625q0.421875 -0.328125 0.640625 -0.78125q0.234375 -0.453125 0.234375 -0.96875l0 -0.515625l0.4375 0.671875l-3.8125 0l0 -2.703125l6.578125 0q0.03125 0.21875 0.046875 0.609375q0.03125 0.375 0.03125 0.734375q0.015625 0.34375 0.015625 0.546875q0 1.359375 -0.5 2.484375q-0.484375 1.125 -1.375 1.953125q-0.875 0.8125 -2.078125 1.265625q-1.203125 0.453125 -2.609375 0.453125z" fill-rule="nonzero"/><path fill="#000000" fill-opacity="0.0" d="m385.0328 228.25197l-27.871735 0l0 -0.06298828l-36.033783 0" fill-rule="evenodd"/><path stroke="#000000" stroke-width="2.0" stroke-linejoin="round" stroke-linecap="butt" d="m385.0328 228.25197l-27.871765 0l0 -0.06298828l-29.179565 0" fill-rule="evenodd"/><path fill="#000000" stroke="#000000" stroke-width="2.0" stroke-linecap="butt" d="m327.98148 228.18898l2.249176 -2.249176l-6.1795654 2.249176l6.1795654 2.2491608z" fill-rule="evenodd"/><path fill="#ff9900" d="m34.40334 203.69817l76.40686 0l0 0c10.009506 0 18.123817 10.965149 18.123817 24.491333c0 13.526199 -8.114311 24.491348 -18.123817 24.491348l-76.40686 0l0 0c-10.009504 0 -18.123812 -10.965149 -18.123812 -24.491348c0 -13.526184 8.114307 -24.491333 18.123812 -24.491333z" fill-rule="evenodd"/><path stroke="#000000" stroke-width="1.0" stroke-linejoin="round" stroke-linecap="butt" d="m34.40334 203.69817l76.40686 0l0 0c10.009506 0 18.123817 10.965149 18.123817 24.491333c0 13.526199 -8.114311 24.491348 -18.123817 24.491348l-76.40686 0l0 0c-10.009504 0 -18.123812 -10.965149 -18.123812 -24.491348c0 -13.526184 8.114307 -24.491333 18.123812 -24.491333z" fill-rule="evenodd"/><path fill="#000000" d="m53.02804 235.59262q-1.71875 0 -3.03125 -0.671875q-1.3125 -0.6875 -2.25 -2.046875l1.484375 -1.703125q0.96875 1.40625 1.875 1.953125q0.90625 0.53125 2.140625 0.53125q0.765625 0 1.375 -0.234375q0.625 -0.25 0.984375 -0.671875q0.359375 -0.421875 0.359375 -0.953125q0 -0.359375 -0.125 -0.671875q-0.109375 -0.328125 -0.359375 -0.59375q-0.25 -0.265625 -0.640625 -0.484375q-0.390625 -0.21875 -0.921875 -0.390625q-0.515625 -0.171875 -1.1875 -0.28125q-1.078125 -0.21875 -1.890625 -0.578125q-0.796875 -0.359375 -1.34375 -0.90625q-0.53125 -0.546875 -0.796875 -1.234375q-0.25 -0.6875 -0.25 -1.546875q0 -1.140625 0.640625 -2.015625q0.640625 -0.890625 1.71875 -1.390625q1.09375 -0.515625 2.453125 -0.515625q1.625 0 2.828125 0.640625q1.21875 0.625 1.921875 1.828125l-1.53125 1.5q-0.59375 -0.984375 -1.421875 -1.5q-0.828125 -0.53125 -1.859375 -0.53125q-0.765625 0 -1.359375 0.25q-0.578125 0.234375 -0.90625 0.671875q-0.328125 0.421875 -0.328125 1.0q0 0.421875 0.15625 0.78125q0.171875 0.34375 0.5 0.609375q0.328125 0.265625 0.875 0.484375q0.5625 0.203125 1.34375 0.375q1.109375 0.234375 1.96875 0.609375q0.859375 0.359375 1.453125 0.859375q0.609375 0.5 0.90625 1.125q0.3125 0.625 0.3125 1.34375q0 1.34375 -0.625 2.328125q-0.609375 0.96875 -1.75 1.5q-1.140625 0.53125 -2.71875 0.53125zm10.823746 -0.203125l0 -11.921875l-3.921875 0l0 -2.078125l10.109379 0l0 2.078125l-4.03125 0l0 11.921875l-2.1562538 0zm14.107487 0.203125q-1.46875 0 -2.71875 -0.53125q-1.25 -0.546875 -2.1875 -1.515625q-0.921875 -0.96875 -1.4375 -2.28125q-0.515625 -1.3125 -0.515625 -2.875q0 -1.5625 0.515625 -2.875q0.515625 -1.3125 1.4375 -2.28125q0.9375 -0.96875 2.1875 -1.5q1.25 -0.546875 2.71875 -0.546875q1.484375 0 2.734375 0.546875q1.25 0.53125 2.171875 1.515625q0.9375 0.984375 1.453125 2.296875q0.515625 1.296875 0.515625 2.84375q0 1.546875 -0.515625 2.859375q-0.515625 1.296875 -1.453125 2.28125q-0.921875 0.984375 -2.171875 1.53125q-1.25 0.53125 -2.734375 0.53125zm0 -2.109375q1.03125 0 1.875 -0.375q0.859375 -0.375 1.46875 -1.0625q0.625 -0.703125 0.96875 -1.625q0.359375 -0.9375 0.359375 -2.03125q0 -1.09375 -0.359375 -2.015625q-0.34375 -0.9375 -0.96875 -1.625q-0.609375 -0.703125 -1.46875 -1.078125q-0.84375 -0.375 -1.875 -0.375q-1.015625 0 -1.875 0.375q-0.84375 0.375 -1.46875 1.0625q-0.625 0.671875 -0.96875 1.609375q-0.34375 0.921875 -0.34375 2.046875q0 1.484375 0.59375 2.640625q0.609375 1.140625 1.65625 1.796875q1.046875 0.65625 2.40625 0.65625zm9.7806015 1.90625l0 -14.0l5.703125 0q1.140625 0 2.0625 0.578125q0.9375 0.5625 1.5 1.546875q0.5625 0.96875 0.5625 2.171875q0 1.203125 -0.5625 2.1875q-0.5625 0.96875 -1.5 1.5625q-0.921875 0.59375 -2.0625 0.59375l-3.53125 0l0 5.359375l-2.171875 0zm2.171875 -7.4375l3.5 0q0.53125 0 0.96875 -0.3125q0.453125 -0.3125 0.71875 -0.8125q0.265625 -0.515625 0.265625 -1.140625q0 -0.609375 -0.265625 -1.109375q-0.265625 -0.5 -0.71875 -0.796875q-0.4375 -0.3125 -0.96875 -0.3125l-3.5 0l0 4.484375z" fill-rule="nonzero"/><path fill="#000000" fill-opacity="0.0" d="m176.34776 228.18898l-27.78775 0l0 0.06298828l-19.613815 0" fill-rule="evenodd"/><path stroke="#000000" stroke-width="2.0" stroke-linejoin="round" stroke-linecap="butt" d="m176.34776 228.18898l-27.78775 0l0 0.06298828l-7.6138153 0" fill-rule="evenodd"/><path fill="#000000" stroke="#000000" stroke-width="2.0" stroke-linecap="butt" d="m140.9462 224.9485l-9.076202 3.3034668l9.076202 3.3034668z" fill-rule="evenodd"/><path fill="#000000" fill-opacity="0.0" d="m842.1391 228.25197l-24.584167 0l0 0.06298828l-24.581177 0" fill-rule="evenodd"/><path stroke="#000000" stroke-width="2.0" stroke-linejoin="round" stroke-linecap="butt" d="m842.1391 228.25197l-24.584167 0l0 0.06298828l-24.581177 0" fill-rule="evenodd"/><path fill="#000000" fill-opacity="0.0" d="m20.236221 314.9895l322.83466 0l0 33.921265l-322.83466 0z" fill-rule="evenodd"/><path fill="#000000" d="m36.07997 333.46262q0.125 0 0.21875 0.109375l0.640625 0.6875q-0.53125 0.65625 -1.296875 1.0q-0.765625 0.34375 -1.859375 0.34375q-0.953125 0 -1.734375 -0.328125q-0.765625 -0.328125 -1.3125 -0.90625q-0.546875 -0.59375 -0.84375 -1.40625q-0.28125 -0.828125 -0.28125 -1.796875q0 -0.96875 0.3125 -1.78125q0.328125 -0.8125 0.921875 -1.40625q0.59375 -0.59375 1.40625 -0.90625q0.8125 -0.328125 1.8125 -0.328125q0.96875 0 1.6875 0.3125q0.71875 0.296875 1.234375 0.8125l-0.53125 0.75q-0.0625 0.0625 -0.140625 0.125q-0.0625 0.046875 -0.203125 0.046875q-0.125 0 -0.28125 -0.109375q-0.140625 -0.109375 -0.359375 -0.234375q-0.21875 -0.125 -0.5625 -0.21875q-0.34375 -0.109375 -0.859375 -0.109375q-0.609375 0 -1.125 0.21875q-0.515625 0.203125 -0.890625 0.59375q-0.359375 0.390625 -0.578125 0.96875q-0.203125 0.5625 -0.203125 1.265625q0 0.734375 0.203125 1.3125q0.21875 0.5625 0.5625 0.953125q0.359375 0.390625 0.84375 0.609375q0.484375 0.203125 1.03125 0.203125q0.328125 0 0.59375 -0.03125q0.265625 -0.046875 0.484375 -0.125q0.234375 -0.078125 0.4375 -0.203125q0.203125 -0.125 0.390625 -0.296875q0.0625 -0.0625 0.125 -0.09375q0.078125 -0.03125 0.15625 -0.03125zm10.405426 -2.296875q0 0.953125 -0.328125 1.765625q-0.3125 0.8125 -0.890625 1.421875q-0.578125 0.59375 -1.390625 0.921875q-0.796875 0.328125 -1.78125 0.328125q-0.984375 0 -1.796875 -0.328125q-0.8125 -0.328125 -1.40625 -0.921875q-0.578125 -0.609375 -0.890625 -1.421875q-0.3125 -0.8125 -0.3125 -1.765625q0 -0.953125 0.3125 -1.765625q0.3125 -0.8125 0.890625 -1.40625q0.59375 -0.59375 1.40625 -0.921875q0.8125 -0.328125 1.796875 -0.328125q0.984375 0 1.78125 0.34375q0.8125 0.328125 1.390625 0.921875q0.578125 0.578125 0.890625 1.390625q0.328125 0.8125 0.328125 1.765625zm-1.65625 0q0 -0.703125 -0.203125 -1.265625q-0.1875 -0.578125 -0.546875 -0.96875q-0.34375 -0.40625 -0.859375 -0.609375q-0.5 -0.203125 -1.125 -0.203125q-0.640625 0 -1.15625 0.203125q-0.5 0.203125 -0.859375 0.609375q-0.359375 0.390625 -0.5625 0.96875q-0.1875 0.5625 -0.1875 1.265625q0 0.71875 0.1875 1.296875q0.203125 0.5625 0.5625 0.953125q0.359375 0.390625 0.859375 0.609375q0.515625 0.203125 1.15625 0.203125q0.625 0 1.125 -0.203125q0.515625 -0.21875 0.859375 -0.609375q0.359375 -0.390625 0.546875 -0.953125q0.203125 -0.578125 0.203125 -1.296875zm4.5940704 1.296875l0 3.046875l-1.609375 0l0 -8.671875l2.8125 0q0.875 0 1.5 0.203125q0.640625 0.203125 1.046875 0.578125q0.421875 0.359375 0.625 0.875q0.203125 0.5 0.203125 1.109375q0 0.625 -0.21875 1.15625q-0.203125 0.515625 -0.625 0.90625q-0.421875 0.375 -1.046875 0.59375q-0.625 0.203125 -1.484375 0.203125l-1.203125 0zm0 -1.265625l1.203125 0q0.453125 0 0.78125 -0.109375q0.328125 -0.109375 0.546875 -0.3125q0.21875 -0.21875 0.328125 -0.515625q0.109375 -0.296875 0.109375 -0.65625q0 -0.359375 -0.109375 -0.640625q-0.109375 -0.28125 -0.328125 -0.46875q-0.21875 -0.203125 -0.546875 -0.296875q-0.328125 -0.109375 -0.78125 -0.109375l-1.203125 0l0 3.109375zm9.687546 0.9375l0 3.375l-1.609375 0l0 -3.375l-3.171875 -5.296875l1.421875 0q0.21875 0 0.34375 0.109375q0.125 0.09375 0.203125 0.25l1.59375 2.890625q0.125 0.265625 0.234375 0.5q0.109375 0.21875 0.1875 0.453125q0.078125 -0.234375 0.171875 -0.46875q0.109375 -0.234375 0.234375 -0.484375l1.578125 -2.890625q0.078125 -0.140625 0.203125 -0.25q0.140625 -0.109375 0.34375 -0.109375l1.421875 0l-3.15625 5.296875zm5.6665497 -0.015625l0 3.390625l-1.609375 0l0 -8.671875l2.640625 0q0.890625 0 1.515625 0.1875q0.640625 0.171875 1.046875 0.5q0.40625 0.328125 0.59375 0.796875q0.1875 0.453125 0.1875 1.0q0 0.453125 -0.140625 0.84375q-0.125 0.375 -0.375 0.703125q-0.234375 0.3125 -0.59375 0.5625q-0.359375 0.234375 -0.8125 0.375q0.3125 0.171875 0.53125 0.5l2.171875 3.203125l-1.453125 0q-0.203125 0 -0.359375 -0.078125q-0.140625 -0.09375 -0.25 -0.25l-1.8125 -2.78125q-0.109375 -0.15625 -0.234375 -0.21875q-0.125 -0.0625 -0.359375 -0.0625l-0.6875 0zm0 -1.15625l1.0 0q0.46875 0 0.796875 -0.109375q0.34375 -0.125 0.5625 -0.3125q0.21875 -0.203125 0.328125 -0.484375q0.109375 -0.28125 0.109375 -0.609375q0 -0.65625 -0.4375 -1.0q-0.4375 -0.359375 -1.328125 -0.359375l-1.03125 0l0 2.875zm8.000687 4.546875l-1.609375 0l0 -8.671875l1.609375 0l0 8.671875zm5.9398956 -1.1875q0.546875 0 0.953125 -0.09375q0.40625 -0.109375 0.765625 -0.28125l0 -1.578125l-1.078125 0q-0.15625 0 -0.25 -0.078125q-0.09375 -0.09375 -0.09375 -0.21875l0 -0.90625l2.890625 0l0 3.5q-0.328125 0.25 -0.6875 0.421875q-0.359375 0.171875 -0.765625 0.296875q-0.40625 0.109375 -0.875 0.15625q-0.453125 0.0625 -0.984375 0.0625q-0.953125 0 -1.75 -0.328125q-0.796875 -0.328125 -1.375 -0.90625q-0.578125 -0.59375 -0.90625 -1.40625q-0.328125 -0.828125 -0.328125 -1.796875q0 -0.96875 0.3125 -1.78125q0.328125 -0.828125 0.90625 -1.40625q0.578125 -0.59375 1.40625 -0.90625q0.84375 -0.328125 1.890625 -0.328125q1.0625 0 1.828125 0.3125q0.78125 0.3125 1.328125 0.8125l-0.46875 0.734375q-0.140625 0.21875 -0.375 0.21875q-0.140625 0 -0.296875 -0.09375q-0.1875 -0.109375 -0.390625 -0.21875q-0.203125 -0.125 -0.453125 -0.203125q-0.234375 -0.09375 -0.546875 -0.140625q-0.296875 -0.046875 -0.6875 -0.046875q-0.640625 0 -1.15625 0.21875q-0.515625 0.203125 -0.890625 0.609375q-0.359375 0.40625 -0.5625 0.96875q-0.203125 0.5625 -0.203125 1.25q0 0.75 0.203125 1.34375q0.21875 0.578125 0.59375 0.984375q0.390625 0.40625 0.90625 0.625q0.515625 0.203125 1.140625 0.203125zm12.019806 1.1875l-1.640625 0l0 -3.796875l-4.0625 0l0 3.796875l-1.625 0l0 -8.671875l1.625 0l0 3.734375l4.0625 0l0 -3.734375l1.640625 0l0 8.671875zm7.8533173 -8.671875l0 1.328125l-2.609375 0l0 7.34375l-1.609375 0l0 -7.34375l-2.625 0l0 -1.328125l6.84375 0zm8.581055 5.59375q0.0625 0 0.109375 0.03125q0.0625 0.03125 0.09375 0.078125l0.484375 0.515625q-0.328125 0.4375 -0.84375 0.65625q-0.5 0.21875 -1.1875 0.21875q-0.609375 0 -1.09375 -0.203125q-0.484375 -0.21875 -0.828125 -0.59375q-0.34375 -0.375 -0.53125 -0.875q-0.1875 -0.515625 -0.1875 -1.109375q0 -0.609375 0.203125 -1.109375q0.21875 -0.515625 0.578125 -0.875q0.375 -0.375 0.875 -0.578125q0.515625 -0.21875 1.09375 -0.21875q0.671875 0 1.140625 0.234375q0.484375 0.21875 0.8125 0.5625l-0.390625 0.546875q-0.03125 0.046875 -0.09375 0.09375q-0.0625 0.046875 -0.15625 0.046875q-0.109375 0 -0.203125 -0.0625q-0.09375 -0.0625 -0.21875 -0.125q-0.125 -0.078125 -0.3125 -0.140625q-0.1875 -0.0625 -0.5 -0.0625q-0.359375 0 -0.640625 0.125q-0.28125 0.109375 -0.484375 0.328125q-0.1875 0.21875 -0.296875 0.53125q-0.09375 0.3125 -0.09375 0.703125q0 0.40625 0.09375 0.71875q0.109375 0.3125 0.296875 0.53125q0.1875 0.21875 0.4375 0.328125q0.265625 0.109375 0.5625 0.109375q0.296875 0 0.484375 -0.046875q0.1875 -0.046875 0.3125 -0.109375q0.140625 -0.078125 0.234375 -0.140625q0.109375 -0.0625 0.25 -0.109375zm-5.796875 -1.265625q0 -0.609375 0.15625 -1.171875q0.171875 -0.5625 0.453125 -1.046875q0.296875 -0.5 0.6875 -0.90625q0.40625 -0.40625 0.890625 -0.6875q0.5 -0.296875 1.0625 -0.453125q0.578125 -0.15625 1.1875 -0.15625q0.609375 0 1.171875 0.15625q0.5625 0.15625 1.046875 0.453125q0.5 0.28125 0.90625 0.6875q0.40625 0.40625 0.6875 0.90625q0.296875 0.484375 0.453125 1.046875q0.171875 0.5625 0.171875 1.171875q0 0.609375 -0.171875 1.1875q-0.15625 0.5625 -0.453125 1.046875q-0.28125 0.484375 -0.6875 0.890625q-0.40625 0.40625 -0.90625 0.703125q-0.484375 0.28125 -1.046875 0.4375q-0.5625 0.15625 -1.171875 0.15625q-0.609375 0 -1.1875 -0.15625q-0.5625 -0.15625 -1.0625 -0.4375q-0.484375 -0.296875 -0.890625 -0.703125q-0.390625 -0.40625 -0.6875 -0.890625q-0.28125 -0.484375 -0.453125 -1.046875q-0.15625 -0.5625 -0.15625 -1.1875zm0.8125 0q0 0.78125 0.28125 1.46875q0.28125 0.671875 0.765625 1.171875q0.484375 0.5 1.140625 0.796875q0.671875 0.28125 1.4375 0.28125q0.765625 0 1.421875 -0.28125q0.671875 -0.296875 1.15625 -0.796875q0.5 -0.5 0.78125 -1.171875q0.28125 -0.6875 0.28125 -1.46875q0 -0.515625 -0.140625 -0.984375q-0.125 -0.484375 -0.359375 -0.90625q-0.234375 -0.421875 -0.5625 -0.75q-0.328125 -0.34375 -0.734375 -0.578125q-0.40625 -0.25 -0.875 -0.375q-0.46875 -0.140625 -0.96875 -0.140625q-0.515625 0 -0.984375 0.140625q-0.453125 0.125 -0.859375 0.375q-0.40625 0.234375 -0.734375 0.578125q-0.328125 0.328125 -0.5625 0.75q-0.234375 0.421875 -0.359375 0.90625q-0.125 0.46875 -0.125 0.984375zm13.610947 -1.921875q0.390625 0 0.734375 0.078125q0.359375 0.078125 0.640625 0.234375l1.78125 0l0 0.5625q0 0.140625 -0.078125 0.21875q-0.078125 0.078125 -0.25 0.109375l-0.546875 0.09375q0.0625 0.15625 0.09375 0.328125q0.03125 0.171875 0.03125 0.375q0 0.453125 -0.1875 0.828125q-0.171875 0.359375 -0.5 0.625q-0.328125 0.25 -0.765625 0.390625q-0.4375 0.140625 -0.953125 0.140625q-0.34375 0 -0.671875 -0.0625q-0.296875 0.171875 -0.296875 0.390625q0 0.1875 0.171875 0.28125q0.171875 0.078125 0.453125 0.109375q0.28125 0.03125 0.625 0.046875q0.359375 0.015625 0.734375 0.046875q0.375 0.015625 0.71875 0.09375q0.359375 0.078125 0.640625 0.25q0.28125 0.15625 0.453125 0.4375q0.171875 0.28125 0.171875 0.71875q0 0.40625 -0.203125 0.78125q-0.203125 0.390625 -0.59375 0.6875q-0.375 0.296875 -0.9375 0.484375q-0.546875 0.1875 -1.25 0.1875q-0.703125 0 -1.21875 -0.140625q-0.515625 -0.140625 -0.859375 -0.359375q-0.328125 -0.21875 -0.5 -0.515625q-0.171875 -0.296875 -0.171875 -0.609375q0 -0.4375 0.265625 -0.734375q0.265625 -0.296875 0.734375 -0.46875q-0.234375 -0.125 -0.375 -0.328125q-0.125 -0.21875 -0.125 -0.546875q0 -0.140625 0.046875 -0.28125q0.046875 -0.15625 0.140625 -0.296875q0.109375 -0.140625 0.25 -0.265625q0.15625 -0.140625 0.359375 -0.234375q-0.46875 -0.265625 -0.734375 -0.671875q-0.265625 -0.421875 -0.265625 -0.984375q0 -0.46875 0.171875 -0.828125q0.1875 -0.375 0.515625 -0.625q0.328125 -0.265625 0.765625 -0.40625q0.453125 -0.140625 0.984375 -0.140625zm1.625 6.546875q0 -0.1875 -0.109375 -0.296875q-0.109375 -0.109375 -0.296875 -0.171875q-0.1875 -0.078125 -0.4375 -0.09375q-0.234375 -0.03125 -0.515625 -0.046875q-0.28125 -0.015625 -0.578125 -0.03125q-0.296875 -0.015625 -0.578125 -0.046875q-0.25 0.125 -0.40625 0.328125q-0.15625 0.1875 -0.15625 0.421875q0 0.171875 0.078125 0.3125q0.09375 0.140625 0.265625 0.234375q0.171875 0.109375 0.453125 0.15625q0.296875 0.0625 0.703125 0.0625q0.40625 0 0.703125 -0.0625q0.3125 -0.0625 0.5 -0.171875q0.203125 -0.109375 0.28125 -0.265625q0.09375 -0.15625 0.09375 -0.328125zm-1.625 -3.515625q0.28125 0 0.484375 -0.0625q0.203125 -0.078125 0.328125 -0.203125q0.140625 -0.140625 0.203125 -0.328125q0.078125 -0.1875 0.078125 -0.40625q0 -0.453125 -0.28125 -0.71875q-0.265625 -0.265625 -0.8125 -0.265625q-0.546875 0 -0.828125 0.265625q-0.265625 0.265625 -0.265625 0.71875q0 0.21875 0.0625 0.40625q0.078125 0.1875 0.203125 0.328125q0.140625 0.125 0.34375 0.203125q0.21875 0.0625 0.484375 0.0625zm5.663162 -2.921875l0 6.15625l-1.484375 0l0 -6.15625l1.484375 0zm0.21875 -1.796875q0 0.1875 -0.078125 0.359375q-0.078125 0.171875 -0.21875 0.296875q-0.125 0.125 -0.296875 0.203125q-0.171875 0.078125 -0.375 0.078125q-0.1875 0 -0.359375 -0.078125q-0.171875 -0.078125 -0.296875 -0.203125q-0.125 -0.125 -0.203125 -0.296875q-0.0625 -0.171875 -0.0625 -0.359375q0 -0.1875 0.0625 -0.359375q0.078125 -0.1875 0.203125 -0.3125q0.125 -0.125 0.296875 -0.1875q0.171875 -0.078125 0.359375 -0.078125q0.203125 0 0.375 0.078125q0.171875 0.0625 0.296875 0.1875q0.140625 0.125 0.21875 0.3125q0.078125 0.171875 0.078125 0.359375zm3.4707794 8.046875q-0.796875 0 -1.234375 -0.453125q-0.421875 -0.453125 -0.421875 -1.25l0 -3.4375l-0.625 0q-0.125 0 -0.21875 -0.078125q-0.078125 -0.078125 -0.078125 -0.234375l0 -0.59375l0.984375 -0.15625l0.3125 -1.671875q0.03125 -0.125 0.109375 -0.1875q0.09375 -0.078125 0.21875 -0.078125l0.78125 0l0 1.9375l1.609375 0l0 1.0625l-1.609375 0l0 3.34375q0 0.28125 0.140625 0.453125q0.140625 0.15625 0.375 0.15625q0.140625 0 0.234375 -0.03125q0.09375 -0.03125 0.15625 -0.0625q0.078125 -0.046875 0.125 -0.078125q0.0625 -0.03125 0.109375 -0.03125q0.078125 0 0.109375 0.03125q0.046875 0.03125 0.09375 0.09375l0.4375 0.71875q-0.3125 0.265625 -0.734375 0.40625q-0.421875 0.140625 -0.875 0.140625zm2.6284027 -0.09375l0 -8.921875l1.484375 0l0 3.4375q0.359375 -0.34375 0.78125 -0.546875q0.4375 -0.21875 1.015625 -0.21875q0.5 0 0.890625 0.171875q0.390625 0.171875 0.65625 0.484375q0.265625 0.296875 0.390625 0.734375q0.140625 0.421875 0.140625 0.9375l0 3.921875l-1.484375 0l0 -3.921875q0 -0.5625 -0.265625 -0.859375q-0.25 -0.3125 -0.78125 -0.3125q-0.375 0 -0.71875 0.171875q-0.328125 0.171875 -0.625 0.46875l0 4.453125l-1.484375 0zm8.165802 -6.15625l0 3.90625q0 0.5625 0.265625 0.875q0.265625 0.3125 0.78125 0.3125q0.390625 0 0.71875 -0.171875q0.34375 -0.171875 0.640625 -0.46875l0 -4.453125l1.484375 0l0 6.15625l-0.90625 0q-0.28125 0 -0.375 -0.265625l-0.109375 -0.5q-0.1875 0.203125 -0.390625 0.359375q-0.203125 0.15625 -0.4375 0.265625q-0.234375 0.109375 -0.5 0.171875q-0.265625 0.0625 -0.578125 0.0625q-0.5 0 -0.890625 -0.171875q-0.375 -0.171875 -0.640625 -0.484375q-0.265625 -0.3125 -0.40625 -0.734375q-0.125 -0.4375 -0.125 -0.953125l0 -3.90625l1.46875 0zm5.493927 6.15625l0 -8.921875l1.484375 0l0 3.515625q0.359375 -0.390625 0.8125 -0.609375q0.46875 -0.234375 1.09375 -0.234375q0.5 0 0.90625 0.203125q0.421875 0.203125 0.71875 0.609375q0.3125 0.390625 0.46875 0.984375q0.171875 0.578125 0.171875 1.328125q0 0.6875 -0.1875 1.28125q-0.171875 0.578125 -0.53125 1.015625q-0.34375 0.4375 -0.828125 0.6875q-0.484375 0.234375 -1.09375 0.234375q-0.28125 0 -0.515625 -0.0625q-0.234375 -0.0625 -0.4375 -0.15625q-0.1875 -0.109375 -0.359375 -0.25q-0.15625 -0.140625 -0.296875 -0.328125l-0.078125 0.421875q-0.03125 0.15625 -0.125 0.21875q-0.078125 0.0625 -0.234375 0.0625l-0.96875 0zm2.875 -5.09375q-0.453125 0 -0.78125 0.203125q-0.328125 0.1875 -0.609375 0.53125l0 2.765625q0.25 0.3125 0.546875 0.4375q0.296875 0.125 0.640625 0.125q0.34375 0 0.609375 -0.125q0.265625 -0.140625 0.453125 -0.390625q0.1875 -0.265625 0.28125 -0.65625q0.109375 -0.390625 0.109375 -0.921875q0 -0.546875 -0.09375 -0.921875q-0.078125 -0.375 -0.234375 -0.609375q-0.15625 -0.234375 -0.390625 -0.328125q-0.234375 -0.109375 -0.53125 -0.109375zm3.590042 4.28125q0 -0.1875 0.0625 -0.359375q0.078125 -0.171875 0.203125 -0.28125q0.125 -0.125 0.28125 -0.1875q0.171875 -0.078125 0.359375 -0.078125q0.1875 0 0.359375 0.078125q0.171875 0.0625 0.28125 0.1875q0.125 0.109375 0.1875 0.28125q0.078125 0.171875 0.078125 0.359375q0 0.1875 -0.078125 0.359375q-0.0625 0.15625 -0.1875 0.28125q-0.109375 0.125 -0.28125 0.1875q-0.171875 0.0625 -0.359375 0.0625q-0.1875 0 -0.359375 -0.0625q-0.15625 -0.0625 -0.28125 -0.1875q-0.125 -0.125 -0.203125 -0.28125q-0.0625 -0.171875 -0.0625 -0.359375zm7.387512 -4.046875q-0.078125 0.09375 -0.140625 0.140625q-0.0625 0.046875 -0.171875 0.046875q-0.125 0 -0.234375 -0.0625q-0.109375 -0.078125 -0.265625 -0.15625q-0.140625 -0.09375 -0.34375 -0.15625q-0.203125 -0.078125 -0.515625 -0.078125q-0.390625 0 -0.6875 0.140625q-0.28125 0.140625 -0.484375 0.40625q-0.1875 0.265625 -0.296875 0.640625q-0.09375 0.375 -0.09375 0.84375q0 0.5 0.109375 0.890625q0.109375 0.375 0.296875 0.640625q0.203125 0.25 0.484375 0.390625q0.28125 0.140625 0.640625 0.140625q0.359375 0 0.578125 -0.09375q0.21875 -0.09375 0.359375 -0.1875q0.15625 -0.109375 0.265625 -0.1875q0.109375 -0.09375 0.25 -0.09375q0.171875 0 0.265625 0.140625l0.421875 0.53125q-0.234375 0.296875 -0.53125 0.5q-0.28125 0.1875 -0.59375 0.3125q-0.3125 0.109375 -0.640625 0.15625q-0.328125 0.046875 -0.65625 0.046875q-0.5625 0 -1.078125 -0.21875q-0.5 -0.21875 -0.875 -0.625q-0.375 -0.40625 -0.59375 -0.984375q-0.21875 -0.59375 -0.21875 -1.359375q0 -0.671875 0.1875 -1.25q0.203125 -0.578125 0.578125 -1.0q0.390625 -0.421875 0.9375 -0.65625q0.5625 -0.25 1.28125 -0.25q0.703125 0 1.21875 0.21875q0.515625 0.21875 0.9375 0.640625l-0.390625 0.53125zm4.02092 -1.390625q0.6875 0 1.25 0.21875q0.5625 0.21875 0.953125 0.640625q0.40625 0.40625 0.609375 1.0q0.21875 0.578125 0.21875 1.296875q0 0.734375 -0.21875 1.328125q-0.203125 0.578125 -0.609375 1.0q-0.390625 0.40625 -0.953125 0.640625q-0.5625 0.21875 -1.25 0.21875q-0.6875 0 -1.25 -0.21875q-0.5625 -0.234375 -0.96875 -0.640625q-0.40625 -0.421875 -0.625 -1.0q-0.21875 -0.59375 -0.21875 -1.328125q0 -0.71875 0.21875 -1.296875q0.21875 -0.59375 0.625 -1.0q0.40625 -0.421875 0.96875 -0.640625q0.5625 -0.21875 1.25 -0.21875zm0 5.203125q0.765625 0 1.125 -0.515625q0.375 -0.515625 0.375 -1.515625q0 -1.0 -0.375 -1.515625q-0.359375 -0.53125 -1.125 -0.53125q-0.78125 0 -1.15625 0.53125q-0.375 0.53125 -0.375 1.515625q0 0.984375 0.375 1.515625q0.375 0.515625 1.15625 0.515625zm4.197052 1.046875l0 -6.15625l0.90625 0q0.28125 0 0.375 0.265625l0.09375 0.453125q0.15625 -0.171875 0.328125 -0.3125q0.1875 -0.15625 0.390625 -0.265625q0.203125 -0.109375 0.421875 -0.171875q0.234375 -0.0625 0.515625 -0.0625q0.578125 0 0.953125 0.3125q0.375 0.3125 0.5625 0.84375q0.140625 -0.3125 0.359375 -0.53125q0.21875 -0.21875 0.46875 -0.359375q0.265625 -0.140625 0.546875 -0.203125q0.296875 -0.0625 0.59375 -0.0625q0.515625 0 0.90625 0.15625q0.390625 0.15625 0.65625 0.453125q0.28125 0.296875 0.421875 0.734375q0.140625 0.4375 0.140625 0.984375l0 3.921875l-1.484375 0l0 -3.921875q0 -0.578125 -0.265625 -0.875q-0.25 -0.296875 -0.75 -0.296875q-0.21875 0 -0.421875 0.078125q-0.1875 0.078125 -0.34375 0.21875q-0.140625 0.140625 -0.234375 0.375q-0.078125 0.21875 -0.078125 0.5l0 3.921875l-1.484375 0l0 -3.921875q0 -0.609375 -0.25 -0.890625q-0.25 -0.28125 -0.734375 -0.28125q-0.3125 0 -0.59375 0.15625q-0.28125 0.15625 -0.515625 0.4375l0 4.5l-1.484375 0zm10.61969 0.015625q-0.0625 0.140625 -0.140625 0.234375q-0.078125 0.109375 -0.1875 0.171875q-0.109375 0.078125 -0.234375 0.109375q-0.125 0.03125 -0.234375 0.03125l-0.625 0l3.5 -8.953125q0.109375 -0.25 0.296875 -0.390625q0.1875 -0.140625 0.46875 -0.140625l0.625 0l-3.46875 8.9375zm11.534653 -0.015625l-1.640625 0l0 -3.796875l-4.0625 0l0 3.796875l-1.625 0l0 -8.671875l1.625 0l0 3.734375l4.0625 0l0 -3.734375l1.640625 0l0 8.671875zm5.2439423 -1.296875q0.46875 0 0.828125 -0.15625q0.375 -0.15625 0.625 -0.4375q0.25 -0.28125 0.390625 -0.6875q0.140625 -0.40625 0.140625 -0.90625l0 -5.1875l1.609375 0l0 5.1875q0 0.78125 -0.25 1.4375q-0.25 0.65625 -0.71875 1.140625q-0.46875 0.46875 -1.140625 0.734375q-0.65625 0.265625 -1.484375 0.265625q-0.84375 0 -1.515625 -0.265625q-0.65625 -0.265625 -1.125 -0.734375q-0.46875 -0.484375 -0.71875 -1.140625q-0.234375 -0.65625 -0.234375 -1.4375l0 -5.1875l1.609375 0l0 5.1875q0 0.5 0.125 0.90625q0.140625 0.390625 0.390625 0.6875q0.25 0.28125 0.625 0.4375q0.375 0.15625 0.84375 0.15625zm11.345444 -7.375l0 1.328125l-2.609375 0l0 7.34375l-1.609375 0l0 -7.34375l-2.625 0l0 -1.328125l6.84375 0zm-0.33058167 4.4375l3.109375 0l0 1.234375l-3.109375 0l0 -1.234375zm10.558029 2.1875q0.125 0 0.21875 0.109375l0.640625 0.6875q-0.53125 0.65625 -1.296875 1.0q-0.765625 0.34375 -1.859375 0.34375q-0.953125 0 -1.734375 -0.328125q-0.765625 -0.328125 -1.3125 -0.90625q-0.546875 -0.59375 -0.84375 -1.40625q-0.28125 -0.828125 -0.28125 -1.796875q0 -0.96875 0.3125 -1.78125q0.328125 -0.8125 0.921875 -1.40625q0.59375 -0.59375 1.40625 -0.90625q0.8125 -0.328125 1.8125 -0.328125q0.96875 0 1.6875 0.3125q0.71875 0.296875 1.234375 0.8125l-0.53125 0.75q-0.0625 0.0625 -0.140625 0.125q-0.0625 0.046875 -0.203125 0.046875q-0.125 0 -0.28125 -0.109375q-0.140625 -0.109375 -0.359375 -0.234375q-0.21875 -0.125 -0.5625 -0.21875q-0.34375 -0.109375 -0.859375 -0.109375q-0.609375 0 -1.125 0.21875q-0.515625 0.203125 -0.890625 0.59375q-0.359375 0.390625 -0.578125 0.96875q-0.203125 0.5625 -0.203125 1.265625q0 0.734375 0.203125 1.3125q0.21875 0.5625 0.5625 0.953125q0.359375 0.390625 0.84375 0.609375q0.484375 0.203125 1.03125 0.203125q0.328125 0 0.59375 -0.03125q0.265625 -0.046875 0.484375 -0.125q0.234375 -0.078125 0.4375 -0.203125q0.203125 -0.125 0.390625 -0.296875q0.0625 -0.0625 0.125 -0.09375q0.078125 -0.03125 0.15625 -0.03125zm7.546051 -6.625l0 1.28125l-3.84375 0l0 2.40625l3.03125 0l0 1.234375l-3.03125 0l0 2.453125l3.84375 0l0 1.296875l-5.46875 0l0 -8.671875l5.46875 0zm1.8387909 8.6875q-0.0625 0.140625 -0.140625 0.234375q-0.078125 0.109375 -0.1875 0.171875q-0.109375 0.078125 -0.234375 0.109375q-0.125 0.03125 -0.234375 0.03125l-0.625 0l3.5 -8.953125q0.109375 -0.25 0.296875 -0.390625q0.1875 -0.140625 0.46875 -0.140625l0.625 0l-3.46875 8.9375zm5.7065277 -6.171875l0 6.15625l-1.484375 0l0 -6.15625l1.484375 0zm0.21875 -1.796875q0 0.1875 -0.078125 0.359375q-0.078125 0.171875 -0.21875 0.296875q-0.125 0.125 -0.296875 0.203125q-0.171875 0.078125 -0.375 0.078125q-0.1875 0 -0.359375 -0.078125q-0.171875 -0.078125 -0.296875 -0.203125q-0.125 -0.125 -0.203125 -0.296875q-0.0625 -0.171875 -0.0625 -0.359375q0 -0.1875 0.0625 -0.359375q0.078125 -0.1875 0.203125 -0.3125q0.125 -0.125 0.296875 -0.1875q0.171875 -0.078125 0.359375 -0.078125q0.203125 0 0.375 0.078125q0.171875 0.0625 0.296875 0.1875q0.140625 0.125 0.21875 0.3125q0.078125 0.171875 0.078125 0.359375zm1.4551544 7.953125l0 -6.15625l0.90625 0q0.28125 0 0.375 0.265625l0.09375 0.484375q0.1875 -0.1875 0.390625 -0.34375q0.21875 -0.15625 0.4375 -0.265625q0.234375 -0.109375 0.5 -0.171875q0.265625 -0.0625 0.578125 -0.0625q0.5 0 0.890625 0.171875q0.390625 0.171875 0.65625 0.484375q0.265625 0.296875 0.390625 0.734375q0.140625 0.421875 0.140625 0.9375l0 3.921875l-1.484375 0l0 -3.921875q0 -0.5625 -0.265625 -0.859375q-0.25 -0.3125 -0.78125 -0.3125q-0.375 0 -0.71875 0.171875q-0.328125 0.171875 -0.625 0.46875l0 4.453125l-1.484375 0zm8.837677 0.09375q-0.796875 0 -1.234375 -0.453125q-0.421875 -0.453125 -0.421875 -1.25l0 -3.4375l-0.625 0q-0.125 0 -0.21875 -0.078125q-0.078125 -0.078125 -0.078125 -0.234375l0 -0.59375l0.984375 -0.15625l0.3125 -1.671875q0.03125 -0.125 0.109375 -0.1875q0.09375 -0.078125 0.21875 -0.078125l0.78125 0l0 1.9375l1.609375 0l0 1.0625l-1.609375 0l0 3.34375q0 0.28125 0.140625 0.453125q0.140625 0.15625 0.375 0.15625q0.140625 0 0.234375 -0.03125q0.09375 -0.03125 0.15625 -0.0625q0.078125 -0.046875 0.125 -0.078125q0.0625 -0.03125 0.109375 -0.03125q0.078125 0 0.109375 0.03125q0.046875 0.03125 0.09375 0.09375l0.4375 0.71875q-0.3125 0.265625 -0.734375 0.40625q-0.421875 0.140625 -0.875 0.140625zm2.6284027 -0.09375l0 -6.15625l0.859375 0q0.234375 0 0.3125 0.09375q0.09375 0.078125 0.125 0.28125l0.09375 0.734375q0.328125 -0.5625 0.765625 -0.890625q0.453125 -0.328125 1.0 -0.328125q0.46875 0 0.765625 0.203125l-0.1875 1.109375q-0.03125 0.109375 -0.09375 0.15625q-0.046875 0.046875 -0.15625 0.046875q-0.09375 0 -0.25 -0.046875q-0.15625 -0.046875 -0.40625 -0.046875q-0.46875 0 -0.796875 0.265625q-0.328125 0.25 -0.546875 0.75l0 3.828125l-1.484375 0zm7.5270386 -6.25q0.6875 0 1.25 0.21875q0.5625 0.21875 0.953125 0.640625q0.40625 0.40625 0.609375 1.0q0.21875 0.578125 0.21875 1.296875q0 0.734375 -0.21875 1.328125q-0.203125 0.578125 -0.609375 1.0q-0.390625 0.40625 -0.953125 0.640625q-0.5625 0.21875 -1.25 0.21875q-0.6875 0 -1.25 -0.21875q-0.5625 -0.234375 -0.96875 -0.640625q-0.40625 -0.421875 -0.625 -1.0q-0.21875 -0.59375 -0.21875 -1.328125q0 -0.71875 0.21875 -1.296875q0.21875 -0.59375 0.625 -1.0q0.40625 -0.421875 0.96875 -0.640625q0.5625 -0.21875 1.25 -0.21875zm0 5.203125q0.765625 0 1.125 -0.515625q0.375 -0.515625 0.375 -1.515625q0 -1.0 -0.375 -1.515625q-0.359375 -0.53125 -1.125 -0.53125q-0.78125 0 -1.15625 0.53125q-0.375 0.53125 -0.375 1.515625q0 0.984375 0.375 1.515625q0.375 0.515625 1.15625 0.515625zm3.993927 -3.1875l3.109375 0l0 1.234375l-3.109375 0l0 -1.234375zm4.511139 6.25l0 -8.171875l0.90625 0q0.140625 0 0.234375 0.0625q0.109375 0.0625 0.140625 0.203125l0.125 0.578125q0.359375 -0.421875 0.84375 -0.6875q0.484375 -0.265625 1.140625 -0.265625q0.5 0 0.90625 0.21875q0.421875 0.203125 0.71875 0.609375q0.3125 0.390625 0.46875 0.984375q0.171875 0.578125 0.171875 1.328125q0 0.6875 -0.1875 1.28125q-0.1875 0.578125 -0.53125 1.015625q-0.34375 0.4375 -0.828125 0.6875q-0.484375 0.234375 -1.09375 0.234375q-0.53125 0 -0.890625 -0.15625q-0.359375 -0.171875 -0.640625 -0.453125l0 2.53125l-1.484375 0zm2.875 -7.109375q-0.46875 0 -0.796875 0.203125q-0.3125 0.1875 -0.59375 0.53125l0 2.765625q0.25 0.3125 0.546875 0.4375q0.296875 0.125 0.640625 0.125q0.328125 0 0.59375 -0.125q0.28125 -0.140625 0.46875 -0.390625q0.1875 -0.265625 0.28125 -0.65625q0.109375 -0.390625 0.109375 -0.921875q0 -0.546875 -0.09375 -0.921875q-0.078125 -0.375 -0.25 -0.609375q-0.15625 -0.234375 -0.390625 -0.328125q-0.21875 -0.109375 -0.515625 -0.109375zm3.9110413 5.09375l0 -6.15625l0.859375 0q0.234375 0 0.3125 0.09375q0.09375 0.078125 0.125 0.28125l0.09375 0.734375q0.328125 -0.5625 0.765625 -0.890625q0.453125 -0.328125 1.0 -0.328125q0.46875 0 0.765625 0.203125l-0.1875 1.109375q-0.03125 0.109375 -0.09375 0.15625q-0.046875 0.046875 -0.15625 0.046875q-0.09375 0 -0.25 -0.046875q-0.15625 -0.046875 -0.40625 -0.046875q-0.46875 0 -0.796875 0.265625q-0.328125 0.25 -0.546875 0.75l0 3.828125l-1.484375 0zm7.5270386 -6.25q0.6875 0 1.25 0.21875q0.5625 0.21875 0.953125 0.640625q0.40625 0.40625 0.609375 1.0q0.21875 0.578125 0.21875 1.296875q0 0.734375 -0.21875 1.328125q-0.203125 0.578125 -0.609375 1.0q-0.390625 0.40625 -0.953125 0.640625q-0.5625 0.21875 -1.25 0.21875q-0.6875 0 -1.25 -0.21875q-0.5625 -0.234375 -0.96875 -0.640625q-0.40625 -0.421875 -0.625 -1.0q-0.21875 -0.59375 -0.21875 -1.328125q0 -0.71875 0.21875 -1.296875q0.21875 -0.59375 0.625 -1.0q0.40625 -0.421875 0.96875 -0.640625q0.5625 -0.21875 1.25 -0.21875zm0 5.203125q0.765625 0 1.125 -0.515625q0.375 -0.515625 0.375 -1.515625q0 -1.0 -0.375 -1.515625q-0.359375 -0.53125 -1.125 -0.53125q-0.78125 0 -1.15625 0.53125q-0.375 0.53125 -0.375 1.515625q0 0.984375 0.375 1.515625q0.375 0.515625 1.15625 0.515625zm6.322052 -5.21875q0.390625 0 0.734375 0.078125q0.359375 0.078125 0.640625 0.234375l1.78125 0l0 0.5625q0 0.140625 -0.078125 0.21875q-0.078125 0.078125 -0.25 0.109375l-0.546875 0.09375q0.0625 0.15625 0.09375 0.328125q0.03125 0.171875 0.03125 0.375q0 0.453125 -0.1875 0.828125q-0.171875 0.359375 -0.5 0.625q-0.328125 0.25 -0.765625 0.390625q-0.4375 0.140625 -0.953125 0.140625q-0.34375 0 -0.671875 -0.0625q-0.296875 0.171875 -0.296875 0.390625q0 0.1875 0.171875 0.28125q0.171875 0.078125 0.453125 0.109375q0.28125 0.03125 0.625 0.046875q0.359375 0.015625 0.734375 0.046875q0.375 0.015625 0.71875 0.09375q0.359375 0.078125 0.640625 0.25q0.28125 0.15625 0.453125 0.4375q0.171875 0.28125 0.171875 0.71875q0 0.40625 -0.203125 0.78125q-0.203125 0.390625 -0.59375 0.6875q-0.375 0.296875 -0.9375 0.484375q-0.546875 0.1875 -1.25 0.1875q-0.703125 0 -1.21875 -0.140625q-0.515625 -0.140625 -0.859375 -0.359375q-0.328125 -0.21875 -0.5 -0.515625q-0.171875 -0.296875 -0.171875 -0.609375q0 -0.4375 0.265625 -0.734375q0.265625 -0.296875 0.734375 -0.46875q-0.234375 -0.125 -0.375 -0.328125q-0.125 -0.21875 -0.125 -0.546875q0 -0.140625 0.046875 -0.28125q0.046875 -0.15625 0.140625 -0.296875q0.109375 -0.140625 0.25 -0.265625q0.15625 -0.140625 0.359375 -0.234375q-0.46875 -0.265625 -0.734375 -0.671875q-0.265625 -0.421875 -0.265625 -0.984375q0 -0.46875 0.171875 -0.828125q0.1875 -0.375 0.515625 -0.625q0.328125 -0.265625 0.765625 -0.40625q0.453125 -0.140625 0.984375 -0.140625zm1.625 6.546875q0 -0.1875 -0.109375 -0.296875q-0.109375 -0.109375 -0.296875 -0.171875q-0.1875 -0.078125 -0.4375 -0.09375q-0.234375 -0.03125 -0.515625 -0.046875q-0.28125 -0.015625 -0.578125 -0.03125q-0.296875 -0.015625 -0.578125 -0.046875q-0.25 0.125 -0.40625 0.328125q-0.15625 0.1875 -0.15625 0.421875q0 0.171875 0.078125 0.3125q0.09375 0.140625 0.265625 0.234375q0.171875 0.109375 0.453125 0.15625q0.296875 0.0625 0.703125 0.0625q0.40625 0 0.703125 -0.0625q0.3125 -0.0625 0.5 -0.171875q0.203125 -0.109375 0.28125 -0.265625q0.09375 -0.15625 0.09375 -0.328125zm-1.625 -3.515625q0.28125 0 0.484375 -0.0625q0.203125 -0.078125 0.328125 -0.203125q0.140625 -0.140625 0.203125 -0.328125q0.078125 -0.1875 0.078125 -0.40625q0 -0.453125 -0.28125 -0.71875q-0.265625 -0.265625 -0.8125 -0.265625q-0.546875 0 -0.828125 0.265625q-0.265625 0.265625 -0.265625 0.71875q0 0.21875 0.0625 0.40625q0.078125 0.1875 0.203125 0.328125q0.140625 0.125 0.34375 0.203125q0.21875 0.0625 0.484375 0.0625zm4.085022 3.234375l0 -6.15625l0.859375 0q0.234375 0 0.3125 0.09375q0.09375 0.078125 0.125 0.28125l0.09375 0.734375q0.328125 -0.5625 0.765625 -0.890625q0.453125 -0.328125 1.0 -0.328125q0.46875 0 0.765625 0.203125l-0.1875 1.109375q-0.03125 0.109375 -0.09375 0.15625q-0.046875 0.046875 -0.15625 0.046875q-0.09375 0 -0.25 -0.046875q-0.15625 -0.046875 -0.40625 -0.046875q-0.46875 0 -0.796875 0.265625q-0.328125 0.25 -0.546875 0.75l0 3.828125l-1.484375 0zm9.540558 0l-0.65625 0q-0.21875 0 -0.34375 -0.0625q-0.109375 -0.0625 -0.171875 -0.25l-0.125 -0.4375q-0.234375 0.203125 -0.46875 0.359375q-0.21875 0.15625 -0.46875 0.265625q-0.234375 0.109375 -0.5 0.15625q-0.265625 0.0625 -0.59375 0.0625q-0.390625 0 -0.734375 -0.09375q-0.328125 -0.109375 -0.5625 -0.3125q-0.234375 -0.21875 -0.375 -0.53125q-0.125 -0.3125 -0.125 -0.734375q0 -0.34375 0.1875 -0.671875q0.1875 -0.34375 0.609375 -0.609375q0.421875 -0.28125 1.125 -0.453125q0.71875 -0.1875 1.765625 -0.21875l0 -0.359375q0 -0.609375 -0.265625 -0.90625q-0.265625 -0.296875 -0.75 -0.296875q-0.359375 0 -0.609375 0.078125q-0.234375 0.078125 -0.421875 0.1875q-0.171875 0.109375 -0.328125 0.203125q-0.140625 0.078125 -0.328125 0.078125q-0.140625 0 -0.25 -0.078125q-0.109375 -0.078125 -0.171875 -0.203125l-0.265625 -0.46875q1.0625 -0.96875 2.5625 -0.96875q0.53125 0 0.953125 0.171875q0.421875 0.171875 0.71875 0.5q0.296875 0.3125 0.4375 0.75q0.15625 0.4375 0.15625 0.953125l0 3.890625zm-2.875 -0.921875q0.234375 0 0.421875 -0.046875q0.1875 -0.046875 0.359375 -0.125q0.171875 -0.078125 0.328125 -0.203125q0.171875 -0.125 0.328125 -0.296875l0 -1.03125q-0.65625 0.03125 -1.09375 0.109375q-0.421875 0.078125 -0.6875 0.203125q-0.265625 0.125 -0.375 0.296875q-0.109375 0.171875 -0.109375 0.359375q0 0.390625 0.21875 0.5625q0.234375 0.171875 0.609375 0.171875zm4.3445435 0.921875l0 -6.15625l0.90625 0q0.28125 0 0.375 0.265625l0.09375 0.453125q0.15625 -0.171875 0.328125 -0.3125q0.1875 -0.15625 0.390625 -0.265625q0.203125 -0.109375 0.421875 -0.171875q0.234375 -0.0625 0.515625 -0.0625q0.578125 0 0.953125 0.3125q0.375 0.3125 0.5625 0.84375q0.140625 -0.3125 0.359375 -0.53125q0.21875 -0.21875 0.46875 -0.359375q0.265625 -0.140625 0.546875 -0.203125q0.296875 -0.0625 0.59375 -0.0625q0.515625 0 0.90625 0.15625q0.390625 0.15625 0.65625 0.453125q0.28125 0.296875 0.421875 0.734375q0.140625 0.4375 0.140625 0.984375l0 3.921875l-1.484375 0l0 -3.921875q0 -0.578125 -0.265625 -0.875q-0.25 -0.296875 -0.75 -0.296875q-0.21875 0 -0.421875 0.078125q-0.1875 0.078125 -0.34375 0.21875q-0.140625 0.140625 -0.234375 0.375q-0.078125 0.21875 -0.078125 0.5l0 3.921875l-1.484375 0l0 -3.921875q0 -0.609375 -0.25 -0.890625q-0.25 -0.28125 -0.734375 -0.28125q-0.3125 0 -0.59375 0.15625q-0.28125 0.15625 -0.515625 0.4375l0 4.5l-1.484375 0zm10.104065 0l0 -6.15625l0.90625 0q0.28125 0 0.375 0.265625l0.09375 0.453125q0.15625 -0.171875 0.328125 -0.3125q0.1875 -0.15625 0.390625 -0.265625q0.203125 -0.109375 0.421875 -0.171875q0.234375 -0.0625 0.515625 -0.0625q0.578125 0 0.953125 0.3125q0.375 0.3125 0.5625 0.84375q0.140625 -0.3125 0.359375 -0.53125q0.21875 -0.21875 0.46875 -0.359375q0.265625 -0.140625 0.546875 -0.203125q0.296875 -0.0625 0.59375 -0.0625q0.515625 0 0.90625 0.15625q0.390625 0.15625 0.65625 0.453125q0.28125 0.296875 0.421875 0.734375q0.140625 0.4375 0.140625 0.984375l0 3.921875l-1.484375 0l0 -3.921875q0 -0.578125 -0.265625 -0.875q-0.25 -0.296875 -0.75 -0.296875q-0.21875 0 -0.421875 0.078125q-0.1875 0.078125 -0.34375 0.21875q-0.140625 0.140625 -0.234375 0.375q-0.078125 0.21875 -0.078125 0.5l0 3.921875l-1.484375 0l0 -3.921875q0 -0.609375 -0.25 -0.890625q-0.25 -0.28125 -0.734375 -0.28125q-0.3125 0 -0.59375 0.15625q-0.28125 0.15625 -0.515625 0.4375l0 4.5l-1.484375 0zm11.68219 -6.15625l0 6.15625l-1.484375 0l0 -6.15625l1.484375 0zm0.21875 -1.796875q0 0.1875 -0.078125 0.359375q-0.078125 0.171875 -0.21875 0.296875q-0.125 0.125 -0.296875 0.203125q-0.171875 0.078125 -0.375 0.078125q-0.1875 0 -0.359375 -0.078125q-0.171875 -0.078125 -0.296875 -0.203125q-0.125 -0.125 -0.203125 -0.296875q-0.0625 -0.171875 -0.0625 -0.359375q0 -0.1875 0.0625 -0.359375q0.078125 -0.1875 0.203125 -0.3125q0.125 -0.125 0.296875 -0.1875q0.171875 -0.078125 0.359375 -0.078125q0.203125 0 0.375 0.078125q0.171875 0.0625 0.296875 0.1875q0.140625 0.125 0.21875 0.3125q0.078125 0.171875 0.078125 0.359375zm1.4551697 7.953125l0 -6.15625l0.90625 0q0.28125 0 0.375 0.265625l0.09375 0.484375q0.1875 -0.1875 0.390625 -0.34375q0.21875 -0.15625 0.4375 -0.265625q0.234375 -0.109375 0.5 -0.171875q0.265625 -0.0625 0.578125 -0.0625q0.5 0 0.890625 0.171875q0.390625 0.171875 0.65625 0.484375q0.265625 0.296875 0.390625 0.734375q0.140625 0.421875 0.140625 0.9375l0 3.921875l-1.484375 0l0 -3.921875q0 -0.5625 -0.265625 -0.859375q-0.25 -0.3125 -0.78125 -0.3125q-0.375 0 -0.71875 0.171875q-0.328125 0.171875 -0.625 0.46875l0 4.453125l-1.484375 0zm8.947052 -6.265625q0.390625 0 0.734375 0.078125q0.359375 0.078125 0.640625 0.234375l1.78125 0l0 0.5625q0 0.140625 -0.078125 0.21875q-0.078125 0.078125 -0.25 0.109375l-0.546875 0.09375q0.0625 0.15625 0.09375 0.328125q0.03125 0.171875 0.03125 0.375q0 0.453125 -0.1875 0.828125q-0.171875 0.359375 -0.5 0.625q-0.328125 0.25 -0.765625 0.390625q-0.4375 0.140625 -0.953125 0.140625q-0.34375 0 -0.671875 -0.0625q-0.296875 0.171875 -0.296875 0.390625q0 0.1875 0.171875 0.28125q0.171875 0.078125 0.453125 0.109375q0.28125 0.03125 0.625 0.046875q0.359375 0.015625 0.734375 0.046875q0.375 0.015625 0.71875 0.09375q0.359375 0.078125 0.640625 0.25q0.28125 0.15625 0.453125 0.4375q0.171875 0.28125 0.171875 0.71875q0 0.40625 -0.203125 0.78125q-0.203125 0.390625 -0.59375 0.6875q-0.375 0.296875 -0.9375 0.484375q-0.546875 0.1875 -1.25 0.1875q-0.703125 0 -1.21875 -0.140625q-0.515625 -0.140625 -0.859375 -0.359375q-0.328125 -0.21875 -0.5 -0.515625q-0.171875 -0.296875 -0.171875 -0.609375q0 -0.4375 0.265625 -0.734375q0.265625 -0.296875 0.734375 -0.46875q-0.234375 -0.125 -0.375 -0.328125q-0.125 -0.21875 -0.125 -0.546875q0 -0.140625 0.046875 -0.28125q0.046875 -0.15625 0.140625 -0.296875q0.109375 -0.140625 0.25 -0.265625q0.15625 -0.140625 0.359375 -0.234375q-0.46875 -0.265625 -0.734375 -0.671875q-0.265625 -0.421875 -0.265625 -0.984375q0 -0.46875 0.171875 -0.828125q0.1875 -0.375 0.515625 -0.625q0.328125 -0.265625 0.765625 -0.40625q0.453125 -0.140625 0.984375 -0.140625zm1.625 6.546875q0 -0.1875 -0.109375 -0.296875q-0.109375 -0.109375 -0.296875 -0.171875q-0.1875 -0.078125 -0.4375 -0.09375q-0.234375 -0.03125 -0.515625 -0.046875q-0.28125 -0.015625 -0.578125 -0.03125q-0.296875 -0.015625 -0.578125 -0.046875q-0.25 0.125 -0.40625 0.328125q-0.15625 0.1875 -0.15625 0.421875q0 0.171875 0.078125 0.3125q0.09375 0.140625 0.265625 0.234375q0.171875 0.109375 0.453125 0.15625q0.296875 0.0625 0.703125 0.0625q0.40625 0 0.703125 -0.0625q0.3125 -0.0625 0.5 -0.171875q0.203125 -0.109375 0.28125 -0.265625q0.09375 -0.15625 0.09375 -0.328125zm-1.625 -3.515625q0.28125 0 0.484375 -0.0625q0.203125 -0.078125 0.328125 -0.203125q0.140625 -0.140625 0.203125 -0.328125q0.078125 -0.1875 0.078125 -0.40625q0 -0.453125 -0.28125 -0.71875q-0.265625 -0.265625 -0.8125 -0.265625q-0.546875 0 -0.828125 0.265625q-0.265625 0.265625 -0.265625 0.71875q0 0.21875 0.0625 0.40625q0.078125 0.1875 0.203125 0.328125q0.140625 0.125 0.34375 0.203125q0.21875 0.0625 0.484375 0.0625z" fill-rule="nonzero"/><path fill="#cfe2f3" d="m385.24014 195.6063l161.10239 0l0 65.29135l-161.10239 0z" fill-rule="evenodd"/><path stroke="#000000" stroke-width="1.0" stroke-linejoin="round" stroke-linecap="butt" d="m385.24014 195.6063l161.10239 0l0 65.29135l-161.10239 0z" fill-rule="evenodd"/><path fill="#000000" d="m399.2714 235.45197l5.421875 -14.0l2.203125 0l5.375 14.0l-2.296875 0l-3.203125 -8.4375q-0.0625 -0.140625 -0.234375 -0.671875q-0.171875 -0.546875 -0.390625 -1.203125q-0.21875 -0.671875 -0.40625 -1.21875q-0.171875 -0.546875 -0.234375 -0.703125l0.46875 -0.03125q-0.125 0.34375 -0.296875 0.875q-0.171875 0.515625 -0.359375 1.09375q-0.1875 0.578125 -0.375 1.09375q-0.171875 0.5 -0.296875 0.84375l-3.171875 8.359375l-2.203125 0zm2.40625 -3.484375l0.796875 -2.078125l6.359375 0l0.921875 2.078125l-8.078125 0zm15.671875 3.484375l-5.59375 -14.0l2.453125 0l3.34375 8.5q0.234375 0.625 0.421875 1.125q0.203125 0.5 0.34375 0.90625q0.140625 0.40625 0.25 0.765625q0.125 0.359375 0.25 0.71875l-0.53125 0.03125q0.140625 -0.484375 0.296875 -1.0q0.171875 -0.53125 0.375 -1.140625q0.21875 -0.625 0.515625 -1.40625l3.09375 -8.5l2.515625 0l-5.625 14.0l-2.109375 0zm15.840607 0.203125q-1.515625 0 -2.84375 -0.546875q-1.3125 -0.5625 -2.3125 -1.53125q-1.0 -0.984375 -1.5625 -2.296875q-0.546875 -1.3125 -0.546875 -2.828125q0 -1.5 0.546875 -2.796875q0.5625 -1.296875 1.546875 -2.265625q1.0 -0.984375 2.3125 -1.515625q1.328125 -0.546875 2.84375 -0.546875q1.0625 0 2.0625 0.3125q1.015625 0.296875 1.828125 0.84375q0.828125 0.53125 1.34375 1.234375l-1.390625 1.453125q-0.90625 -0.859375 -1.875 -1.296875q-0.96875 -0.4375 -1.96875 -0.4375q-1.078125 0 -2.0 0.375q-0.90625 0.375 -1.59375 1.0625q-0.6875 0.671875 -1.078125 1.59375q-0.375 0.90625 -0.375 1.984375q0 1.046875 0.390625 1.984375q0.40625 0.921875 1.109375 1.625q0.71875 0.6875 1.640625 1.09375q0.9375 0.390625 1.984375 0.390625q0.78125 0 1.46875 -0.21875q0.703125 -0.234375 1.25 -0.65625q0.546875 -0.421875 0.84375 -0.96875q0.296875 -0.546875 0.296875 -1.171875l0 -0.390625l0.296875 0.265625l-4.28125 0l0 -2.140625l6.203125 0q0.046875 0.234375 0.0625 0.4375q0.015625 0.203125 0.015625 0.40625q0.015625 0.1875 0.015625 0.359375q0 1.390625 -0.484375 2.515625q-0.46875 1.125 -1.328125 1.953125q-0.84375 0.8125 -1.96875 1.265625q-1.125 0.453125 -2.453125 0.453125zm13.701233 -6.828125l0 -1.796875l9.3125 0l0 1.796875l-9.3125 0zm0 3.78125l0 -1.78125l9.3125 0l0 1.78125l-9.3125 0zm22.201233 3.046875q-1.71875 0 -3.03125 -0.671875q-1.3125 -0.6875 -2.25 -2.046875l1.484375 -1.703125q0.96875 1.40625 1.875 1.953125q0.90625 0.53125 2.140625 0.53125q0.765625 0 1.375 -0.234375q0.625 -0.25 0.984375 -0.671875q0.359375 -0.421875 0.359375 -0.953125q0 -0.359375 -0.125 -0.671875q-0.109375 -0.328125 -0.359375 -0.59375q-0.25 -0.265625 -0.640625 -0.484375q-0.390625 -0.21875 -0.921875 -0.390625q-0.515625 -0.171875 -1.1875 -0.28125q-1.078125 -0.21875 -1.890625 -0.578125q-0.796875 -0.359375 -1.34375 -0.90625q-0.53125 -0.546875 -0.796875 -1.234375q-0.25 -0.6875 -0.25 -1.546875q0 -1.140625 0.640625 -2.015625q0.640625 -0.890625 1.71875 -1.390625q1.09375 -0.515625 2.453125 -0.515625q1.625 0 2.828125 0.640625q1.21875 0.625 1.921875 1.828125l-1.53125 1.5q-0.59375 -0.984375 -1.421875 -1.5q-0.828125 -0.53125 -1.859375 -0.53125q-0.765625 0 -1.359375 0.25q-0.578125 0.234375 -0.90625 0.671875q-0.328125 0.421875 -0.328125 1.0q0 0.421875 0.15625 0.78125q0.171875 0.34375 0.5 0.609375q0.328125 0.265625 0.875 0.484375q0.5625 0.203125 1.34375 0.375q1.109375 0.234375 1.96875 0.609375q0.859375 0.359375 1.453125 0.859375q0.609375 0.5 0.90625 1.125q0.3125 0.625 0.3125 1.34375q0 1.34375 -0.625 2.328125q-0.609375 0.96875 -1.75 1.5q-1.140625 0.53125 -2.71875 0.53125zm11.32373 0q-1.125 0 -1.953125 -0.515625q-0.828125 -0.53125 -1.28125 -1.46875q-0.453125 -0.9375 -0.453125 -2.234375l0 -6.484375l2.0625 0l0 5.921875q0 1.375 0.640625 2.1875q0.65625 0.796875 1.8125 0.796875q0.59375 0 1.0625 -0.1875q0.484375 -0.203125 0.828125 -0.53125q0.359375 -0.34375 0.546875 -0.828125q0.203125 -0.484375 0.203125 -1.046875l0 -6.3125l2.0625 0l0 10.5l-2.0625 0l0 -2.203125l0.359375 -0.234375q-0.234375 0.734375 -0.8125 1.34375q-0.5625 0.59375 -1.34375 0.953125q-0.78125 0.34375 -1.671875 0.34375zm8.381256 -0.203125l0 -10.5l2.078125 0l0 2.234375l-0.390625 0.25q0.171875 -0.53125 0.515625 -1.0q0.34375 -0.484375 0.859375 -0.84375q0.515625 -0.375 1.09375 -0.59375q0.59375 -0.234375 1.21875 -0.234375q0.90625 0 1.578125 0.3125q0.6875 0.296875 1.125 0.90625q0.4375 0.59375 0.640625 1.484375l-0.328125 -0.078125l0.140625 -0.34375q0.21875 -0.453125 0.609375 -0.859375q0.390625 -0.421875 0.890625 -0.734375q0.5 -0.3125 1.0625 -0.5q0.5625 -0.1875 1.09375 -0.1875q1.1875 0 1.953125 0.484375q0.765625 0.484375 1.15625 1.46875q0.390625 0.96875 0.390625 2.4375l0 6.296875l-2.078125 0l0 -6.1875q0 -1.328125 -0.515625 -1.953125q-0.5 -0.640625 -1.578125 -0.640625q-0.5625 0 -1.0625 0.1875q-0.484375 0.1875 -0.84375 0.53125q-0.359375 0.34375 -0.5625 0.796875q-0.1875 0.453125 -0.1875 0.984375l0 6.28125l-2.078125 0l0 -6.21875q0 -1.234375 -0.53125 -1.890625q-0.53125 -0.671875 -1.53125 -0.671875q-0.5625 0 -1.046875 0.1875q-0.484375 0.1875 -0.84375 0.53125q-0.359375 0.328125 -0.5625 0.78125q-0.1875 0.4375 -0.1875 0.96875l0 6.3125l-2.078125 0zm17.373108 2.640625l8.2343445 -16.640625l1.984375 0l-8.2187195 16.640625l-2.0 0zm12.733734 -2.640625l0 -14.0l1.953125 0l8.546875 11.453125l-0.3125 0.1875q-0.140625 -0.828125 -0.234375 -1.90625q-0.09375 -1.078125 -0.140625 -2.375q-0.03125 -1.296875 -0.03125 -2.765625l0 -4.59375l2.171875 0l0 14.0l-1.984375 0l-8.421875 -11.046875l0.21875 -0.265625q0.140625 1.515625 0.21875 2.484375q0.078125 0.96875 0.109375 1.546875q0.046875 0.578125 0.0625 0.90625q0.015625 0.328125 0.015625 0.5625l0 5.8125l-2.171875 0z" fill-rule="nonzero"/><path fill="#000000" fill-opacity="0.0" d="m602.29395 228.22047l-28.173218 0l0 0.06298828l-28.173218 0" fill-rule="evenodd"/><path stroke="#000000" stroke-width="2.0" stroke-linejoin="round" stroke-linecap="butt" d="m602.29395 228.22047l-28.173218 0l0 0.06298828l-21.31903 0" fill-rule="evenodd"/><path fill="#000000" stroke="#000000" stroke-width="2.0" stroke-linecap="butt" d="m552.8017 228.28346l2.2491455 -2.2491608l-6.1795044 2.2491608l6.1795044 2.249176z" fill-rule="evenodd"/><path fill="#000000" fill-opacity="0.0" d="m557.5407 195.22835l56.346436 0l0 33.921265l-56.346436 0z" fill-rule="evenodd"/><path fill="#000000" d="m579.8672 212.37335l0 3.375l-1.609375 0l0 -3.375l-3.171875 -5.296875l1.421875 0q0.21875 0 0.34375 0.109375q0.125 0.09375 0.203125 0.25l1.59375 2.890625q0.125 0.265625 0.234375 0.5q0.109375 0.21875 0.1875 0.453125q0.078125 -0.234375 0.171875 -0.46875q0.109375 -0.234375 0.234375 -0.484375l1.578125 -2.890625q0.078125 -0.140625 0.203125 -0.25q0.140625 -0.109375 0.34375 -0.109375l1.421875 0l-3.15625 5.296875zm9.46344 -5.296875l0 1.28125l-3.84375 0l0 2.40625l3.03125 0l0 1.234375l-3.03125 0l0 2.453125l3.84375 0l0 1.296875l-5.46875 0l0 -8.671875l5.46875 0zm6.057556 1.578125q-0.078125 0.125 -0.171875 0.1875q-0.078125 0.046875 -0.1875 0.046875q-0.125 0 -0.28125 -0.09375q-0.140625 -0.09375 -0.34375 -0.203125q-0.203125 -0.109375 -0.484375 -0.203125q-0.265625 -0.09375 -0.640625 -0.09375q-0.34375 0 -0.59375 0.078125q-0.234375 0.078125 -0.40625 0.21875q-0.171875 0.140625 -0.265625 0.34375q-0.078125 0.203125 -0.078125 0.453125q0 0.296875 0.171875 0.5q0.171875 0.203125 0.453125 0.359375q0.28125 0.140625 0.640625 0.25q0.359375 0.109375 0.734375 0.25q0.375 0.125 0.734375 0.296875q0.359375 0.171875 0.640625 0.4375q0.28125 0.25 0.453125 0.625q0.171875 0.375 0.171875 0.921875q0 0.59375 -0.203125 1.109375q-0.203125 0.5 -0.59375 0.890625q-0.375 0.375 -0.9375 0.59375q-0.5625 0.21875 -1.28125 0.21875q-0.40625 0 -0.8125 -0.078125q-0.40625 -0.078125 -0.78125 -0.21875q-0.359375 -0.15625 -0.6875 -0.359375q-0.3125 -0.21875 -0.5625 -0.484375l0.46875 -0.765625q0.0625 -0.09375 0.15625 -0.140625q0.09375 -0.0625 0.203125 -0.0625q0.15625 0 0.328125 0.125q0.171875 0.125 0.40625 0.28125q0.234375 0.140625 0.546875 0.265625q0.328125 0.125 0.78125 0.125q0.6875 0 1.0625 -0.328125q0.390625 -0.328125 0.390625 -0.9375q0 -0.34375 -0.171875 -0.5625q-0.171875 -0.21875 -0.453125 -0.359375q-0.28125 -0.15625 -0.640625 -0.25q-0.359375 -0.109375 -0.734375 -0.21875q-0.375 -0.125 -0.734375 -0.296875q-0.359375 -0.171875 -0.640625 -0.4375q-0.28125 -0.265625 -0.453125 -0.671875q-0.171875 -0.40625 -0.171875 -1.0q0 -0.46875 0.1875 -0.921875q0.1875 -0.453125 0.546875 -0.796875q0.375 -0.359375 0.890625 -0.5625q0.53125 -0.203125 1.21875 -0.203125q0.765625 0 1.40625 0.234375q0.65625 0.234375 1.109375 0.671875l-0.390625 0.765625z" fill-rule="nonzero"/><path fill="#cfe2f3" d="m617.08136 106.784775l16.322815 -65.291336l144.77954 0l-16.322815 65.291336z" fill-rule="evenodd"/><path stroke="#000000" stroke-width="1.0" stroke-linejoin="round" stroke-linecap="butt" d="m617.08136 106.784775l16.322815 -65.291336l144.77954 0l-16.322815 65.291336z" fill-rule="evenodd"/><path fill="#000000" d="m666.86005 69.3391l0 -2.0l2.265625 0l0 -9.999996l-2.265625 0l0 -2.0l6.6875 0l0 2.0l-2.265625 0l0 9.999996l2.265625 0l0 2.0l-6.6875 0zm10.075623 0l0 -13.999996l1.953125 0l8.546875 11.453121l-0.3125 0.1875q-0.140625 -0.828125 -0.234375 -1.90625q-0.09375 -1.0781212 -0.140625 -2.3749962q-0.03125 -1.296875 -0.03125 -2.765625l0 -4.59375l2.171875 0l0 13.999996l-1.984375 0l-8.421875 -11.046871l0.21875 -0.265625q0.140625 1.515625 0.21875 2.484375q0.078125 0.96875 0.109375 1.546875q0.046875 0.578125 0.0625 0.90625q0.015625 0.328125 0.015625 0.5625l0 5.812496l-2.171875 0zm15.859985 0l0 -13.999996l5.703125 0q1.140625 0 2.0625 0.578125q0.9375 0.5625 1.5 1.546875q0.5625 0.96875 0.5625 2.171875q0 1.203125 -0.5625 2.1875q-0.5625 0.96875 -1.5 1.5625q-0.921875 0.59375 -2.0625 0.59375l-3.53125 0l0 5.359371l-2.171875 0zm2.171875 -7.437496l3.5 0q0.53125 0 0.96875 -0.3125q0.453125 -0.3125 0.71875 -0.8125q0.265625 -0.515625 0.265625 -1.140625q0 -0.609375 -0.265625 -1.109375q-0.265625 -0.5 -0.71875 -0.796875q-0.4375 -0.3125 -0.96875 -0.3125l-3.5 0l0 4.484375zm15.961243 7.562496q-1.625 0 -2.90625 -0.703125q-1.28125 -0.71875 -2.015625 -1.96875q-0.71875 -1.25 -0.71875 -2.8281212l0 -8.640625l2.15625 0l0 8.453125q0 1.0156212 0.46875 1.8281212q0.484375 0.8125 1.265625 1.296875q0.796875 0.484375 1.75 0.484375q1.0 0 1.796875 -0.484375q0.8125 -0.484375 1.296875 -1.296875q0.484375 -0.8125 0.484375 -1.8281212l0 -8.453125l2.0625 0l0 8.640625q0 1.5781212 -0.734375 2.8281212q-0.734375 1.25 -2.015625 1.96875q-1.28125 0.703125 -2.890625 0.703125zm12.018738 -0.125l0 -11.921871l-3.921875 0l0 -2.078125l10.109375 0l0 2.078125l-4.03125 0l0 11.921871l-2.15625 0z" fill-rule="nonzero"/><path fill="#000000" d="m690.66254 93.3391l5.546875 -14.0l2.890625 0l5.5 14.0l-3.4375 0l-2.65625 -7.09375q-0.140625 -0.421875 -0.3125 -0.90625q-0.171875 -0.484375 -0.328125 -1.0q-0.15625 -0.515625 -0.296875 -1.0q-0.140625 -0.484375 -0.25 -0.90625l0.578125 -0.015625q-0.109375 0.5 -0.25 0.984375q-0.140625 0.484375 -0.3125 0.96875q-0.15625 0.46875 -0.328125 0.9375q-0.15625 0.46875 -0.34375 0.96875l-2.640625 7.0625l-3.359375 0zm2.640625 -2.6875l1.078125 -2.59375l6.40625 0l1.078125 2.59375l-8.5625 0z" fill-rule="nonzero"/><path fill="#000000" fill-opacity="0.0" d="m933.0866 106.784775l0 88.81889" fill-rule="evenodd"/><path stroke="#000000" stroke-width="2.0" stroke-linejoin="round" stroke-linecap="butt" d="m933.0866 106.784775l0 76.81889" fill-rule="evenodd"/><path fill="#000000" stroke="#000000" stroke-width="2.0" stroke-linecap="butt" d="m929.78314 183.60367l3.3034668 9.076202l3.3034668 -9.076202z" fill-rule="evenodd"/><path fill="#000000" fill-opacity="0.0" d="m770.02234 74.13911l72.12598 0" fill-rule="evenodd"/><path stroke="#000000" stroke-width="2.0" stroke-linejoin="round" stroke-linecap="butt" d="m770.02234 74.13911l60.125977 0" fill-rule="evenodd"/><path fill="#000000" stroke="#000000" stroke-width="2.0" stroke-linecap="butt" d="m830.1483 77.44257l9.076172 -3.3034668l-9.076172 -3.3034668z" fill-rule="evenodd"/><path fill="#000000" fill-opacity="0.0" d="m697.63257 152.40945l0 -45.637802" fill-rule="evenodd"/><path stroke="#000000" stroke-width="2.0" stroke-linejoin="round" stroke-linecap="butt" d="m697.63257 152.40945l0 -33.637802" fill-rule="evenodd"/><path fill="#000000" stroke="#000000" stroke-width="2.0" stroke-linecap="butt" d="m700.93604 118.77165l-3.3034668 -9.076195l-3.3034668 9.076195z" fill-rule="evenodd"/><path fill="#000000" fill-opacity="0.0" d="m697.63257 118.48819l56.346436 0l0 33.921265l-56.346436 0z" fill-rule="evenodd"/><path fill="#000000" d="m718.19147 130.33632q0.109375 0 0.171875 0.015625q0.078125 0 0.140625 0.03125q0.0625 0.015625 0.109375 0.078125q0.0625 0.046875 0.125 0.125l4.546875 5.8125q-0.015625 -0.21875 -0.03125 -0.421875q0 -0.203125 0 -0.375l0 -5.265625l1.421875 0l0 8.671875l-0.84375 0q-0.1875 0 -0.3125 -0.0625q-0.125 -0.0625 -0.25 -0.21875l-4.53125 -5.765625q0.015625 0.1875 0.015625 0.375q0.015625 0.1875 0.015625 0.34375l0 5.328125l-1.421875 0l0 -8.671875l0.84375 0l0 0zm16.556458 4.328125q0 0.953125 -0.328125 1.765625q-0.3125 0.8125 -0.890625 1.421875q-0.578125 0.59375 -1.390625 0.921875q-0.796875 0.328125 -1.78125 0.328125q-0.984375 0 -1.796875 -0.328125q-0.8125 -0.328125 -1.40625 -0.921875q-0.578125 -0.609375 -0.890625 -1.421875q-0.3125 -0.8125 -0.3125 -1.765625q0 -0.953125 0.3125 -1.765625q0.3125 -0.8125 0.890625 -1.40625q0.59375 -0.59375 1.40625 -0.921875q0.8125 -0.328125 1.796875 -0.328125q0.984375 0 1.78125 0.34375q0.8125 0.328125 1.390625 0.921875q0.578125 0.578125 0.890625 1.390625q0.328125 0.8125 0.328125 1.765625zm-1.65625 0q0 -0.703125 -0.203125 -1.265625q-0.1875 -0.578125 -0.546875 -0.96875q-0.34375 -0.40625 -0.859375 -0.609375q-0.5 -0.203125 -1.125 -0.203125q-0.640625 0 -1.15625 0.203125q-0.5 0.203125 -0.859375 0.609375q-0.359375 0.390625 -0.5625 0.96875q-0.1875 0.5625 -0.1875 1.265625q0 0.71875 0.1875 1.296875q0.203125 0.5625 0.5625 0.953125q0.359375 0.390625 0.859375 0.609375q0.515625 0.203125 1.15625 0.203125q0.625 0 1.125 -0.203125q0.515625 -0.21875 0.859375 -0.609375q0.359375 -0.390625 0.546875 -0.953125q0.203125 -0.578125 0.203125 -1.296875z" fill-rule="nonzero"/></g></svg>