<svg version="1.1" viewBox="0.0 0.0 779.6666666666666 606.4068241469816" fill="none" stroke="none" stroke-linecap="square" stroke-miterlimit="10" xmlns:xlink="http://www.w3.org/1999/xlink" xmlns="http://www.w3.org/2000/svg"><clipPath id="p.0"><path d="m0 0l779.6667 0l0 606.4068l-779.6667 0l0 -606.4068z" clip-rule="nonzero"/></clipPath><g clip-path="url(#p.0)"><path fill="#000000" fill-opacity="0.0" d="m0 0l779.6667 0l0 606.4068l-779.6667 0z" fill-rule="evenodd"/><path fill="#cfe2f3" d="m166.93176 112.08662l16.32283 -65.291336l165.56694 0l-16.322845 65.291336z" fill-rule="evenodd"/><path stroke="#000000" stroke-width="1.0" stroke-linejoin="round" stroke-linecap="butt" d="m166.93176 112.08662l16.32283 -65.291336l165.56694 0l-16.322845 65.291336z" fill-rule="evenodd"/><path fill="#000000" d="m227.10417 74.640945l0 -2.0l2.265625 0l0 -10.000004l-2.265625 0l0 -2.0l6.6875 0l0 2.0l-2.265625 0l0 10.000004l2.265625 0l0 2.0l-6.6875 0zm10.075623 0l0 -14.000004l1.953125 0l8.546875 11.453129l-0.3125 0.1875q-0.140625 -0.828125 -0.234375 -1.90625q-0.09375 -1.078125 -0.140625 -2.375q-0.03125 -1.296875 -0.03125 -2.765625l0 -4.593754l2.171875 0l0 14.000004l-1.984375 0l-8.421875 -11.046879l0.21875 -0.265625q0.140625 1.5156288 0.21875 2.4843788q0.078125 0.96875 0.109375 1.546875q0.046875 0.578125 0.0625 0.90625q0.015625 0.328125 0.015625 0.5625l0 5.8125l-2.171875 0zm15.859985 0l0 -14.000004l5.7031097 0q1.140625 0 2.0625 0.578125q0.9375 0.5625 1.5 1.546875q0.5625 0.96875 0.5625 2.1718788q0 1.203125 -0.5625 2.1875q-0.5625 0.96875 -1.5 1.5625q-0.921875 0.59375 -2.0625 0.59375l-3.5312347 0l0 5.359375l-2.171875 0zm2.171875 -7.4375l3.4999847 0q0.53125 0 0.96875 -0.3125q0.453125 -0.3125 0.71875 -0.8125q0.265625 -0.515625 0.265625 -1.140625q0 -0.609375 -0.265625 -1.1093788q-0.265625 -0.5 -0.71875 -0.796875q-0.4375 -0.3125 -0.96875 -0.3125l-3.4999847 0l0 4.484379zm15.961227 7.5625q-1.625 0 -2.90625 -0.703125q-1.28125 -0.71875 -2.015625 -1.96875q-0.71875 -1.25 -0.71875 -2.828125l0 -8.640629l2.15625 0l0 8.453129q0 1.015625 0.46875 1.828125q0.484375 0.8125 1.265625 1.296875q0.796875 0.484375 1.75 0.484375q1.0 0 1.796875 -0.484375q0.8125 -0.484375 1.296875 -1.296875q0.484375 -0.8125 0.484375 -1.828125l0 -8.453129l2.0625 0l0 8.640629q0 1.578125 -0.734375 2.828125q-0.734375 1.25 -2.015625 1.96875q-1.28125 0.703125 -2.890625 0.703125zm12.018738 -0.125l0 -11.921879l-3.921875 0l0 -2.078125l10.109375 0l0 2.078125l-4.03125 0l0 11.921879l-2.15625 0z" fill-rule="nonzero"/><path fill="#000000" d="m236.68105 98.640945l0 -14.0l3.0625 0l5.078125 8.265625l-2.15625 -0.03125l5.140625 -8.234375l2.953125 0l0 14.0l-3.3125 0l0 -4.234375q0 -1.84375 0.09375 -3.3125q0.09375 -1.46875 0.3125 -2.890625l0.375 1.03125l-3.859375 5.984375l-1.359375 0l-3.78125 -5.9375l0.375 -1.078125q0.25 1.34375 0.328125 2.78125q0.09375 1.421875 0.09375 3.421875l0 4.234375l-3.34375 0zm17.528732 4.015625l-0.9375 -1.140625q0.8125 -0.375 1.296875 -0.9375q0.5 -0.5625 0.5 -0.9375q0 -0.203125 -0.109375 -0.40625q-0.09375 -0.1875 -0.4375 -0.46875q-0.453125 -0.34375 -0.625 -0.671875q-0.171875 -0.328125 -0.171875 -0.734375q0 -0.640625 0.453125 -0.984375q0.46875 -0.359375 1.171875 -0.359375q0.59375 0 1.0625 0.328125q0.46875 0.3125 0.734375 0.890625q0.28125 0.5625 0.28125 1.328125q0 0.65625 -0.25 1.296875q-0.234375 0.640625 -0.671875 1.203125q-0.4375 0.5625 -1.015625 0.96875q-0.578125 0.40625 -1.28125 0.625zm12.171234 -4.015625l0 -14.0l3.0625 0l7.359375 9.984375l-0.65625 -0.078125q-0.140625 -1.125 -0.25 -2.09375q-0.09375 -0.96875 -0.125 -2.03125q-0.03125 -1.0625 -0.03125 -2.4375l0 -3.34375l3.328125 0l0 14.0l-3.109375 0l-7.625 -10.28125l0.96875 0.140625q0.140625 1.21875 0.21875 2.03125q0.078125 0.796875 0.125 1.359375q0.046875 0.5625 0.0625 1.0625q0.015625 0.484375 0.015625 1.09375l0 4.59375l-3.34375 0z" fill-rule="nonzero"/><path fill="#ff9900" d="m29.563444 30.223097l76.40686 0l0 0c10.009506 0 18.123817 10.965147 18.123817 24.491339c0 13.526196 -8.114311 24.491337 -18.123817 24.491337l-76.40686 0l0 0c-10.009504 0 -18.123812 -10.965141 -18.123812 -24.491337c0 -13.526192 8.114307 -24.491339 18.123812 -24.491339z" fill-rule="evenodd"/><path stroke="#000000" stroke-width="1.0" stroke-linejoin="round" stroke-linecap="butt" d="m29.563444 30.223097l76.40686 0l0 0c10.009506 0 18.123817 10.965147 18.123817 24.491339c0 13.526196 -8.114311 24.491337 -18.123817 24.491337l-76.40686 0l0 0c-10.009504 0 -18.123812 -10.965141 -18.123812 -24.491337c0 -13.526192 8.114307 -24.491339 18.123812 -24.491339z" fill-rule="evenodd"/><path fill="#000000" d="m43.038147 62.11756q-1.71875 0 -3.03125 -0.671875q-1.3125 -0.6875 -2.25 -2.046875l1.484375 -1.703125q0.96875 1.40625 1.875 1.953125q0.90625 0.53125 2.140625 0.53125q0.765625 0 1.375 -0.234375q0.625 -0.25 0.984375 -0.671875q0.359375 -0.421875 0.359375 -0.953125q0 -0.359375 -0.125 -0.671875q-0.109375 -0.328125 -0.359375 -0.59375q-0.25 -0.265625 -0.640625 -0.484375q-0.390625 -0.21875 -0.921875 -0.390625q-0.515625 -0.171875 -1.1875 -0.28125q-1.078125 -0.21875 -1.890625 -0.578125q-0.796875 -0.359375 -1.34375 -0.90625q-0.53125 -0.546875 -0.796875 -1.234375q-0.25 -0.6875 -0.25 -1.546875q0 -1.140625 0.640625 -2.015625q0.640625 -0.890625 1.71875 -1.390625q1.09375 -0.515625 2.453125 -0.515625q1.625 0 2.828125 0.640625q1.21875 0.625 1.921875 1.828125l-1.53125 1.5q-0.59375 -0.984375 -1.421875 -1.5q-0.828125 -0.53125 -1.859375 -0.53125q-0.765625 0 -1.359375 0.25q-0.578125 0.234375 -0.90625 0.671875q-0.328125 0.421875 -0.328125 1.0q0 0.421875 0.15625 0.78125q0.171875 0.34375 0.5 0.609375q0.328125 0.265625 0.875 0.484375q0.5625 0.203125 1.34375 0.375q1.109375 0.234375 1.96875 0.609375q0.859375 0.359375 1.453125 0.859375q0.609375 0.5 0.90625 1.125q0.3125 0.625 0.3125 1.34375q0 1.34375 -0.625 2.328125q-0.609375 0.96875 -1.75 1.5q-1.140625 0.53125 -2.71875 0.53125zm10.823746 -0.203125l0 -11.921875l-3.921875 0l0 -2.078125l10.109375 0l0 2.078125l-4.03125 0l0 11.921875l-2.15625 0zm6.394989 0l5.421875 -14.0l2.203125 0l5.375 14.0l-2.296875 0l-3.203125 -8.4375q-0.0625 -0.140625 -0.234375 -0.671875q-0.171875 -0.546875 -0.390625 -1.203125q-0.21875 -0.671875 -0.40625 -1.21875q-0.171875 -0.546875 -0.234375 -0.703125l0.46875 -0.03125q-0.125 0.34375 -0.296875 0.875q-0.171875 0.515625 -0.359375 1.09375q-0.1875 0.578125 -0.375 1.09375q-0.171875 0.5 -0.296875 0.84375l-3.171875 8.359375l-2.203125 0zm2.40625 -3.484375l0.796875 -2.078125l6.359375 0l0.921875 2.078125l-8.078125 0zm13.04686 3.484375l0 -14.0l5.9687576 0q1.203125 0 2.203125 0.59375q1.015625 0.59375 1.609375 1.609375q0.609375 1.0 0.609375 2.25q0 1.140625 -0.609375 2.125q-0.59375 0.984375 -1.59375 1.578125q-1.0 0.578125 -2.21875 0.578125l-3.7968826 0l0 5.265625l-2.171875 0zm8.328133 0l-3.5625076 -6.3125l2.2187576 -0.5l3.96875 6.828125l-2.625 -0.015625zm-6.1562576 -7.34375l4.0000076 0q0.578125 0 1.03125 -0.28125q0.46875 -0.296875 0.71875 -0.796875q0.265625 -0.515625 0.265625 -1.140625q0 -0.703125 -0.328125 -1.21875q-0.328125 -0.53125 -0.921875 -0.828125q-0.59375 -0.3125 -1.328125 -0.3125l-3.4375076 0l0 4.578125zm14.000008 7.34375l0 -11.921875l-3.921875 0l0 -2.078125l10.109375 0l0 2.078125l-4.03125 0l0 11.921875l-2.15625 0z" fill-rule="nonzero"/><path fill="#000000" fill-opacity="0.0" d="m11.440945 574.08136l322.83466 0l0 33.921265l-322.83466 0z" fill-rule="evenodd"/><path fill="#000000" d="m27.284695 592.5545q0.125 0 0.21875 0.109375l0.640625 0.6875q-0.53125 0.65625 -1.296875 1.0q-0.765625 0.34375 -1.859375 0.34375q-0.953125 0 -1.734375 -0.328125q-0.765625 -0.328125 -1.3125 -0.90625q-0.546875 -0.59375 -0.84375 -1.40625q-0.28125 -0.828125 -0.28125 -1.796875q0 -0.96875 0.3125 -1.78125q0.328125 -0.8125 0.921875 -1.40625q0.59375 -0.59375 1.40625 -0.90625q0.8125 -0.328125 1.8125 -0.328125q0.96875 0 1.6875 0.3125q0.71875 0.296875 1.234375 0.8125l-0.53125 0.75q-0.0625 0.0625 -0.140625 0.125q-0.0625 0.046875 -0.203125 0.046875q-0.125 0 -0.28125 -0.109375q-0.140625 -0.109375 -0.359375 -0.234375q-0.21875 -0.125 -0.5625 -0.21875q-0.34375 -0.109375 -0.859375 -0.109375q-0.609375 0 -1.125 0.21875q-0.515625 0.203125 -0.890625 0.59375q-0.359375 0.390625 -0.578125 0.96875q-0.203125 0.5625 -0.203125 1.265625q0 0.734375 0.203125 1.3125q0.21875 0.5625 0.5625 0.953125q0.359375 0.390625 0.84375 0.609375q0.484375 0.203125 1.03125 0.203125q0.328125 0 0.59375 -0.03125q0.265625 -0.046875 0.484375 -0.125q0.234375 -0.078125 0.4375 -0.203125q0.203125 -0.125 0.390625 -0.296875q0.0625 -0.0625 0.125 -0.09375q0.078125 -0.03125 0.15625 -0.03125zm10.405426 -2.296875q0 0.953125 -0.328125 1.765625q-0.3125 0.8125 -0.890625 1.421875q-0.578125 0.59375 -1.390625 0.921875q-0.796875 0.328125 -1.78125 0.328125q-0.984375 0 -1.796875 -0.328125q-0.8125 -0.328125 -1.40625 -0.921875q-0.578125 -0.609375 -0.890625 -1.421875q-0.3125 -0.8125 -0.3125 -1.765625q0 -0.953125 0.3125 -1.765625q0.3125 -0.8125 0.890625 -1.40625q0.59375 -0.59375 1.40625 -0.921875q0.8125 -0.328125 1.796875 -0.328125q0.984375 0 1.78125 0.34375q0.8125 0.328125 1.390625 0.921875q0.578125 0.578125 0.890625 1.390625q0.328125 0.8125 0.328125 1.765625zm-1.65625 0q0 -0.703125 -0.203125 -1.265625q-0.1875 -0.578125 -0.546875 -0.96875q-0.34375 -0.40625 -0.859375 -0.609375q-0.5 -0.203125 -1.125 -0.203125q-0.640625 0 -1.15625 0.203125q-0.5 0.203125 -0.859375 0.609375q-0.359375 0.390625 -0.5625 0.96875q-0.1875 0.5625 -0.1875 1.265625q0 0.71875 0.1875 1.296875q0.203125 0.5625 0.5625 0.953125q0.359375 0.390625 0.859375 0.609375q0.515625 0.203125 1.15625 0.203125q0.625 0 1.125 -0.203125q0.515625 -0.21875 0.859375 -0.609375q0.359375 -0.390625 0.546875 -0.953125q0.203125 -0.578125 0.203125 -1.296875zm4.5940704 1.296875l0 3.046875l-1.609375 0l0 -8.671875l2.8125 0q0.875 0 1.5 0.203125q0.640625 0.203125 1.046875 0.578125q0.421875 0.359375 0.625 0.875q0.203125 0.5 0.203125 1.109375q0 0.625 -0.21875 1.15625q-0.203125 0.515625 -0.625 0.90625q-0.421875 0.375 -1.046875 0.59375q-0.625 0.203125 -1.484375 0.203125l-1.203125 0zm0 -1.265625l1.203125 0q0.453125 0 0.78125 -0.109375q0.328125 -0.109375 0.546875 -0.3125q0.21875 -0.21875 0.328125 -0.515625q0.109375 -0.296875 0.109375 -0.65625q0 -0.359375 -0.109375 -0.640625q-0.109375 -0.28125 -0.328125 -0.46875q-0.21875 -0.203125 -0.546875 -0.296875q-0.328125 -0.109375 -0.78125 -0.109375l-1.203125 0l0 3.109375zm9.687546 0.9375l0 3.375l-1.609375 0l0 -3.375l-3.171875 -5.296875l1.421875 0q0.21875 0 0.34375 0.109375q0.125 0.09375 0.203125 0.25l1.59375 2.890625q0.125 0.265625 0.234375 0.5q0.109375 0.21875 0.1875 0.453125q0.078125 -0.234375 0.171875 -0.46875q0.109375 -0.234375 0.234375 -0.484375l1.578125 -2.890625q0.078125 -0.140625 0.203125 -0.25q0.140625 -0.109375 0.34375 -0.109375l1.421875 0l-3.15625 5.296875zm5.6665497 -0.015625l0 3.390625l-1.609375 0l0 -8.671875l2.640625 0q0.890625 0 1.515625 0.1875q0.640625 0.171875 1.046875 0.5q0.40625 0.328125 0.59375 0.796875q0.1875 0.453125 0.1875 1.0q0 0.453125 -0.140625 0.84375q-0.125 0.375 -0.375 0.703125q-0.234375 0.3125 -0.59375 0.5625q-0.359375 0.234375 -0.8125 0.375q0.3125 0.171875 0.53125 0.5l2.171875 3.203125l-1.453125 0q-0.203125 0 -0.359375 -0.078125q-0.140625 -0.09375 -0.25 -0.25l-1.8125 -2.78125q-0.109375 -0.15625 -0.234375 -0.21875q-0.125 -0.0625 -0.359375 -0.0625l-0.6875 0zm0 -1.15625l1.0 0q0.46875 0 0.796875 -0.109375q0.34375 -0.125 0.5625 -0.3125q0.21875 -0.203125 0.328125 -0.484375q0.109375 -0.28125 0.109375 -0.609375q0 -0.65625 -0.4375 -1.0q-0.4375 -0.359375 -1.328125 -0.359375l-1.03125 0l0 2.875zm8.000687 4.546875l-1.609375 0l0 -8.671875l1.609375 0l0 8.671875zm5.9398994 -1.1875q0.546875 0 0.953125 -0.09375q0.40625 -0.109375 0.765625 -0.28125l0 -1.578125l-1.078125 0q-0.15625 0 -0.25 -0.078125q-0.09375 -0.09375 -0.09375 -0.21875l0 -0.90625l2.890625 0l0 3.5q-0.328125 0.25 -0.6875 0.421875q-0.359375 0.171875 -0.765625 0.296875q-0.40625 0.109375 -0.875 0.15625q-0.453125 0.0625 -0.984375 0.0625q-0.953125 0 -1.75 -0.328125q-0.796875 -0.328125 -1.375 -0.90625q-0.578125 -0.59375 -0.90625 -1.40625q-0.328125 -0.828125 -0.328125 -1.796875q0 -0.96875 0.3125 -1.78125q0.328125 -0.828125 0.90625 -1.40625q0.578125 -0.59375 1.40625 -0.90625q0.84375 -0.328125 1.890625 -0.328125q1.0625 0 1.828125 0.3125q0.78125 0.3125 1.328125 0.8125l-0.46875 0.734375q-0.140625 0.21875 -0.375 0.21875q-0.140625 0 -0.296875 -0.09375q-0.1875 -0.109375 -0.390625 -0.21875q-0.203125 -0.125 -0.453125 -0.203125q-0.234375 -0.09375 -0.546875 -0.140625q-0.296875 -0.046875 -0.6875 -0.046875q-0.640625 0 -1.15625 0.21875q-0.515625 0.203125 -0.890625 0.609375q-0.359375 0.40625 -0.5625 0.96875q-0.203125 0.5625 -0.203125 1.25q0 0.75 0.203125 1.34375q0.21875 0.578125 0.59375 0.984375q0.390625 0.40625 0.90625 0.625q0.515625 0.203125 1.140625 0.203125zm12.019806 1.1875l-1.640625 0l0 -3.796875l-4.0625 0l0 3.796875l-1.625 0l0 -8.671875l1.625 0l0 3.734375l4.0625 0l0 -3.734375l1.640625 0l0 8.671875zm7.8533173 -8.671875l0 1.328125l-2.609375 0l0 7.34375l-1.609375 0l0 -7.34375l-2.625 0l0 -1.328125l6.84375 0zm8.581055 5.59375q0.0625 0 0.109375 0.03125q0.0625 0.03125 0.09375 0.078125l0.484375 0.515625q-0.328125 0.4375 -0.84375 0.65625q-0.5 0.21875 -1.1875 0.21875q-0.609375 0 -1.09375 -0.203125q-0.484375 -0.21875 -0.828125 -0.59375q-0.34375 -0.375 -0.53125 -0.875q-0.1875 -0.515625 -0.1875 -1.109375q0 -0.609375 0.203125 -1.109375q0.21875 -0.515625 0.578125 -0.875q0.375 -0.375 0.875 -0.578125q0.515625 -0.21875 1.09375 -0.21875q0.671875 0 1.140625 0.234375q0.484375 0.21875 0.8125 0.5625l-0.390625 0.546875q-0.03125 0.046875 -0.09375 0.09375q-0.0625 0.046875 -0.15625 0.046875q-0.109375 0 -0.203125 -0.0625q-0.09375 -0.0625 -0.21875 -0.125q-0.125 -0.078125 -0.3125 -0.140625q-0.1875 -0.0625 -0.5 -0.0625q-0.359375 0 -0.640625 0.125q-0.28125 0.109375 -0.484375 0.328125q-0.1875 0.21875 -0.296875 0.53125q-0.09375 0.3125 -0.09375 0.703125q0 0.40625 0.09375 0.71875q0.109375 0.3125 0.296875 0.53125q0.1875 0.21875 0.4375 0.328125q0.265625 0.109375 0.5625 0.109375q0.296875 0 0.484375 -0.046875q0.1875 -0.046875 0.3125 -0.109375q0.140625 -0.078125 0.234375 -0.140625q0.109375 -0.0625 0.25 -0.109375zm-5.796875 -1.265625q0 -0.609375 0.15625 -1.171875q0.171875 -0.5625 0.453125 -1.046875q0.296875 -0.5 0.6875 -0.90625q0.40625 -0.40625 0.890625 -0.6875q0.5 -0.296875 1.0625 -0.453125q0.578125 -0.15625 1.1875 -0.15625q0.609375 0 1.171875 0.15625q0.5625 0.15625 1.046875 0.453125q0.5 0.28125 0.90625 0.6875q0.40625 0.40625 0.6875 0.90625q0.296875 0.484375 0.453125 1.046875q0.171875 0.5625 0.171875 1.171875q0 0.609375 -0.171875 1.1875q-0.15625 0.5625 -0.453125 1.046875q-0.28125 0.484375 -0.6875 0.890625q-0.40625 0.40625 -0.90625 0.703125q-0.484375 0.28125 -1.046875 0.4375q-0.5625 0.15625 -1.171875 0.15625q-0.609375 0 -1.1875 -0.15625q-0.5625 -0.15625 -1.0625 -0.4375q-0.484375 -0.296875 -0.890625 -0.703125q-0.390625 -0.40625 -0.6875 -0.890625q-0.28125 -0.484375 -0.453125 -1.046875q-0.15625 -0.5625 -0.15625 -1.1875zm0.8125 0q0 0.78125 0.28125 1.46875q0.28125 0.671875 0.765625 1.171875q0.484375 0.5 1.140625 0.796875q0.671875 0.28125 1.4375 0.28125q0.765625 0 1.421875 -0.28125q0.671875 -0.296875 1.15625 -0.796875q0.5 -0.5 0.78125 -1.171875q0.28125 -0.6875 0.28125 -1.46875q0 -0.515625 -0.140625 -0.984375q-0.125 -0.484375 -0.359375 -0.90625q-0.234375 -0.421875 -0.5625 -0.75q-0.328125 -0.34375 -0.734375 -0.578125q-0.40625 -0.25 -0.875 -0.375q-0.46875 -0.140625 -0.96875 -0.140625q-0.515625 0 -0.984375 0.140625q-0.453125 0.125 -0.859375 0.375q-0.40625 0.234375 -0.734375 0.578125q-0.328125 0.328125 -0.5625 0.75q-0.234375 0.421875 -0.359375 0.90625q-0.125 0.46875 -0.125 0.984375zm13.610947 -1.921875q0.390625 0 0.734375 0.078125q0.359375 0.078125 0.640625 0.234375l1.78125 0l0 0.5625q0 0.140625 -0.078125 0.21875q-0.078125 0.078125 -0.25 0.109375l-0.546875 0.09375q0.0625 0.15625 0.09375 0.328125q0.03125 0.171875 0.03125 0.375q0 0.453125 -0.1875 0.828125q-0.171875 0.359375 -0.5 0.625q-0.328125 0.25 -0.765625 0.390625q-0.4375 0.140625 -0.953125 0.140625q-0.34375 0 -0.671875 -0.0625q-0.296875 0.171875 -0.296875 0.390625q0 0.1875 0.171875 0.28125q0.171875 0.078125 0.453125 0.109375q0.28125 0.03125 0.625 0.046875q0.359375 0.015625 0.734375 0.046875q0.375 0.015625 0.71875 0.09375q0.359375 0.078125 0.640625 0.25q0.28125 0.15625 0.453125 0.4375q0.171875 0.28125 0.171875 0.71875q0 0.40625 -0.203125 0.78125q-0.203125 0.390625 -0.59375 0.6875q-0.375 0.296875 -0.9375 0.484375q-0.546875 0.1875 -1.25 0.1875q-0.703125 0 -1.21875 -0.140625q-0.515625 -0.140625 -0.859375 -0.359375q-0.328125 -0.21875 -0.5 -0.515625q-0.171875 -0.296875 -0.171875 -0.609375q0 -0.4375 0.265625 -0.734375q0.265625 -0.296875 0.734375 -0.46875q-0.234375 -0.125 -0.375 -0.328125q-0.125 -0.21875 -0.125 -0.546875q0 -0.140625 0.046875 -0.28125q0.046875 -0.15625 0.140625 -0.296875q0.109375 -0.140625 0.25 -0.265625q0.15625 -0.140625 0.359375 -0.234375q-0.46875 -0.265625 -0.734375 -0.671875q-0.265625 -0.421875 -0.265625 -0.984375q0 -0.46875 0.171875 -0.828125q0.1875 -0.375 0.515625 -0.625q0.328125 -0.265625 0.765625 -0.40625q0.453125 -0.140625 0.984375 -0.140625zm1.625 6.546875q0 -0.1875 -0.109375 -0.296875q-0.109375 -0.109375 -0.296875 -0.171875q-0.1875 -0.078125 -0.4375 -0.09375q-0.234375 -0.03125 -0.515625 -0.046875q-0.28125 -0.015625 -0.578125 -0.03125q-0.296875 -0.015625 -0.578125 -0.046875q-0.25 0.125 -0.40625 0.328125q-0.15625 0.1875 -0.15625 0.421875q0 0.171875 0.078125 0.3125q0.09375 0.140625 0.265625 0.234375q0.171875 0.109375 0.453125 0.15625q0.296875 0.0625 0.703125 0.0625q0.40625 0 0.703125 -0.0625q0.3125 -0.0625 0.5 -0.171875q0.203125 -0.109375 0.28125 -0.265625q0.09375 -0.15625 0.09375 -0.328125zm-1.625 -3.515625q0.28125 0 0.484375 -0.0625q0.203125 -0.078125 0.328125 -0.203125q0.140625 -0.140625 0.203125 -0.328125q0.078125 -0.1875 0.078125 -0.40625q0 -0.453125 -0.28125 -0.71875q-0.265625 -0.265625 -0.8125 -0.265625q-0.546875 0 -0.828125 0.265625q-0.265625 0.265625 -0.265625 0.71875q0 0.21875 0.0625 0.40625q0.078125 0.1875 0.203125 0.328125q0.140625 0.125 0.34375 0.203125q0.21875 0.0625 0.484375 0.0625zm5.663162 -2.921875l0 6.15625l-1.484375 0l0 -6.15625l1.484375 0zm0.21875 -1.796875q0 0.1875 -0.078125 0.359375q-0.078125 0.171875 -0.21875 0.296875q-0.125 0.125 -0.296875 0.203125q-0.171875 0.078125 -0.375 0.078125q-0.1875 0 -0.359375 -0.078125q-0.171875 -0.078125 -0.296875 -0.203125q-0.125 -0.125 -0.203125 -0.296875q-0.0625 -0.171875 -0.0625 -0.359375q0 -0.1875 0.0625 -0.359375q0.078125 -0.1875 0.203125 -0.3125q0.125 -0.125 0.296875 -0.1875q0.171875 -0.078125 0.359375 -0.078125q0.203125 0 0.375 0.078125q0.171875 0.0625 0.296875 0.1875q0.140625 0.125 0.21875 0.3125q0.078125 0.171875 0.078125 0.359375zm3.4707794 8.046875q-0.796875 0 -1.234375 -0.453125q-0.421875 -0.453125 -0.421875 -1.25l0 -3.4375l-0.625 0q-0.125 0 -0.21875 -0.078125q-0.078125 -0.078125 -0.078125 -0.234375l0 -0.59375l0.984375 -0.15625l0.3125 -1.671875q0.03125 -0.125 0.109375 -0.1875q0.09375 -0.078125 0.21875 -0.078125l0.78125 0l0 1.9375l1.609375 0l0 1.0625l-1.609375 0l0 3.34375q0 0.28125 0.140625 0.453125q0.140625 0.15625 0.375 0.15625q0.140625 0 0.234375 -0.03125q0.09375 -0.03125 0.15625 -0.0625q0.078125 -0.046875 0.125 -0.078125q0.0625 -0.03125 0.109375 -0.03125q0.078125 0 0.109375 0.03125q0.046875 0.03125 0.09375 0.09375l0.4375 0.71875q-0.3125 0.265625 -0.734375 0.40625q-0.421875 0.140625 -0.875 0.140625zm2.6284027 -0.09375l0 -8.921875l1.484375 0l0 3.4375q0.359375 -0.34375 0.78125 -0.546875q0.4375 -0.21875 1.015625 -0.21875q0.5 0 0.890625 0.171875q0.390625 0.171875 0.65625 0.484375q0.265625 0.296875 0.390625 0.734375q0.140625 0.421875 0.140625 0.9375l0 3.921875l-1.484375 0l0 -3.921875q0 -0.5625 -0.265625 -0.859375q-0.25 -0.3125 -0.78125 -0.3125q-0.375 0 -0.71875 0.171875q-0.328125 0.171875 -0.625 0.46875l0 4.453125l-1.484375 0zm8.165802 -6.15625l0 3.90625q0 0.5625 0.265625 0.875q0.265625 0.3125 0.78125 0.3125q0.390625 0 0.71875 -0.171875q0.34375 -0.171875 0.640625 -0.46875l0 -4.453125l1.484375 0l0 6.15625l-0.90625 0q-0.28125 0 -0.375 -0.265625l-0.109375 -0.5q-0.1875 0.203125 -0.390625 0.359375q-0.203125 0.15625 -0.4375 0.265625q-0.234375 0.109375 -0.5 0.171875q-0.265625 0.0625 -0.578125 0.0625q-0.5 0 -0.890625 -0.171875q-0.375 -0.171875 -0.640625 -0.484375q-0.265625 -0.3125 -0.40625 -0.734375q-0.125 -0.4375 -0.125 -0.953125l0 -3.90625l1.46875 0zm5.493927 6.15625l0 -8.921875l1.484375 0l0 3.515625q0.359375 -0.390625 0.8125 -0.609375q0.46875 -0.234375 1.09375 -0.234375q0.5 0 0.90625 0.203125q0.421875 0.203125 0.71875 0.609375q0.3125 0.390625 0.46875 0.984375q0.171875 0.578125 0.171875 1.328125q0 0.6875 -0.1875 1.28125q-0.171875 0.578125 -0.53125 1.015625q-0.34375 0.4375 -0.828125 0.6875q-0.484375 0.234375 -1.09375 0.234375q-0.28125 0 -0.515625 -0.0625q-0.234375 -0.0625 -0.4375 -0.15625q-0.1875 -0.109375 -0.359375 -0.25q-0.15625 -0.140625 -0.296875 -0.328125l-0.078125 0.421875q-0.03125 0.15625 -0.125 0.21875q-0.078125 0.0625 -0.234375 0.0625l-0.96875 0zm2.875 -5.09375q-0.453125 0 -0.78125 0.203125q-0.328125 0.1875 -0.609375 0.53125l0 2.765625q0.25 0.3125 0.546875 0.4375q0.296875 0.125 0.640625 0.125q0.34375 0 0.609375 -0.125q0.265625 -0.140625 0.453125 -0.390625q0.1875 -0.265625 0.28125 -0.65625q0.109375 -0.390625 0.109375 -0.921875q0 -0.546875 -0.09375 -0.921875q-0.078125 -0.375 -0.234375 -0.609375q-0.15625 -0.234375 -0.390625 -0.328125q-0.234375 -0.109375 -0.53125 -0.109375zm3.590042 4.28125q0 -0.1875 0.0625 -0.359375q0.078125 -0.171875 0.203125 -0.28125q0.125 -0.125 0.28125 -0.1875q0.171875 -0.078125 0.359375 -0.078125q0.1875 0 0.359375 0.078125q0.171875 0.0625 0.28125 0.1875q0.125 0.109375 0.1875 0.28125q0.078125 0.171875 0.078125 0.359375q0 0.1875 -0.078125 0.359375q-0.0625 0.15625 -0.1875 0.28125q-0.109375 0.125 -0.28125 0.1875q-0.171875 0.0625 -0.359375 0.0625q-0.1875 0 -0.359375 -0.0625q-0.15625 -0.0625 -0.28125 -0.1875q-0.125 -0.125 -0.203125 -0.28125q-0.0625 -0.171875 -0.0625 -0.359375zm7.387512 -4.046875q-0.078125 0.09375 -0.140625 0.140625q-0.0625 0.046875 -0.171875 0.046875q-0.125 0 -0.234375 -0.0625q-0.109375 -0.078125 -0.265625 -0.15625q-0.140625 -0.09375 -0.34375 -0.15625q-0.203125 -0.078125 -0.515625 -0.078125q-0.390625 0 -0.6875 0.140625q-0.28125 0.140625 -0.484375 0.40625q-0.1875 0.265625 -0.296875 0.640625q-0.09375 0.375 -0.09375 0.84375q0 0.5 0.109375 0.890625q0.109375 0.375 0.296875 0.640625q0.203125 0.25 0.484375 0.390625q0.28125 0.140625 0.640625 0.140625q0.359375 0 0.578125 -0.09375q0.21875 -0.09375 0.359375 -0.1875q0.15625 -0.109375 0.265625 -0.1875q0.109375 -0.09375 0.25 -0.09375q0.171875 0 0.265625 0.140625l0.421875 0.53125q-0.234375 0.296875 -0.53125 0.5q-0.28125 0.1875 -0.59375 0.3125q-0.3125 0.109375 -0.640625 0.15625q-0.328125 0.046875 -0.65625 0.046875q-0.5625 0 -1.078125 -0.21875q-0.5 -0.21875 -0.875 -0.625q-0.375 -0.40625 -0.59375 -0.984375q-0.21875 -0.59375 -0.21875 -1.359375q0 -0.671875 0.1875 -1.25q0.203125 -0.578125 0.578125 -1.0q0.390625 -0.421875 0.9375 -0.65625q0.5625 -0.25 1.28125 -0.25q0.703125 0 1.21875 0.21875q0.515625 0.21875 0.9375 0.640625l-0.390625 0.53125zm4.02092 -1.390625q0.6875 0 1.25 0.21875q0.5625 0.21875 0.953125 0.640625q0.40625 0.40625 0.609375 1.0q0.21875 0.578125 0.21875 1.296875q0 0.734375 -0.21875 1.328125q-0.203125 0.578125 -0.609375 1.0q-0.390625 0.40625 -0.953125 0.640625q-0.5625 0.21875 -1.25 0.21875q-0.6875 0 -1.25 -0.21875q-0.5625 -0.234375 -0.96875 -0.640625q-0.40625 -0.421875 -0.625 -1.0q-0.21875 -0.59375 -0.21875 -1.328125q0 -0.71875 0.21875 -1.296875q0.21875 -0.59375 0.625 -1.0q0.40625 -0.421875 0.96875 -0.640625q0.5625 -0.21875 1.25 -0.21875zm0 5.203125q0.765625 0 1.125 -0.515625q0.375 -0.515625 0.375 -1.515625q0 -1.0 -0.375 -1.515625q-0.359375 -0.53125 -1.125 -0.53125q-0.78125 0 -1.15625 0.53125q-0.375 0.53125 -0.375 1.515625q0 0.984375 0.375 1.515625q0.375 0.515625 1.15625 0.515625zm4.197052 1.046875l0 -6.15625l0.90625 0q0.28125 0 0.375 0.265625l0.09375 0.453125q0.15625 -0.171875 0.328125 -0.3125q0.1875 -0.15625 0.390625 -0.265625q0.203125 -0.109375 0.421875 -0.171875q0.234375 -0.0625 0.515625 -0.0625q0.578125 0 0.953125 0.3125q0.375 0.3125 0.5625 0.84375q0.140625 -0.3125 0.359375 -0.53125q0.21875 -0.21875 0.46875 -0.359375q0.265625 -0.140625 0.546875 -0.203125q0.296875 -0.0625 0.59375 -0.0625q0.515625 0 0.90625 0.15625q0.390625 0.15625 0.65625 0.453125q0.28125 0.296875 0.421875 0.734375q0.140625 0.4375 0.140625 0.984375l0 3.921875l-1.484375 0l0 -3.921875q0 -0.578125 -0.265625 -0.875q-0.25 -0.296875 -0.75 -0.296875q-0.21875 0 -0.421875 0.078125q-0.1875 0.078125 -0.34375 0.21875q-0.140625 0.140625 -0.234375 0.375q-0.078125 0.21875 -0.078125 0.5l0 3.921875l-1.484375 0l0 -3.921875q0 -0.609375 -0.25 -0.890625q-0.25 -0.28125 -0.734375 -0.28125q-0.3125 0 -0.59375 0.15625q-0.28125 0.15625 -0.515625 0.4375l0 4.5l-1.484375 0zm10.61969 0.015625q-0.0625 0.140625 -0.140625 0.234375q-0.078125 0.109375 -0.1875 0.171875q-0.109375 0.078125 -0.234375 0.109375q-0.125 0.03125 -0.234375 0.03125l-0.625 0l3.5 -8.953125q0.109375 -0.25 0.296875 -0.390625q0.1875 -0.140625 0.46875 -0.140625l0.625 0l-3.46875 8.9375zm11.534653 -0.015625l-1.640625 0l0 -3.796875l-4.0625 0l0 3.796875l-1.625 0l0 -8.671875l1.625 0l0 3.734375l4.0625 0l0 -3.734375l1.640625 0l0 8.671875zm5.2439423 -1.296875q0.46875 0 0.828125 -0.15625q0.375 -0.15625 0.625 -0.4375q0.25 -0.28125 0.390625 -0.6875q0.140625 -0.40625 0.140625 -0.90625l0 -5.1875l1.609375 0l0 5.1875q0 0.78125 -0.25 1.4375q-0.25 0.65625 -0.71875 1.140625q-0.46875 0.46875 -1.140625 0.734375q-0.65625 0.265625 -1.484375 0.265625q-0.84375 0 -1.515625 -0.265625q-0.65625 -0.265625 -1.125 -0.734375q-0.46875 -0.484375 -0.71875 -1.140625q-0.234375 -0.65625 -0.234375 -1.4375l0 -5.1875l1.609375 0l0 5.1875q0 0.5 0.125 0.90625q0.140625 0.390625 0.390625 0.6875q0.25 0.28125 0.625 0.4375q0.375 0.15625 0.84375 0.15625zm11.345444 -7.375l0 1.328125l-2.609375 0l0 7.34375l-1.609375 0l0 -7.34375l-2.625 0l0 -1.328125l6.84375 0zm-0.33058167 4.4375l3.109375 0l0 1.234375l-3.109375 0l0 -1.234375zm10.558029 2.1875q0.125 0 0.21875 0.109375l0.640625 0.6875q-0.53125 0.65625 -1.296875 1.0q-0.765625 0.34375 -1.859375 0.34375q-0.953125 0 -1.734375 -0.328125q-0.765625 -0.328125 -1.3125 -0.90625q-0.546875 -0.59375 -0.84375 -1.40625q-0.28125 -0.828125 -0.28125 -1.796875q0 -0.96875 0.3125 -1.78125q0.328125 -0.8125 0.921875 -1.40625q0.59375 -0.59375 1.40625 -0.90625q0.8125 -0.328125 1.8125 -0.328125q0.96875 0 1.6875 0.3125q0.71875 0.296875 1.234375 0.8125l-0.53125 0.75q-0.0625 0.0625 -0.140625 0.125q-0.0625 0.046875 -0.203125 0.046875q-0.125 0 -0.28125 -0.109375q-0.140625 -0.109375 -0.359375 -0.234375q-0.21875 -0.125 -0.5625 -0.21875q-0.34375 -0.109375 -0.859375 -0.109375q-0.609375 0 -1.125 0.21875q-0.515625 0.203125 -0.890625 0.59375q-0.359375 0.390625 -0.578125 0.96875q-0.203125 0.5625 -0.203125 1.265625q0 0.734375 0.203125 1.3125q0.21875 0.5625 0.5625 0.953125q0.359375 0.390625 0.84375 0.609375q0.484375 0.203125 1.03125 0.203125q0.328125 0 0.59375 -0.03125q0.265625 -0.046875 0.484375 -0.125q0.234375 -0.078125 0.4375 -0.203125q0.203125 -0.125 0.390625 -0.296875q0.0625 -0.0625 0.125 -0.09375q0.078125 -0.03125 0.15625 -0.03125zm7.546051 -6.625l0 1.28125l-3.84375 0l0 2.40625l3.03125 0l0 1.234375l-3.03125 0l0 2.453125l3.84375 0l0 1.296875l-5.46875 0l0 -8.671875l5.46875 0zm1.8387909 8.6875q-0.0625 0.140625 -0.140625 0.234375q-0.078125 0.109375 -0.1875 0.171875q-0.109375 0.078125 -0.234375 0.109375q-0.125 0.03125 -0.234375 0.03125l-0.625 0l3.5 -8.953125q0.109375 -0.25 0.296875 -0.390625q0.1875 -0.140625 0.46875 -0.140625l0.625 0l-3.46875 8.9375zm5.7065277 -6.171875l0 6.15625l-1.484375 0l0 -6.15625l1.484375 0zm0.21875 -1.796875q0 0.1875 -0.078125 0.359375q-0.078125 0.171875 -0.21875 0.296875q-0.125 0.125 -0.296875 0.203125q-0.171875 0.078125 -0.375 0.078125q-0.1875 0 -0.359375 -0.078125q-0.171875 -0.078125 -0.296875 -0.203125q-0.125 -0.125 -0.203125 -0.296875q-0.0625 -0.171875 -0.0625 -0.359375q0 -0.1875 0.0625 -0.359375q0.078125 -0.1875 0.203125 -0.3125q0.125 -0.125 0.296875 -0.1875q0.171875 -0.078125 0.359375 -0.078125q0.203125 0 0.375 0.078125q0.171875 0.0625 0.296875 0.1875q0.140625 0.125 0.21875 0.3125q0.078125 0.171875 0.078125 0.359375zm1.4551544 7.953125l0 -6.15625l0.90625 0q0.28125 0 0.375 0.265625l0.09375 0.484375q0.1875 -0.1875 0.390625 -0.34375q0.21875 -0.15625 0.4375 -0.265625q0.234375 -0.109375 0.5 -0.171875q0.265625 -0.0625 0.578125 -0.0625q0.5 0 0.890625 0.171875q0.390625 0.171875 0.65625 0.484375q0.265625 0.296875 0.390625 0.734375q0.140625 0.421875 0.140625 0.9375l0 3.921875l-1.484375 0l0 -3.921875q0 -0.5625 -0.265625 -0.859375q-0.25 -0.3125 -0.78125 -0.3125q-0.375 0 -0.71875 0.171875q-0.328125 0.171875 -0.625 0.46875l0 4.453125l-1.484375 0zm8.837677 0.09375q-0.796875 0 -1.234375 -0.453125q-0.421875 -0.453125 -0.421875 -1.25l0 -3.4375l-0.625 0q-0.125 0 -0.21875 -0.078125q-0.078125 -0.078125 -0.078125 -0.234375l0 -0.59375l0.984375 -0.15625l0.3125 -1.671875q0.03125 -0.125 0.109375 -0.1875q0.09375 -0.078125 0.21875 -0.078125l0.78125 0l0 1.9375l1.609375 0l0 1.0625l-1.609375 0l0 3.34375q0 0.28125 0.140625 0.453125q0.140625 0.15625 0.375 0.15625q0.140625 0 0.234375 -0.03125q0.09375 -0.03125 0.15625 -0.0625q0.078125 -0.046875 0.125 -0.078125q0.0625 -0.03125 0.109375 -0.03125q0.078125 0 0.109375 0.03125q0.046875 0.03125 0.09375 0.09375l0.4375 0.71875q-0.3125 0.265625 -0.734375 0.40625q-0.421875 0.140625 -0.875 0.140625zm2.6284027 -0.09375l0 -6.15625l0.859375 0q0.234375 0 0.3125 0.09375q0.09375 0.078125 0.125 0.28125l0.09375 0.734375q0.328125 -0.5625 0.765625 -0.890625q0.453125 -0.328125 1.0 -0.328125q0.46875 0 0.765625 0.203125l-0.1875 1.109375q-0.03125 0.109375 -0.09375 0.15625q-0.046875 0.046875 -0.15625 0.046875q-0.09375 0 -0.25 -0.046875q-0.15625 -0.046875 -0.40625 -0.046875q-0.46875 0 -0.796875 0.265625q-0.328125 0.25 -0.546875 0.75l0 3.828125l-1.484375 0zm7.5270386 -6.25q0.6875 0 1.25 0.21875q0.5625 0.21875 0.953125 0.640625q0.40625 0.40625 0.609375 1.0q0.21875 0.578125 0.21875 1.296875q0 0.734375 -0.21875 1.328125q-0.203125 0.578125 -0.609375 1.0q-0.390625 0.40625 -0.953125 0.640625q-0.5625 0.21875 -1.25 0.21875q-0.6875 0 -1.25 -0.21875q-0.5625 -0.234375 -0.96875 -0.640625q-0.40625 -0.421875 -0.625 -1.0q-0.21875 -0.59375 -0.21875 -1.328125q0 -0.71875 0.21875 -1.296875q0.21875 -0.59375 0.625 -1.0q0.40625 -0.421875 0.96875 -0.640625q0.5625 -0.21875 1.25 -0.21875zm0 5.203125q0.765625 0 1.125 -0.515625q0.375 -0.515625 0.375 -1.515625q0 -1.0 -0.375 -1.515625q-0.359375 -0.53125 -1.125 -0.53125q-0.78125 0 -1.15625 0.53125q-0.375 0.53125 -0.375 1.515625q0 0.984375 0.375 1.515625q0.375 0.515625 1.15625 0.515625zm3.993927 -3.1875l3.109375 0l0 1.234375l-3.109375 0l0 -1.234375zm4.511154 6.25l0 -8.171875l0.90625 0q0.140625 0 0.234375 0.0625q0.109375 0.0625 0.140625 0.203125l0.125 0.578125q0.359375 -0.421875 0.84375 -0.6875q0.484375 -0.265625 1.140625 -0.265625q0.5 0 0.90625 0.21875q0.421875 0.203125 0.71875 0.609375q0.3125 0.390625 0.46875 0.984375q0.171875 0.578125 0.171875 1.328125q0 0.6875 -0.1875 1.28125q-0.1875 0.578125 -0.53125 1.015625q-0.34375 0.4375 -0.828125 0.6875q-0.484375 0.234375 -1.09375 0.234375q-0.53125 0 -0.890625 -0.15625q-0.359375 -0.171875 -0.640625 -0.453125l0 2.53125l-1.484375 0zm2.875 -7.109375q-0.46875 0 -0.796875 0.203125q-0.3125 0.1875 -0.59375 0.53125l0 2.765625q0.25 0.3125 0.546875 0.4375q0.296875 0.125 0.640625 0.125q0.328125 0 0.59375 -0.125q0.28125 -0.140625 0.46875 -0.390625q0.1875 -0.265625 0.28125 -0.65625q0.109375 -0.390625 0.109375 -0.921875q0 -0.546875 -0.09375 -0.921875q-0.078125 -0.375 -0.25 -0.609375q-0.15625 -0.234375 -0.390625 -0.328125q-0.21875 -0.109375 -0.515625 -0.109375zm3.9110413 5.09375l0 -6.15625l0.859375 0q0.234375 0 0.3125 0.09375q0.09375 0.078125 0.125 0.28125l0.09375 0.734375q0.328125 -0.5625 0.765625 -0.890625q0.453125 -0.328125 1.0 -0.328125q0.46875 0 0.765625 0.203125l-0.1875 1.109375q-0.03125 0.109375 -0.09375 0.15625q-0.046875 0.046875 -0.15625 0.046875q-0.09375 0 -0.25 -0.046875q-0.15625 -0.046875 -0.40625 -0.046875q-0.46875 0 -0.796875 0.265625q-0.328125 0.25 -0.546875 0.75l0 3.828125l-1.484375 0zm7.5270386 -6.25q0.6875 0 1.25 0.21875q0.5625 0.21875 0.953125 0.640625q0.40625 0.40625 0.609375 1.0q0.21875 0.578125 0.21875 1.296875q0 0.734375 -0.21875 1.328125q-0.203125 0.578125 -0.609375 1.0q-0.390625 0.40625 -0.953125 0.640625q-0.5625 0.21875 -1.25 0.21875q-0.6875 0 -1.25 -0.21875q-0.5625 -0.234375 -0.96875 -0.640625q-0.40625 -0.421875 -0.625 -1.0q-0.21875 -0.59375 -0.21875 -1.328125q0 -0.71875 0.21875 -1.296875q0.21875 -0.59375 0.625 -1.0q0.40625 -0.421875 0.96875 -0.640625q0.5625 -0.21875 1.25 -0.21875zm0 5.203125q0.765625 0 1.125 -0.515625q0.375 -0.515625 0.375 -1.515625q0 -1.0 -0.375 -1.515625q-0.359375 -0.53125 -1.125 -0.53125q-0.78125 0 -1.15625 0.53125q-0.375 0.53125 -0.375 1.515625q0 0.984375 0.375 1.515625q0.375 0.515625 1.15625 0.515625zm6.322052 -5.21875q0.390625 0 0.734375 0.078125q0.359375 0.078125 0.640625 0.234375l1.78125 0l0 0.5625q0 0.140625 -0.078125 0.21875q-0.078125 0.078125 -0.25 0.109375l-0.546875 0.09375q0.0625 0.15625 0.09375 0.328125q0.03125 0.171875 0.03125 0.375q0 0.453125 -0.1875 0.828125q-0.171875 0.359375 -0.5 0.625q-0.328125 0.25 -0.765625 0.390625q-0.4375 0.140625 -0.953125 0.140625q-0.34375 0 -0.671875 -0.0625q-0.296875 0.171875 -0.296875 0.390625q0 0.1875 0.171875 0.28125q0.171875 0.078125 0.453125 0.109375q0.28125 0.03125 0.625 0.046875q0.359375 0.015625 0.734375 0.046875q0.375 0.015625 0.71875 0.09375q0.359375 0.078125 0.640625 0.25q0.28125 0.15625 0.453125 0.4375q0.171875 0.28125 0.171875 0.71875q0 0.40625 -0.203125 0.78125q-0.203125 0.390625 -0.59375 0.6875q-0.375 0.296875 -0.9375 0.484375q-0.546875 0.1875 -1.25 0.1875q-0.703125 0 -1.21875 -0.140625q-0.515625 -0.140625 -0.859375 -0.359375q-0.328125 -0.21875 -0.5 -0.515625q-0.171875 -0.296875 -0.171875 -0.609375q0 -0.4375 0.265625 -0.734375q0.265625 -0.296875 0.734375 -0.46875q-0.234375 -0.125 -0.375 -0.328125q-0.125 -0.21875 -0.125 -0.546875q0 -0.140625 0.046875 -0.28125q0.046875 -0.15625 0.140625 -0.296875q0.109375 -0.140625 0.25 -0.265625q0.15625 -0.140625 0.359375 -0.234375q-0.46875 -0.265625 -0.734375 -0.671875q-0.265625 -0.421875 -0.265625 -0.984375q0 -0.46875 0.171875 -0.828125q0.1875 -0.375 0.515625 -0.625q0.328125 -0.265625 0.765625 -0.40625q0.453125 -0.140625 0.984375 -0.140625zm1.625 6.546875q0 -0.1875 -0.109375 -0.296875q-0.109375 -0.109375 -0.296875 -0.171875q-0.1875 -0.078125 -0.4375 -0.09375q-0.234375 -0.03125 -0.515625 -0.046875q-0.28125 -0.015625 -0.578125 -0.03125q-0.296875 -0.015625 -0.578125 -0.046875q-0.25 0.125 -0.40625 0.328125q-0.15625 0.1875 -0.15625 0.421875q0 0.171875 0.078125 0.3125q0.09375 0.140625 0.265625 0.234375q0.171875 0.109375 0.453125 0.15625q0.296875 0.0625 0.703125 0.0625q0.40625 0 0.703125 -0.0625q0.3125 -0.0625 0.5 -0.171875q0.203125 -0.109375 0.28125 -0.265625q0.09375 -0.15625 0.09375 -0.328125zm-1.625 -3.515625q0.28125 0 0.484375 -0.0625q0.203125 -0.078125 0.328125 -0.203125q0.140625 -0.140625 0.203125 -0.328125q0.078125 -0.1875 0.078125 -0.40625q0 -0.453125 -0.28125 -0.71875q-0.265625 -0.265625 -0.8125 -0.265625q-0.546875 0 -0.828125 0.265625q-0.265625 0.265625 -0.265625 0.71875q0 0.21875 0.0625 0.40625q0.078125 0.1875 0.203125 0.328125q0.140625 0.125 0.34375 0.203125q0.21875 0.0625 0.484375 0.0625zm4.085022 3.234375l0 -6.15625l0.859375 0q0.234375 0 0.3125 0.09375q0.09375 0.078125 0.125 0.28125l0.09375 0.734375q0.328125 -0.5625 0.765625 -0.890625q0.453125 -0.328125 1.0 -0.328125q0.46875 0 0.765625 0.203125l-0.1875 1.109375q-0.03125 0.109375 -0.09375 0.15625q-0.046875 0.046875 -0.15625 0.046875q-0.09375 0 -0.25 -0.046875q-0.15625 -0.046875 -0.40625 -0.046875q-0.46875 0 -0.796875 0.265625q-0.328125 0.25 -0.546875 0.75l0 3.828125l-1.484375 0zm9.540558 0l-0.65625 0q-0.21875 0 -0.34375 -0.0625q-0.109375 -0.0625 -0.171875 -0.25l-0.125 -0.4375q-0.234375 0.203125 -0.46875 0.359375q-0.21875 0.15625 -0.46875 0.265625q-0.234375 0.109375 -0.5 0.15625q-0.265625 0.0625 -0.59375 0.0625q-0.390625 0 -0.734375 -0.09375q-0.328125 -0.109375 -0.5625 -0.3125q-0.234375 -0.21875 -0.375 -0.53125q-0.125 -0.3125 -0.125 -0.734375q0 -0.34375 0.1875 -0.671875q0.1875 -0.34375 0.609375 -0.609375q0.421875 -0.28125 1.125 -0.453125q0.71875 -0.1875 1.765625 -0.21875l0 -0.359375q0 -0.609375 -0.265625 -0.90625q-0.265625 -0.296875 -0.75 -0.296875q-0.359375 0 -0.609375 0.078125q-0.234375 0.078125 -0.421875 0.1875q-0.171875 0.109375 -0.328125 0.203125q-0.140625 0.078125 -0.328125 0.078125q-0.140625 0 -0.25 -0.078125q-0.109375 -0.078125 -0.171875 -0.203125l-0.265625 -0.46875q1.0625 -0.96875 2.5625 -0.96875q0.53125 0 0.953125 0.171875q0.421875 0.171875 0.71875 0.5q0.296875 0.3125 0.4375 0.75q0.15625 0.4375 0.15625 0.953125l0 3.890625zm-2.875 -0.921875q0.234375 0 0.421875 -0.046875q0.1875 -0.046875 0.359375 -0.125q0.171875 -0.078125 0.328125 -0.203125q0.171875 -0.125 0.328125 -0.296875l0 -1.03125q-0.65625 0.03125 -1.09375 0.109375q-0.421875 0.078125 -0.6875 0.203125q-0.265625 0.125 -0.375 0.296875q-0.109375 0.171875 -0.109375 0.359375q0 0.390625 0.21875 0.5625q0.234375 0.171875 0.609375 0.171875zm4.3445435 0.921875l0 -6.15625l0.90625 0q0.28125 0 0.375 0.265625l0.09375 0.453125q0.15625 -0.171875 0.328125 -0.3125q0.1875 -0.15625 0.390625 -0.265625q0.203125 -0.109375 0.421875 -0.171875q0.234375 -0.0625 0.515625 -0.0625q0.578125 0 0.953125 0.3125q0.375 0.3125 0.5625 0.84375q0.140625 -0.3125 0.359375 -0.53125q0.21875 -0.21875 0.46875 -0.359375q0.265625 -0.140625 0.546875 -0.203125q0.296875 -0.0625 0.59375 -0.0625q0.515625 0 0.90625 0.15625q0.390625 0.15625 0.65625 0.453125q0.28125 0.296875 0.421875 0.734375q0.140625 0.4375 0.140625 0.984375l0 3.921875l-1.484375 0l0 -3.921875q0 -0.578125 -0.265625 -0.875q-0.25 -0.296875 -0.75 -0.296875q-0.21875 0 -0.421875 0.078125q-0.1875 0.078125 -0.34375 0.21875q-0.140625 0.140625 -0.234375 0.375q-0.078125 0.21875 -0.078125 0.5l0 3.921875l-1.484375 0l0 -3.921875q0 -0.609375 -0.25 -0.890625q-0.25 -0.28125 -0.734375 -0.28125q-0.3125 0 -0.59375 0.15625q-0.28125 0.15625 -0.515625 0.4375l0 4.5l-1.484375 0zm10.104065 0l0 -6.15625l0.90625 0q0.28125 0 0.375 0.265625l0.09375 0.453125q0.15625 -0.171875 0.328125 -0.3125q0.1875 -0.15625 0.390625 -0.265625q0.203125 -0.109375 0.421875 -0.171875q0.234375 -0.0625 0.515625 -0.0625q0.578125 0 0.953125 0.3125q0.375 0.3125 0.5625 0.84375q0.140625 -0.3125 0.359375 -0.53125q0.21875 -0.21875 0.46875 -0.359375q0.265625 -0.140625 0.546875 -0.203125q0.296875 -0.0625 0.59375 -0.0625q0.515625 0 0.90625 0.15625q0.390625 0.15625 0.65625 0.453125q0.28125 0.296875 0.421875 0.734375q0.140625 0.4375 0.140625 0.984375l0 3.921875l-1.484375 0l0 -3.921875q0 -0.578125 -0.265625 -0.875q-0.25 -0.296875 -0.75 -0.296875q-0.21875 0 -0.421875 0.078125q-0.1875 0.078125 -0.34375 0.21875q-0.140625 0.140625 -0.234375 0.375q-0.078125 0.21875 -0.078125 0.5l0 3.921875l-1.484375 0l0 -3.921875q0 -0.609375 -0.25 -0.890625q-0.25 -0.28125 -0.734375 -0.28125q-0.3125 0 -0.59375 0.15625q-0.28125 0.15625 -0.515625 0.4375l0 4.5l-1.484375 0zm11.68219 -6.15625l0 6.15625l-1.484375 0l0 -6.15625l1.484375 0zm0.21875 -1.796875q0 0.1875 -0.078125 0.359375q-0.078125 0.171875 -0.21875 0.296875q-0.125 0.125 -0.296875 0.203125q-0.171875 0.078125 -0.375 0.078125q-0.1875 0 -0.359375 -0.078125q-0.171875 -0.078125 -0.296875 -0.203125q-0.125 -0.125 -0.203125 -0.296875q-0.0625 -0.171875 -0.0625 -0.359375q0 -0.1875 0.0625 -0.359375q0.078125 -0.1875 0.203125 -0.3125q0.125 -0.125 0.296875 -0.1875q0.171875 -0.078125 0.359375 -0.078125q0.203125 0 0.375 0.078125q0.171875 0.0625 0.296875 0.1875q0.140625 0.125 0.21875 0.3125q0.078125 0.171875 0.078125 0.359375zm1.4551697 7.953125l0 -6.15625l0.90625 0q0.28125 0 0.375 0.265625l0.09375 0.484375q0.1875 -0.1875 0.390625 -0.34375q0.21875 -0.15625 0.4375 -0.265625q0.234375 -0.109375 0.5 -0.171875q0.265625 -0.0625 0.578125 -0.0625q0.5 0 0.890625 0.171875q0.390625 0.171875 0.65625 0.484375q0.265625 0.296875 0.390625 0.734375q0.140625 0.421875 0.140625 0.9375l0 3.921875l-1.484375 0l0 -3.921875q0 -0.5625 -0.265625 -0.859375q-0.25 -0.3125 -0.78125 -0.3125q-0.375 0 -0.71875 0.171875q-0.328125 0.171875 -0.625 0.46875l0 4.453125l-1.484375 0zm8.947052 -6.265625q0.390625 0 0.734375 0.078125q0.359375 0.078125 0.640625 0.234375l1.78125 0l0 0.5625q0 0.140625 -0.078125 0.21875q-0.078125 0.078125 -0.25 0.109375l-0.546875 0.09375q0.0625 0.15625 0.09375 0.328125q0.03125 0.171875 0.03125 0.375q0 0.453125 -0.1875 0.828125q-0.171875 0.359375 -0.5 0.625q-0.328125 0.25 -0.765625 0.390625q-0.4375 0.140625 -0.953125 0.140625q-0.34375 0 -0.671875 -0.0625q-0.296875 0.171875 -0.296875 0.390625q0 0.1875 0.171875 0.28125q0.171875 0.078125 0.453125 0.109375q0.28125 0.03125 0.625 0.046875q0.359375 0.015625 0.734375 0.046875q0.375 0.015625 0.71875 0.09375q0.359375 0.078125 0.640625 0.25q0.28125 0.15625 0.453125 0.4375q0.171875 0.28125 0.171875 0.71875q0 0.40625 -0.203125 0.78125q-0.203125 0.390625 -0.59375 0.6875q-0.375 0.296875 -0.9375 0.484375q-0.546875 0.1875 -1.25 0.1875q-0.703125 0 -1.21875 -0.140625q-0.515625 -0.140625 -0.859375 -0.359375q-0.328125 -0.21875 -0.5 -0.515625q-0.171875 -0.296875 -0.171875 -0.609375q0 -0.4375 0.265625 -0.734375q0.265625 -0.296875 0.734375 -0.46875q-0.234375 -0.125 -0.375 -0.328125q-0.125 -0.21875 -0.125 -0.546875q0 -0.140625 0.046875 -0.28125q0.046875 -0.15625 0.140625 -0.296875q0.109375 -0.140625 0.25 -0.265625q0.15625 -0.140625 0.359375 -0.234375q-0.46875 -0.265625 -0.734375 -0.671875q-0.265625 -0.421875 -0.265625 -0.984375q0 -0.46875 0.171875 -0.828125q0.1875 -0.375 0.515625 -0.625q0.328125 -0.265625 0.765625 -0.40625q0.453125 -0.140625 0.984375 -0.140625zm1.625 6.546875q0 -0.1875 -0.109375 -0.296875q-0.109375 -0.109375 -0.296875 -0.171875q-0.1875 -0.078125 -0.4375 -0.09375q-0.234375 -0.03125 -0.515625 -0.046875q-0.28125 -0.015625 -0.578125 -0.03125q-0.296875 -0.015625 -0.578125 -0.046875q-0.25 0.125 -0.40625 0.328125q-0.15625 0.1875 -0.15625 0.421875q0 0.171875 0.078125 0.3125q0.09375 0.140625 0.265625 0.234375q0.171875 0.109375 0.453125 0.15625q0.296875 0.0625 0.703125 0.0625q0.40625 0 0.703125 -0.0625q0.3125 -0.0625 0.5 -0.171875q0.203125 -0.109375 0.28125 -0.265625q0.09375 -0.15625 0.09375 -0.328125zm-1.625 -3.515625q0.28125 0 0.484375 -0.0625q0.203125 -0.078125 0.328125 -0.203125q0.140625 -0.140625 0.203125 -0.328125q0.078125 -0.1875 0.078125 -0.40625q0 -0.453125 -0.28125 -0.71875q-0.265625 -0.265625 -0.8125 -0.265625q-0.546875 0 -0.828125 0.265625q-0.265625 0.265625 -0.265625 0.71875q0 0.21875 0.0625 0.40625q0.078125 0.1875 0.203125 0.328125q0.140625 0.125 0.34375 0.203125q0.21875 0.0625 0.484375 0.0625z" fill-rule="nonzero"/><path fill="#000000" fill-opacity="0.0" d="m124.094124 54.714436l21.418724 0l0 24.724407l29.573395 0" fill-rule="evenodd"/><path stroke="#000000" stroke-width="2.0" stroke-linejoin="round" stroke-linecap="butt" d="m124.09412 54.71443l21.418747 0l0 24.724411l17.57338 0" fill-rule="evenodd"/><path fill="#000000" stroke="#000000" stroke-width="2.0" stroke-linecap="butt" d="m163.08624 82.74231l9.076202 -3.3034668l-9.076202 -3.3034668z" fill-rule="evenodd"/><path fill="#cfe2f3" d="m40.51181 326.68503l148.6318 0l0 83.75482c-74.3159 0 -74.3159 31.91214 -148.6318 13.780243z" fill-rule="evenodd"/><path stroke="#000000" stroke-width="1.0" stroke-linejoin="round" stroke-linecap="butt" d="m40.51181 326.68503l148.6318 0l0 83.75482c-74.3159 0 -74.3159 31.91214 -148.6318 13.780243z" fill-rule="evenodd"/><path fill="#000000" d="m85.02086 363.76245l0 -14.0l5.703125 0q1.140625 0 2.0625 0.578125q0.9375 0.5625 1.5 1.546875q0.5625 0.96875 0.5625 2.171875q0 1.203125 -0.5625 2.1875q-0.5625 0.96875 -1.5 1.5625q-0.921875 0.59375 -2.0625 0.59375l-3.53125 0l0 5.359375l-2.171875 0zm2.171875 -7.4375l3.5 0q0.53125 0 0.96875 -0.3125q0.453125 -0.3125 0.71875 -0.8125q0.265625 -0.515625 0.265625 -1.140625q0 -0.609375 -0.265625 -1.109375q-0.265625 -0.5 -0.71875 -0.796875q-0.4375 -0.3125 -0.96875 -0.3125l-3.5 0l0 4.484375zm10.508118 7.4375l0 -14.0l5.96875 0q1.203125 0 2.203125 0.59375q1.015625 0.59375 1.609375 1.609375q0.609375 1.0 0.609375 2.25q0 1.140625 -0.609375 2.125q-0.59375 0.984375 -1.59375 1.578125q-1.0 0.578125 -2.21875 0.578125l-3.796875 0l0 5.265625l-2.171875 0zm8.328125 0l-3.5625 -6.3125l2.21875 -0.5l3.96875 6.828125l-2.625 -0.015625zm-6.15625 -7.34375l4.0 0q0.578125 0 1.03125 -0.28125q0.46875 -0.296875 0.71875 -0.796875q0.265625 -0.515625 0.265625 -1.140625q0 -0.703125 -0.328125 -1.21875q-0.328125 -0.53125 -0.921875 -0.828125q-0.59375 -0.3125 -1.328125 -0.3125l-3.4375 0l0 4.578125zm11.212494 7.34375l0 -2.0l2.265625 0l0 -10.0l-2.265625 0l0 -2.0l6.6875 0l0 2.0l-2.265625 0l0 10.0l2.265625 0l0 2.0l-6.6875 0zm10.075623 0l0 -14.0l1.953125 0l8.546875 11.453125l-0.3125 0.1875q-0.140625 -0.828125 -0.234375 -1.90625q-0.09375 -1.078125 -0.140625 -2.375q-0.03125 -1.296875 -0.03125 -2.765625l0 -4.59375l2.171875 0l0 14.0l-1.984375 0l-8.421875 -11.046875l0.21875 -0.265625q0.140625 1.515625 0.21875 2.484375q0.078125 0.96875 0.109375 1.546875q0.046875 0.578125 0.0625 0.90625q0.015625 0.328125 0.015625 0.5625l0 5.8125l-2.171875 0zm18.53186 0l0 -11.921875l-3.921875 0l0 -2.078125l10.109375 0l0 2.078125l-4.03125 0l0 11.921875l-2.15625 0z" fill-rule="nonzero"/><path fill="#000000" d="m107.7821 387.76245l0 -14.0l3.0625 0l5.078125 8.265625l-2.15625 -0.03125l5.140625 -8.234375l2.953125 0l0 14.0l-3.3125 0l0 -4.234375q0 -1.84375 0.09375 -3.3125q0.09375 -1.46875 0.3125 -2.890625l0.375 1.03125l-3.859375 5.984375l-1.359375 0l-3.78125 -5.9375l0.375 -1.078125q0.25 1.34375 0.328125 2.78125q0.09375 1.421875 0.09375 3.421875l0 4.234375l-3.34375 0z" fill-rule="nonzero"/><path fill="#cfe2f3" d="m296.77692 304.91864l100.74014 -58.92914l100.74017 58.92914l-100.74017 58.92914z" fill-rule="evenodd"/><path stroke="#000000" stroke-width="1.0" stroke-linejoin="round" stroke-linecap="butt" d="m296.77692 304.91864l100.74014 -58.92914l100.74017 58.92914l-100.74017 58.92914z" fill-rule="evenodd"/><path fill="#000000" d="m368.55023 312.11862l0 -14.0l1.953125 0l8.546875 11.453125l-0.3125 0.1875q-0.140625 -0.828125 -0.234375 -1.90625q-0.09375 -1.078125 -0.140625 -2.375q-0.03125 -1.296875 -0.03125 -2.765625l0 -4.59375l2.171875 0l0 14.0l-1.984375 0l-8.421875 -11.046875l0.21875 -0.265625q0.140625 1.515625 0.21875 2.484375q0.078125 0.96875 0.109375 1.546875q0.046875 0.578125 0.0625 0.90625q0.015625 0.328125 0.015625 0.5625l0 5.8125l-2.171875 0zm20.506836 -6.625l0 -1.796875l9.3125 0l0 1.796875l-9.3125 0zm0 3.78125l0 -1.78125l9.3125 0l0 1.78125l-9.3125 0zm11.320007 -3.78125l0 -1.796875l9.3125 0l0 1.796875l-9.3125 0zm0 3.78125l0 -1.78125l9.3125 0l0 1.78125l-9.3125 0zm21.982483 3.046875q-1.609375 0 -2.765625 -0.875q-1.140625 -0.890625 -1.765625 -2.5q-0.609375 -1.609375 -0.609375 -3.828125q0 -2.21875 0.609375 -3.828125q0.625 -1.609375 1.765625 -2.484375q1.15625 -0.890625 2.765625 -0.890625q1.59375 0 2.75 0.890625q1.171875 0.875 1.78125 2.484375q0.625 1.609375 0.625 3.828125q0 2.21875 -0.625 3.828125q-0.609375 1.609375 -1.78125 2.5q-1.15625 0.875 -2.75 0.875zm0 -1.96875q1.453125 0 2.25 -1.359375q0.8125 -1.375 0.8125 -3.875q0 -2.5 -0.8125 -3.859375q-0.796875 -1.375 -2.25 -1.375q-1.46875 0 -2.265625 1.375q-0.796875 1.359375 -0.796875 3.859375q0 2.5 0.796875 3.875q0.796875 1.359375 2.265625 1.359375z" fill-rule="nonzero"/><path fill="#000000" fill-opacity="0.0" d="m296.77692 304.91864l-181.95276 0l0 21.763763" fill-rule="evenodd"/><path stroke="#000000" stroke-width="2.0" stroke-linejoin="round" stroke-linecap="butt" d="m296.77692 304.91864l-181.95276 0l0 9.763763" fill-rule="evenodd"/><path fill="#000000" stroke="#000000" stroke-width="2.0" stroke-linecap="butt" d="m111.52068 314.6824l3.3034668 9.076202l3.3034592 -9.076202z" fill-rule="evenodd"/><path fill="#000000" fill-opacity="0.0" d="m250.22572 274.59973l56.34645 0l0 35.55905l-56.34645 0z" fill-rule="evenodd"/><path fill="#000000" d="m271.91254 292.64975l0 3.75l-1.796875 0l0 -3.75l-3.515625 -5.890625l1.578125 0q0.234375 0 0.375 0.125q0.140625 0.109375 0.21875 0.28125l1.78125 3.21875q0.140625 0.28125 0.25 0.546875q0.125 0.25 0.21875 0.5q0.078125 -0.25 0.1875 -0.5q0.109375 -0.265625 0.265625 -0.546875l1.75 -3.21875q0.078125 -0.15625 0.21875 -0.28125q0.15625 -0.125 0.375 -0.125l1.59375 0l-3.5 5.890625zm10.504486 -5.890625l0 1.4375l-4.265625 0l0 2.671875l3.359375 0l0 1.375l-3.359375 0l0 2.71875l4.265625 0l0 1.4375l-6.078125 0l0 -9.640625l6.078125 0zm6.72406 1.75q-0.078125 0.15625 -0.171875 0.21875q-0.09375 0.0625 -0.234375 0.0625q-0.125 0 -0.296875 -0.109375q-0.171875 -0.109375 -0.40625 -0.234375q-0.21875 -0.125 -0.515625 -0.21875q-0.296875 -0.109375 -0.71875 -0.109375q-0.375 0 -0.65625 0.09375q-0.265625 0.078125 -0.453125 0.25q-0.1875 0.15625 -0.28125 0.375q-0.09375 0.21875 -0.09375 0.484375q0 0.34375 0.1875 0.578125q0.1875 0.21875 0.5 0.390625q0.3125 0.15625 0.703125 0.28125q0.40625 0.125 0.8125 0.265625q0.421875 0.140625 0.828125 0.34375q0.40625 0.1875 0.71875 0.484375q0.3125 0.28125 0.5 0.703125q0.1875 0.40625 0.1875 1.015625q0 0.65625 -0.234375 1.234375q-0.21875 0.5625 -0.65625 0.984375q-0.421875 0.421875 -1.046875 0.671875q-0.609375 0.234375 -1.40625 0.234375q-0.453125 0 -0.90625 -0.09375q-0.453125 -0.09375 -0.859375 -0.25q-0.40625 -0.171875 -0.765625 -0.40625q-0.359375 -0.234375 -0.640625 -0.515625l0.53125 -0.859375q0.0625 -0.09375 0.171875 -0.15625q0.109375 -0.0625 0.234375 -0.0625q0.15625 0 0.34375 0.140625q0.203125 0.125 0.46875 0.296875q0.265625 0.171875 0.609375 0.3125q0.359375 0.125 0.859375 0.125q0.765625 0 1.1875 -0.359375q0.421875 -0.359375 0.421875 -1.046875q0 -0.375 -0.1875 -0.609375q-0.1875 -0.25 -0.5 -0.40625q-0.3125 -0.171875 -0.71875 -0.28125q-0.390625 -0.109375 -0.8125 -0.234375q-0.40625 -0.140625 -0.8125 -0.328125q-0.40625 -0.1875 -0.71875 -0.484375q-0.3125 -0.3125 -0.5 -0.75q-0.1875 -0.453125 -0.1875 -1.125q0 -0.515625 0.203125 -1.015625q0.21875 -0.5 0.625 -0.890625q0.40625 -0.390625 0.984375 -0.625q0.59375 -0.234375 1.34375 -0.234375q0.84375 0 1.5625 0.28125q0.734375 0.265625 1.234375 0.734375l-0.4375 0.84375z" fill-rule="nonzero"/><path fill="#000000" fill-opacity="0.0" d="m349.92914 359.86353l56.346466 0l0 35.55905l-56.346466 0z" fill-rule="evenodd"/><path fill="#000000" d="m369.6427 372.0229q0.125 0 0.203125 0.015625q0.078125 0.015625 0.140625 0.046875q0.0625 0.015625 0.125 0.078125q0.0625 0.0625 0.140625 0.15625l5.0625 6.4375q-0.03125 -0.234375 -0.046875 -0.453125q0 -0.21875 0 -0.421875l0 -5.859375l1.578125 0l0 9.640625l-0.9375 0q-0.203125 0 -0.34375 -0.0625q-0.140625 -0.078125 -0.28125 -0.25l-5.03125 -6.40625q0.015625 0.203125 0.015625 0.421875q0.015625 0.203125 0.015625 0.375l0 5.921875l-1.578125 0l0 -9.640625l0.9375 0l0 0zm18.38852 4.828125q0 1.046875 -0.359375 1.953125q-0.34375 0.90625 -0.984375 1.5625q-0.640625 0.65625 -1.546875 1.03125q-0.890625 0.375 -1.984375 0.375q-1.09375 0 -2.0 -0.375q-0.90625 -0.375 -1.546875 -1.03125q-0.640625 -0.65625 -1.0 -1.5625q-0.34375 -0.90625 -0.34375 -1.953125q0 -1.0625 0.34375 -1.96875q0.359375 -0.90625 1.0 -1.5625q0.640625 -0.65625 1.546875 -1.03125q0.90625 -0.375 2.0 -0.375q1.09375 0 1.984375 0.375q0.90625 0.375 1.546875 1.03125q0.640625 0.65625 0.984375 1.5625q0.359375 0.90625 0.359375 1.96875zm-1.84375 0q0 -0.796875 -0.21875 -1.421875q-0.203125 -0.640625 -0.59375 -1.078125q-0.390625 -0.4375 -0.953125 -0.671875q-0.5625 -0.234375 -1.265625 -0.234375q-0.71875 0 -1.28125 0.234375q-0.5625 0.234375 -0.96875 0.671875q-0.390625 0.4375 -0.609375 1.078125q-0.203125 0.625 -0.203125 1.421875q0 0.78125 0.203125 1.421875q0.21875 0.625 0.609375 1.0625q0.40625 0.4375 0.96875 0.671875q0.5625 0.234375 1.28125 0.234375q0.703125 0 1.265625 -0.234375q0.5625 -0.234375 0.953125 -0.671875q0.390625 -0.4375 0.59375 -1.0625q0.21875 -0.640625 0.21875 -1.421875z" fill-rule="nonzero"/><path fill="#000000" fill-opacity="0.0" d="m683.04724 279.84515l0 25.070862l-184.78738 0" fill-rule="evenodd"/><path stroke="#000000" stroke-width="2.0" stroke-linejoin="round" stroke-linecap="butt" d="m683.04724 279.84515l0 25.070862l-172.78738 0" fill-rule="evenodd"/><path fill="#000000" stroke="#000000" stroke-width="2.0" stroke-linecap="butt" d="m510.25986 301.61255l-9.076202 3.3034668l9.076202 3.3034668z" fill-rule="evenodd"/><path fill="#ff9900" d="m58.63431 483.65616l76.40686 0l0 0c10.009506 0 18.123825 10.965149 18.123825 24.491333c0 13.526215 -8.114319 24.491364 -18.123825 24.491364l-76.40686 0l0 0c-10.009506 0 -18.123814 -10.965149 -18.123814 -24.491364c0 -13.526184 8.114307 -24.491333 18.123814 -24.491333z" fill-rule="evenodd"/><path stroke="#000000" stroke-width="1.0" stroke-linejoin="round" stroke-linecap="butt" d="m58.63431 483.65616l76.40686 0l0 0c10.009506 0 18.123825 10.965149 18.123825 24.491333c0 13.526215 -8.114319 24.491364 -18.123825 24.491364l-76.40686 0l0 0c-10.009506 0 -18.123814 -10.965149 -18.123814 -24.491364c0 -13.526184 8.114307 -24.491333 18.123814 -24.491333z" fill-rule="evenodd"/><path fill="#000000" d="m77.25902 515.55066q-1.71875 0 -3.03125 -0.671875q-1.3125 -0.6875 -2.25 -2.046875l1.484375 -1.7031555q0.96875 1.4062805 1.875 1.9531555q0.90625 0.53125 2.140625 0.53125q0.765625 0 1.375 -0.234375q0.625 -0.25 0.984375 -0.671875q0.359375 -0.421875 0.359375 -0.9531555q0 -0.359375 -0.125 -0.671875q-0.109375 -0.328125 -0.359375 -0.59375q-0.25 -0.265625 -0.640625 -0.484375q-0.390625 -0.21875 -0.921875 -0.390625q-0.515625 -0.171875 -1.1875 -0.28125q-1.078125 -0.21875 -1.890625 -0.578125q-0.796875 -0.359375 -1.34375 -0.90625q-0.53125 -0.546875 -0.796875 -1.234375q-0.25 -0.6875 -0.25 -1.546875q0 -1.140625 0.640625 -2.015625q0.640625 -0.890625 1.71875 -1.390625q1.09375 -0.515625 2.453125 -0.515625q1.625 0 2.828125 0.640625q1.21875 0.625 1.921875 1.828125l-1.53125 1.5q-0.59375 -0.984375 -1.421875 -1.5q-0.828125 -0.53125 -1.859375 -0.53125q-0.765625 0 -1.359375 0.25q-0.578125 0.234375 -0.90625 0.671875q-0.328125 0.421875 -0.328125 1.0q0 0.421875 0.15625 0.78125q0.171875 0.34375 0.5 0.609375q0.328125 0.265625 0.875 0.484375q0.5625 0.203125 1.34375 0.375q1.109375 0.234375 1.96875 0.609375q0.859375 0.359375 1.453125 0.859375q0.609375 0.5 0.90625 1.125q0.3125 0.625 0.3125 1.34375q0 1.3437805 -0.625 2.3281555q-0.609375 0.96875 -1.75 1.5q-1.140625 0.53125 -2.71875 0.53125zm10.823746 -0.203125l0 -11.9219055l-3.921875 0l0 -2.078125l10.109375 0l0 2.078125l-4.03125 0l0 11.9219055l-2.15625 0zm14.107483 0.203125q-1.46875 0 -2.71875 -0.53125q-1.25 -0.546875 -2.1875 -1.515625q-0.921875 -0.96875 -1.4375 -2.2812805q-0.515625 -1.3125 -0.515625 -2.875q0 -1.5625 0.515625 -2.875q0.515625 -1.3125 1.4375 -2.28125q0.9375 -0.96875 2.1875 -1.5q1.25 -0.546875 2.71875 -0.546875q1.484375 0 2.734375 0.546875q1.25 0.53125 2.171875 1.515625q0.9375 0.984375 1.453125 2.296875q0.515625 1.296875 0.515625 2.84375q0 1.546875 -0.515625 2.859375q-0.515625 1.2969055 -1.453125 2.2812805q-0.921875 0.984375 -2.171875 1.53125q-1.25 0.53125 -2.734375 0.53125zm0 -2.109375q1.03125 0 1.875 -0.375q0.859375 -0.375 1.46875 -1.0625q0.625 -0.7031555 0.96875 -1.6250305q0.359375 -0.9375 0.359375 -2.03125q0 -1.09375 -0.359375 -2.015625q-0.34375 -0.9375 -0.96875 -1.625q-0.609375 -0.703125 -1.46875 -1.078125q-0.84375 -0.375 -1.875 -0.375q-1.015625 0 -1.875 0.375q-0.84375 0.375 -1.46875 1.0625q-0.625 0.671875 -0.96875 1.609375q-0.34375 0.921875 -0.34375 2.046875q0 1.484375 0.59375 2.640625q0.609375 1.1406555 1.65625 1.7969055q1.046875 0.65625 2.40625 0.65625zm9.7806015 1.90625l0 -14.0000305l5.703125 0q1.140625 0 2.0625 0.578125q0.9375 0.5625 1.5 1.546875q0.5625 0.96875 0.5625 2.171875q0 1.203125 -0.5625 2.1875q-0.5625 0.96875 -1.5 1.5625q-0.921875 0.59375 -2.0625 0.59375l-3.53125 0l0 5.3594055l-2.171875 0zm2.171875 -7.4375305l3.5 0q0.53125 0 0.96875 -0.3125q0.453125 -0.3125 0.71875 -0.8125q0.265625 -0.515625 0.265625 -1.140625q0 -0.609375 -0.265625 -1.109375q-0.265625 -0.5 -0.71875 -0.796875q-0.4375 -0.3125 -0.96875 -0.3125l-3.5 0l0 4.484375z" fill-rule="nonzero"/><path fill="#000000" fill-opacity="0.0" d="m114.82771 424.2201l0 32.504547l-17.984245 0l0 26.928528" fill-rule="evenodd"/><path stroke="#000000" stroke-width="2.0" stroke-linejoin="round" stroke-linecap="butt" d="m114.82771 424.2201l0 32.504578l-17.984253 0l0 14.928497" fill-rule="evenodd"/><path fill="#000000" stroke="#000000" stroke-width="2.0" stroke-linecap="butt" d="m93.54 471.65317l3.3034592 9.076202l3.3034668 -9.076202z" fill-rule="evenodd"/><path fill="#cfe2f3" d="m391.65878 79.44095l100.74017 -58.92914l100.74014 58.92914l-100.74014 58.929123z" fill-rule="evenodd"/><path stroke="#000000" stroke-width="1.0" stroke-linejoin="round" stroke-linecap="butt" d="m391.65878 79.44095l100.74017 -58.92914l100.74014 58.92914l-100.74014 58.929123z" fill-rule="evenodd"/><path fill="#000000" d="m466.9421 86.640945l0 -14.0l2.125 0l5.109375 8.296875l-1.03125 -0.015625l5.15625 -8.28125l2.0 0l0 14.0l-2.15625 0l0 -5.734375q0 -1.8125 0.09375 -3.25q0.09375 -1.4375 0.3125 -2.859375l0.28125 0.75l-4.578125 7.078125l-1.328125 0l-4.4375 -7.0l0.21875 -0.828125q0.21875 1.34375 0.3125 2.75q0.09375 1.40625 0.09375 3.359375l0 5.734375l-2.171875 0zm29.1456 -0.078125l-7.21875 -4.140625l0 -1.625l7.21875 -4.140625l0.96875 1.5l-7.1875 4.125l0 -1.34375l7.1875 4.125l-0.96875 1.5zm9.814362 0.078125l0 -14.0l1.953125 0l8.5468445 11.453125l-0.3125 0.1875q-0.140625 -0.828125 -0.234375 -1.90625q-0.09375 -1.078125 -0.140625 -2.375q-0.03125 -1.296875 -0.03125 -2.765625l0 -4.59375l2.171875 0l0 14.0l-1.984375 0l-8.4218445 -11.046875l0.21875 -0.265625q0.140625 1.515625 0.21875 2.484375q0.078125 0.96875 0.109375 1.546875q0.046875 0.578125 0.0625 0.90625q0.015625 0.328125 0.015625 0.5625l0 5.8125l-2.171875 0z" fill-rule="nonzero"/><path fill="#000000" fill-opacity="0.0" d="m340.6601 79.44095l29.580017 0l0 0.06298828l21.41211 0" fill-rule="evenodd"/><path stroke="#000000" stroke-width="2.0" stroke-linejoin="round" stroke-linecap="butt" d="m340.6601 79.44095l29.580017 0l0 0.06298828l9.412109 0" fill-rule="evenodd"/><path fill="#000000" stroke="#000000" stroke-width="2.0" stroke-linecap="butt" d="m379.65222 82.8074l9.076202 -3.3034668l-9.076202 -3.3034668z" fill-rule="evenodd"/><path fill="#cfe2f3" d="m608.7323 102.81102l148.62988 0l0 35.55905l-148.62988 0z" fill-rule="evenodd"/><path stroke="#000000" stroke-width="1.0" stroke-linejoin="round" stroke-linecap="butt" d="m608.7323 102.81102l148.62988 0l0 35.55905l-148.62988 0z" fill-rule="evenodd"/><path fill="#000000" d="m662.01227 127.79055l0 -11.921875l-3.921875 0l0 -2.078125l10.109375 0l0 2.078125l-4.03125 0l0 11.921875l-2.15625 0zm13.494995 -6.625l0 -1.796875l9.3125 0l0 1.796875l-9.3125 0zm0 3.78125l0 -1.78125l9.3125 0l0 1.78125l-9.3125 0zm17.873108 2.84375l0 -14.0l2.125 0l5.109375 8.296875l-1.03125 -0.015625l5.15625 -8.28125l2.0 0l0 14.0l-2.15625 0l0 -5.734375q0 -1.8125 0.09375 -3.25q0.09375 -1.4375 0.3125 -2.859375l0.28125 0.75l-4.578125 7.078125l-1.328125 0l-4.4375 -7.0l0.21875 -0.828125q0.21875 1.34375 0.3125 2.75q0.09375 1.40625 0.09375 3.359375l0 5.734375l-2.171875 0z" fill-rule="nonzero"/><path fill="#000000" fill-opacity="0.0" d="m593.1391 79.44095l89.921265 0l0 23.370071" fill-rule="evenodd"/><path stroke="#000000" stroke-width="2.0" stroke-linejoin="round" stroke-linecap="butt" d="m593.1391 79.44095l89.921265 0l0 11.370071" fill-rule="evenodd"/><path fill="#000000" stroke="#000000" stroke-width="2.0" stroke-linecap="butt" d="m679.7569 90.81103l3.3034668 9.076195l3.3034668 -9.076195z" fill-rule="evenodd"/><path fill="#cfe2f3" d="m608.7323 172.93964l148.62988 0l0 35.55905l-148.62988 0z" fill-rule="evenodd"/><path stroke="#000000" stroke-width="1.0" stroke-linejoin="round" stroke-linecap="butt" d="m608.7323 172.93964l148.62988 0l0 35.55905l-148.62988 0z" fill-rule="evenodd"/><path fill="#000000" d="m657.1704 197.91916l0 -14.0l2.125 0l5.109375 8.296875l-1.03125 -0.015625l5.15625 -8.28125l2.0 0l0 14.0l-2.15625 0l0 -5.734375q0 -1.8125 0.09375 -3.25q0.09375 -1.4375 0.3125 -2.859375l0.28125 0.75l-4.578125 7.078125l-1.328125 0l-4.4375 -7.0l0.21875 -0.828125q0.21875 1.34375 0.3125 2.75q0.09375 1.40625 0.09375 3.359375l0 5.734375l-2.171875 0zm21.926819 -6.625l0 -1.796875l9.3125 0l0 1.796875l-9.3125 0zm0 3.78125l0 -1.78125l9.3125 0l0 1.78125l-9.3125 0zm17.873108 2.84375l0 -14.0l1.953125 0l8.546875 11.453125l-0.3125 0.1875q-0.140625 -0.828125 -0.234375 -1.90625q-0.09375 -1.078125 -0.140625 -2.375q-0.03125 -1.296875 -0.03125 -2.765625l0 -4.59375l2.171875 0l0 14.0l-1.984375 0l-8.421875 -11.046875l0.21875 -0.265625q0.140625 1.515625 0.21875 2.484375q0.078125 0.96875 0.109375 1.546875q0.046875 0.578125 0.0625 0.90625q0.015625 0.328125 0.015625 0.5625l0 5.8125l-2.171875 0z" fill-rule="nonzero"/><path fill="#cfe2f3" d="m608.7323 244.28609l148.62988 0l0 35.559067l-148.62988 0z" fill-rule="evenodd"/><path stroke="#000000" stroke-width="1.0" stroke-linejoin="round" stroke-linecap="butt" d="m608.7323 244.28609l148.62988 0l0 35.559067l-148.62988 0z" fill-rule="evenodd"/><path fill="#000000" d="m660.0504 269.26562l0 -14.000015l1.953125 0l8.546875 11.45314l-0.3125 0.1875q-0.140625 -0.828125 -0.234375 -1.90625q-0.09375 -1.078125 -0.140625 -2.375q-0.03125 -1.296875 -0.03125 -2.765625l0 -4.5937653l2.171875 0l0 14.000015l-1.984375 0l-8.421875 -11.046875l0.21875 -0.265625q0.140625 1.515625 0.21875 2.484375q0.078125 0.96875 0.109375 1.546875q0.046875 0.578125 0.0625 0.90625q0.015625 0.328125 0.015625 0.5625l0 5.8125l-2.171875 0zm20.506836 -6.625l0 -1.796875l9.3125 0l0 1.796875l-9.3125 0zm0 3.78125l0 -1.78125l9.3125 0l0 1.78125l-9.3125 0zm20.544983 2.84375l0 -11.921875l-3.921875 0l0 -2.0781403l10.109375 0l0 2.0781403l-4.03125 0l0 11.921875l-2.15625 0z" fill-rule="nonzero"/><path fill="#000000" fill-opacity="0.0" d="m683.04724 138.37007l0 17.284775l0.06298828 0l0 17.297913" fill-rule="evenodd"/><path stroke="#000000" stroke-width="2.0" stroke-linejoin="round" stroke-linecap="butt" d="m683.04724 138.37007l0 17.284775l0.06298828 0l0 5.2979126" fill-rule="evenodd"/><path fill="#000000" stroke="#000000" stroke-width="2.0" stroke-linecap="butt" d="m679.80676 160.95276l3.3034668 9.076187l3.3034668 -9.076187z" fill-rule="evenodd"/><path fill="#000000" fill-opacity="0.0" d="m683.04724 208.49869l0 17.893692l0.06298828 0l0 17.885834" fill-rule="evenodd"/><path stroke="#000000" stroke-width="2.0" stroke-linejoin="round" stroke-linecap="butt" d="m683.04724 208.49869l0 17.893707l0.06298828 0l0 5.8858185" fill-rule="evenodd"/><path fill="#000000" stroke="#000000" stroke-width="2.0" stroke-linecap="butt" d="m679.80676 232.27821l3.3034668 9.076202l3.3034668 -9.076202z" fill-rule="evenodd"/><path fill="#cfe2f3" d="m306.57217 403.7373l181.88977 0l0 48.97638l-181.88977 0z" fill-rule="evenodd"/><path stroke="#000000" stroke-width="1.0" stroke-linejoin="round" stroke-linecap="butt" d="m306.57217 403.7373l181.88977 0l0 48.97638l-181.88977 0z" fill-rule="evenodd"/><path fill="#000000" d="m377.19208 435.4255l0 -11.921875l-3.921875 0l0 -2.078125l10.109375 0l0 2.078125l-4.03125 0l0 11.921875l-2.15625 0zm13.494995 -6.625l0 -1.796875l9.3125 0l0 1.796875l-9.3125 0zm0 3.78125l0 -1.78125l9.3125 0l0 1.78125l-9.3125 0zm17.873108 2.84375l0 -14.0l1.953125 0l8.546875 11.453125l-0.3125 0.1875q-0.140625 -0.828125 -0.234375 -1.90625q-0.09375 -1.078125 -0.140625 -2.375q-0.03125 -1.296875 -0.03125 -2.765625l0 -4.59375l2.171875 0l0 14.0l-1.984375 0l-8.421875 -11.046875l0.21875 -0.265625q0.140625 1.515625 0.21875 2.484375q0.078125 0.96875 0.109375 1.546875q0.046875 0.578125 0.0625 0.90625q0.015625 0.328125 0.015625 0.5625l0 5.8125l-2.171875 0z" fill-rule="nonzero"/><path fill="#000000" fill-opacity="0.0" d="m397.51706 363.84778l0 19.94458l0.06298828 0l0 19.929413" fill-rule="evenodd"/><path stroke="#000000" stroke-width="2.0" stroke-linejoin="round" stroke-linecap="butt" d="m397.51706 363.84778l0 19.94458l0.06298828 0l0 7.929413" fill-rule="evenodd"/><path fill="#000000" stroke="#000000" stroke-width="2.0" stroke-linecap="butt" d="m394.27658 391.72177l3.3034668 9.076202l3.3034668 -9.076202z" fill-rule="evenodd"/><path fill="#cfe2f3" d="m306.57217 484.60345l181.88977 0l0 48.97638l-181.88977 0z" fill-rule="evenodd"/><path stroke="#000000" stroke-width="1.0" stroke-linejoin="round" stroke-linecap="butt" d="m306.57217 484.60345l181.88977 0l0 48.97638l-181.88977 0z" fill-rule="evenodd"/><path fill="#000000" d="m349.72025 516.2916l0 -14.0l1.953125 0l8.546875 11.453125l-0.3125 0.1875q-0.140625 -0.828125 -0.234375 -1.90625q-0.09375 -1.078125 -0.140625 -2.375q-0.03125 -1.296875 -0.03125 -2.765625l0 -4.59375l2.171875 0l0 14.0l-1.984375 0l-8.421875 -11.046875l0.21875 -0.265625q0.140625 1.515625 0.21875 2.484375q0.078125 0.96875 0.109375 1.546875q0.046875 0.578125 0.0625 0.90625q0.015625 0.328125 0.015625 0.5625l0 5.8125l-2.171875 0zm20.506836 -6.625l0 -1.796875l9.3125 0l0 1.796875l-9.3125 0zm0 3.78125l0 -1.78125l9.3125 0l0 1.78125l-9.3125 0zm17.873108 2.84375l0 -14.0l2.125 0l5.109375 8.296875l-1.03125 -0.015625l5.15625 -8.28125l2.0 0l0 14.0l-2.15625 0l0 -5.734375q0 -1.8125 0.09375 -3.25q0.09375 -1.4375 0.3125 -2.859375l0.28125 0.75l-4.578125 7.078125l-1.328125 0l-4.4375 -7.0l0.21875 -0.828125q0.21875 1.34375 0.3125 2.75q0.09375 1.40625 0.09375 3.359375l0 5.734375l-2.171875 0zm23.504974 0l9.265625 -14.0l2.0625 0l-9.359375 14.0l-1.96875 0zm1.28125 -6.578125q-0.90625 0 -1.59375 -0.484375q-0.6875 -0.5 -1.078125 -1.34375q-0.390625 -0.859375 -0.390625 -1.953125q0 -1.09375 0.390625 -1.96875q0.390625 -0.875 1.09375 -1.359375q0.703125 -0.5 1.59375 -0.5q0.90625 0 1.59375 0.5q0.6875 0.484375 1.078125 1.359375q0.390625 0.875 0.390625 1.96875q0 1.0625 -0.40625 1.921875q-0.390625 0.859375 -1.09375 1.359375q-0.703125 0.5 -1.578125 0.5zm0.015625 -1.5q0.421875 0 0.734375 -0.28125q0.3125 -0.28125 0.484375 -0.78125q0.171875 -0.515625 0.171875 -1.21875q0 -0.703125 -0.171875 -1.21875q-0.171875 -0.515625 -0.484375 -0.796875q-0.3125 -0.28125 -0.75 -0.28125q-0.421875 0 -0.75 0.296875q-0.3125 0.28125 -0.484375 0.796875q-0.171875 0.5 -0.171875 1.203125q0 1.046875 0.375 1.671875q0.390625 0.609375 1.046875 0.609375zm8.84375 8.265625q-0.90625 0 -1.59375 -0.5q-0.6875 -0.5 -1.09375 -1.34375q-0.390625 -0.859375 -0.390625 -1.9375q0 -1.109375 0.390625 -1.96875q0.390625 -0.875 1.078125 -1.359375q0.703125 -0.5 1.609375 -0.5q0.90625 0 1.59375 0.5q0.6875 0.484375 1.078125 1.359375q0.390625 0.859375 0.390625 1.96875q0 1.046875 -0.40625 1.921875q-0.390625 0.859375 -1.09375 1.359375q-0.6875 0.5 -1.5625 0.5zm0 -1.484375q0.421875 0 0.734375 -0.28125q0.328125 -0.296875 0.5 -0.8125q0.171875 -0.515625 0.171875 -1.203125q0 -1.046875 -0.390625 -1.671875q-0.375 -0.640625 -1.015625 -0.640625q-0.4375 0 -0.765625 0.28125q-0.3125 0.28125 -0.484375 0.8125q-0.171875 0.515625 -0.171875 1.21875q0 1.03125 0.375 1.671875q0.390625 0.625 1.046875 0.625zm11.614349 1.296875l0 -14.0l1.953125 0l8.546875 11.453125l-0.3125 0.1875q-0.140625 -0.828125 -0.234375 -1.90625q-0.09375 -1.078125 -0.140625 -2.375q-0.03125 -1.296875 -0.03125 -2.765625l0 -4.59375l2.171875 0l0 14.0l-1.984375 0l-8.421875 -11.046875l0.21875 -0.265625q0.140625 1.515625 0.21875 2.484375q0.078125 0.96875 0.109375 1.546875q0.046875 0.578125 0.0625 0.90625q0.015625 0.328125 0.015625 0.5625l0 5.8125l-2.171875 0z" fill-rule="nonzero"/><path fill="#cfe2f3" d="m551.4724 484.60345l181.88977 0l0 48.97638l-181.88977 0z" fill-rule="evenodd"/><path stroke="#000000" stroke-width="1.0" stroke-linejoin="round" stroke-linecap="butt" d="m551.4724 484.60345l181.88977 0l0 48.97638l-181.88977 0z" fill-rule="evenodd"/><path fill="#000000" d="m618.71045 516.2916l0 -14.0l2.125 0l5.109375 8.296875l-1.03125 -0.015625l5.15625 -8.28125l2.0 0l0 14.0l-2.15625 0l0 -5.734375q0 -1.8125 0.09375 -3.25q0.09375 -1.4375 0.3125 -2.859375l0.28125 0.75l-4.578125 7.078125l-1.328125 0l-4.4375 -7.0l0.21875 -0.828125q0.21875 1.34375 0.3125 2.75q0.09375 1.40625 0.09375 3.359375l0 5.734375l-2.171875 0zm21.92688 -6.625l0 -1.796875l9.3125 0l0 1.796875l-9.3125 0zm0 3.78125l0 -1.78125l9.3125 0l0 1.78125l-9.3125 0zm20.544983 2.84375l0 -11.921875l-3.921875 0l0 -2.078125l10.109375 0l0 2.078125l-4.03125 0l0 11.921875l-2.15625 0z" fill-rule="nonzero"/><path fill="#000000" fill-opacity="0.0" d="m397.51706 452.71368l0 15.944794l0.06298828 0l0 15.960724" fill-rule="evenodd"/><path stroke="#000000" stroke-width="2.0" stroke-linejoin="round" stroke-linecap="butt" d="m397.51706 452.71365l0 15.944824l0.06298828 0l0 3.9606934" fill-rule="evenodd"/><path fill="#000000" stroke="#000000" stroke-width="2.0" stroke-linecap="butt" d="m394.27658 472.61917l3.3034668 9.076202l3.3034668 -9.076202z" fill-rule="evenodd"/><path fill="#000000" fill-opacity="0.0" d="m642.4173 484.60345l0 -179.68506l-144.15747 0" fill-rule="evenodd"/><path stroke="#000000" stroke-width="2.0" stroke-linejoin="round" stroke-linecap="butt" d="m642.4173 484.60342l0 -179.68503l-132.15744 0" fill-rule="evenodd"/><path fill="#000000" stroke="#000000" stroke-width="2.0" stroke-linecap="butt" d="m510.25986 301.61496l-9.076202 3.3034363l9.076202 3.3034668z" fill-rule="evenodd"/><path fill="#000000" fill-opacity="0.0" d="m488.44882 509.02866l31.51181 0l0 0.06298828l31.51178 0" fill-rule="evenodd"/><path stroke="#000000" stroke-width="2.0" stroke-linejoin="round" stroke-linecap="butt" d="m488.44882 509.02863l31.51181 0l0 0.06298828l19.51178 0" fill-rule="evenodd"/><path fill="#000000" stroke="#000000" stroke-width="2.0" stroke-linecap="butt" d="m539.4724 512.3951l9.076233 -3.3034668l-9.076233 -3.3034668z" fill-rule="evenodd"/></g></svg>