<svg version="1.1" viewBox="0.0 0.0 795.0341207349081 606.4068241469816" fill="none" stroke="none" stroke-linecap="square" stroke-miterlimit="10" xmlns:xlink="http://www.w3.org/1999/xlink" xmlns="http://www.w3.org/2000/svg"><clipPath id="p.0"><path d="m0 0l795.0341 0l0 606.4068l-795.0341 0l0 -606.4068z" clip-rule="nonzero"/></clipPath><g clip-path="url(#p.0)"><path fill="#000000" fill-opacity="0.0" d="m0 0l795.0341 0l0 606.4068l-795.0341 0z" fill-rule="evenodd"/><path fill="#cfe2f3" d="m473.69553 193.23622l16.322845 -65.291336l165.56696 0l-16.322876 65.291336z" fill-rule="evenodd"/><path stroke="#000000" stroke-width="1.0" stroke-linejoin="round" stroke-linecap="butt" d="m473.69553 193.23622l16.322845 -65.291336l165.56696 0l-16.322876 65.291336z" fill-rule="evenodd"/><path fill="#000000" d="m533.8679 155.79054l0 -2.0l2.265625 0l0 -10.0l-2.265625 0l0 -2.0l6.6875 0l0 2.0l-2.265625 0l0 10.0l2.265625 0l0 2.0l-6.6875 0zm10.075623 0l0 -14.0l1.953125 0l8.546875 11.453125l-0.3125 0.1875q-0.140625 -0.828125 -0.234375 -1.90625q-0.09375 -1.078125 -0.140625 -2.375q-0.03125 -1.296875 -0.03125 -2.765625l0 -4.59375l2.171875 0l0 14.0l-1.984375 0l-8.421875 -11.046875l0.21875 -0.265625q0.140625 1.515625 0.21875 2.484375q0.078125 0.96875 0.109375 1.546875q0.046875 0.578125 0.0625 0.90625q0.015625 0.328125 0.015625 0.5625l0 5.8125l-2.171875 0zm15.859985 0l0 -14.0l5.703125 0q1.140625 0 2.0625 0.578125q0.9375 0.5625 1.5 1.546875q0.5625 0.96875 0.5625 2.171875q0 1.203125 -0.5625 2.1875q-0.5625 0.96875 -1.5 1.5625q-0.921875 0.59375 -2.0625 0.59375l-3.53125 0l0 5.359375l-2.171875 0zm2.171875 -7.4375l3.5 0q0.53125 0 0.96875 -0.3125q0.453125 -0.3125 0.71875 -0.8125q0.265625 -0.515625 0.265625 -1.140625q0 -0.609375 -0.265625 -1.109375q-0.265625 -0.5 -0.71875 -0.796875q-0.4375 -0.3125 -0.96875 -0.3125l-3.5 0l0 4.484375zm15.961243 7.5625q-1.625 0 -2.90625 -0.703125q-1.28125 -0.71875 -2.015625 -1.96875q-0.71875 -1.25 -0.71875 -2.828125l0 -8.640625l2.15625 0l0 8.453125q0 1.015625 0.46875 1.828125q0.484375 0.8125 1.265625 1.296875q0.796875 0.484375 1.75 0.484375q1.0 0 1.796875 -0.484375q0.8125 -0.484375 1.296875 -1.296875q0.484375 -0.8125 0.484375 -1.828125l0 -8.453125l2.0625 0l0 8.640625q0 1.578125 -0.734375 2.828125q-0.734375 1.25 -2.015625 1.96875q-1.28125 0.703125 -2.890625 0.703125zm12.018738 -0.125l0 -11.921875l-3.921875 0l0 -2.078125l10.109375 0l0 2.078125l-4.03125 0l0 11.921875l-2.15625 0z" fill-rule="nonzero"/><path fill="#000000" d="m562.8717 179.79054l0 -10.984375l-4.125 0l0 -3.015625l11.796875 0l0 3.015625l-4.25 0l0 10.984375l-3.421875 0z" fill-rule="nonzero"/><path fill="#ff9900" d="m694.73145 48.09974l76.40686 0l0 0c10.00946 0 18.12378 10.965145 18.12378 24.49134c0 13.526192 -8.114319 24.491333 -18.12378 24.491333l-76.40686 0l0 0c-10.0095215 0 -18.12384 -10.965141 -18.12384 -24.491333c0 -13.526196 8.114319 -24.49134 18.12384 -24.49134z" fill-rule="evenodd"/><path stroke="#000000" stroke-width="1.0" stroke-linejoin="round" stroke-linecap="butt" d="m694.73145 48.09974l76.40686 0l0 0c10.00946 0 18.12378 10.965145 18.12378 24.49134c0 13.526192 -8.114319 24.491333 -18.12378 24.491333l-76.40686 0l0 0c-10.0095215 0 -18.12384 -10.965141 -18.12384 -24.491333c0 -13.526196 8.114319 -24.49134 18.12384 -24.49134z" fill-rule="evenodd"/><path fill="#000000" d="m708.2061 79.9942q-1.71875 0 -3.03125 -0.671875q-1.3125 -0.6875 -2.25 -2.046875l1.484375 -1.703125q0.96875 1.40625 1.875 1.953125q0.90625 0.53125 2.140625 0.53125q0.765625 0 1.375 -0.234375q0.625 -0.25 0.984375 -0.671875q0.359375 -0.421875 0.359375 -0.953125q0 -0.359375 -0.125 -0.671875q-0.109375 -0.328125 -0.359375 -0.59375q-0.25 -0.265625 -0.640625 -0.484375q-0.390625 -0.21875 -0.921875 -0.390625q-0.515625 -0.171875 -1.1875 -0.28125q-1.078125 -0.21875 -1.890625 -0.578125q-0.796875 -0.359375 -1.34375 -0.90625q-0.53125 -0.546875 -0.796875 -1.234375q-0.25 -0.6875 -0.25 -1.546875q0 -1.140625 0.640625 -2.015625q0.640625 -0.890625 1.71875 -1.390625q1.09375 -0.515625 2.453125 -0.515625q1.625 0 2.828125 0.640625q1.21875 0.625 1.921875 1.828125l-1.53125 1.5q-0.59375 -0.984375 -1.421875 -1.5q-0.828125 -0.53125 -1.859375 -0.53125q-0.765625 0 -1.359375 0.25q-0.578125 0.234375 -0.90625 0.671875q-0.328125 0.421875 -0.328125 1.0q0 0.421875 0.15625 0.78125q0.171875 0.34375 0.5 0.609375q0.328125 0.265625 0.875 0.484375q0.5625 0.203125 1.34375 0.375q1.109375 0.234375 1.96875 0.609375q0.859375 0.359375 1.453125 0.859375q0.609375 0.5 0.90625 1.125q0.3125 0.625 0.3125 1.34375q0 1.34375 -0.625 2.328125q-0.609375 0.96875 -1.75 1.5q-1.140625 0.53125 -2.71875 0.53125zm10.82373 -0.203125l0 -11.921875l-3.921875 0l0 -2.078125l10.109375 0l0 2.078125l-4.03125 0l0 11.921875l-2.15625 0zm6.3950195 0l5.421875 -14.0l2.203125 0l5.375 14.0l-2.296875 0l-3.203125 -8.4375q-0.0625 -0.140625 -0.234375 -0.671875q-0.171875 -0.546875 -0.390625 -1.203125q-0.21875 -0.671875 -0.40625 -1.21875q-0.171875 -0.546875 -0.234375 -0.703125l0.46875 -0.03125q-0.125 0.34375 -0.296875 0.875q-0.171875 0.515625 -0.359375 1.09375q-0.1875 0.578125 -0.375 1.09375q-0.171875 0.5 -0.296875 0.84375l-3.171875 8.359375l-2.203125 0zm2.40625 -3.484375l0.796875 -2.078125l6.359375 0l0.921875 2.078125l-8.078125 0zm13.046875 3.484375l0 -14.0l5.96875 0q1.203125 0 2.203125 0.59375q1.015625 0.59375 1.609375 1.609375q0.609375 1.0 0.609375 2.25q0 1.140625 -0.609375 2.125q-0.59375 0.984375 -1.59375 1.578125q-1.0 0.578125 -2.21875 0.578125l-3.796875 0l0 5.265625l-2.171875 0zm8.328125 0l-3.5625 -6.3125l2.21875 -0.5l3.96875 6.828125l-2.625 -0.015625zm-6.15625 -7.34375l4.0 0q0.578125 0 1.03125 -0.28125q0.46875 -0.296875 0.71875 -0.796875q0.265625 -0.515625 0.265625 -1.140625q0 -0.703125 -0.328125 -1.21875q-0.328125 -0.53125 -0.921875 -0.828125q-0.59375 -0.3125 -1.328125 -0.3125l-3.4375 0l0 4.578125zm14.0 7.34375l0 -11.921875l-3.921875 0l0 -2.078125l10.109375 0l0 2.078125l-4.03125 0l0 11.921875l-2.15625 0z" fill-rule="nonzero"/><path fill="#000000" fill-opacity="0.0" d="m11.440945 574.08136l322.83466 0l0 33.921265l-322.83466 0z" fill-rule="evenodd"/><path fill="#000000" d="m27.284695 592.5545q0.125 0 0.21875 0.109375l0.640625 0.6875q-0.53125 0.65625 -1.296875 1.0q-0.765625 0.34375 -1.859375 0.34375q-0.953125 0 -1.734375 -0.328125q-0.765625 -0.328125 -1.3125 -0.90625q-0.546875 -0.59375 -0.84375 -1.40625q-0.28125 -0.828125 -0.28125 -1.796875q0 -0.96875 0.3125 -1.78125q0.328125 -0.8125 0.921875 -1.40625q0.59375 -0.59375 1.40625 -0.90625q0.8125 -0.328125 1.8125 -0.328125q0.96875 0 1.6875 0.3125q0.71875 0.296875 1.234375 0.8125l-0.53125 0.75q-0.0625 0.0625 -0.140625 0.125q-0.0625 0.046875 -0.203125 0.046875q-0.125 0 -0.28125 -0.109375q-0.140625 -0.109375 -0.359375 -0.234375q-0.21875 -0.125 -0.5625 -0.21875q-0.34375 -0.109375 -0.859375 -0.109375q-0.609375 0 -1.125 0.21875q-0.515625 0.203125 -0.890625 0.59375q-0.359375 0.390625 -0.578125 0.96875q-0.203125 0.5625 -0.203125 1.265625q0 0.734375 0.203125 1.3125q0.21875 0.5625 0.5625 0.953125q0.359375 0.390625 0.84375 0.609375q0.484375 0.203125 1.03125 0.203125q0.328125 0 0.59375 -0.03125q0.265625 -0.046875 0.484375 -0.125q0.234375 -0.078125 0.4375 -0.203125q0.203125 -0.125 0.390625 -0.296875q0.0625 -0.0625 0.125 -0.09375q0.078125 -0.03125 0.15625 -0.03125zm10.405426 -2.296875q0 0.953125 -0.328125 1.765625q-0.3125 0.8125 -0.890625 1.421875q-0.578125 0.59375 -1.390625 0.921875q-0.796875 0.328125 -1.78125 0.328125q-0.984375 0 -1.796875 -0.328125q-0.8125 -0.328125 -1.40625 -0.921875q-0.578125 -0.609375 -0.890625 -1.421875q-0.3125 -0.8125 -0.3125 -1.765625q0 -0.953125 0.3125 -1.765625q0.3125 -0.8125 0.890625 -1.40625q0.59375 -0.59375 1.40625 -0.921875q0.8125 -0.328125 1.796875 -0.328125q0.984375 0 1.78125 0.34375q0.8125 0.328125 1.390625 0.921875q0.578125 0.578125 0.890625 1.390625q0.328125 0.8125 0.328125 1.765625zm-1.65625 0q0 -0.703125 -0.203125 -1.265625q-0.1875 -0.578125 -0.546875 -0.96875q-0.34375 -0.40625 -0.859375 -0.609375q-0.5 -0.203125 -1.125 -0.203125q-0.640625 0 -1.15625 0.203125q-0.5 0.203125 -0.859375 0.609375q-0.359375 0.390625 -0.5625 0.96875q-0.1875 0.5625 -0.1875 1.265625q0 0.71875 0.1875 1.296875q0.203125 0.5625 0.5625 0.953125q0.359375 0.390625 0.859375 0.609375q0.515625 0.203125 1.15625 0.203125q0.625 0 1.125 -0.203125q0.515625 -0.21875 0.859375 -0.609375q0.359375 -0.390625 0.546875 -0.953125q0.203125 -0.578125 0.203125 -1.296875zm4.5940704 1.296875l0 3.046875l-1.609375 0l0 -8.671875l2.8125 0q0.875 0 1.5 0.203125q0.640625 0.203125 1.046875 0.578125q0.421875 0.359375 0.625 0.875q0.203125 0.5 0.203125 1.109375q0 0.625 -0.21875 1.15625q-0.203125 0.515625 -0.625 0.90625q-0.421875 0.375 -1.046875 0.59375q-0.625 0.203125 -1.484375 0.203125l-1.203125 0zm0 -1.265625l1.203125 0q0.453125 0 0.78125 -0.109375q0.328125 -0.109375 0.546875 -0.3125q0.21875 -0.21875 0.328125 -0.515625q0.109375 -0.296875 0.109375 -0.65625q0 -0.359375 -0.109375 -0.640625q-0.109375 -0.28125 -0.328125 -0.46875q-0.21875 -0.203125 -0.546875 -0.296875q-0.328125 -0.109375 -0.78125 -0.109375l-1.203125 0l0 3.109375zm9.687546 0.9375l0 3.375l-1.609375 0l0 -3.375l-3.171875 -5.296875l1.421875 0q0.21875 0 0.34375 0.109375q0.125 0.09375 0.203125 0.25l1.59375 2.890625q0.125 0.265625 0.234375 0.5q0.109375 0.21875 0.1875 0.453125q0.078125 -0.234375 0.171875 -0.46875q0.109375 -0.234375 0.234375 -0.484375l1.578125 -2.890625q0.078125 -0.140625 0.203125 -0.25q0.140625 -0.109375 0.34375 -0.109375l1.421875 0l-3.15625 5.296875zm5.6665497 -0.015625l0 3.390625l-1.609375 0l0 -8.671875l2.640625 0q0.890625 0 1.515625 0.1875q0.640625 0.171875 1.046875 0.5q0.40625 0.328125 0.59375 0.796875q0.1875 0.453125 0.1875 1.0q0 0.453125 -0.140625 0.84375q-0.125 0.375 -0.375 0.703125q-0.234375 0.3125 -0.59375 0.5625q-0.359375 0.234375 -0.8125 0.375q0.3125 0.171875 0.53125 0.5l2.171875 3.203125l-1.453125 0q-0.203125 0 -0.359375 -0.078125q-0.140625 -0.09375 -0.25 -0.25l-1.8125 -2.78125q-0.109375 -0.15625 -0.234375 -0.21875q-0.125 -0.0625 -0.359375 -0.0625l-0.6875 0zm0 -1.15625l1.0 0q0.46875 0 0.796875 -0.109375q0.34375 -0.125 0.5625 -0.3125q0.21875 -0.203125 0.328125 -0.484375q0.109375 -0.28125 0.109375 -0.609375q0 -0.65625 -0.4375 -1.0q-0.4375 -0.359375 -1.328125 -0.359375l-1.03125 0l0 2.875zm8.000687 4.546875l-1.609375 0l0 -8.671875l1.609375 0l0 8.671875zm5.9398994 -1.1875q0.546875 0 0.953125 -0.09375q0.40625 -0.109375 0.765625 -0.28125l0 -1.578125l-1.078125 0q-0.15625 0 -0.25 -0.078125q-0.09375 -0.09375 -0.09375 -0.21875l0 -0.90625l2.890625 0l0 3.5q-0.328125 0.25 -0.6875 0.421875q-0.359375 0.171875 -0.765625 0.296875q-0.40625 0.109375 -0.875 0.15625q-0.453125 0.0625 -0.984375 0.0625q-0.953125 0 -1.75 -0.328125q-0.796875 -0.328125 -1.375 -0.90625q-0.578125 -0.59375 -0.90625 -1.40625q-0.328125 -0.828125 -0.328125 -1.796875q0 -0.96875 0.3125 -1.78125q0.328125 -0.828125 0.90625 -1.40625q0.578125 -0.59375 1.40625 -0.90625q0.84375 -0.328125 1.890625 -0.328125q1.0625 0 1.828125 0.3125q0.78125 0.3125 1.328125 0.8125l-0.46875 0.734375q-0.140625 0.21875 -0.375 0.21875q-0.140625 0 -0.296875 -0.09375q-0.1875 -0.109375 -0.390625 -0.21875q-0.203125 -0.125 -0.453125 -0.203125q-0.234375 -0.09375 -0.546875 -0.140625q-0.296875 -0.046875 -0.6875 -0.046875q-0.640625 0 -1.15625 0.21875q-0.515625 0.203125 -0.890625 0.609375q-0.359375 0.40625 -0.5625 0.96875q-0.203125 0.5625 -0.203125 1.25q0 0.75 0.203125 1.34375q0.21875 0.578125 0.59375 0.984375q0.390625 0.40625 0.90625 0.625q0.515625 0.203125 1.140625 0.203125zm12.019806 1.1875l-1.640625 0l0 -3.796875l-4.0625 0l0 3.796875l-1.625 0l0 -8.671875l1.625 0l0 3.734375l4.0625 0l0 -3.734375l1.640625 0l0 8.671875zm7.8533173 -8.671875l0 1.328125l-2.609375 0l0 7.34375l-1.609375 0l0 -7.34375l-2.625 0l0 -1.328125l6.84375 0zm8.581055 5.59375q0.0625 0 0.109375 0.03125q0.0625 0.03125 0.09375 0.078125l0.484375 0.515625q-0.328125 0.4375 -0.84375 0.65625q-0.5 0.21875 -1.1875 0.21875q-0.609375 0 -1.09375 -0.203125q-0.484375 -0.21875 -0.828125 -0.59375q-0.34375 -0.375 -0.53125 -0.875q-0.1875 -0.515625 -0.1875 -1.109375q0 -0.609375 0.203125 -1.109375q0.21875 -0.515625 0.578125 -0.875q0.375 -0.375 0.875 -0.578125q0.515625 -0.21875 1.09375 -0.21875q0.671875 0 1.140625 0.234375q0.484375 0.21875 0.8125 0.5625l-0.390625 0.546875q-0.03125 0.046875 -0.09375 0.09375q-0.0625 0.046875 -0.15625 0.046875q-0.109375 0 -0.203125 -0.0625q-0.09375 -0.0625 -0.21875 -0.125q-0.125 -0.078125 -0.3125 -0.140625q-0.1875 -0.0625 -0.5 -0.0625q-0.359375 0 -0.640625 0.125q-0.28125 0.109375 -0.484375 0.328125q-0.1875 0.21875 -0.296875 0.53125q-0.09375 0.3125 -0.09375 0.703125q0 0.40625 0.09375 0.71875q0.109375 0.3125 0.296875 0.53125q0.1875 0.21875 0.4375 0.328125q0.265625 0.109375 0.5625 0.109375q0.296875 0 0.484375 -0.046875q0.1875 -0.046875 0.3125 -0.109375q0.140625 -0.078125 0.234375 -0.140625q0.109375 -0.0625 0.25 -0.109375zm-5.796875 -1.265625q0 -0.609375 0.15625 -1.171875q0.171875 -0.5625 0.453125 -1.046875q0.296875 -0.5 0.6875 -0.90625q0.40625 -0.40625 0.890625 -0.6875q0.5 -0.296875 1.0625 -0.453125q0.578125 -0.15625 1.1875 -0.15625q0.609375 0 1.171875 0.15625q0.5625 0.15625 1.046875 0.453125q0.5 0.28125 0.90625 0.6875q0.40625 0.40625 0.6875 0.90625q0.296875 0.484375 0.453125 1.046875q0.171875 0.5625 0.171875 1.171875q0 0.609375 -0.171875 1.1875q-0.15625 0.5625 -0.453125 1.046875q-0.28125 0.484375 -0.6875 0.890625q-0.40625 0.40625 -0.90625 0.703125q-0.484375 0.28125 -1.046875 0.4375q-0.5625 0.15625 -1.171875 0.15625q-0.609375 0 -1.1875 -0.15625q-0.5625 -0.15625 -1.0625 -0.4375q-0.484375 -0.296875 -0.890625 -0.703125q-0.390625 -0.40625 -0.6875 -0.890625q-0.28125 -0.484375 -0.453125 -1.046875q-0.15625 -0.5625 -0.15625 -1.1875zm0.8125 0q0 0.78125 0.28125 1.46875q0.28125 0.671875 0.765625 1.171875q0.484375 0.5 1.140625 0.796875q0.671875 0.28125 1.4375 0.28125q0.765625 0 1.421875 -0.28125q0.671875 -0.296875 1.15625 -0.796875q0.5 -0.5 0.78125 -1.171875q0.28125 -0.6875 0.28125 -1.46875q0 -0.515625 -0.140625 -0.984375q-0.125 -0.484375 -0.359375 -0.90625q-0.234375 -0.421875 -0.5625 -0.75q-0.328125 -0.34375 -0.734375 -0.578125q-0.40625 -0.25 -0.875 -0.375q-0.46875 -0.140625 -0.96875 -0.140625q-0.515625 0 -0.984375 0.140625q-0.453125 0.125 -0.859375 0.375q-0.40625 0.234375 -0.734375 0.578125q-0.328125 0.328125 -0.5625 0.75q-0.234375 0.421875 -0.359375 0.90625q-0.125 0.46875 -0.125 0.984375zm13.610947 -1.921875q0.390625 0 0.734375 0.078125q0.359375 0.078125 0.640625 0.234375l1.78125 0l0 0.5625q0 0.140625 -0.078125 0.21875q-0.078125 0.078125 -0.25 0.109375l-0.546875 0.09375q0.0625 0.15625 0.09375 0.328125q0.03125 0.171875 0.03125 0.375q0 0.453125 -0.1875 0.828125q-0.171875 0.359375 -0.5 0.625q-0.328125 0.25 -0.765625 0.390625q-0.4375 0.140625 -0.953125 0.140625q-0.34375 0 -0.671875 -0.0625q-0.296875 0.171875 -0.296875 0.390625q0 0.1875 0.171875 0.28125q0.171875 0.078125 0.453125 0.109375q0.28125 0.03125 0.625 0.046875q0.359375 0.015625 0.734375 0.046875q0.375 0.015625 0.71875 0.09375q0.359375 0.078125 0.640625 0.25q0.28125 0.15625 0.453125 0.4375q0.171875 0.28125 0.171875 0.71875q0 0.40625 -0.203125 0.78125q-0.203125 0.390625 -0.59375 0.6875q-0.375 0.296875 -0.9375 0.484375q-0.546875 0.1875 -1.25 0.1875q-0.703125 0 -1.21875 -0.140625q-0.515625 -0.140625 -0.859375 -0.359375q-0.328125 -0.21875 -0.5 -0.515625q-0.171875 -0.296875 -0.171875 -0.609375q0 -0.4375 0.265625 -0.734375q0.265625 -0.296875 0.734375 -0.46875q-0.234375 -0.125 -0.375 -0.328125q-0.125 -0.21875 -0.125 -0.546875q0 -0.140625 0.046875 -0.28125q0.046875 -0.15625 0.140625 -0.296875q0.109375 -0.140625 0.25 -0.265625q0.15625 -0.140625 0.359375 -0.234375q-0.46875 -0.265625 -0.734375 -0.671875q-0.265625 -0.421875 -0.265625 -0.984375q0 -0.46875 0.171875 -0.828125q0.1875 -0.375 0.515625 -0.625q0.328125 -0.265625 0.765625 -0.40625q0.453125 -0.140625 0.984375 -0.140625zm1.625 6.546875q0 -0.1875 -0.109375 -0.296875q-0.109375 -0.109375 -0.296875 -0.171875q-0.1875 -0.078125 -0.4375 -0.09375q-0.234375 -0.03125 -0.515625 -0.046875q-0.28125 -0.015625 -0.578125 -0.03125q-0.296875 -0.015625 -0.578125 -0.046875q-0.25 0.125 -0.40625 0.328125q-0.15625 0.1875 -0.15625 0.421875q0 0.171875 0.078125 0.3125q0.09375 0.140625 0.265625 0.234375q0.171875 0.109375 0.453125 0.15625q0.296875 0.0625 0.703125 0.0625q0.40625 0 0.703125 -0.0625q0.3125 -0.0625 0.5 -0.171875q0.203125 -0.109375 0.28125 -0.265625q0.09375 -0.15625 0.09375 -0.328125zm-1.625 -3.515625q0.28125 0 0.484375 -0.0625q0.203125 -0.078125 0.328125 -0.203125q0.140625 -0.140625 0.203125 -0.328125q0.078125 -0.1875 0.078125 -0.40625q0 -0.453125 -0.28125 -0.71875q-0.265625 -0.265625 -0.8125 -0.265625q-0.546875 0 -0.828125 0.265625q-0.265625 0.265625 -0.265625 0.71875q0 0.21875 0.0625 0.40625q0.078125 0.1875 0.203125 0.328125q0.140625 0.125 0.34375 0.203125q0.21875 0.0625 0.484375 0.0625zm5.663162 -2.921875l0 6.15625l-1.484375 0l0 -6.15625l1.484375 0zm0.21875 -1.796875q0 0.1875 -0.078125 0.359375q-0.078125 0.171875 -0.21875 0.296875q-0.125 0.125 -0.296875 0.203125q-0.171875 0.078125 -0.375 0.078125q-0.1875 0 -0.359375 -0.078125q-0.171875 -0.078125 -0.296875 -0.203125q-0.125 -0.125 -0.203125 -0.296875q-0.0625 -0.171875 -0.0625 -0.359375q0 -0.1875 0.0625 -0.359375q0.078125 -0.1875 0.203125 -0.3125q0.125 -0.125 0.296875 -0.1875q0.171875 -0.078125 0.359375 -0.078125q0.203125 0 0.375 0.078125q0.171875 0.0625 0.296875 0.1875q0.140625 0.125 0.21875 0.3125q0.078125 0.171875 0.078125 0.359375zm3.4707794 8.046875q-0.796875 0 -1.234375 -0.453125q-0.421875 -0.453125 -0.421875 -1.25l0 -3.4375l-0.625 0q-0.125 0 -0.21875 -0.078125q-0.078125 -0.078125 -0.078125 -0.234375l0 -0.59375l0.984375 -0.15625l0.3125 -1.671875q0.03125 -0.125 0.109375 -0.1875q0.09375 -0.078125 0.21875 -0.078125l0.78125 0l0 1.9375l1.609375 0l0 1.0625l-1.609375 0l0 3.34375q0 0.28125 0.140625 0.453125q0.140625 0.15625 0.375 0.15625q0.140625 0 0.234375 -0.03125q0.09375 -0.03125 0.15625 -0.0625q0.078125 -0.046875 0.125 -0.078125q0.0625 -0.03125 0.109375 -0.03125q0.078125 0 0.109375 0.03125q0.046875 0.03125 0.09375 0.09375l0.4375 0.71875q-0.3125 0.265625 -0.734375 0.40625q-0.421875 0.140625 -0.875 0.140625zm2.6284027 -0.09375l0 -8.921875l1.484375 0l0 3.4375q0.359375 -0.34375 0.78125 -0.546875q0.4375 -0.21875 1.015625 -0.21875q0.5 0 0.890625 0.171875q0.390625 0.171875 0.65625 0.484375q0.265625 0.296875 0.390625 0.734375q0.140625 0.421875 0.140625 0.9375l0 3.921875l-1.484375 0l0 -3.921875q0 -0.5625 -0.265625 -0.859375q-0.25 -0.3125 -0.78125 -0.3125q-0.375 0 -0.71875 0.171875q-0.328125 0.171875 -0.625 0.46875l0 4.453125l-1.484375 0zm8.165802 -6.15625l0 3.90625q0 0.5625 0.265625 0.875q0.265625 0.3125 0.78125 0.3125q0.390625 0 0.71875 -0.171875q0.34375 -0.171875 0.640625 -0.46875l0 -4.453125l1.484375 0l0 6.15625l-0.90625 0q-0.28125 0 -0.375 -0.265625l-0.109375 -0.5q-0.1875 0.203125 -0.390625 0.359375q-0.203125 0.15625 -0.4375 0.265625q-0.234375 0.109375 -0.5 0.171875q-0.265625 0.0625 -0.578125 0.0625q-0.5 0 -0.890625 -0.171875q-0.375 -0.171875 -0.640625 -0.484375q-0.265625 -0.3125 -0.40625 -0.734375q-0.125 -0.4375 -0.125 -0.953125l0 -3.90625l1.46875 0zm5.493927 6.15625l0 -8.921875l1.484375 0l0 3.515625q0.359375 -0.390625 0.8125 -0.609375q0.46875 -0.234375 1.09375 -0.234375q0.5 0 0.90625 0.203125q0.421875 0.203125 0.71875 0.609375q0.3125 0.390625 0.46875 0.984375q0.171875 0.578125 0.171875 1.328125q0 0.6875 -0.1875 1.28125q-0.171875 0.578125 -0.53125 1.015625q-0.34375 0.4375 -0.828125 0.6875q-0.484375 0.234375 -1.09375 0.234375q-0.28125 0 -0.515625 -0.0625q-0.234375 -0.0625 -0.4375 -0.15625q-0.1875 -0.109375 -0.359375 -0.25q-0.15625 -0.140625 -0.296875 -0.328125l-0.078125 0.421875q-0.03125 0.15625 -0.125 0.21875q-0.078125 0.0625 -0.234375 0.0625l-0.96875 0zm2.875 -5.09375q-0.453125 0 -0.78125 0.203125q-0.328125 0.1875 -0.609375 0.53125l0 2.765625q0.25 0.3125 0.546875 0.4375q0.296875 0.125 0.640625 0.125q0.34375 0 0.609375 -0.125q0.265625 -0.140625 0.453125 -0.390625q0.1875 -0.265625 0.28125 -0.65625q0.109375 -0.390625 0.109375 -0.921875q0 -0.546875 -0.09375 -0.921875q-0.078125 -0.375 -0.234375 -0.609375q-0.15625 -0.234375 -0.390625 -0.328125q-0.234375 -0.109375 -0.53125 -0.109375zm3.590042 4.28125q0 -0.1875 0.0625 -0.359375q0.078125 -0.171875 0.203125 -0.28125q0.125 -0.125 0.28125 -0.1875q0.171875 -0.078125 0.359375 -0.078125q0.1875 0 0.359375 0.078125q0.171875 0.0625 0.28125 0.1875q0.125 0.109375 0.1875 0.28125q0.078125 0.171875 0.078125 0.359375q0 0.1875 -0.078125 0.359375q-0.0625 0.15625 -0.1875 0.28125q-0.109375 0.125 -0.28125 0.1875q-0.171875 0.0625 -0.359375 0.0625q-0.1875 0 -0.359375 -0.0625q-0.15625 -0.0625 -0.28125 -0.1875q-0.125 -0.125 -0.203125 -0.28125q-0.0625 -0.171875 -0.0625 -0.359375zm7.387512 -4.046875q-0.078125 0.09375 -0.140625 0.140625q-0.0625 0.046875 -0.171875 0.046875q-0.125 0 -0.234375 -0.0625q-0.109375 -0.078125 -0.265625 -0.15625q-0.140625 -0.09375 -0.34375 -0.15625q-0.203125 -0.078125 -0.515625 -0.078125q-0.390625 0 -0.6875 0.140625q-0.28125 0.140625 -0.484375 0.40625q-0.1875 0.265625 -0.296875 0.640625q-0.09375 0.375 -0.09375 0.84375q0 0.5 0.109375 0.890625q0.109375 0.375 0.296875 0.640625q0.203125 0.25 0.484375 0.390625q0.28125 0.140625 0.640625 0.140625q0.359375 0 0.578125 -0.09375q0.21875 -0.09375 0.359375 -0.1875q0.15625 -0.109375 0.265625 -0.1875q0.109375 -0.09375 0.25 -0.09375q0.171875 0 0.265625 0.140625l0.421875 0.53125q-0.234375 0.296875 -0.53125 0.5q-0.28125 0.1875 -0.59375 0.3125q-0.3125 0.109375 -0.640625 0.15625q-0.328125 0.046875 -0.65625 0.046875q-0.5625 0 -1.078125 -0.21875q-0.5 -0.21875 -0.875 -0.625q-0.375 -0.40625 -0.59375 -0.984375q-0.21875 -0.59375 -0.21875 -1.359375q0 -0.671875 0.1875 -1.25q0.203125 -0.578125 0.578125 -1.0q0.390625 -0.421875 0.9375 -0.65625q0.5625 -0.25 1.28125 -0.25q0.703125 0 1.21875 0.21875q0.515625 0.21875 0.9375 0.640625l-0.390625 0.53125zm4.02092 -1.390625q0.6875 0 1.25 0.21875q0.5625 0.21875 0.953125 0.640625q0.40625 0.40625 0.609375 1.0q0.21875 0.578125 0.21875 1.296875q0 0.734375 -0.21875 1.328125q-0.203125 0.578125 -0.609375 1.0q-0.390625 0.40625 -0.953125 0.640625q-0.5625 0.21875 -1.25 0.21875q-0.6875 0 -1.25 -0.21875q-0.5625 -0.234375 -0.96875 -0.640625q-0.40625 -0.421875 -0.625 -1.0q-0.21875 -0.59375 -0.21875 -1.328125q0 -0.71875 0.21875 -1.296875q0.21875 -0.59375 0.625 -1.0q0.40625 -0.421875 0.96875 -0.640625q0.5625 -0.21875 1.25 -0.21875zm0 5.203125q0.765625 0 1.125 -0.515625q0.375 -0.515625 0.375 -1.515625q0 -1.0 -0.375 -1.515625q-0.359375 -0.53125 -1.125 -0.53125q-0.78125 0 -1.15625 0.53125q-0.375 0.53125 -0.375 1.515625q0 0.984375 0.375 1.515625q0.375 0.515625 1.15625 0.515625zm4.197052 1.046875l0 -6.15625l0.90625 0q0.28125 0 0.375 0.265625l0.09375 0.453125q0.15625 -0.171875 0.328125 -0.3125q0.1875 -0.15625 0.390625 -0.265625q0.203125 -0.109375 0.421875 -0.171875q0.234375 -0.0625 0.515625 -0.0625q0.578125 0 0.953125 0.3125q0.375 0.3125 0.5625 0.84375q0.140625 -0.3125 0.359375 -0.53125q0.21875 -0.21875 0.46875 -0.359375q0.265625 -0.140625 0.546875 -0.203125q0.296875 -0.0625 0.59375 -0.0625q0.515625 0 0.90625 0.15625q0.390625 0.15625 0.65625 0.453125q0.28125 0.296875 0.421875 0.734375q0.140625 0.4375 0.140625 0.984375l0 3.921875l-1.484375 0l0 -3.921875q0 -0.578125 -0.265625 -0.875q-0.25 -0.296875 -0.75 -0.296875q-0.21875 0 -0.421875 0.078125q-0.1875 0.078125 -0.34375 0.21875q-0.140625 0.140625 -0.234375 0.375q-0.078125 0.21875 -0.078125 0.5l0 3.921875l-1.484375 0l0 -3.921875q0 -0.609375 -0.25 -0.890625q-0.25 -0.28125 -0.734375 -0.28125q-0.3125 0 -0.59375 0.15625q-0.28125 0.15625 -0.515625 0.4375l0 4.5l-1.484375 0zm10.61969 0.015625q-0.0625 0.140625 -0.140625 0.234375q-0.078125 0.109375 -0.1875 0.171875q-0.109375 0.078125 -0.234375 0.109375q-0.125 0.03125 -0.234375 0.03125l-0.625 0l3.5 -8.953125q0.109375 -0.25 0.296875 -0.390625q0.1875 -0.140625 0.46875 -0.140625l0.625 0l-3.46875 8.9375zm11.534653 -0.015625l-1.640625 0l0 -3.796875l-4.0625 0l0 3.796875l-1.625 0l0 -8.671875l1.625 0l0 3.734375l4.0625 0l0 -3.734375l1.640625 0l0 8.671875zm5.2439423 -1.296875q0.46875 0 0.828125 -0.15625q0.375 -0.15625 0.625 -0.4375q0.25 -0.28125 0.390625 -0.6875q0.140625 -0.40625 0.140625 -0.90625l0 -5.1875l1.609375 0l0 5.1875q0 0.78125 -0.25 1.4375q-0.25 0.65625 -0.71875 1.140625q-0.46875 0.46875 -1.140625 0.734375q-0.65625 0.265625 -1.484375 0.265625q-0.84375 0 -1.515625 -0.265625q-0.65625 -0.265625 -1.125 -0.734375q-0.46875 -0.484375 -0.71875 -1.140625q-0.234375 -0.65625 -0.234375 -1.4375l0 -5.1875l1.609375 0l0 5.1875q0 0.5 0.125 0.90625q0.140625 0.390625 0.390625 0.6875q0.25 0.28125 0.625 0.4375q0.375 0.15625 0.84375 0.15625zm11.345444 -7.375l0 1.328125l-2.609375 0l0 7.34375l-1.609375 0l0 -7.34375l-2.625 0l0 -1.328125l6.84375 0zm-0.33058167 4.4375l3.109375 0l0 1.234375l-3.109375 0l0 -1.234375zm10.558029 2.1875q0.125 0 0.21875 0.109375l0.640625 0.6875q-0.53125 0.65625 -1.296875 1.0q-0.765625 0.34375 -1.859375 0.34375q-0.953125 0 -1.734375 -0.328125q-0.765625 -0.328125 -1.3125 -0.90625q-0.546875 -0.59375 -0.84375 -1.40625q-0.28125 -0.828125 -0.28125 -1.796875q0 -0.96875 0.3125 -1.78125q0.328125 -0.8125 0.921875 -1.40625q0.59375 -0.59375 1.40625 -0.90625q0.8125 -0.328125 1.8125 -0.328125q0.96875 0 1.6875 0.3125q0.71875 0.296875 1.234375 0.8125l-0.53125 0.75q-0.0625 0.0625 -0.140625 0.125q-0.0625 0.046875 -0.203125 0.046875q-0.125 0 -0.28125 -0.109375q-0.140625 -0.109375 -0.359375 -0.234375q-0.21875 -0.125 -0.5625 -0.21875q-0.34375 -0.109375 -0.859375 -0.109375q-0.609375 0 -1.125 0.21875q-0.515625 0.203125 -0.890625 0.59375q-0.359375 0.390625 -0.578125 0.96875q-0.203125 0.5625 -0.203125 1.265625q0 0.734375 0.203125 1.3125q0.21875 0.5625 0.5625 0.953125q0.359375 0.390625 0.84375 0.609375q0.484375 0.203125 1.03125 0.203125q0.328125 0 0.59375 -0.03125q0.265625 -0.046875 0.484375 -0.125q0.234375 -0.078125 0.4375 -0.203125q0.203125 -0.125 0.390625 -0.296875q0.0625 -0.0625 0.125 -0.09375q0.078125 -0.03125 0.15625 -0.03125zm7.546051 -6.625l0 1.28125l-3.84375 0l0 2.40625l3.03125 0l0 1.234375l-3.03125 0l0 2.453125l3.84375 0l0 1.296875l-5.46875 0l0 -8.671875l5.46875 0zm1.8387909 8.6875q-0.0625 0.140625 -0.140625 0.234375q-0.078125 0.109375 -0.1875 0.171875q-0.109375 0.078125 -0.234375 0.109375q-0.125 0.03125 -0.234375 0.03125l-0.625 0l3.5 -8.953125q0.109375 -0.25 0.296875 -0.390625q0.1875 -0.140625 0.46875 -0.140625l0.625 0l-3.46875 8.9375zm5.7065277 -6.171875l0 6.15625l-1.484375 0l0 -6.15625l1.484375 0zm0.21875 -1.796875q0 0.1875 -0.078125 0.359375q-0.078125 0.171875 -0.21875 0.296875q-0.125 0.125 -0.296875 0.203125q-0.171875 0.078125 -0.375 0.078125q-0.1875 0 -0.359375 -0.078125q-0.171875 -0.078125 -0.296875 -0.203125q-0.125 -0.125 -0.203125 -0.296875q-0.0625 -0.171875 -0.0625 -0.359375q0 -0.1875 0.0625 -0.359375q0.078125 -0.1875 0.203125 -0.3125q0.125 -0.125 0.296875 -0.1875q0.171875 -0.078125 0.359375 -0.078125q0.203125 0 0.375 0.078125q0.171875 0.0625 0.296875 0.1875q0.140625 0.125 0.21875 0.3125q0.078125 0.171875 0.078125 0.359375zm1.4551544 7.953125l0 -6.15625l0.90625 0q0.28125 0 0.375 0.265625l0.09375 0.484375q0.1875 -0.1875 0.390625 -0.34375q0.21875 -0.15625 0.4375 -0.265625q0.234375 -0.109375 0.5 -0.171875q0.265625 -0.0625 0.578125 -0.0625q0.5 0 0.890625 0.171875q0.390625 0.171875 0.65625 0.484375q0.265625 0.296875 0.390625 0.734375q0.140625 0.421875 0.140625 0.9375l0 3.921875l-1.484375 0l0 -3.921875q0 -0.5625 -0.265625 -0.859375q-0.25 -0.3125 -0.78125 -0.3125q-0.375 0 -0.71875 0.171875q-0.328125 0.171875 -0.625 0.46875l0 4.453125l-1.484375 0zm8.837677 0.09375q-0.796875 0 -1.234375 -0.453125q-0.421875 -0.453125 -0.421875 -1.25l0 -3.4375l-0.625 0q-0.125 0 -0.21875 -0.078125q-0.078125 -0.078125 -0.078125 -0.234375l0 -0.59375l0.984375 -0.15625l0.3125 -1.671875q0.03125 -0.125 0.109375 -0.1875q0.09375 -0.078125 0.21875 -0.078125l0.78125 0l0 1.9375l1.609375 0l0 1.0625l-1.609375 0l0 3.34375q0 0.28125 0.140625 0.453125q0.140625 0.15625 0.375 0.15625q0.140625 0 0.234375 -0.03125q0.09375 -0.03125 0.15625 -0.0625q0.078125 -0.046875 0.125 -0.078125q0.0625 -0.03125 0.109375 -0.03125q0.078125 0 0.109375 0.03125q0.046875 0.03125 0.09375 0.09375l0.4375 0.71875q-0.3125 0.265625 -0.734375 0.40625q-0.421875 0.140625 -0.875 0.140625zm2.6284027 -0.09375l0 -6.15625l0.859375 0q0.234375 0 0.3125 0.09375q0.09375 0.078125 0.125 0.28125l0.09375 0.734375q0.328125 -0.5625 0.765625 -0.890625q0.453125 -0.328125 1.0 -0.328125q0.46875 0 0.765625 0.203125l-0.1875 1.109375q-0.03125 0.109375 -0.09375 0.15625q-0.046875 0.046875 -0.15625 0.046875q-0.09375 0 -0.25 -0.046875q-0.15625 -0.046875 -0.40625 -0.046875q-0.46875 0 -0.796875 0.265625q-0.328125 0.25 -0.546875 0.75l0 3.828125l-1.484375 0zm7.5270386 -6.25q0.6875 0 1.25 0.21875q0.5625 0.21875 0.953125 0.640625q0.40625 0.40625 0.609375 1.0q0.21875 0.578125 0.21875 1.296875q0 0.734375 -0.21875 1.328125q-0.203125 0.578125 -0.609375 1.0q-0.390625 0.40625 -0.953125 0.640625q-0.5625 0.21875 -1.25 0.21875q-0.6875 0 -1.25 -0.21875q-0.5625 -0.234375 -0.96875 -0.640625q-0.40625 -0.421875 -0.625 -1.0q-0.21875 -0.59375 -0.21875 -1.328125q0 -0.71875 0.21875 -1.296875q0.21875 -0.59375 0.625 -1.0q0.40625 -0.421875 0.96875 -0.640625q0.5625 -0.21875 1.25 -0.21875zm0 5.203125q0.765625 0 1.125 -0.515625q0.375 -0.515625 0.375 -1.515625q0 -1.0 -0.375 -1.515625q-0.359375 -0.53125 -1.125 -0.53125q-0.78125 0 -1.15625 0.53125q-0.375 0.53125 -0.375 1.515625q0 0.984375 0.375 1.515625q0.375 0.515625 1.15625 0.515625zm3.993927 -3.1875l3.109375 0l0 1.234375l-3.109375 0l0 -1.234375zm4.511154 6.25l0 -8.171875l0.90625 0q0.140625 0 0.234375 0.0625q0.109375 0.0625 0.140625 0.203125l0.125 0.578125q0.359375 -0.421875 0.84375 -0.6875q0.484375 -0.265625 1.140625 -0.265625q0.5 0 0.90625 0.21875q0.421875 0.203125 0.71875 0.609375q0.3125 0.390625 0.46875 0.984375q0.171875 0.578125 0.171875 1.328125q0 0.6875 -0.1875 1.28125q-0.1875 0.578125 -0.53125 1.015625q-0.34375 0.4375 -0.828125 0.6875q-0.484375 0.234375 -1.09375 0.234375q-0.53125 0 -0.890625 -0.15625q-0.359375 -0.171875 -0.640625 -0.453125l0 2.53125l-1.484375 0zm2.875 -7.109375q-0.46875 0 -0.796875 0.203125q-0.3125 0.1875 -0.59375 0.53125l0 2.765625q0.25 0.3125 0.546875 0.4375q0.296875 0.125 0.640625 0.125q0.328125 0 0.59375 -0.125q0.28125 -0.140625 0.46875 -0.390625q0.1875 -0.265625 0.28125 -0.65625q0.109375 -0.390625 0.109375 -0.921875q0 -0.546875 -0.09375 -0.921875q-0.078125 -0.375 -0.25 -0.609375q-0.15625 -0.234375 -0.390625 -0.328125q-0.21875 -0.109375 -0.515625 -0.109375zm3.9110413 5.09375l0 -6.15625l0.859375 0q0.234375 0 0.3125 0.09375q0.09375 0.078125 0.125 0.28125l0.09375 0.734375q0.328125 -0.5625 0.765625 -0.890625q0.453125 -0.328125 1.0 -0.328125q0.46875 0 0.765625 0.203125l-0.1875 1.109375q-0.03125 0.109375 -0.09375 0.15625q-0.046875 0.046875 -0.15625 0.046875q-0.09375 0 -0.25 -0.046875q-0.15625 -0.046875 -0.40625 -0.046875q-0.46875 0 -0.796875 0.265625q-0.328125 0.25 -0.546875 0.75l0 3.828125l-1.484375 0zm7.5270386 -6.25q0.6875 0 1.25 0.21875q0.5625 0.21875 0.953125 0.640625q0.40625 0.40625 0.609375 1.0q0.21875 0.578125 0.21875 1.296875q0 0.734375 -0.21875 1.328125q-0.203125 0.578125 -0.609375 1.0q-0.390625 0.40625 -0.953125 0.640625q-0.5625 0.21875 -1.25 0.21875q-0.6875 0 -1.25 -0.21875q-0.5625 -0.234375 -0.96875 -0.640625q-0.40625 -0.421875 -0.625 -1.0q-0.21875 -0.59375 -0.21875 -1.328125q0 -0.71875 0.21875 -1.296875q0.21875 -0.59375 0.625 -1.0q0.40625 -0.421875 0.96875 -0.640625q0.5625 -0.21875 1.25 -0.21875zm0 5.203125q0.765625 0 1.125 -0.515625q0.375 -0.515625 0.375 -1.515625q0 -1.0 -0.375 -1.515625q-0.359375 -0.53125 -1.125 -0.53125q-0.78125 0 -1.15625 0.53125q-0.375 0.53125 -0.375 1.515625q0 0.984375 0.375 1.515625q0.375 0.515625 1.15625 0.515625zm6.322052 -5.21875q0.390625 0 0.734375 0.078125q0.359375 0.078125 0.640625 0.234375l1.78125 0l0 0.5625q0 0.140625 -0.078125 0.21875q-0.078125 0.078125 -0.25 0.109375l-0.546875 0.09375q0.0625 0.15625 0.09375 0.328125q0.03125 0.171875 0.03125 0.375q0 0.453125 -0.1875 0.828125q-0.171875 0.359375 -0.5 0.625q-0.328125 0.25 -0.765625 0.390625q-0.4375 0.140625 -0.953125 0.140625q-0.34375 0 -0.671875 -0.0625q-0.296875 0.171875 -0.296875 0.390625q0 0.1875 0.171875 0.28125q0.171875 0.078125 0.453125 0.109375q0.28125 0.03125 0.625 0.046875q0.359375 0.015625 0.734375 0.046875q0.375 0.015625 0.71875 0.09375q0.359375 0.078125 0.640625 0.25q0.28125 0.15625 0.453125 0.4375q0.171875 0.28125 0.171875 0.71875q0 0.40625 -0.203125 0.78125q-0.203125 0.390625 -0.59375 0.6875q-0.375 0.296875 -0.9375 0.484375q-0.546875 0.1875 -1.25 0.1875q-0.703125 0 -1.21875 -0.140625q-0.515625 -0.140625 -0.859375 -0.359375q-0.328125 -0.21875 -0.5 -0.515625q-0.171875 -0.296875 -0.171875 -0.609375q0 -0.4375 0.265625 -0.734375q0.265625 -0.296875 0.734375 -0.46875q-0.234375 -0.125 -0.375 -0.328125q-0.125 -0.21875 -0.125 -0.546875q0 -0.140625 0.046875 -0.28125q0.046875 -0.15625 0.140625 -0.296875q0.109375 -0.140625 0.25 -0.265625q0.15625 -0.140625 0.359375 -0.234375q-0.46875 -0.265625 -0.734375 -0.671875q-0.265625 -0.421875 -0.265625 -0.984375q0 -0.46875 0.171875 -0.828125q0.1875 -0.375 0.515625 -0.625q0.328125 -0.265625 0.765625 -0.40625q0.453125 -0.140625 0.984375 -0.140625zm1.625 6.546875q0 -0.1875 -0.109375 -0.296875q-0.109375 -0.109375 -0.296875 -0.171875q-0.1875 -0.078125 -0.4375 -0.09375q-0.234375 -0.03125 -0.515625 -0.046875q-0.28125 -0.015625 -0.578125 -0.03125q-0.296875 -0.015625 -0.578125 -0.046875q-0.25 0.125 -0.40625 0.328125q-0.15625 0.1875 -0.15625 0.421875q0 0.171875 0.078125 0.3125q0.09375 0.140625 0.265625 0.234375q0.171875 0.109375 0.453125 0.15625q0.296875 0.0625 0.703125 0.0625q0.40625 0 0.703125 -0.0625q0.3125 -0.0625 0.5 -0.171875q0.203125 -0.109375 0.28125 -0.265625q0.09375 -0.15625 0.09375 -0.328125zm-1.625 -3.515625q0.28125 0 0.484375 -0.0625q0.203125 -0.078125 0.328125 -0.203125q0.140625 -0.140625 0.203125 -0.328125q0.078125 -0.1875 0.078125 -0.40625q0 -0.453125 -0.28125 -0.71875q-0.265625 -0.265625 -0.8125 -0.265625q-0.546875 0 -0.828125 0.265625q-0.265625 0.265625 -0.265625 0.71875q0 0.21875 0.0625 0.40625q0.078125 0.1875 0.203125 0.328125q0.140625 0.125 0.34375 0.203125q0.21875 0.0625 0.484375 0.0625zm4.085022 3.234375l0 -6.15625l0.859375 0q0.234375 0 0.3125 0.09375q0.09375 0.078125 0.125 0.28125l0.09375 0.734375q0.328125 -0.5625 0.765625 -0.890625q0.453125 -0.328125 1.0 -0.328125q0.46875 0 0.765625 0.203125l-0.1875 1.109375q-0.03125 0.109375 -0.09375 0.15625q-0.046875 0.046875 -0.15625 0.046875q-0.09375 0 -0.25 -0.046875q-0.15625 -0.046875 -0.40625 -0.046875q-0.46875 0 -0.796875 0.265625q-0.328125 0.25 -0.546875 0.75l0 3.828125l-1.484375 0zm9.540558 0l-0.65625 0q-0.21875 0 -0.34375 -0.0625q-0.109375 -0.0625 -0.171875 -0.25l-0.125 -0.4375q-0.234375 0.203125 -0.46875 0.359375q-0.21875 0.15625 -0.46875 0.265625q-0.234375 0.109375 -0.5 0.15625q-0.265625 0.0625 -0.59375 0.0625q-0.390625 0 -0.734375 -0.09375q-0.328125 -0.109375 -0.5625 -0.3125q-0.234375 -0.21875 -0.375 -0.53125q-0.125 -0.3125 -0.125 -0.734375q0 -0.34375 0.1875 -0.671875q0.1875 -0.34375 0.609375 -0.609375q0.421875 -0.28125 1.125 -0.453125q0.71875 -0.1875 1.765625 -0.21875l0 -0.359375q0 -0.609375 -0.265625 -0.90625q-0.265625 -0.296875 -0.75 -0.296875q-0.359375 0 -0.609375 0.078125q-0.234375 0.078125 -0.421875 0.1875q-0.171875 0.109375 -0.328125 0.203125q-0.140625 0.078125 -0.328125 0.078125q-0.140625 0 -0.25 -0.078125q-0.109375 -0.078125 -0.171875 -0.203125l-0.265625 -0.46875q1.0625 -0.96875 2.5625 -0.96875q0.53125 0 0.953125 0.171875q0.421875 0.171875 0.71875 0.5q0.296875 0.3125 0.4375 0.75q0.15625 0.4375 0.15625 0.953125l0 3.890625zm-2.875 -0.921875q0.234375 0 0.421875 -0.046875q0.1875 -0.046875 0.359375 -0.125q0.171875 -0.078125 0.328125 -0.203125q0.171875 -0.125 0.328125 -0.296875l0 -1.03125q-0.65625 0.03125 -1.09375 0.109375q-0.421875 0.078125 -0.6875 0.203125q-0.265625 0.125 -0.375 0.296875q-0.109375 0.171875 -0.109375 0.359375q0 0.390625 0.21875 0.5625q0.234375 0.171875 0.609375 0.171875zm4.3445435 0.921875l0 -6.15625l0.90625 0q0.28125 0 0.375 0.265625l0.09375 0.453125q0.15625 -0.171875 0.328125 -0.3125q0.1875 -0.15625 0.390625 -0.265625q0.203125 -0.109375 0.421875 -0.171875q0.234375 -0.0625 0.515625 -0.0625q0.578125 0 0.953125 0.3125q0.375 0.3125 0.5625 0.84375q0.140625 -0.3125 0.359375 -0.53125q0.21875 -0.21875 0.46875 -0.359375q0.265625 -0.140625 0.546875 -0.203125q0.296875 -0.0625 0.59375 -0.0625q0.515625 0 0.90625 0.15625q0.390625 0.15625 0.65625 0.453125q0.28125 0.296875 0.421875 0.734375q0.140625 0.4375 0.140625 0.984375l0 3.921875l-1.484375 0l0 -3.921875q0 -0.578125 -0.265625 -0.875q-0.25 -0.296875 -0.75 -0.296875q-0.21875 0 -0.421875 0.078125q-0.1875 0.078125 -0.34375 0.21875q-0.140625 0.140625 -0.234375 0.375q-0.078125 0.21875 -0.078125 0.5l0 3.921875l-1.484375 0l0 -3.921875q0 -0.609375 -0.25 -0.890625q-0.25 -0.28125 -0.734375 -0.28125q-0.3125 0 -0.59375 0.15625q-0.28125 0.15625 -0.515625 0.4375l0 4.5l-1.484375 0zm10.104065 0l0 -6.15625l0.90625 0q0.28125 0 0.375 0.265625l0.09375 0.453125q0.15625 -0.171875 0.328125 -0.3125q0.1875 -0.15625 0.390625 -0.265625q0.203125 -0.109375 0.421875 -0.171875q0.234375 -0.0625 0.515625 -0.0625q0.578125 0 0.953125 0.3125q0.375 0.3125 0.5625 0.84375q0.140625 -0.3125 0.359375 -0.53125q0.21875 -0.21875 0.46875 -0.359375q0.265625 -0.140625 0.546875 -0.203125q0.296875 -0.0625 0.59375 -0.0625q0.515625 0 0.90625 0.15625q0.390625 0.15625 0.65625 0.453125q0.28125 0.296875 0.421875 0.734375q0.140625 0.4375 0.140625 0.984375l0 3.921875l-1.484375 0l0 -3.921875q0 -0.578125 -0.265625 -0.875q-0.25 -0.296875 -0.75 -0.296875q-0.21875 0 -0.421875 0.078125q-0.1875 0.078125 -0.34375 0.21875q-0.140625 0.140625 -0.234375 0.375q-0.078125 0.21875 -0.078125 0.5l0 3.921875l-1.484375 0l0 -3.921875q0 -0.609375 -0.25 -0.890625q-0.25 -0.28125 -0.734375 -0.28125q-0.3125 0 -0.59375 0.15625q-0.28125 0.15625 -0.515625 0.4375l0 4.5l-1.484375 0zm11.68219 -6.15625l0 6.15625l-1.484375 0l0 -6.15625l1.484375 0zm0.21875 -1.796875q0 0.1875 -0.078125 0.359375q-0.078125 0.171875 -0.21875 0.296875q-0.125 0.125 -0.296875 0.203125q-0.171875 0.078125 -0.375 0.078125q-0.1875 0 -0.359375 -0.078125q-0.171875 -0.078125 -0.296875 -0.203125q-0.125 -0.125 -0.203125 -0.296875q-0.0625 -0.171875 -0.0625 -0.359375q0 -0.1875 0.0625 -0.359375q0.078125 -0.1875 0.203125 -0.3125q0.125 -0.125 0.296875 -0.1875q0.171875 -0.078125 0.359375 -0.078125q0.203125 0 0.375 0.078125q0.171875 0.0625 0.296875 0.1875q0.140625 0.125 0.21875 0.3125q0.078125 0.171875 0.078125 0.359375zm1.4551697 7.953125l0 -6.15625l0.90625 0q0.28125 0 0.375 0.265625l0.09375 0.484375q0.1875 -0.1875 0.390625 -0.34375q0.21875 -0.15625 0.4375 -0.265625q0.234375 -0.109375 0.5 -0.171875q0.265625 -0.0625 0.578125 -0.0625q0.5 0 0.890625 0.171875q0.390625 0.171875 0.65625 0.484375q0.265625 0.296875 0.390625 0.734375q0.140625 0.421875 0.140625 0.9375l0 3.921875l-1.484375 0l0 -3.921875q0 -0.5625 -0.265625 -0.859375q-0.25 -0.3125 -0.78125 -0.3125q-0.375 0 -0.71875 0.171875q-0.328125 0.171875 -0.625 0.46875l0 4.453125l-1.484375 0zm8.947052 -6.265625q0.390625 0 0.734375 0.078125q0.359375 0.078125 0.640625 0.234375l1.78125 0l0 0.5625q0 0.140625 -0.078125 0.21875q-0.078125 0.078125 -0.25 0.109375l-0.546875 0.09375q0.0625 0.15625 0.09375 0.328125q0.03125 0.171875 0.03125 0.375q0 0.453125 -0.1875 0.828125q-0.171875 0.359375 -0.5 0.625q-0.328125 0.25 -0.765625 0.390625q-0.4375 0.140625 -0.953125 0.140625q-0.34375 0 -0.671875 -0.0625q-0.296875 0.171875 -0.296875 0.390625q0 0.1875 0.171875 0.28125q0.171875 0.078125 0.453125 0.109375q0.28125 0.03125 0.625 0.046875q0.359375 0.015625 0.734375 0.046875q0.375 0.015625 0.71875 0.09375q0.359375 0.078125 0.640625 0.25q0.28125 0.15625 0.453125 0.4375q0.171875 0.28125 0.171875 0.71875q0 0.40625 -0.203125 0.78125q-0.203125 0.390625 -0.59375 0.6875q-0.375 0.296875 -0.9375 0.484375q-0.546875 0.1875 -1.25 0.1875q-0.703125 0 -1.21875 -0.140625q-0.515625 -0.140625 -0.859375 -0.359375q-0.328125 -0.21875 -0.5 -0.515625q-0.171875 -0.296875 -0.171875 -0.609375q0 -0.4375 0.265625 -0.734375q0.265625 -0.296875 0.734375 -0.46875q-0.234375 -0.125 -0.375 -0.328125q-0.125 -0.21875 -0.125 -0.546875q0 -0.140625 0.046875 -0.28125q0.046875 -0.15625 0.140625 -0.296875q0.109375 -0.140625 0.25 -0.265625q0.15625 -0.140625 0.359375 -0.234375q-0.46875 -0.265625 -0.734375 -0.671875q-0.265625 -0.421875 -0.265625 -0.984375q0 -0.46875 0.171875 -0.828125q0.1875 -0.375 0.515625 -0.625q0.328125 -0.265625 0.765625 -0.40625q0.453125 -0.140625 0.984375 -0.140625zm1.625 6.546875q0 -0.1875 -0.109375 -0.296875q-0.109375 -0.109375 -0.296875 -0.171875q-0.1875 -0.078125 -0.4375 -0.09375q-0.234375 -0.03125 -0.515625 -0.046875q-0.28125 -0.015625 -0.578125 -0.03125q-0.296875 -0.015625 -0.578125 -0.046875q-0.25 0.125 -0.40625 0.328125q-0.15625 0.1875 -0.15625 0.421875q0 0.171875 0.078125 0.3125q0.09375 0.140625 0.265625 0.234375q0.171875 0.109375 0.453125 0.15625q0.296875 0.0625 0.703125 0.0625q0.40625 0 0.703125 -0.0625q0.3125 -0.0625 0.5 -0.171875q0.203125 -0.109375 0.28125 -0.265625q0.09375 -0.15625 0.09375 -0.328125zm-1.625 -3.515625q0.28125 0 0.484375 -0.0625q0.203125 -0.078125 0.328125 -0.203125q0.140625 -0.140625 0.203125 -0.328125q0.078125 -0.1875 0.078125 -0.40625q0 -0.453125 -0.28125 -0.71875q-0.265625 -0.265625 -0.8125 -0.265625q-0.546875 0 -0.828125 0.265625q-0.265625 0.265625 -0.265625 0.71875q0 0.21875 0.0625 0.40625q0.078125 0.1875 0.203125 0.328125q0.140625 0.125 0.34375 0.203125q0.21875 0.0625 0.484375 0.0625z" fill-rule="nonzero"/><path fill="#000000" fill-opacity="0.0" d="m732.9349 97.08241l0 63.496063l-85.51184 0" fill-rule="evenodd"/><path stroke="#000000" stroke-width="2.0" stroke-linejoin="round" stroke-linecap="butt" d="m732.9349 97.08241l0 63.496063l-73.51184 0" fill-rule="evenodd"/><path fill="#000000" stroke="#000000" stroke-width="2.0" stroke-linecap="butt" d="m659.42303 157.27501l-9.076172 3.3034668l9.076172 3.3034668z" fill-rule="evenodd"/><path fill="#000000" fill-opacity="0.0" d="m481.85696 160.59055l-28.44809 0l0 0.06300354l-24.74878 0" fill-rule="evenodd"/><path stroke="#000000" stroke-width="2.0" stroke-linejoin="round" stroke-linecap="butt" d="m481.85696 160.59055l-28.44809 0l0 0.06300354l-12.748779 0" fill-rule="evenodd"/><path fill="#000000" stroke="#000000" stroke-width="2.0" stroke-linecap="butt" d="m440.6601 157.35008l-9.076172 3.3034668l9.076172 3.3034515z" fill-rule="evenodd"/><path fill="#cfe2f3" d="m40.51181 358.68503l148.6318 0l0 83.75482c-74.3159 0 -74.3159 31.91214 -148.6318 13.780243z" fill-rule="evenodd"/><path stroke="#000000" stroke-width="1.0" stroke-linejoin="round" stroke-linecap="butt" d="m40.51181 358.68503l148.6318 0l0 83.75482c-74.3159 0 -74.3159 31.91214 -148.6318 13.780243z" fill-rule="evenodd"/><path fill="#000000" d="m85.02086 395.76245l0 -14.0l5.703125 0q1.140625 0 2.0625 0.578125q0.9375 0.5625 1.5 1.546875q0.5625 0.96875 0.5625 2.171875q0 1.203125 -0.5625 2.1875q-0.5625 0.96875 -1.5 1.5625q-0.921875 0.59375 -2.0625 0.59375l-3.53125 0l0 5.359375l-2.171875 0zm2.171875 -7.4375l3.5 0q0.53125 0 0.96875 -0.3125q0.453125 -0.3125 0.71875 -0.8125q0.265625 -0.515625 0.265625 -1.140625q0 -0.609375 -0.265625 -1.109375q-0.265625 -0.5 -0.71875 -0.796875q-0.4375 -0.3125 -0.96875 -0.3125l-3.5 0l0 4.484375zm10.508118 7.4375l0 -14.0l5.96875 0q1.203125 0 2.203125 0.59375q1.015625 0.59375 1.609375 1.609375q0.609375 1.0 0.609375 2.25q0 1.140625 -0.609375 2.125q-0.59375 0.984375 -1.59375 1.578125q-1.0 0.578125 -2.21875 0.578125l-3.796875 0l0 5.265625l-2.171875 0zm8.328125 0l-3.5625 -6.3125l2.21875 -0.5l3.96875 6.828125l-2.625 -0.015625zm-6.15625 -7.34375l4.0 0q0.578125 0 1.03125 -0.28125q0.46875 -0.296875 0.71875 -0.796875q0.265625 -0.515625 0.265625 -1.140625q0 -0.703125 -0.328125 -1.21875q-0.328125 -0.53125 -0.921875 -0.828125q-0.59375 -0.3125 -1.328125 -0.3125l-3.4375 0l0 4.578125zm11.212494 7.34375l0 -2.0l2.265625 0l0 -10.0l-2.265625 0l0 -2.0l6.6875 0l0 2.0l-2.265625 0l0 10.0l2.265625 0l0 2.0l-6.6875 0zm10.075623 0l0 -14.0l1.953125 0l8.546875 11.453125l-0.3125 0.1875q-0.140625 -0.828125 -0.234375 -1.90625q-0.09375 -1.078125 -0.140625 -2.375q-0.03125 -1.296875 -0.03125 -2.765625l0 -4.59375l2.171875 0l0 14.0l-1.984375 0l-8.421875 -11.046875l0.21875 -0.265625q0.140625 1.515625 0.21875 2.484375q0.078125 0.96875 0.109375 1.546875q0.046875 0.578125 0.0625 0.90625q0.015625 0.328125 0.015625 0.5625l0 5.8125l-2.171875 0zm18.53186 0l0 -11.921875l-3.921875 0l0 -2.078125l10.109375 0l0 2.078125l-4.03125 0l0 11.921875l-2.15625 0z" fill-rule="nonzero"/><path fill="#000000" d="m108.48209 419.76245l0 -14.0l3.0625 0l7.359375 9.984375l-0.65625 -0.078125q-0.140625 -1.125 -0.25 -2.09375q-0.09375 -0.96875 -0.125 -2.03125q-0.03125 -1.0625 -0.03125 -2.4375l0 -3.34375l3.328125 0l0 14.0l-3.109375 0l-7.625 -10.28125l0.96875 0.140625q0.140625 1.21875 0.21875 2.03125q0.078125 0.796875 0.125 1.359375q0.046875 0.5625 0.0625 1.0625q0.015625 0.484375 0.015625 1.09375l0 4.59375l-3.34375 0z" fill-rule="nonzero"/><path fill="#cfe2f3" d="m253.47244 327.4777l100.74014 -58.92914l100.74017 58.92914l-100.74017 58.92914z" fill-rule="evenodd"/><path stroke="#000000" stroke-width="1.0" stroke-linejoin="round" stroke-linecap="butt" d="m253.47244 327.4777l100.74014 -58.92914l100.74017 58.92914l-100.74017 58.92914z" fill-rule="evenodd"/><path fill="#000000" d="m327.28763 334.6777l0 -11.921875l-3.921875 0l0 -2.078125l10.109375 0l0 2.078125l-4.03125 0l0 11.921875l-2.15625 0zm19.09497 -6.625l0 -1.796875l9.3125 0l0 1.796875l-9.3125 0zm0 3.78125l0 -1.78125l9.3125 0l0 1.78125l-9.3125 0zm11.320007 -3.78125l0 -1.796875l9.3125 0l0 1.796875l-9.3125 0zm0 3.78125l0 -1.78125l9.3125 0l0 1.78125l-9.3125 0zm21.982483 3.046875q-1.609375 0 -2.765625 -0.875q-1.140625 -0.890625 -1.765625 -2.5q-0.609375 -1.609375 -0.609375 -3.828125q0 -2.21875 0.609375 -3.828125q0.625 -1.609375 1.765625 -2.484375q1.15625 -0.890625 2.765625 -0.890625q1.59375 0 2.75 0.890625q1.171875 0.875 1.78125 2.484375q0.625 1.609375 0.625 3.828125q0 2.21875 -0.625 3.828125q-0.609375 1.609375 -1.78125 2.5q-1.15625 0.875 -2.75 0.875zm0 -1.96875q1.453125 0 2.25 -1.359375q0.8125 -1.375 0.8125 -3.875q0 -2.5 -0.8125 -3.859375q-0.796875 -1.375 -2.25 -1.375q-1.46875 0 -2.265625 1.375q-0.796875 1.359375 -0.796875 3.859375q0 2.5 0.796875 3.875q0.796875 1.359375 2.265625 1.359375z" fill-rule="nonzero"/><path fill="#000000" fill-opacity="0.0" d="m253.47244 327.4777l-138.64566 0l0 31.212585" fill-rule="evenodd"/><path stroke="#000000" stroke-width="2.0" stroke-linejoin="round" stroke-linecap="butt" d="m253.47244 327.4777l-138.64566 0l0 19.212585" fill-rule="evenodd"/><path fill="#000000" stroke="#000000" stroke-width="2.0" stroke-linecap="butt" d="m111.52331 346.69028l3.3034668 9.076202l3.3034592 -9.076202z" fill-rule="evenodd"/><path fill="#000000" fill-opacity="0.0" d="m203.57217 291.91733l56.346466 0l0 35.55905l-56.346466 0z" fill-rule="evenodd"/><path fill="#000000" d="m225.259 309.96732l0 3.75l-1.796875 0l0 -3.75l-3.515625 -5.890625l1.578125 0q0.234375 0 0.375 0.125q0.140625 0.109375 0.21875 0.28125l1.78125 3.21875q0.140625 0.28125 0.25 0.546875q0.125 0.25 0.21875 0.5q0.078125 -0.25 0.1875 -0.5q0.109375 -0.265625 0.265625 -0.546875l1.75 -3.21875q0.078125 -0.15625 0.21875 -0.28125q0.15625 -0.125 0.375 -0.125l1.59375 0l-3.5 5.890625zm10.504471 -5.890625l0 1.4375l-4.265625 0l0 2.671875l3.359375 0l0 1.375l-3.359375 0l0 2.71875l4.265625 0l0 1.4375l-6.078125 0l0 -9.640625l6.078125 0zm6.7240753 1.75q-0.078125 0.15625 -0.171875 0.21875q-0.09375 0.0625 -0.234375 0.0625q-0.125 0 -0.296875 -0.109375q-0.171875 -0.109375 -0.40625 -0.234375q-0.21875 -0.125 -0.515625 -0.21875q-0.296875 -0.109375 -0.71875 -0.109375q-0.375 0 -0.65625 0.09375q-0.265625 0.078125 -0.453125 0.25q-0.1875 0.15625 -0.28125 0.375q-0.09375 0.21875 -0.09375 0.484375q0 0.34375 0.1875 0.578125q0.1875 0.21875 0.5 0.390625q0.3125 0.15625 0.703125 0.28125q0.40625 0.125 0.8125 0.265625q0.421875 0.140625 0.828125 0.34375q0.40625 0.1875 0.71875 0.484375q0.3125 0.28125 0.5 0.703125q0.1875 0.40625 0.1875 1.015625q0 0.65625 -0.234375 1.234375q-0.21875 0.5625 -0.65625 0.984375q-0.421875 0.421875 -1.046875 0.671875q-0.609375 0.234375 -1.40625 0.234375q-0.453125 0 -0.90625 -0.09375q-0.453125 -0.09375 -0.859375 -0.25q-0.40625 -0.171875 -0.765625 -0.40625q-0.359375 -0.234375 -0.640625 -0.515625l0.53125 -0.859375q0.0625 -0.09375 0.171875 -0.15625q0.109375 -0.0625 0.234375 -0.0625q0.15625 0 0.34375 0.140625q0.203125 0.125 0.46875 0.296875q0.265625 0.171875 0.609375 0.3125q0.359375 0.125 0.859375 0.125q0.765625 0 1.1875 -0.359375q0.421875 -0.359375 0.421875 -1.046875q0 -0.375 -0.1875 -0.609375q-0.1875 -0.25 -0.5 -0.40625q-0.3125 -0.171875 -0.71875 -0.28125q-0.390625 -0.109375 -0.8125 -0.234375q-0.40625 -0.140625 -0.8125 -0.328125q-0.40625 -0.1875 -0.71875 -0.484375q-0.3125 -0.3125 -0.5 -0.75q-0.1875 -0.453125 -0.1875 -1.125q0 -0.515625 0.203125 -1.015625q0.21875 -0.5 0.625 -0.890625q0.40625 -0.390625 0.984375 -0.625q0.59375 -0.234375 1.34375 -0.234375q0.84375 0 1.5625 0.28125q0.734375 0.265625 1.234375 0.734375l-0.4375 0.84375z" fill-rule="nonzero"/><path fill="#000000" fill-opacity="0.0" d="m348.82153 393.12466l56.346436 0l0 35.55905l-56.346436 0z" fill-rule="evenodd"/><path fill="#000000" d="m368.5351 405.28406q0.125 0 0.203125 0.015625q0.078125 0.015625 0.140625 0.046875q0.0625 0.015625 0.125 0.078125q0.0625 0.0625 0.140625 0.15625l5.0625 6.4375q-0.03125 -0.234375 -0.046875 -0.453125q0 -0.21875 0 -0.421875l0 -5.859375l1.578125 0l0 9.640625l-0.9375 0q-0.203125 0 -0.34375 -0.0625q-0.140625 -0.078125 -0.28125 -0.25l-5.03125 -6.40625q0.015625 0.203125 0.015625 0.421875q0.015625 0.203125 0.015625 0.375l0 5.921875l-1.578125 0l0 -9.640625l0.9375 0l0 0zm18.38852 4.828125q0 1.046875 -0.359375 1.953125q-0.34375 0.90625 -0.984375 1.5625q-0.640625 0.65625 -1.546875 1.03125q-0.890625 0.375 -1.984375 0.375q-1.09375 0 -2.0 -0.375q-0.90625 -0.375 -1.546875 -1.03125q-0.640625 -0.65625 -1.0 -1.5625q-0.34375 -0.90625 -0.34375 -1.953125q0 -1.0625 0.34375 -1.96875q0.359375 -0.90625 1.0 -1.5625q0.640625 -0.65625 1.546875 -1.03125q0.90625 -0.375 2.0 -0.375q1.09375 0 1.984375 0.375q0.90625 0.375 1.546875 1.03125q0.640625 0.65625 0.984375 1.5625q0.359375 0.90625 0.359375 1.96875zm-1.84375 0q0 -0.796875 -0.21875 -1.421875q-0.203125 -0.640625 -0.59375 -1.078125q-0.390625 -0.4375 -0.953125 -0.671875q-0.5625 -0.234375 -1.265625 -0.234375q-0.71875 0 -1.28125 0.234375q-0.5625 0.234375 -0.96875 0.671875q-0.390625 0.4375 -0.609375 1.078125q-0.203125 0.625 -0.203125 1.421875q0 0.78125 0.203125 1.421875q0.21875 0.625 0.609375 1.0625q0.40625 0.4375 0.96875 0.671875q0.5625 0.234375 1.28125 0.234375q0.703125 0 1.265625 -0.234375q0.5625 -0.234375 0.953125 -0.671875q0.390625 -0.4375 0.59375 -1.0625q0.21875 -0.640625 0.21875 -1.421875z" fill-rule="nonzero"/><path fill="#000000" fill-opacity="0.0" d="m354.35565 193.23622l0 37.655807l-0.15750122 0l0 37.651276" fill-rule="evenodd"/><path stroke="#000000" stroke-width="2.0" stroke-linejoin="round" stroke-linecap="butt" d="m354.35565 193.23622l0 37.655792l-0.15750122 0l0 25.65129" fill-rule="evenodd"/><path fill="#000000" stroke="#000000" stroke-width="2.0" stroke-linecap="butt" d="m350.89468 256.5433l3.3034668 9.076202l3.3034668 -9.076202z" fill-rule="evenodd"/><path fill="#000000" fill-opacity="0.0" d="m354.2126 386.40683l0 24.503937l0.0630188 0l0 24.503937" fill-rule="evenodd"/><path stroke="#000000" stroke-width="2.0" stroke-linejoin="round" stroke-linecap="butt" d="m354.2126 386.40683l0 24.503937l0.0630188 0l0 12.503937" fill-rule="evenodd"/><path fill="#000000" stroke="#000000" stroke-width="2.0" stroke-linecap="butt" d="m350.97214 423.4147l3.3034668 9.076202l3.3034363 -9.076202z" fill-rule="evenodd"/><path fill="#000000" fill-opacity="0.0" d="m594.6719 435.4042l0 -107.93701l-139.71652 0" fill-rule="evenodd"/><path stroke="#000000" stroke-width="2.0" stroke-linejoin="round" stroke-linecap="butt" d="m594.6719 435.4042l0 -107.93701l-127.71652 0" fill-rule="evenodd"/><path fill="#000000" stroke="#000000" stroke-width="2.0" stroke-linecap="butt" d="m466.95535 324.16373l-9.076202 3.3034668l9.076202 3.3034668z" fill-rule="evenodd"/><path fill="#cfe2f3" d="m253.48553 435.4042l201.48032 0l0 65.29132l-201.48032 0z" fill-rule="evenodd"/><path stroke="#000000" stroke-width="1.0" stroke-linejoin="round" stroke-linecap="butt" d="m253.48553 435.4042l201.48032 0l0 65.29132l-201.48032 0z" fill-rule="evenodd"/><path fill="#000000" d="m312.54886 475.24988l0 -14.0l1.953125 0l8.546875 11.453125l-0.3125 0.1875q-0.140625 -0.828125 -0.234375 -1.90625q-0.09375 -1.078125 -0.140625 -2.375q-0.03125 -1.296875 -0.03125 -2.765625l0 -4.59375l2.171875 0l0 14.0l-1.984375 0l-8.421875 -11.046875l0.21875 -0.265625q0.140625 1.515625 0.21875 2.484375q0.078125 0.96875 0.109375 1.546875q0.046875 0.578125 0.0625 0.90625q0.015625 0.328125 0.015625 0.5625l0 5.8125l-2.171875 0zm20.506866 -6.625l0 -1.796875l9.3125 0l0 1.796875l-9.3125 0zm0 3.78125l0 -1.78125l9.3125 0l0 1.78125l-9.3125 0zm17.873108 2.84375l0 -14.0l1.953125 0l8.546875 11.453125l-0.3125 0.1875q-0.140625 -0.828125 -0.234375 -1.90625q-0.09375 -1.078125 -0.140625 -2.375q-0.03125 -1.296875 -0.03125 -2.765625l0 -4.59375l2.171875 0l0 14.0l-1.984375 0l-8.421875 -11.046875l0.21875 -0.265625q0.140625 1.515625 0.21875 2.484375q0.078125 0.96875 0.109375 1.546875q0.046875 0.578125 0.0625 0.90625q0.015625 0.328125 0.015625 0.5625l0 5.8125l-2.171875 0zm20.413086 -4.703125l0 -1.796875l10.015625 0l0 1.796875l-10.015625 0zm3.9375 3.859375l0 -9.65625l2.09375 0l0 9.65625l-2.09375 0zm16.919983 -0.140625l0 -11.359375l0.734375 0.5625l-2.765625 1.46875l-0.578125 -1.890625l3.75 -2.0l1.03125 0l0 13.21875l-2.171875 0zm-2.21875 0.984375l0 -2.078125l6.671875 0l0 2.078125l-6.671875 0z" fill-rule="nonzero"/><path fill="#cfe2f3" d="m280.04068 127.944885l148.62991 0l0 65.291336l-148.62991 0z" fill-rule="evenodd"/><path stroke="#000000" stroke-width="1.0" stroke-linejoin="round" stroke-linecap="butt" d="m280.04068 127.944885l148.62991 0l0 65.291336l-148.62991 0z" fill-rule="evenodd"/><path fill="#000000" d="m331.0488 167.79056l0 -14.0l1.953125 0l8.546875 11.453125l-0.3125 0.1875q-0.140625 -0.828125 -0.234375 -1.90625q-0.09375 -1.078125 -0.140625 -2.375q-0.03125 -1.296875 -0.03125 -2.765625l0 -4.59375l2.171875 0l0 14.0l-1.984375 0l-8.421875 -11.046875l0.21875 -0.265625q0.140625 1.515625 0.21875 2.484375q0.078125 0.96875 0.109375 1.546875q0.046875 0.578125 0.0625 0.90625q0.015625 0.328125 0.015625 0.5625l0 5.8125l-2.171875 0zm20.506866 -6.625l0 -1.796875l9.3125 0l0 1.796875l-9.3125 0zm0 3.78125l0 -1.78125l9.3125 0l0 1.78125l-9.3125 0zm21.982483 3.046875q-1.609375 0 -2.765625 -0.875q-1.140625 -0.890625 -1.765625 -2.5q-0.609375 -1.609375 -0.609375 -3.828125q0 -2.21875 0.609375 -3.828125q0.625 -1.609375 1.765625 -2.484375q1.15625 -0.890625 2.765625 -0.890625q1.59375 0 2.75 0.890625q1.171875 0.875 1.78125 2.484375q0.625 1.609375 0.625 3.828125q0 2.21875 -0.625 3.828125q-0.609375 1.609375 -1.78125 2.5q-1.15625 0.875 -2.75 0.875zm0 -1.96875q1.453125 0 2.25 -1.359375q0.8125 -1.375 0.8125 -3.875q0 -2.5 -0.8125 -3.859375q-0.796875 -1.375 -2.25 -1.375q-1.46875 0 -2.265625 1.375q-0.796875 1.359375 -0.796875 3.859375q0 2.5 0.796875 3.875q0.796875 1.359375 2.265625 1.359375z" fill-rule="nonzero"/><path fill="#cfe2f3" d="m493.93173 435.4042l201.48032 0l0 65.29132l-201.48032 0z" fill-rule="evenodd"/><path stroke="#000000" stroke-width="1.0" stroke-linejoin="round" stroke-linecap="butt" d="m493.93173 435.4042l201.48032 0l0 65.29132l-201.48032 0z" fill-rule="evenodd"/><path fill="#000000" d="m540.61694 475.24988l0 -11.921875l-3.921875 0l0 -2.078125l10.109375 0l0 2.078125l-4.03125 0l0 11.921875l-2.15625 0zm13.494995 -6.625l0 -1.796875l9.3125 0l0 1.796875l-9.3125 0zm0 3.78125l0 -1.78125l9.3125 0l0 1.78125l-9.3125 0zm17.513733 6.640625l0 -17.796875l5.140625 0l0 1.578125l-3.390625 0l0.109375 -0.15625l0 15.03125l-0.1875 -0.234375l3.46875 0l0 1.578125l-5.140625 0zm16.691223 -3.796875l0 -11.921875l-3.921875 0l0 -2.078125l10.109375 0l0 2.078125l-4.03125 0l0 11.921875l-2.15625 0zm12.85437 2.640625l8.234375 -16.640625l1.984375 0l-8.21875 16.640625l-2.0 0zm20.724365 -3.625l0 -11.359375l0.734375 0.5625l-2.765625 1.46875l-0.578125 -1.890625l3.75 -2.0l1.03125 0l0 13.21875l-2.171875 0zm-2.21875 0.984375l0 -2.078125l6.671875 0l0 2.078125l-6.671875 0zm13.937439 0.203125q-1.609375 0 -2.765625 -0.875q-1.140625 -0.890625 -1.765625 -2.5q-0.609375 -1.609375 -0.609375 -3.828125q0 -2.21875 0.609375 -3.828125q0.625 -1.609375 1.765625 -2.484375q1.15625 -0.890625 2.765625 -0.890625q1.59375 0 2.75 0.890625q1.171875 0.875 1.78125 2.484375q0.625 1.609375 0.625 3.828125q0 2.21875 -0.625 3.828125q-0.609375 1.609375 -1.78125 2.5q-1.15625 0.875 -2.75 0.875zm0 -1.96875q1.453125 0 2.25 -1.359375q0.8125 -1.375 0.8125 -3.875q0 -2.5 -0.8125 -3.859375q-0.796875 -1.375 -2.25 -1.375q-1.46875 0 -2.265625 1.375q-0.796875 1.359375 -0.796875 3.859375q0 2.5 0.796875 3.875q0.796875 1.359375 2.265625 1.359375zm12.98999 5.5625l0 -1.578125l3.40625 0l-0.125 0.15625l0 -15.03125l0.203125 0.234375l-3.484375 0l0 -1.578125l5.140625 0l0 17.796875l-5.140625 0z" fill-rule="nonzero"/><path fill="#000000" fill-opacity="0.0" d="m454.96585 468.04987l19.481476 0l0 0.06298828l19.479156 0" fill-rule="evenodd"/><path stroke="#000000" stroke-width="2.0" stroke-linejoin="round" stroke-linecap="butt" d="m454.96585 468.04987l19.481506 0l0 0.06298828l7.479126 0" fill-rule="evenodd"/><path fill="#000000" stroke="#000000" stroke-width="2.0" stroke-linecap="butt" d="m481.92648 471.41632l9.076172 -3.3034668l-9.076172 -3.3034668z" fill-rule="evenodd"/><path fill="#ff9900" d="m58.63431 515.6562l76.40686 0l0 0c10.009506 0 18.123825 10.965149 18.123825 24.491333c0 13.526184 -8.114319 24.491333 -18.123825 24.491333l-76.40686 0l0 0c-10.009506 0 -18.123814 -10.965149 -18.123814 -24.491333c0 -13.526184 8.114307 -24.491333 18.123814 -24.491333z" fill-rule="evenodd"/><path stroke="#000000" stroke-width="1.0" stroke-linejoin="round" stroke-linecap="butt" d="m58.63431 515.6562l76.40686 0l0 0c10.009506 0 18.123825 10.965149 18.123825 24.491333c0 13.526184 -8.114319 24.491333 -18.123825 24.491333l-76.40686 0l0 0c-10.009506 0 -18.123814 -10.965149 -18.123814 -24.491333c0 -13.526184 8.114307 -24.491333 18.123814 -24.491333z" fill-rule="evenodd"/><path fill="#000000" d="m77.25902 547.55066q-1.71875 0 -3.03125 -0.671875q-1.3125 -0.6875 -2.25 -2.046875l1.484375 -1.703125q0.96875 1.40625 1.875 1.953125q0.90625 0.53125 2.140625 0.53125q0.765625 0 1.375 -0.234375q0.625 -0.25 0.984375 -0.671875q0.359375 -0.421875 0.359375 -0.953125q0 -0.359375 -0.125 -0.671875q-0.109375 -0.328125 -0.359375 -0.59375q-0.25 -0.265625 -0.640625 -0.484375q-0.390625 -0.21875 -0.921875 -0.390625q-0.515625 -0.171875 -1.1875 -0.28125q-1.078125 -0.21875 -1.890625 -0.578125q-0.796875 -0.359375 -1.34375 -0.90625q-0.53125 -0.546875 -0.796875 -1.234375q-0.25 -0.6875 -0.25 -1.546875q0 -1.140625 0.640625 -2.015625q0.640625 -0.890625 1.71875 -1.390625q1.09375 -0.515625 2.453125 -0.515625q1.625 0 2.828125 0.640625q1.21875 0.625 1.921875 1.828125l-1.53125 1.5q-0.59375 -0.984375 -1.421875 -1.5q-0.828125 -0.53125 -1.859375 -0.53125q-0.765625 0 -1.359375 0.25q-0.578125 0.234375 -0.90625 0.671875q-0.328125 0.421875 -0.328125 1.0q0 0.421875 0.15625 0.78125q0.171875 0.34375 0.5 0.609375q0.328125 0.265625 0.875 0.484375q0.5625 0.203125 1.34375 0.375q1.109375 0.234375 1.96875 0.609375q0.859375 0.359375 1.453125 0.859375q0.609375 0.5 0.90625 1.125q0.3125 0.625 0.3125 1.34375q0 1.34375 -0.625 2.328125q-0.609375 0.96875 -1.75 1.5q-1.140625 0.53125 -2.71875 0.53125zm10.823746 -0.203125l0 -11.921875l-3.921875 0l0 -2.078125l10.109375 0l0 2.078125l-4.03125 0l0 11.921875l-2.15625 0zm14.107483 0.203125q-1.46875 0 -2.71875 -0.53125q-1.25 -0.546875 -2.1875 -1.515625q-0.921875 -0.96875 -1.4375 -2.28125q-0.515625 -1.3125 -0.515625 -2.875q0 -1.5625 0.515625 -2.875q0.515625 -1.3125 1.4375 -2.28125q0.9375 -0.96875 2.1875 -1.5q1.25 -0.546875 2.71875 -0.546875q1.484375 0 2.734375 0.546875q1.25 0.53125 2.171875 1.515625q0.9375 0.984375 1.453125 2.296875q0.515625 1.296875 0.515625 2.84375q0 1.546875 -0.515625 2.859375q-0.515625 1.296875 -1.453125 2.28125q-0.921875 0.984375 -2.171875 1.53125q-1.25 0.53125 -2.734375 0.53125zm0 -2.109375q1.03125 0 1.875 -0.375q0.859375 -0.375 1.46875 -1.0625q0.625 -0.703125 0.96875 -1.625q0.359375 -0.9375 0.359375 -2.03125q0 -1.09375 -0.359375 -2.015625q-0.34375 -0.9375 -0.96875 -1.625q-0.609375 -0.703125 -1.46875 -1.078125q-0.84375 -0.375 -1.875 -0.375q-1.015625 0 -1.875 0.375q-0.84375 0.375 -1.46875 1.0625q-0.625 0.671875 -0.96875 1.609375q-0.34375 0.921875 -0.34375 2.046875q0 1.484375 0.59375 2.640625q0.609375 1.140625 1.65625 1.796875q1.046875 0.65625 2.40625 0.65625zm9.7806015 1.90625l0 -14.0l5.703125 0q1.140625 0 2.0625 0.578125q0.9375 0.5625 1.5 1.546875q0.5625 0.96875 0.5625 2.171875q0 1.203125 -0.5625 2.1875q-0.5625 0.96875 -1.5 1.5625q-0.921875 0.59375 -2.0625 0.59375l-3.53125 0l0 5.359375l-2.171875 0zm2.171875 -7.4375l3.5 0q0.53125 0 0.96875 -0.3125q0.453125 -0.3125 0.71875 -0.8125q0.265625 -0.515625 0.265625 -1.140625q0 -0.609375 -0.265625 -1.109375q-0.265625 -0.5 -0.71875 -0.796875q-0.4375 -0.3125 -0.96875 -0.3125l-3.5 0l0 4.484375z" fill-rule="nonzero"/><path fill="#000000" fill-opacity="0.0" d="m114.82771 456.2201l0 32.504547l-17.984245 0l0 26.928558" fill-rule="evenodd"/><path stroke="#000000" stroke-width="2.0" stroke-linejoin="round" stroke-linecap="butt" d="m114.82771 456.2201l0 32.504578l-17.984253 0l0 14.928497" fill-rule="evenodd"/><path fill="#000000" stroke="#000000" stroke-width="2.0" stroke-linecap="butt" d="m93.54 503.65317l3.3034592 9.076202l3.3034668 -9.076202z" fill-rule="evenodd"/></g></svg>