<svg version="1.1" viewBox="0.0 0.0 1022.5328083989501 675.0839895013123" fill="none" stroke="none" stroke-linecap="square" stroke-miterlimit="10" xmlns:xlink="http://www.w3.org/1999/xlink" xmlns="http://www.w3.org/2000/svg"><clipPath id="p.0"><path d="m0 0l1022.53284 0l0 675.084l-1022.53284 0l0 -675.084z" clip-rule="nonzero"/></clipPath><g clip-path="url(#p.0)"><path fill="#000000" fill-opacity="0.0" d="m0 0l1022.53284 0l0 675.084l-1022.53284 0z" fill-rule="evenodd"/><path fill="#cfe2f3" d="m521.69556 89.23622l16.322815 -65.291336l165.56696 0l-16.322876 65.291336z" fill-rule="evenodd"/><path stroke="#000000" stroke-width="1.0" stroke-linejoin="round" stroke-linecap="butt" d="m521.69556 89.23622l16.322815 -65.291336l165.56696 0l-16.322876 65.291336z" fill-rule="evenodd"/><path fill="#000000" d="m581.8679 51.79055l0 -2.0l2.265625 0l0 -10.0l-2.265625 0l0 -2.0l6.6875 0l0 2.0l-2.265625 0l0 10.0l2.265625 0l0 2.0l-6.6875 0zm10.075623 0l0 -14.0l1.953125 0l8.546875 11.453125l-0.3125 0.1875q-0.140625 -0.828125 -0.234375 -1.90625q-0.09375 -1.078125 -0.140625 -2.375q-0.03125 -1.296875 -0.03125 -2.765625l0 -4.59375l2.171875 0l0 14.0l-1.984375 0l-8.421875 -11.046875l0.21875 -0.265625q0.140625 1.515625 0.21875 2.484375q0.078125 0.96875 0.109375 1.546875q0.046875 0.578125 0.0625 0.90625q0.015625 0.328125 0.015625 0.5625l0 5.8125l-2.171875 0zm15.859985 0l0 -14.0l5.703125 0q1.140625 0 2.0625 0.578125q0.9375 0.5625 1.5 1.546875q0.5625 0.96875 0.5625 2.171875q0 1.203125 -0.5625 2.1875q-0.5625 0.96875 -1.5 1.5625q-0.921875 0.59375 -2.0625 0.59375l-3.53125 0l0 5.359375l-2.171875 0zm2.171875 -7.4375l3.5 0q0.53125 0 0.96875 -0.3125q0.453125 -0.3125 0.71875 -0.8125q0.265625 -0.515625 0.265625 -1.140625q0 -0.609375 -0.265625 -1.109375q-0.265625 -0.5 -0.71875 -0.796875q-0.4375 -0.3125 -0.96875 -0.3125l-3.5 0l0 4.484375zm15.961243 7.5625q-1.625 0 -2.90625 -0.703125q-1.28125 -0.71875 -2.015625 -1.96875q-0.71875 -1.25 -0.71875 -2.828125l0 -8.640625l2.15625 0l0 8.453125q0 1.015625 0.46875 1.828125q0.484375 0.8125 1.265625 1.296875q0.796875 0.484375 1.75 0.484375q1.0 0 1.796875 -0.484375q0.8125 -0.484375 1.296875 -1.296875q0.484375 -0.8125 0.484375 -1.828125l0 -8.453125l2.0625 0l0 8.640625q0 1.578125 -0.734375 2.828125q-0.734375 1.25 -2.015625 1.96875q-1.28125 0.703125 -2.890625 0.703125zm12.018738 -0.125l0 -11.921875l-3.921875 0l0 -2.078125l10.109375 0l0 2.078125l-4.03125 0l0 11.921875l-2.15625 0z" fill-rule="nonzero"/><path fill="#000000" d="m606.2948 75.79055l0 -14.0l3.0625 0l7.359375 9.984375l-0.65625 -0.078125q-0.140625 -1.125 -0.25 -2.09375q-0.09375 -0.96875 -0.125 -2.03125q-0.03125 -1.0625 -0.03125 -2.4375l0 -3.34375l3.328125 0l0 14.0l-3.109375 0l-7.625 -10.28125l0.96875 0.140625q0.140625 1.21875 0.21875 2.03125q0.078125 0.796875 0.125 1.359375q0.046875 0.5625 0.0625 1.0625q0.015625 0.484375 0.015625 1.09375l0 4.59375l-3.34375 0z" fill-rule="nonzero"/><path fill="#ff9900" d="m782.73145 32.09974l76.40686 0l0 0c10.00946 0 18.12378 10.965145 18.12378 24.491337c0 13.526196 -8.114319 24.491337 -18.12378 24.491337l-76.40686 0l0 0c-10.0095215 0 -18.12384 -10.965141 -18.12384 -24.491337c0 -13.526192 8.114319 -24.491337 18.12384 -24.491337z" fill-rule="evenodd"/><path stroke="#000000" stroke-width="1.0" stroke-linejoin="round" stroke-linecap="butt" d="m782.73145 32.09974l76.40686 0l0 0c10.00946 0 18.12378 10.965145 18.12378 24.491337c0 13.526196 -8.114319 24.491337 -18.12378 24.491337l-76.40686 0l0 0c-10.0095215 0 -18.12384 -10.965141 -18.12384 -24.491337c0 -13.526192 8.114319 -24.491337 18.12384 -24.491337z" fill-rule="evenodd"/><path fill="#000000" d="m796.2061 63.9942q-1.71875 0 -3.03125 -0.671875q-1.3125 -0.6875 -2.25 -2.046875l1.484375 -1.703125q0.96875 1.40625 1.875 1.953125q0.90625 0.53125 2.140625 0.53125q0.765625 0 1.375 -0.234375q0.625 -0.25 0.984375 -0.671875q0.359375 -0.421875 0.359375 -0.953125q0 -0.359375 -0.125 -0.671875q-0.109375 -0.328125 -0.359375 -0.59375q-0.25 -0.265625 -0.640625 -0.484375q-0.390625 -0.21875 -0.921875 -0.390625q-0.515625 -0.171875 -1.1875 -0.28125q-1.078125 -0.21875 -1.890625 -0.578125q-0.796875 -0.359375 -1.34375 -0.90625q-0.53125 -0.546875 -0.796875 -1.234375q-0.25 -0.6875 -0.25 -1.546875q0 -1.140625 0.640625 -2.015625q0.640625 -0.890625 1.71875 -1.390625q1.09375 -0.515625 2.453125 -0.515625q1.625 0 2.828125 0.640625q1.21875 0.625 1.921875 1.828125l-1.53125 1.5q-0.59375 -0.984375 -1.421875 -1.5q-0.828125 -0.53125 -1.859375 -0.53125q-0.765625 0 -1.359375 0.25q-0.578125 0.234375 -0.90625 0.671875q-0.328125 0.421875 -0.328125 1.0q0 0.421875 0.15625 0.78125q0.171875 0.34375 0.5 0.609375q0.328125 0.265625 0.875 0.484375q0.5625 0.203125 1.34375 0.375q1.109375 0.234375 1.96875 0.609375q0.859375 0.359375 1.453125 0.859375q0.609375 0.5 0.90625 1.125q0.3125 0.625 0.3125 1.34375q0 1.34375 -0.625 2.328125q-0.609375 0.96875 -1.75 1.5q-1.140625 0.53125 -2.71875 0.53125zm10.82373 -0.203125l0 -11.921875l-3.921875 0l0 -2.078125l10.109375 0l0 2.078125l-4.03125 0l0 11.921875l-2.15625 0zm6.3950195 0l5.421875 -14.0l2.203125 0l5.375 14.0l-2.296875 0l-3.203125 -8.4375q-0.0625 -0.140625 -0.234375 -0.671875q-0.171875 -0.546875 -0.390625 -1.203125q-0.21875 -0.671875 -0.40625 -1.21875q-0.171875 -0.546875 -0.234375 -0.703125l0.46875 -0.03125q-0.125 0.34375 -0.296875 0.875q-0.171875 0.515625 -0.359375 1.09375q-0.1875 0.578125 -0.375 1.09375q-0.171875 0.5 -0.296875 0.84375l-3.171875 8.359375l-2.203125 0zm2.40625 -3.484375l0.796875 -2.078125l6.359375 0l0.921875 2.078125l-8.078125 0zm13.046875 3.484375l0 -14.0l5.96875 0q1.203125 0 2.203125 0.59375q1.015625 0.59375 1.609375 1.609375q0.609375 1.0 0.609375 2.25q0 1.140625 -0.609375 2.125q-0.59375 0.984375 -1.59375 1.578125q-1.0 0.578125 -2.21875 0.578125l-3.796875 0l0 5.265625l-2.171875 0zm8.328125 0l-3.5625 -6.3125l2.21875 -0.5l3.96875 6.828125l-2.625 -0.015625zm-6.15625 -7.34375l4.0 0q0.578125 0 1.03125 -0.28125q0.46875 -0.296875 0.71875 -0.796875q0.265625 -0.515625 0.265625 -1.140625q0 -0.703125 -0.328125 -1.21875q-0.328125 -0.53125 -0.921875 -0.828125q-0.59375 -0.3125 -1.328125 -0.3125l-3.4375 0l0 4.578125zm14.0 7.34375l0 -11.921875l-3.921875 0l0 -2.078125l10.109375 0l0 2.078125l-4.03125 0l0 11.921875l-2.15625 0z" fill-rule="nonzero"/><path fill="#cfe2f3" d="m271.50394 23.944881l181.89502 0l0 65.291336l-181.89502 0z" fill-rule="evenodd"/><path stroke="#000000" stroke-width="1.0" stroke-linejoin="round" stroke-linecap="butt" d="m271.50394 23.944881l181.89502 0l0 65.291336l-181.89502 0z" fill-rule="evenodd"/><path fill="#000000" d="m342.84897 63.79055l0 -2.0l2.265625 0l0 -10.0l-2.265625 0l0 -2.0l6.6875 0l0 2.0l-2.265625 0l0 10.0l2.265625 0l0 2.0l-6.6875 0zm14.722504 -6.625l0 -1.796875l9.3125 0l0 1.796875l-9.3125 0zm0 3.78125l0 -1.78125l9.3125 0l0 1.78125l-9.3125 0zm20.263733 1.859375l0 -11.359375l0.734375 0.5625l-2.765625 1.46875l-0.578125 -1.890625l3.75 -2.0l1.03125 0l0 13.21875l-2.171875 0zm-2.21875 0.984375l0 -2.078125l6.671875 0l0 2.078125l-6.671875 0z" fill-rule="nonzero"/><path fill="#ff9900" d="m850.8272 605.6142l76.40686 0l0 0c10.0095215 0 18.12384 10.965149 18.12384 24.491333c0 13.526184 -8.114319 24.491333 -18.12384 24.491333l-76.40686 0l0 0c-10.00946 0 -18.12378 -10.965149 -18.12378 -24.491333c0 -13.526184 8.114319 -24.491333 18.12378 -24.491333z" fill-rule="evenodd"/><path stroke="#000000" stroke-width="1.0" stroke-linejoin="round" stroke-linecap="butt" d="m850.8272 605.6142l76.40686 0l0 0c10.0095215 0 18.12384 10.965149 18.12384 24.491333c0 13.526184 -8.114319 24.491333 -18.12384 24.491333l-76.40686 0l0 0c-10.00946 0 -18.12378 -10.965149 -18.12378 -24.491333c0 -13.526184 8.114319 -24.491333 18.12378 -24.491333z" fill-rule="evenodd"/><path fill="#000000" d="m869.4519 637.50867q-1.71875 0 -3.03125 -0.671875q-1.3125 -0.6875 -2.25 -2.046875l1.484375 -1.703125q0.96875 1.40625 1.875 1.953125q0.90625 0.53125 2.140625 0.53125q0.765625 0 1.375 -0.234375q0.625 -0.25 0.984375 -0.671875q0.359375 -0.421875 0.359375 -0.953125q0 -0.359375 -0.125 -0.671875q-0.109375 -0.328125 -0.359375 -0.59375q-0.25 -0.265625 -0.640625 -0.484375q-0.390625 -0.21875 -0.921875 -0.390625q-0.515625 -0.171875 -1.1875 -0.28125q-1.078125 -0.21875 -1.890625 -0.578125q-0.796875 -0.359375 -1.34375 -0.90625q-0.53125 -0.546875 -0.796875 -1.234375q-0.25 -0.6875 -0.25 -1.546875q0 -1.140625 0.640625 -2.015625q0.640625 -0.890625 1.71875 -1.390625q1.09375 -0.515625 2.453125 -0.515625q1.625 0 2.828125 0.640625q1.21875 0.625 1.921875 1.828125l-1.53125 1.5q-0.59375 -0.984375 -1.421875 -1.5q-0.828125 -0.53125 -1.859375 -0.53125q-0.765625 0 -1.359375 0.25q-0.578125 0.234375 -0.90625 0.671875q-0.328125 0.421875 -0.328125 1.0q0 0.421875 0.15625 0.78125q0.171875 0.34375 0.5 0.609375q0.328125 0.265625 0.875 0.484375q0.5625 0.203125 1.34375 0.375q1.109375 0.234375 1.96875 0.609375q0.859375 0.359375 1.453125 0.859375q0.609375 0.5 0.90625 1.125q0.3125 0.625 0.3125 1.34375q0 1.34375 -0.625 2.328125q-0.609375 0.96875 -1.75 1.5q-1.140625 0.53125 -2.71875 0.53125zm10.8237915 -0.203125l0 -11.921875l-3.921875 0l0 -2.078125l10.109375 0l0 2.078125l-4.03125 0l0 11.921875l-2.15625 0zm14.107483 0.203125q-1.46875 0 -2.71875 -0.53125q-1.25 -0.546875 -2.1875 -1.515625q-0.921875 -0.96875 -1.4375 -2.28125q-0.515625 -1.3125 -0.515625 -2.875q0 -1.5625 0.515625 -2.875q0.515625 -1.3125 1.4375 -2.28125q0.9375 -0.96875 2.1875 -1.5q1.25 -0.546875 2.71875 -0.546875q1.484375 0 2.734375 0.546875q1.25 0.53125 2.171875 1.515625q0.9375 0.984375 1.453125 2.296875q0.515625 1.296875 0.515625 2.84375q0 1.546875 -0.515625 2.859375q-0.515625 1.296875 -1.453125 2.28125q-0.921875 0.984375 -2.171875 1.53125q-1.25 0.53125 -2.734375 0.53125zm0 -2.109375q1.03125 0 1.875 -0.375q0.859375 -0.375 1.46875 -1.0625q0.625 -0.703125 0.96875 -1.625q0.359375 -0.9375 0.359375 -2.03125q0 -1.09375 -0.359375 -2.015625q-0.34375 -0.9375 -0.96875 -1.625q-0.609375 -0.703125 -1.46875 -1.078125q-0.84375 -0.375 -1.875 -0.375q-1.015625 0 -1.875 0.375q-0.84375 0.375 -1.46875 1.0625q-0.625 0.671875 -0.96875 1.609375q-0.34375 0.921875 -0.34375 2.046875q0 1.484375 0.59375 2.640625q0.609375 1.140625 1.65625 1.796875q1.046875 0.65625 2.40625 0.65625zm9.780579 1.90625l0 -14.0l5.703125 0q1.140625 0 2.0625 0.578125q0.9375 0.5625 1.5 1.546875q0.5625 0.96875 0.5625 2.171875q0 1.203125 -0.5625 2.1875q-0.5625 0.96875 -1.5 1.5625q-0.921875 0.59375 -2.0625 0.59375l-3.53125 0l0 5.359375l-2.171875 0zm2.171875 -7.4375l3.5 0q0.53125 0 0.96875 -0.3125q0.453125 -0.3125 0.71875 -0.8125q0.265625 -0.515625 0.265625 -1.140625q0 -0.609375 -0.265625 -1.109375q-0.265625 -0.5 -0.71875 -0.796875q-0.4375 -0.3125 -0.96875 -0.3125l-3.5 0l0 4.484375z" fill-rule="nonzero"/><path fill="#000000" fill-opacity="0.0" d="m11.95538 640.8189l322.83466 0l0 33.921265l-322.83466 0z" fill-rule="evenodd"/><path fill="#000000" d="m27.799131 659.29205q0.125 0 0.21875 0.109375l0.640625 0.6875q-0.53125 0.65625 -1.296875 1.0q-0.765625 0.34375 -1.859375 0.34375q-0.953125 0 -1.734375 -0.328125q-0.765625 -0.328125 -1.3125 -0.90625q-0.546875 -0.59375 -0.84375 -1.40625q-0.28125 -0.828125 -0.28125 -1.796875q0 -0.96875 0.3125 -1.78125q0.328125 -0.8125 0.921875 -1.40625q0.59375 -0.59375 1.40625 -0.90625q0.8125 -0.328125 1.8125 -0.328125q0.96875 0 1.6875 0.3125q0.71875 0.296875 1.234375 0.8125l-0.53125 0.75q-0.0625 0.0625 -0.140625 0.125q-0.0625 0.046875 -0.203125 0.046875q-0.125 0 -0.28125 -0.109375q-0.140625 -0.109375 -0.359375 -0.234375q-0.21875 -0.125 -0.5625 -0.21875q-0.34375 -0.109375 -0.859375 -0.109375q-0.609375 0 -1.125 0.21875q-0.515625 0.203125 -0.890625 0.59375q-0.359375 0.390625 -0.578125 0.96875q-0.203125 0.5625 -0.203125 1.265625q0 0.734375 0.203125 1.3125q0.21875 0.5625 0.5625 0.953125q0.359375 0.390625 0.84375 0.609375q0.484375 0.203125 1.03125 0.203125q0.328125 0 0.59375 -0.03125q0.265625 -0.046875 0.484375 -0.125q0.234375 -0.078125 0.4375 -0.203125q0.203125 -0.125 0.390625 -0.296875q0.0625 -0.0625 0.125 -0.09375q0.078125 -0.03125 0.15625 -0.03125zm10.405424 -2.296875q0 0.953125 -0.328125 1.765625q-0.3125 0.8125 -0.890625 1.421875q-0.578125 0.59375 -1.390625 0.921875q-0.796875 0.328125 -1.78125 0.328125q-0.984375 0 -1.796875 -0.328125q-0.8124981 -0.328125 -1.4062481 -0.921875q-0.578125 -0.609375 -0.890625 -1.421875q-0.3125 -0.8125 -0.3125 -1.765625q0 -0.953125 0.3125 -1.765625q0.3125 -0.8125 0.890625 -1.40625q0.59375 -0.59375 1.4062481 -0.921875q0.8125 -0.328125 1.796875 -0.328125q0.984375 0 1.78125 0.34375q0.8125 0.328125 1.390625 0.921875q0.578125 0.578125 0.890625 1.390625q0.328125 0.8125 0.328125 1.765625zm-1.65625 0q0 -0.703125 -0.203125 -1.265625q-0.1875 -0.578125 -0.546875 -0.96875q-0.34375 -0.40625 -0.859375 -0.609375q-0.5 -0.203125 -1.125 -0.203125q-0.640625 0 -1.15625 0.203125q-0.5 0.203125 -0.8593731 0.609375q-0.359375 0.390625 -0.5625 0.96875q-0.1875 0.5625 -0.1875 1.265625q0 0.71875 0.1875 1.296875q0.203125 0.5625 0.5625 0.953125q0.3593731 0.390625 0.8593731 0.609375q0.515625 0.203125 1.15625 0.203125q0.625 0 1.125 -0.203125q0.515625 -0.21875 0.859375 -0.609375q0.359375 -0.390625 0.546875 -0.953125q0.203125 -0.578125 0.203125 -1.296875zm4.5940704 1.296875l0 3.046875l-1.609375 0l0 -8.671875l2.8125 0q0.875 0 1.5 0.203125q0.640625 0.203125 1.046875 0.578125q0.421875 0.359375 0.625 0.875q0.203125 0.5 0.203125 1.109375q0 0.625 -0.21875 1.15625q-0.203125 0.515625 -0.625 0.90625q-0.421875 0.375 -1.046875 0.59375q-0.625 0.203125 -1.484375 0.203125l-1.203125 0zm0 -1.265625l1.203125 0q0.453125 0 0.78125 -0.109375q0.328125 -0.109375 0.546875 -0.3125q0.21875 -0.21875 0.328125 -0.515625q0.109375 -0.296875 0.109375 -0.65625q0 -0.359375 -0.109375 -0.640625q-0.109375 -0.28125 -0.328125 -0.46875q-0.21875 -0.203125 -0.546875 -0.296875q-0.328125 -0.109375 -0.78125 -0.109375l-1.203125 0l0 3.109375zm9.687546 0.9375l0 3.375l-1.609375 0l0 -3.375l-3.171875 -5.296875l1.421875 0q0.21875 0 0.34375 0.109375q0.125 0.09375 0.203125 0.25l1.59375 2.890625q0.125 0.265625 0.234375 0.5q0.109375 0.21875 0.1875 0.453125q0.078125 -0.234375 0.171875 -0.46875q0.109375 -0.234375 0.234375 -0.484375l1.578125 -2.890625q0.078125 -0.140625 0.203125 -0.25q0.140625 -0.109375 0.34375 -0.109375l1.421875 0l-3.15625 5.296875zm5.6665497 -0.015625l0 3.390625l-1.609375 0l0 -8.671875l2.640625 0q0.890625 0 1.515625 0.1875q0.640625 0.171875 1.046875 0.5q0.40625 0.328125 0.59375 0.796875q0.1875 0.453125 0.1875 1.0q0 0.453125 -0.140625 0.84375q-0.125 0.375 -0.375 0.703125q-0.234375 0.3125 -0.59375 0.5625q-0.359375 0.234375 -0.8125 0.375q0.3125 0.171875 0.53125 0.5l2.171875 3.203125l-1.453125 0q-0.203125 0 -0.359375 -0.078125q-0.140625 -0.09375 -0.25 -0.25l-1.8125 -2.78125q-0.109375 -0.15625 -0.234375 -0.21875q-0.125 -0.0625 -0.359375 -0.0625l-0.6875 0zm0 -1.15625l1.0 0q0.46875 0 0.796875 -0.109375q0.34375 -0.125 0.5625 -0.3125q0.21875 -0.203125 0.328125 -0.484375q0.109375 -0.28125 0.109375 -0.609375q0 -0.65625 -0.4375 -1.0q-0.4375 -0.359375 -1.328125 -0.359375l-1.03125 0l0 2.875zm8.00069 4.546875l-1.6093788 0l0 -8.671875l1.6093788 0l0 8.671875zm5.9398956 -1.1875q0.546875 0 0.953125 -0.09375q0.40625 -0.109375 0.765625 -0.28125l0 -1.578125l-1.078125 0q-0.15625 0 -0.25 -0.078125q-0.09375 -0.09375 -0.09375 -0.21875l0 -0.90625l2.890625 0l0 3.5q-0.328125 0.25 -0.6875 0.421875q-0.359375 0.171875 -0.765625 0.296875q-0.40625 0.109375 -0.875 0.15625q-0.453125 0.0625 -0.984375 0.0625q-0.953125 0 -1.75 -0.328125q-0.796875 -0.328125 -1.375 -0.90625q-0.578125 -0.59375 -0.90625 -1.40625q-0.328125 -0.828125 -0.328125 -1.796875q0 -0.96875 0.3125 -1.78125q0.328125 -0.828125 0.90625 -1.40625q0.578125 -0.59375 1.40625 -0.90625q0.84375 -0.328125 1.890625 -0.328125q1.0625 0 1.828125 0.3125q0.78125 0.3125 1.328125 0.8125l-0.46875 0.734375q-0.140625 0.21875 -0.375 0.21875q-0.140625 0 -0.296875 -0.09375q-0.1875 -0.109375 -0.390625 -0.21875q-0.203125 -0.125 -0.453125 -0.203125q-0.234375 -0.09375 -0.546875 -0.140625q-0.296875 -0.046875 -0.6875 -0.046875q-0.640625 0 -1.15625 0.21875q-0.515625 0.203125 -0.890625 0.609375q-0.359375 0.40625 -0.5625 0.96875q-0.203125 0.5625 -0.203125 1.25q0 0.75 0.203125 1.34375q0.21875 0.578125 0.59375 0.984375q0.390625 0.40625 0.90625 0.625q0.515625 0.203125 1.140625 0.203125zm12.019806 1.1875l-1.640625 0l0 -3.796875l-4.0625 0l0 3.796875l-1.625 0l0 -8.671875l1.625 0l0 3.734375l4.0625 0l0 -3.734375l1.640625 0l0 8.671875zm7.8533173 -8.671875l0 1.328125l-2.609375 0l0 7.34375l-1.609375 0l0 -7.34375l-2.625 0l0 -1.328125l6.84375 0zm8.581055 5.59375q0.0625 0 0.109375 0.03125q0.0625 0.03125 0.09375 0.078125l0.484375 0.515625q-0.328125 0.4375 -0.84375 0.65625q-0.5 0.21875 -1.1875 0.21875q-0.609375 0 -1.09375 -0.203125q-0.484375 -0.21875 -0.828125 -0.59375q-0.34375 -0.375 -0.53125 -0.875q-0.1875 -0.515625 -0.1875 -1.109375q0 -0.609375 0.203125 -1.109375q0.21875 -0.515625 0.578125 -0.875q0.375 -0.375 0.875 -0.578125q0.515625 -0.21875 1.09375 -0.21875q0.671875 0 1.140625 0.234375q0.484375 0.21875 0.8125 0.5625l-0.390625 0.546875q-0.03125 0.046875 -0.09375 0.09375q-0.0625 0.046875 -0.15625 0.046875q-0.109375 0 -0.203125 -0.0625q-0.09375 -0.0625 -0.21875 -0.125q-0.125 -0.078125 -0.3125 -0.140625q-0.1875 -0.0625 -0.5 -0.0625q-0.359375 0 -0.640625 0.125q-0.28125 0.109375 -0.484375 0.328125q-0.1875 0.21875 -0.296875 0.53125q-0.09375 0.3125 -0.09375 0.703125q0 0.40625 0.09375 0.71875q0.109375 0.3125 0.296875 0.53125q0.1875 0.21875 0.4375 0.328125q0.265625 0.109375 0.5625 0.109375q0.296875 0 0.484375 -0.046875q0.1875 -0.046875 0.3125 -0.109375q0.140625 -0.078125 0.234375 -0.140625q0.109375 -0.0625 0.25 -0.109375zm-5.796875 -1.265625q0 -0.609375 0.15625 -1.171875q0.171875 -0.5625 0.453125 -1.046875q0.296875 -0.5 0.6875 -0.90625q0.40625 -0.40625 0.890625 -0.6875q0.5 -0.296875 1.0625 -0.453125q0.578125 -0.15625 1.1875 -0.15625q0.609375 0 1.171875 0.15625q0.5625 0.15625 1.046875 0.453125q0.5 0.28125 0.90625 0.6875q0.40625 0.40625 0.6875 0.90625q0.296875 0.484375 0.453125 1.046875q0.171875 0.5625 0.171875 1.171875q0 0.609375 -0.171875 1.1875q-0.15625 0.5625 -0.453125 1.046875q-0.28125 0.484375 -0.6875 0.890625q-0.40625 0.40625 -0.90625 0.703125q-0.484375 0.28125 -1.046875 0.4375q-0.5625 0.15625 -1.171875 0.15625q-0.609375 0 -1.1875 -0.15625q-0.5625 -0.15625 -1.0625 -0.4375q-0.484375 -0.296875 -0.890625 -0.703125q-0.390625 -0.40625 -0.6875 -0.890625q-0.28125 -0.484375 -0.453125 -1.046875q-0.15625 -0.5625 -0.15625 -1.1875zm0.8125 0q0 0.78125 0.28125 1.46875q0.28125 0.671875 0.765625 1.171875q0.484375 0.5 1.140625 0.796875q0.671875 0.28125 1.4375 0.28125q0.765625 0 1.421875 -0.28125q0.671875 -0.296875 1.15625 -0.796875q0.5 -0.5 0.78125 -1.171875q0.28125 -0.6875 0.28125 -1.46875q0 -0.515625 -0.140625 -0.984375q-0.125 -0.484375 -0.359375 -0.90625q-0.234375 -0.421875 -0.5625 -0.75q-0.328125 -0.34375 -0.734375 -0.578125q-0.40625 -0.25 -0.875 -0.375q-0.46875 -0.140625 -0.96875 -0.140625q-0.515625 0 -0.984375 0.140625q-0.453125 0.125 -0.859375 0.375q-0.40625 0.234375 -0.734375 0.578125q-0.328125 0.328125 -0.5625 0.75q-0.234375 0.421875 -0.359375 0.90625q-0.125 0.46875 -0.125 0.984375zm13.610947 -1.921875q0.390625 0 0.734375 0.078125q0.359375 0.078125 0.640625 0.234375l1.78125 0l0 0.5625q0 0.140625 -0.078125 0.21875q-0.078125 0.078125 -0.25 0.109375l-0.546875 0.09375q0.0625 0.15625 0.09375 0.328125q0.03125 0.171875 0.03125 0.375q0 0.453125 -0.1875 0.828125q-0.171875 0.359375 -0.5 0.625q-0.328125 0.25 -0.765625 0.390625q-0.4375 0.140625 -0.953125 0.140625q-0.34375 0 -0.671875 -0.0625q-0.296875 0.171875 -0.296875 0.390625q0 0.1875 0.171875 0.28125q0.171875 0.078125 0.453125 0.109375q0.28125 0.03125 0.625 0.046875q0.359375 0.015625 0.734375 0.046875q0.375 0.015625 0.71875 0.09375q0.359375 0.078125 0.640625 0.25q0.28125 0.15625 0.453125 0.4375q0.171875 0.28125 0.171875 0.71875q0 0.40625 -0.203125 0.78125q-0.203125 0.390625 -0.59375 0.6875q-0.375 0.296875 -0.9375 0.484375q-0.546875 0.1875 -1.25 0.1875q-0.703125 0 -1.21875 -0.140625q-0.515625 -0.140625 -0.859375 -0.359375q-0.328125 -0.21875 -0.5 -0.515625q-0.171875 -0.296875 -0.171875 -0.609375q0 -0.4375 0.265625 -0.734375q0.265625 -0.296875 0.734375 -0.46875q-0.234375 -0.125 -0.375 -0.328125q-0.125 -0.21875 -0.125 -0.546875q0 -0.140625 0.046875 -0.28125q0.046875 -0.15625 0.140625 -0.296875q0.109375 -0.140625 0.25 -0.265625q0.15625 -0.140625 0.359375 -0.234375q-0.46875 -0.265625 -0.734375 -0.671875q-0.265625 -0.421875 -0.265625 -0.984375q0 -0.46875 0.171875 -0.828125q0.1875 -0.375 0.515625 -0.625q0.328125 -0.265625 0.765625 -0.40625q0.453125 -0.140625 0.984375 -0.140625zm1.625 6.546875q0 -0.1875 -0.109375 -0.296875q-0.109375 -0.109375 -0.296875 -0.171875q-0.1875 -0.078125 -0.4375 -0.09375q-0.234375 -0.03125 -0.515625 -0.046875q-0.28125 -0.015625 -0.578125 -0.03125q-0.296875 -0.015625 -0.578125 -0.046875q-0.25 0.125 -0.40625 0.328125q-0.15625 0.1875 -0.15625 0.421875q0 0.171875 0.078125 0.3125q0.09375 0.140625 0.265625 0.234375q0.171875 0.109375 0.453125 0.15625q0.296875 0.0625 0.703125 0.0625q0.40625 0 0.703125 -0.0625q0.3125 -0.0625 0.5 -0.171875q0.203125 -0.109375 0.28125 -0.265625q0.09375 -0.15625 0.09375 -0.328125zm-1.625 -3.515625q0.28125 0 0.484375 -0.0625q0.203125 -0.078125 0.328125 -0.203125q0.140625 -0.140625 0.203125 -0.328125q0.078125 -0.1875 0.078125 -0.40625q0 -0.453125 -0.28125 -0.71875q-0.265625 -0.265625 -0.8125 -0.265625q-0.546875 0 -0.828125 0.265625q-0.265625 0.265625 -0.265625 0.71875q0 0.21875 0.0625 0.40625q0.078125 0.1875 0.203125 0.328125q0.140625 0.125 0.34375 0.203125q0.21875 0.0625 0.484375 0.0625zm5.663162 -2.921875l0 6.15625l-1.484375 0l0 -6.15625l1.484375 0zm0.21875 -1.796875q0 0.1875 -0.078125 0.359375q-0.078125 0.171875 -0.21875 0.296875q-0.125 0.125 -0.296875 0.203125q-0.171875 0.078125 -0.375 0.078125q-0.1875 0 -0.359375 -0.078125q-0.171875 -0.078125 -0.296875 -0.203125q-0.125 -0.125 -0.203125 -0.296875q-0.0625 -0.171875 -0.0625 -0.359375q0 -0.1875 0.0625 -0.359375q0.078125 -0.1875 0.203125 -0.3125q0.125 -0.125 0.296875 -0.1875q0.171875 -0.078125 0.359375 -0.078125q0.203125 0 0.375 0.078125q0.171875 0.0625 0.296875 0.1875q0.140625 0.125 0.21875 0.3125q0.078125 0.171875 0.078125 0.359375zm3.4707794 8.046875q-0.796875 0 -1.234375 -0.453125q-0.421875 -0.453125 -0.421875 -1.25l0 -3.4375l-0.625 0q-0.125 0 -0.21875 -0.078125q-0.078125 -0.078125 -0.078125 -0.234375l0 -0.59375l0.984375 -0.15625l0.3125 -1.671875q0.03125 -0.125 0.109375 -0.1875q0.09375 -0.078125 0.21875 -0.078125l0.78125 0l0 1.9375l1.609375 0l0 1.0625l-1.609375 0l0 3.34375q0 0.28125 0.140625 0.453125q0.140625 0.15625 0.375 0.15625q0.140625 0 0.234375 -0.03125q0.09375 -0.03125 0.15625 -0.0625q0.078125 -0.046875 0.125 -0.078125q0.0625 -0.03125 0.109375 -0.03125q0.078125 0 0.109375 0.03125q0.046875 0.03125 0.09375 0.09375l0.4375 0.71875q-0.3125 0.265625 -0.734375 0.40625q-0.421875 0.140625 -0.875 0.140625zm2.6284027 -0.09375l0 -8.921875l1.484375 0l0 3.4375q0.359375 -0.34375 0.78125 -0.546875q0.4375 -0.21875 1.015625 -0.21875q0.5 0 0.890625 0.171875q0.390625 0.171875 0.65625 0.484375q0.265625 0.296875 0.390625 0.734375q0.140625 0.421875 0.140625 0.9375l0 3.921875l-1.484375 0l0 -3.921875q0 -0.5625 -0.265625 -0.859375q-0.25 -0.3125 -0.78125 -0.3125q-0.375 0 -0.71875 0.171875q-0.328125 0.171875 -0.625 0.46875l0 4.453125l-1.484375 0zm8.165802 -6.15625l0 3.90625q0 0.5625 0.265625 0.875q0.265625 0.3125 0.78125 0.3125q0.390625 0 0.71875 -0.171875q0.34375 -0.171875 0.640625 -0.46875l0 -4.453125l1.484375 0l0 6.15625l-0.90625 0q-0.28125 0 -0.375 -0.265625l-0.109375 -0.5q-0.1875 0.203125 -0.390625 0.359375q-0.203125 0.15625 -0.4375 0.265625q-0.234375 0.109375 -0.5 0.171875q-0.265625 0.0625 -0.578125 0.0625q-0.5 0 -0.890625 -0.171875q-0.375 -0.171875 -0.640625 -0.484375q-0.265625 -0.3125 -0.40625 -0.734375q-0.125 -0.4375 -0.125 -0.953125l0 -3.90625l1.46875 0zm5.493927 6.15625l0 -8.921875l1.484375 0l0 3.515625q0.359375 -0.390625 0.8125 -0.609375q0.46875 -0.234375 1.09375 -0.234375q0.5 0 0.90625 0.203125q0.421875 0.203125 0.71875 0.609375q0.3125 0.390625 0.46875 0.984375q0.171875 0.578125 0.171875 1.328125q0 0.6875 -0.1875 1.28125q-0.171875 0.578125 -0.53125 1.015625q-0.34375 0.4375 -0.828125 0.6875q-0.484375 0.234375 -1.09375 0.234375q-0.28125 0 -0.515625 -0.0625q-0.234375 -0.0625 -0.4375 -0.15625q-0.1875 -0.109375 -0.359375 -0.25q-0.15625 -0.140625 -0.296875 -0.328125l-0.078125 0.421875q-0.03125 0.15625 -0.125 0.21875q-0.078125 0.0625 -0.234375 0.0625l-0.96875 0zm2.875 -5.09375q-0.453125 0 -0.78125 0.203125q-0.328125 0.1875 -0.609375 0.53125l0 2.765625q0.25 0.3125 0.546875 0.4375q0.296875 0.125 0.640625 0.125q0.34375 0 0.609375 -0.125q0.265625 -0.140625 0.453125 -0.390625q0.1875 -0.265625 0.28125 -0.65625q0.109375 -0.390625 0.109375 -0.921875q0 -0.546875 -0.09375 -0.921875q-0.078125 -0.375 -0.234375 -0.609375q-0.15625 -0.234375 -0.390625 -0.328125q-0.234375 -0.109375 -0.53125 -0.109375zm3.590042 4.28125q0 -0.1875 0.0625 -0.359375q0.078125 -0.171875 0.203125 -0.28125q0.125 -0.125 0.28125 -0.1875q0.171875 -0.078125 0.359375 -0.078125q0.1875 0 0.359375 0.078125q0.171875 0.0625 0.28125 0.1875q0.125 0.109375 0.1875 0.28125q0.078125 0.171875 0.078125 0.359375q0 0.1875 -0.078125 0.359375q-0.0625 0.15625 -0.1875 0.28125q-0.109375 0.125 -0.28125 0.1875q-0.171875 0.0625 -0.359375 0.0625q-0.1875 0 -0.359375 -0.0625q-0.15625 -0.0625 -0.28125 -0.1875q-0.125 -0.125 -0.203125 -0.28125q-0.0625 -0.171875 -0.0625 -0.359375zm7.387512 -4.046875q-0.078125 0.09375 -0.140625 0.140625q-0.0625 0.046875 -0.171875 0.046875q-0.125 0 -0.234375 -0.0625q-0.109375 -0.078125 -0.265625 -0.15625q-0.140625 -0.09375 -0.34375 -0.15625q-0.203125 -0.078125 -0.515625 -0.078125q-0.390625 0 -0.6875 0.140625q-0.28125 0.140625 -0.484375 0.40625q-0.1875 0.265625 -0.296875 0.640625q-0.09375 0.375 -0.09375 0.84375q0 0.5 0.109375 0.890625q0.109375 0.375 0.296875 0.640625q0.203125 0.25 0.484375 0.390625q0.28125 0.140625 0.640625 0.140625q0.359375 0 0.578125 -0.09375q0.21875 -0.09375 0.359375 -0.1875q0.15625 -0.109375 0.265625 -0.1875q0.109375 -0.09375 0.25 -0.09375q0.171875 0 0.265625 0.140625l0.421875 0.53125q-0.234375 0.296875 -0.53125 0.5q-0.28125 0.1875 -0.59375 0.3125q-0.3125 0.109375 -0.640625 0.15625q-0.328125 0.046875 -0.65625 0.046875q-0.5625 0 -1.078125 -0.21875q-0.5 -0.21875 -0.875 -0.625q-0.375 -0.40625 -0.59375 -0.984375q-0.21875 -0.59375 -0.21875 -1.359375q0 -0.671875 0.1875 -1.25q0.203125 -0.578125 0.578125 -1.0q0.390625 -0.421875 0.9375 -0.65625q0.5625 -0.25 1.28125 -0.25q0.703125 0 1.21875 0.21875q0.515625 0.21875 0.9375 0.640625l-0.390625 0.53125zm4.02092 -1.390625q0.6875 0 1.25 0.21875q0.5625 0.21875 0.953125 0.640625q0.40625 0.40625 0.609375 1.0q0.21875 0.578125 0.21875 1.296875q0 0.734375 -0.21875 1.328125q-0.203125 0.578125 -0.609375 1.0q-0.390625 0.40625 -0.953125 0.640625q-0.5625 0.21875 -1.25 0.21875q-0.6875 0 -1.25 -0.21875q-0.5625 -0.234375 -0.96875 -0.640625q-0.40625 -0.421875 -0.625 -1.0q-0.21875 -0.59375 -0.21875 -1.328125q0 -0.71875 0.21875 -1.296875q0.21875 -0.59375 0.625 -1.0q0.40625 -0.421875 0.96875 -0.640625q0.5625 -0.21875 1.25 -0.21875zm0 5.203125q0.765625 0 1.125 -0.515625q0.375 -0.515625 0.375 -1.515625q0 -1.0 -0.375 -1.515625q-0.359375 -0.53125 -1.125 -0.53125q-0.78125 0 -1.15625 0.53125q-0.375 0.53125 -0.375 1.515625q0 0.984375 0.375 1.515625q0.375 0.515625 1.15625 0.515625zm4.197052 1.046875l0 -6.15625l0.90625 0q0.28125 0 0.375 0.265625l0.09375 0.453125q0.15625 -0.171875 0.328125 -0.3125q0.1875 -0.15625 0.390625 -0.265625q0.203125 -0.109375 0.421875 -0.171875q0.234375 -0.0625 0.515625 -0.0625q0.578125 0 0.953125 0.3125q0.375 0.3125 0.5625 0.84375q0.140625 -0.3125 0.359375 -0.53125q0.21875 -0.21875 0.46875 -0.359375q0.265625 -0.140625 0.546875 -0.203125q0.296875 -0.0625 0.59375 -0.0625q0.515625 0 0.90625 0.15625q0.390625 0.15625 0.65625 0.453125q0.28125 0.296875 0.421875 0.734375q0.140625 0.4375 0.140625 0.984375l0 3.921875l-1.484375 0l0 -3.921875q0 -0.578125 -0.265625 -0.875q-0.25 -0.296875 -0.75 -0.296875q-0.21875 0 -0.421875 0.078125q-0.1875 0.078125 -0.34375 0.21875q-0.140625 0.140625 -0.234375 0.375q-0.078125 0.21875 -0.078125 0.5l0 3.921875l-1.484375 0l0 -3.921875q0 -0.609375 -0.25 -0.890625q-0.25 -0.28125 -0.734375 -0.28125q-0.3125 0 -0.59375 0.15625q-0.28125 0.15625 -0.515625 0.4375l0 4.5l-1.484375 0zm10.61969 0.015625q-0.0625 0.140625 -0.140625 0.234375q-0.078125 0.109375 -0.1875 0.171875q-0.109375 0.078125 -0.234375 0.109375q-0.125 0.03125 -0.234375 0.03125l-0.625 0l3.5 -8.953125q0.109375 -0.25 0.296875 -0.390625q0.1875 -0.140625 0.46875 -0.140625l0.625 0l-3.46875 8.9375zm11.534653 -0.015625l-1.640625 0l0 -3.796875l-4.0625 0l0 3.796875l-1.625 0l0 -8.671875l1.625 0l0 3.734375l4.0625 0l0 -3.734375l1.640625 0l0 8.671875zm5.2439423 -1.296875q0.46875 0 0.828125 -0.15625q0.375 -0.15625 0.625 -0.4375q0.25 -0.28125 0.390625 -0.6875q0.140625 -0.40625 0.140625 -0.90625l0 -5.1875l1.609375 0l0 5.1875q0 0.78125 -0.25 1.4375q-0.25 0.65625 -0.71875 1.140625q-0.46875 0.46875 -1.140625 0.734375q-0.65625 0.265625 -1.484375 0.265625q-0.84375 0 -1.515625 -0.265625q-0.65625 -0.265625 -1.125 -0.734375q-0.46875 -0.484375 -0.71875 -1.140625q-0.234375 -0.65625 -0.234375 -1.4375l0 -5.1875l1.609375 0l0 5.1875q0 0.5 0.125 0.90625q0.140625 0.390625 0.390625 0.6875q0.25 0.28125 0.625 0.4375q0.375 0.15625 0.84375 0.15625zm11.345444 -7.375l0 1.328125l-2.609375 0l0 7.34375l-1.609375 0l0 -7.34375l-2.625 0l0 -1.328125l6.84375 0zm-0.33058167 4.4375l3.109375 0l0 1.234375l-3.109375 0l0 -1.234375zm10.558029 2.1875q0.125 0 0.21875 0.109375l0.640625 0.6875q-0.53125 0.65625 -1.296875 1.0q-0.765625 0.34375 -1.859375 0.34375q-0.953125 0 -1.734375 -0.328125q-0.765625 -0.328125 -1.3125 -0.90625q-0.546875 -0.59375 -0.84375 -1.40625q-0.28125 -0.828125 -0.28125 -1.796875q0 -0.96875 0.3125 -1.78125q0.328125 -0.8125 0.921875 -1.40625q0.59375 -0.59375 1.40625 -0.90625q0.8125 -0.328125 1.8125 -0.328125q0.96875 0 1.6875 0.3125q0.71875 0.296875 1.234375 0.8125l-0.53125 0.75q-0.0625 0.0625 -0.140625 0.125q-0.0625 0.046875 -0.203125 0.046875q-0.125 0 -0.28125 -0.109375q-0.140625 -0.109375 -0.359375 -0.234375q-0.21875 -0.125 -0.5625 -0.21875q-0.34375 -0.109375 -0.859375 -0.109375q-0.609375 0 -1.125 0.21875q-0.515625 0.203125 -0.890625 0.59375q-0.359375 0.390625 -0.578125 0.96875q-0.203125 0.5625 -0.203125 1.265625q0 0.734375 0.203125 1.3125q0.21875 0.5625 0.5625 0.953125q0.359375 0.390625 0.84375 0.609375q0.484375 0.203125 1.03125 0.203125q0.328125 0 0.59375 -0.03125q0.265625 -0.046875 0.484375 -0.125q0.234375 -0.078125 0.4375 -0.203125q0.203125 -0.125 0.390625 -0.296875q0.0625 -0.0625 0.125 -0.09375q0.078125 -0.03125 0.15625 -0.03125zm7.546051 -6.625l0 1.28125l-3.84375 0l0 2.40625l3.03125 0l0 1.234375l-3.03125 0l0 2.453125l3.84375 0l0 1.296875l-5.46875 0l0 -8.671875l5.46875 0zm1.8387909 8.6875q-0.0625 0.140625 -0.140625 0.234375q-0.078125 0.109375 -0.1875 0.171875q-0.109375 0.078125 -0.234375 0.109375q-0.125 0.03125 -0.234375 0.03125l-0.625 0l3.5 -8.953125q0.109375 -0.25 0.296875 -0.390625q0.1875 -0.140625 0.46875 -0.140625l0.625 0l-3.46875 8.9375zm5.7065277 -6.171875l0 6.15625l-1.484375 0l0 -6.15625l1.484375 0zm0.21875 -1.796875q0 0.1875 -0.078125 0.359375q-0.078125 0.171875 -0.21875 0.296875q-0.125 0.125 -0.296875 0.203125q-0.171875 0.078125 -0.375 0.078125q-0.1875 0 -0.359375 -0.078125q-0.171875 -0.078125 -0.296875 -0.203125q-0.125 -0.125 -0.203125 -0.296875q-0.0625 -0.171875 -0.0625 -0.359375q0 -0.1875 0.0625 -0.359375q0.078125 -0.1875 0.203125 -0.3125q0.125 -0.125 0.296875 -0.1875q0.171875 -0.078125 0.359375 -0.078125q0.203125 0 0.375 0.078125q0.171875 0.0625 0.296875 0.1875q0.140625 0.125 0.21875 0.3125q0.078125 0.171875 0.078125 0.359375zm1.4551544 7.953125l0 -6.15625l0.90625 0q0.28125 0 0.375 0.265625l0.09375 0.484375q0.1875 -0.1875 0.390625 -0.34375q0.21875 -0.15625 0.4375 -0.265625q0.234375 -0.109375 0.5 -0.171875q0.265625 -0.0625 0.578125 -0.0625q0.5 0 0.890625 0.171875q0.390625 0.171875 0.65625 0.484375q0.265625 0.296875 0.390625 0.734375q0.140625 0.421875 0.140625 0.9375l0 3.921875l-1.484375 0l0 -3.921875q0 -0.5625 -0.265625 -0.859375q-0.25 -0.3125 -0.78125 -0.3125q-0.375 0 -0.71875 0.171875q-0.328125 0.171875 -0.625 0.46875l0 4.453125l-1.484375 0zm8.837677 0.09375q-0.796875 0 -1.234375 -0.453125q-0.421875 -0.453125 -0.421875 -1.25l0 -3.4375l-0.625 0q-0.125 0 -0.21875 -0.078125q-0.078125 -0.078125 -0.078125 -0.234375l0 -0.59375l0.984375 -0.15625l0.3125 -1.671875q0.03125 -0.125 0.109375 -0.1875q0.09375 -0.078125 0.21875 -0.078125l0.78125 0l0 1.9375l1.609375 0l0 1.0625l-1.609375 0l0 3.34375q0 0.28125 0.140625 0.453125q0.140625 0.15625 0.375 0.15625q0.140625 0 0.234375 -0.03125q0.09375 -0.03125 0.15625 -0.0625q0.078125 -0.046875 0.125 -0.078125q0.0625 -0.03125 0.109375 -0.03125q0.078125 0 0.109375 0.03125q0.046875 0.03125 0.09375 0.09375l0.4375 0.71875q-0.3125 0.265625 -0.734375 0.40625q-0.421875 0.140625 -0.875 0.140625zm2.6284027 -0.09375l0 -6.15625l0.859375 0q0.234375 0 0.3125 0.09375q0.09375 0.078125 0.125 0.28125l0.09375 0.734375q0.328125 -0.5625 0.765625 -0.890625q0.453125 -0.328125 1.0 -0.328125q0.46875 0 0.765625 0.203125l-0.1875 1.109375q-0.03125 0.109375 -0.09375 0.15625q-0.046875 0.046875 -0.15625 0.046875q-0.09375 0 -0.25 -0.046875q-0.15625 -0.046875 -0.40625 -0.046875q-0.46875 0 -0.796875 0.265625q-0.328125 0.25 -0.546875 0.75l0 3.828125l-1.484375 0zm7.5270386 -6.25q0.6875 0 1.25 0.21875q0.5625 0.21875 0.953125 0.640625q0.40625 0.40625 0.609375 1.0q0.21875 0.578125 0.21875 1.296875q0 0.734375 -0.21875 1.328125q-0.203125 0.578125 -0.609375 1.0q-0.390625 0.40625 -0.953125 0.640625q-0.5625 0.21875 -1.25 0.21875q-0.6875 0 -1.25 -0.21875q-0.5625 -0.234375 -0.96875 -0.640625q-0.40625 -0.421875 -0.625 -1.0q-0.21875 -0.59375 -0.21875 -1.328125q0 -0.71875 0.21875 -1.296875q0.21875 -0.59375 0.625 -1.0q0.40625 -0.421875 0.96875 -0.640625q0.5625 -0.21875 1.25 -0.21875zm0 5.203125q0.765625 0 1.125 -0.515625q0.375 -0.515625 0.375 -1.515625q0 -1.0 -0.375 -1.515625q-0.359375 -0.53125 -1.125 -0.53125q-0.78125 0 -1.15625 0.53125q-0.375 0.53125 -0.375 1.515625q0 0.984375 0.375 1.515625q0.375 0.515625 1.15625 0.515625zm3.993927 -3.1875l3.109375 0l0 1.234375l-3.109375 0l0 -1.234375zm4.511154 6.25l0 -8.171875l0.90625 0q0.140625 0 0.234375 0.0625q0.109375 0.0625 0.140625 0.203125l0.125 0.578125q0.359375 -0.421875 0.84375 -0.6875q0.484375 -0.265625 1.140625 -0.265625q0.5 0 0.90625 0.21875q0.421875 0.203125 0.71875 0.609375q0.3125 0.390625 0.46875 0.984375q0.171875 0.578125 0.171875 1.328125q0 0.6875 -0.1875 1.28125q-0.1875 0.578125 -0.53125 1.015625q-0.34375 0.4375 -0.828125 0.6875q-0.484375 0.234375 -1.09375 0.234375q-0.53125 0 -0.890625 -0.15625q-0.359375 -0.171875 -0.640625 -0.453125l0 2.53125l-1.484375 0zm2.875 -7.109375q-0.46875 0 -0.796875 0.203125q-0.3125 0.1875 -0.59375 0.53125l0 2.765625q0.25 0.3125 0.546875 0.4375q0.296875 0.125 0.640625 0.125q0.328125 0 0.59375 -0.125q0.28125 -0.140625 0.46875 -0.390625q0.1875 -0.265625 0.28125 -0.65625q0.109375 -0.390625 0.109375 -0.921875q0 -0.546875 -0.09375 -0.921875q-0.078125 -0.375 -0.25 -0.609375q-0.15625 -0.234375 -0.390625 -0.328125q-0.21875 -0.109375 -0.515625 -0.109375zm3.9110413 5.09375l0 -6.15625l0.859375 0q0.234375 0 0.3125 0.09375q0.09375 0.078125 0.125 0.28125l0.09375 0.734375q0.328125 -0.5625 0.765625 -0.890625q0.453125 -0.328125 1.0 -0.328125q0.46875 0 0.765625 0.203125l-0.1875 1.109375q-0.03125 0.109375 -0.09375 0.15625q-0.046875 0.046875 -0.15625 0.046875q-0.09375 0 -0.25 -0.046875q-0.15625 -0.046875 -0.40625 -0.046875q-0.46875 0 -0.796875 0.265625q-0.328125 0.25 -0.546875 0.75l0 3.828125l-1.484375 0zm7.5270386 -6.25q0.6875 0 1.25 0.21875q0.5625 0.21875 0.953125 0.640625q0.40625 0.40625 0.609375 1.0q0.21875 0.578125 0.21875 1.296875q0 0.734375 -0.21875 1.328125q-0.203125 0.578125 -0.609375 1.0q-0.390625 0.40625 -0.953125 0.640625q-0.5625 0.21875 -1.25 0.21875q-0.6875 0 -1.25 -0.21875q-0.5625 -0.234375 -0.96875 -0.640625q-0.40625 -0.421875 -0.625 -1.0q-0.21875 -0.59375 -0.21875 -1.328125q0 -0.71875 0.21875 -1.296875q0.21875 -0.59375 0.625 -1.0q0.40625 -0.421875 0.96875 -0.640625q0.5625 -0.21875 1.25 -0.21875zm0 5.203125q0.765625 0 1.125 -0.515625q0.375 -0.515625 0.375 -1.515625q0 -1.0 -0.375 -1.515625q-0.359375 -0.53125 -1.125 -0.53125q-0.78125 0 -1.15625 0.53125q-0.375 0.53125 -0.375 1.515625q0 0.984375 0.375 1.515625q0.375 0.515625 1.15625 0.515625zm6.322052 -5.21875q0.390625 0 0.734375 0.078125q0.359375 0.078125 0.640625 0.234375l1.78125 0l0 0.5625q0 0.140625 -0.078125 0.21875q-0.078125 0.078125 -0.25 0.109375l-0.546875 0.09375q0.0625 0.15625 0.09375 0.328125q0.03125 0.171875 0.03125 0.375q0 0.453125 -0.1875 0.828125q-0.171875 0.359375 -0.5 0.625q-0.328125 0.25 -0.765625 0.390625q-0.4375 0.140625 -0.953125 0.140625q-0.34375 0 -0.671875 -0.0625q-0.296875 0.171875 -0.296875 0.390625q0 0.1875 0.171875 0.28125q0.171875 0.078125 0.453125 0.109375q0.28125 0.03125 0.625 0.046875q0.359375 0.015625 0.734375 0.046875q0.375 0.015625 0.71875 0.09375q0.359375 0.078125 0.640625 0.25q0.28125 0.15625 0.453125 0.4375q0.171875 0.28125 0.171875 0.71875q0 0.40625 -0.203125 0.78125q-0.203125 0.390625 -0.59375 0.6875q-0.375 0.296875 -0.9375 0.484375q-0.546875 0.1875 -1.25 0.1875q-0.703125 0 -1.21875 -0.140625q-0.515625 -0.140625 -0.859375 -0.359375q-0.328125 -0.21875 -0.5 -0.515625q-0.171875 -0.296875 -0.171875 -0.609375q0 -0.4375 0.265625 -0.734375q0.265625 -0.296875 0.734375 -0.46875q-0.234375 -0.125 -0.375 -0.328125q-0.125 -0.21875 -0.125 -0.546875q0 -0.140625 0.046875 -0.28125q0.046875 -0.15625 0.140625 -0.296875q0.109375 -0.140625 0.25 -0.265625q0.15625 -0.140625 0.359375 -0.234375q-0.46875 -0.265625 -0.734375 -0.671875q-0.265625 -0.421875 -0.265625 -0.984375q0 -0.46875 0.171875 -0.828125q0.1875 -0.375 0.515625 -0.625q0.328125 -0.265625 0.765625 -0.40625q0.453125 -0.140625 0.984375 -0.140625zm1.625 6.546875q0 -0.1875 -0.109375 -0.296875q-0.109375 -0.109375 -0.296875 -0.171875q-0.1875 -0.078125 -0.4375 -0.09375q-0.234375 -0.03125 -0.515625 -0.046875q-0.28125 -0.015625 -0.578125 -0.03125q-0.296875 -0.015625 -0.578125 -0.046875q-0.25 0.125 -0.40625 0.328125q-0.15625 0.1875 -0.15625 0.421875q0 0.171875 0.078125 0.3125q0.09375 0.140625 0.265625 0.234375q0.171875 0.109375 0.453125 0.15625q0.296875 0.0625 0.703125 0.0625q0.40625 0 0.703125 -0.0625q0.3125 -0.0625 0.5 -0.171875q0.203125 -0.109375 0.28125 -0.265625q0.09375 -0.15625 0.09375 -0.328125zm-1.625 -3.515625q0.28125 0 0.484375 -0.0625q0.203125 -0.078125 0.328125 -0.203125q0.140625 -0.140625 0.203125 -0.328125q0.078125 -0.1875 0.078125 -0.40625q0 -0.453125 -0.28125 -0.71875q-0.265625 -0.265625 -0.8125 -0.265625q-0.546875 0 -0.828125 0.265625q-0.265625 0.265625 -0.265625 0.71875q0 0.21875 0.0625 0.40625q0.078125 0.1875 0.203125 0.328125q0.140625 0.125 0.34375 0.203125q0.21875 0.0625 0.484375 0.0625zm4.085022 3.234375l0 -6.15625l0.859375 0q0.234375 0 0.3125 0.09375q0.09375 0.078125 0.125 0.28125l0.09375 0.734375q0.328125 -0.5625 0.765625 -0.890625q0.453125 -0.328125 1.0 -0.328125q0.46875 0 0.765625 0.203125l-0.1875 1.109375q-0.03125 0.109375 -0.09375 0.15625q-0.046875 0.046875 -0.15625 0.046875q-0.09375 0 -0.25 -0.046875q-0.15625 -0.046875 -0.40625 -0.046875q-0.46875 0 -0.796875 0.265625q-0.328125 0.25 -0.546875 0.75l0 3.828125l-1.484375 0zm9.540558 0l-0.65625 0q-0.21875 0 -0.34375 -0.0625q-0.109375 -0.0625 -0.171875 -0.25l-0.125 -0.4375q-0.234375 0.203125 -0.46875 0.359375q-0.21875 0.15625 -0.46875 0.265625q-0.234375 0.109375 -0.5 0.15625q-0.265625 0.0625 -0.59375 0.0625q-0.390625 0 -0.734375 -0.09375q-0.328125 -0.109375 -0.5625 -0.3125q-0.234375 -0.21875 -0.375 -0.53125q-0.125 -0.3125 -0.125 -0.734375q0 -0.34375 0.1875 -0.671875q0.1875 -0.34375 0.609375 -0.609375q0.421875 -0.28125 1.125 -0.453125q0.71875 -0.1875 1.765625 -0.21875l0 -0.359375q0 -0.609375 -0.265625 -0.90625q-0.265625 -0.296875 -0.75 -0.296875q-0.359375 0 -0.609375 0.078125q-0.234375 0.078125 -0.421875 0.1875q-0.171875 0.109375 -0.328125 0.203125q-0.140625 0.078125 -0.328125 0.078125q-0.140625 0 -0.25 -0.078125q-0.109375 -0.078125 -0.171875 -0.203125l-0.265625 -0.46875q1.0625 -0.96875 2.5625 -0.96875q0.53125 0 0.953125 0.171875q0.421875 0.171875 0.71875 0.5q0.296875 0.3125 0.4375 0.75q0.15625 0.4375 0.15625 0.953125l0 3.890625zm-2.875 -0.921875q0.234375 0 0.421875 -0.046875q0.1875 -0.046875 0.359375 -0.125q0.171875 -0.078125 0.328125 -0.203125q0.171875 -0.125 0.328125 -0.296875l0 -1.03125q-0.65625 0.03125 -1.09375 0.109375q-0.421875 0.078125 -0.6875 0.203125q-0.265625 0.125 -0.375 0.296875q-0.109375 0.171875 -0.109375 0.359375q0 0.390625 0.21875 0.5625q0.234375 0.171875 0.609375 0.171875zm4.3445435 0.921875l0 -6.15625l0.90625 0q0.28125 0 0.375 0.265625l0.09375 0.453125q0.15625 -0.171875 0.328125 -0.3125q0.1875 -0.15625 0.390625 -0.265625q0.203125 -0.109375 0.421875 -0.171875q0.234375 -0.0625 0.515625 -0.0625q0.578125 0 0.953125 0.3125q0.375 0.3125 0.5625 0.84375q0.140625 -0.3125 0.359375 -0.53125q0.21875 -0.21875 0.46875 -0.359375q0.265625 -0.140625 0.546875 -0.203125q0.296875 -0.0625 0.59375 -0.0625q0.515625 0 0.90625 0.15625q0.390625 0.15625 0.65625 0.453125q0.28125 0.296875 0.421875 0.734375q0.140625 0.4375 0.140625 0.984375l0 3.921875l-1.484375 0l0 -3.921875q0 -0.578125 -0.265625 -0.875q-0.25 -0.296875 -0.75 -0.296875q-0.21875 0 -0.421875 0.078125q-0.1875 0.078125 -0.34375 0.21875q-0.140625 0.140625 -0.234375 0.375q-0.078125 0.21875 -0.078125 0.5l0 3.921875l-1.484375 0l0 -3.921875q0 -0.609375 -0.25 -0.890625q-0.25 -0.28125 -0.734375 -0.28125q-0.3125 0 -0.59375 0.15625q-0.28125 0.15625 -0.515625 0.4375l0 4.5l-1.484375 0zm10.104065 0l0 -6.15625l0.90625 0q0.28125 0 0.375 0.265625l0.09375 0.453125q0.15625 -0.171875 0.328125 -0.3125q0.1875 -0.15625 0.390625 -0.265625q0.203125 -0.109375 0.421875 -0.171875q0.234375 -0.0625 0.515625 -0.0625q0.578125 0 0.953125 0.3125q0.375 0.3125 0.5625 0.84375q0.140625 -0.3125 0.359375 -0.53125q0.21875 -0.21875 0.46875 -0.359375q0.265625 -0.140625 0.546875 -0.203125q0.296875 -0.0625 0.59375 -0.0625q0.515625 0 0.90625 0.15625q0.390625 0.15625 0.65625 0.453125q0.28125 0.296875 0.421875 0.734375q0.140625 0.4375 0.140625 0.984375l0 3.921875l-1.484375 0l0 -3.921875q0 -0.578125 -0.265625 -0.875q-0.25 -0.296875 -0.75 -0.296875q-0.21875 0 -0.421875 0.078125q-0.1875 0.078125 -0.34375 0.21875q-0.140625 0.140625 -0.234375 0.375q-0.078125 0.21875 -0.078125 0.5l0 3.921875l-1.484375 0l0 -3.921875q0 -0.609375 -0.25 -0.890625q-0.25 -0.28125 -0.734375 -0.28125q-0.3125 0 -0.59375 0.15625q-0.28125 0.15625 -0.515625 0.4375l0 4.5l-1.484375 0zm11.68219 -6.15625l0 6.15625l-1.484375 0l0 -6.15625l1.484375 0zm0.21875 -1.796875q0 0.1875 -0.078125 0.359375q-0.078125 0.171875 -0.21875 0.296875q-0.125 0.125 -0.296875 0.203125q-0.171875 0.078125 -0.375 0.078125q-0.1875 0 -0.359375 -0.078125q-0.171875 -0.078125 -0.296875 -0.203125q-0.125 -0.125 -0.203125 -0.296875q-0.0625 -0.171875 -0.0625 -0.359375q0 -0.1875 0.0625 -0.359375q0.078125 -0.1875 0.203125 -0.3125q0.125 -0.125 0.296875 -0.1875q0.171875 -0.078125 0.359375 -0.078125q0.203125 0 0.375 0.078125q0.171875 0.0625 0.296875 0.1875q0.140625 0.125 0.21875 0.3125q0.078125 0.171875 0.078125 0.359375zm1.4551697 7.953125l0 -6.15625l0.90625 0q0.28125 0 0.375 0.265625l0.09375 0.484375q0.1875 -0.1875 0.390625 -0.34375q0.21875 -0.15625 0.4375 -0.265625q0.234375 -0.109375 0.5 -0.171875q0.265625 -0.0625 0.578125 -0.0625q0.5 0 0.890625 0.171875q0.390625 0.171875 0.65625 0.484375q0.265625 0.296875 0.390625 0.734375q0.140625 0.421875 0.140625 0.9375l0 3.921875l-1.484375 0l0 -3.921875q0 -0.5625 -0.265625 -0.859375q-0.25 -0.3125 -0.78125 -0.3125q-0.375 0 -0.71875 0.171875q-0.328125 0.171875 -0.625 0.46875l0 4.453125l-1.484375 0zm8.947052 -6.265625q0.390625 0 0.734375 0.078125q0.359375 0.078125 0.640625 0.234375l1.78125 0l0 0.5625q0 0.140625 -0.078125 0.21875q-0.078125 0.078125 -0.25 0.109375l-0.546875 0.09375q0.0625 0.15625 0.09375 0.328125q0.03125 0.171875 0.03125 0.375q0 0.453125 -0.1875 0.828125q-0.171875 0.359375 -0.5 0.625q-0.328125 0.25 -0.765625 0.390625q-0.4375 0.140625 -0.953125 0.140625q-0.34375 0 -0.671875 -0.0625q-0.296875 0.171875 -0.296875 0.390625q0 0.1875 0.171875 0.28125q0.171875 0.078125 0.453125 0.109375q0.28125 0.03125 0.625 0.046875q0.359375 0.015625 0.734375 0.046875q0.375 0.015625 0.71875 0.09375q0.359375 0.078125 0.640625 0.25q0.28125 0.15625 0.453125 0.4375q0.171875 0.28125 0.171875 0.71875q0 0.40625 -0.203125 0.78125q-0.203125 0.390625 -0.59375 0.6875q-0.375 0.296875 -0.9375 0.484375q-0.546875 0.1875 -1.25 0.1875q-0.703125 0 -1.21875 -0.140625q-0.515625 -0.140625 -0.859375 -0.359375q-0.328125 -0.21875 -0.5 -0.515625q-0.171875 -0.296875 -0.171875 -0.609375q0 -0.4375 0.265625 -0.734375q0.265625 -0.296875 0.734375 -0.46875q-0.234375 -0.125 -0.375 -0.328125q-0.125 -0.21875 -0.125 -0.546875q0 -0.140625 0.046875 -0.28125q0.046875 -0.15625 0.140625 -0.296875q0.109375 -0.140625 0.25 -0.265625q0.15625 -0.140625 0.359375 -0.234375q-0.46875 -0.265625 -0.734375 -0.671875q-0.265625 -0.421875 -0.265625 -0.984375q0 -0.46875 0.171875 -0.828125q0.1875 -0.375 0.515625 -0.625q0.328125 -0.265625 0.765625 -0.40625q0.453125 -0.140625 0.984375 -0.140625zm1.625 6.546875q0 -0.1875 -0.109375 -0.296875q-0.109375 -0.109375 -0.296875 -0.171875q-0.1875 -0.078125 -0.4375 -0.09375q-0.234375 -0.03125 -0.515625 -0.046875q-0.28125 -0.015625 -0.578125 -0.03125q-0.296875 -0.015625 -0.578125 -0.046875q-0.25 0.125 -0.40625 0.328125q-0.15625 0.1875 -0.15625 0.421875q0 0.171875 0.078125 0.3125q0.09375 0.140625 0.265625 0.234375q0.171875 0.109375 0.453125 0.15625q0.296875 0.0625 0.703125 0.0625q0.40625 0 0.703125 -0.0625q0.3125 -0.0625 0.5 -0.171875q0.203125 -0.109375 0.28125 -0.265625q0.09375 -0.15625 0.09375 -0.328125zm-1.625 -3.515625q0.28125 0 0.484375 -0.0625q0.203125 -0.078125 0.328125 -0.203125q0.140625 -0.140625 0.203125 -0.328125q0.078125 -0.1875 0.078125 -0.40625q0 -0.453125 -0.28125 -0.71875q-0.265625 -0.265625 -0.8125 -0.265625q-0.546875 0 -0.828125 0.265625q-0.265625 0.265625 -0.265625 0.71875q0 0.21875 0.0625 0.40625q0.078125 0.1875 0.203125 0.328125q0.140625 0.125 0.34375 0.203125q0.21875 0.0625 0.484375 0.0625z" fill-rule="nonzero"/><path fill="#cfe2f3" d="m569.7244 479.33597l181.89502 0l0 65.29135l-181.89502 0z" fill-rule="evenodd"/><path stroke="#000000" stroke-width="1.0" stroke-linejoin="round" stroke-linecap="butt" d="m569.7244 479.33597l181.89502 0l0 65.29135l-181.89502 0z" fill-rule="evenodd"/><path fill="#000000" d="m624.25507 519.18164l0 -14.0l2.125 0l5.109375 8.296875l-1.03125 -0.015625l5.15625 -8.28125l2.0 0l0 14.0l-2.15625 0l0 -5.734375q0 -1.8125 0.09375 -3.25q0.09375 -1.4375 0.3125 -2.859375l0.28125 0.75l-4.578125 7.078125l-1.328125 0l-4.4375 -7.0l0.21875 -0.828125q0.21875 1.34375 0.3125 2.75q0.09375 1.40625 0.09375 3.359375l0 5.734375l-2.171875 0zm16.764343 0l0 -2.0l2.265625 0l0 -10.0l-2.265625 0l0 -2.0l6.6875 0l0 2.0l-2.265625 0l0 10.0l2.265625 0l0 2.0l-6.6875 0zm10.075623 0l0 -14.0l1.953125 0l8.546875 11.453125l-0.3125 0.1875q-0.140625 -0.828125 -0.234375 -1.90625q-0.09375 -1.078125 -0.140625 -2.375q-0.03125 -1.296875 -0.03125 -2.765625l0 -4.59375l2.171875 0l0 14.0l-1.984375 0l-8.421875 -11.046875l0.21875 -0.265625q0.140625 1.515625 0.21875 2.484375q0.078125 0.96875 0.109375 1.546875q0.046875 0.578125 0.0625 0.90625q0.015625 0.328125 0.015625 0.5625l0 5.8125l-2.171875 0zm20.506897 -6.625l0 -1.796875l9.3125 0l0 1.796875l-9.3125 0zm0 3.78125l0 -1.78125l9.3125 0l0 1.78125l-9.3125 0zm20.544983 2.84375l0 -11.921875l-3.921875 0l0 -2.078125l10.109375 0l0 2.078125l-4.03125 0l0 11.921875l-2.15625 0z" fill-rule="nonzero"/><path fill="#000000" fill-opacity="0.0" d="m660.64044 265.00534l0 24.11795l0.06298828 0l0 24.102509" fill-rule="evenodd"/><path stroke="#000000" stroke-width="2.0" stroke-linejoin="round" stroke-linecap="butt" d="m660.64044 265.00534l0 24.11795l0.06298828 0l0 12.102509" fill-rule="evenodd"/><path fill="#000000" stroke="#000000" stroke-width="2.0" stroke-linecap="butt" d="m657.39996 301.2258l3.3034668 9.076202l3.3034668 -9.076202z" fill-rule="evenodd"/><path fill="#000000" fill-opacity="0.0" d="m743.41205 174.43964l56.346497 0l0 35.55905l-56.346497 0z" fill-rule="evenodd"/><path fill="#000000" d="m763.1257 186.59901q0.125 0 0.203125 0.015625q0.078125 0.015625 0.140625 0.046875q0.0625 0.015625 0.125 0.078125q0.0625 0.0625 0.140625 0.15625l5.0625 6.4375q-0.03125 -0.234375 -0.046875 -0.453125q0 -0.21875 0 -0.421875l0 -5.859375l1.578125 0l0 9.640625l-0.9375 0q-0.203125 0 -0.34375 -0.0625q-0.140625 -0.078125 -0.28125 -0.25l-5.03125 -6.40625q0.015625 0.203125 0.015625 0.421875q0.015625 0.203125 0.015625 0.375l0 5.921875l-1.578125 0l0 -9.640625l0.9375 0l0 0zm18.388489 4.828125q0 1.046875 -0.359375 1.953125q-0.34375 0.90625 -0.984375 1.5625q-0.640625 0.65625 -1.546875 1.03125q-0.890625 0.375 -1.984375 0.375q-1.09375 0 -2.0 -0.375q-0.90625 -0.375 -1.546875 -1.03125q-0.640625 -0.65625 -1.0 -1.5625q-0.34375 -0.90625 -0.34375 -1.953125q0 -1.0625 0.34375 -1.96875q0.359375 -0.90625 1.0 -1.5625q0.640625 -0.65625 1.546875 -1.03125q0.90625 -0.375 2.0 -0.375q1.09375 0 1.984375 0.375q0.90625 0.375 1.546875 1.03125q0.640625 0.65625 0.984375 1.5625q0.359375 0.90625 0.359375 1.96875zm-1.84375 0q0 -0.796875 -0.21875 -1.421875q-0.203125 -0.640625 -0.59375 -1.078125q-0.390625 -0.4375 -0.953125 -0.671875q-0.5625 -0.234375 -1.265625 -0.234375q-0.71875 0 -1.28125 0.234375q-0.5625 0.234375 -0.96875 0.671875q-0.390625 0.4375 -0.609375 1.078125q-0.203125 0.625 -0.203125 1.421875q0 0.78125 0.203125 1.421875q0.21875 0.625 0.609375 1.0625q0.40625 0.4375 0.96875 0.671875q0.5625 0.234375 1.28125 0.234375q0.703125 0 1.265625 -0.234375q0.5625 -0.234375 0.953125 -0.671875q0.390625 -0.4375 0.59375 -1.0625q0.21875 -0.640625 0.21875 -1.421875z" fill-rule="nonzero"/><path fill="#000000" fill-opacity="0.0" d="m764.6076 56.591076l-30.510986 0l0 0.062992096l-38.685852 0" fill-rule="evenodd"/><path stroke="#000000" stroke-width="2.0" stroke-linejoin="round" stroke-linecap="butt" d="m764.6076 56.591076l-30.510986 0l0 0.062992096l-26.685852 0" fill-rule="evenodd"/><path fill="#000000" stroke="#000000" stroke-width="2.0" stroke-linecap="butt" d="m707.41077 53.3506l-9.076172 3.3034668l9.076172 3.303463z" fill-rule="evenodd"/><path fill="#000000" fill-opacity="0.0" d="m529.85693 56.59055l-42.309875 0l0 0.062992096l-34.162537 0" fill-rule="evenodd"/><path stroke="#000000" stroke-width="2.0" stroke-linejoin="round" stroke-linecap="butt" d="m529.85693 56.59055l-42.309906 0l0 0.062992096l-22.162506 0" fill-rule="evenodd"/><path fill="#000000" stroke="#000000" stroke-width="2.0" stroke-linecap="butt" d="m465.38452 53.35008l-9.076202 3.303463l9.076202 3.3034668z" fill-rule="evenodd"/><path fill="#cfe2f3" d="m569.69556 206.0762l90.944885 -58.92914l90.944885 58.92914l-90.944885 58.92914z" fill-rule="evenodd"/><path stroke="#000000" stroke-width="1.0" stroke-linejoin="round" stroke-linecap="butt" d="m569.69556 206.0762l90.944885 -58.92914l90.944885 58.92914l-90.944885 58.92914z" fill-rule="evenodd"/><path fill="#000000" d="m638.52795 213.2762l0 -2.0l2.265625 0l0 -10.0l-2.265625 0l0 -2.0l6.6875 0l0 2.0l-2.265625 0l0 10.0l2.265625 0l0 2.0l-6.6875 0zm21.941223 -0.078125l-7.21875 -4.140625l0 -1.625l7.21875 -4.140625l0.96875 1.5l-7.1875 4.125l0 -1.34375l7.1875 4.125l-0.96875 1.5zm9.814392 0.078125l0 -14.0l1.953125 0l8.546875 11.453125l-0.3125 0.1875q-0.140625 -0.828125 -0.234375 -1.90625q-0.09375 -1.078125 -0.140625 -2.375q-0.03125 -1.296875 -0.03125 -2.765625l0 -4.59375l2.171875 0l0 14.0l-1.984375 0l-8.421875 -11.046875l0.21875 -0.265625q0.140625 1.515625 0.21875 2.484375q0.078125 0.96875 0.109375 1.546875q0.046875 0.578125 0.0625 0.90625q0.015625 0.328125 0.015625 0.5625l0 5.8125l-2.171875 0z" fill-rule="nonzero"/><path fill="#cfe2f3" d="m28.742783 174.44095l181.89502 0l0 65.291336l-181.89502 0z" fill-rule="evenodd"/><path stroke="#000000" stroke-width="1.0" stroke-linejoin="round" stroke-linecap="butt" d="m28.742783 174.44095l181.89502 0l0 65.291336l-181.89502 0z" fill-rule="evenodd"/><path fill="#000000" d="m83.27345 202.28662l0 -14.0l2.125 0l5.109375 8.296875l-1.03125 -0.015625l5.15625 -8.28125l2.0 0l0 14.0l-2.15625 0l0 -5.734375q0 -1.8125 0.09375 -3.25q0.09375 -1.4375 0.3125 -2.859375l0.28125 0.75l-4.578125 7.078125l-1.328125 0l-4.4375 -7.0l0.21875 -0.828125q0.21875 1.34375 0.3125 2.75q0.09375 1.40625 0.09375 3.359375l0 5.734375l-2.171875 0zm16.764359 0l0 -2.0l2.265625 0l0 -10.0l-2.265625 0l0 -2.0l6.6875 0l0 2.0l-2.265625 0l0 10.0l2.265625 0l0 2.0l-6.6875 0zm10.075623 0l0 -14.0l1.953125 0l8.546875 11.453125l-0.3125 0.1875q-0.140625 -0.828125 -0.234375 -1.90625q-0.09375 -1.078125 -0.140625 -2.375q-0.03125 -1.296875 -0.03125 -2.765625l0 -4.59375l2.171875 0l0 14.0l-1.984375 0l-8.421875 -11.046875l0.21875 -0.265625q0.140625 1.515625 0.21875 2.484375q0.078125 0.96875 0.109375 1.546875q0.046875 0.578125 0.0625 0.90625q0.015625 0.328125 0.015625 0.5625l0 5.8125l-2.171875 0zm20.506851 -6.625l0 -1.796875l9.3125 0l0 1.796875l-9.3125 0zm0 3.78125l0 -1.78125l9.3125 0l0 1.78125l-9.3125 0zm20.544983 2.84375l0 -11.921875l-3.921875 0l0 -2.078125l10.109375 0l0 2.078125l-4.03125 0l0 11.921875l-2.15625 0z" fill-rule="nonzero"/><path fill="#000000" d="m82.13346 226.2866l0 -14.0l2.125 0l5.109375 8.296875l-1.03125 -0.015625l5.15625 -8.28125l2.0 0l0 14.0l-2.15625 0l0 -5.734375q0 -1.8125 0.09375 -3.25q0.09375 -1.4375 0.3125 -2.859375l0.28125 0.75l-4.578125 7.078125l-1.328125 0l-4.4375 -7.0l0.21875 -0.828125q0.21875 1.34375 0.3125 2.75q0.09375 1.40625 0.09375 3.359375l0 5.734375l-2.171875 0zm15.8268585 0l5.421875 -14.0l2.203125 0l5.375 14.0l-2.296875 0l-3.203125 -8.4375q-0.0625 -0.140625 -0.234375 -0.671875q-0.171875 -0.546875 -0.390625 -1.203125q-0.21875 -0.671875 -0.40625 -1.21875q-0.171875 -0.546875 -0.234375 -0.703125l0.46875 -0.03125q-0.125 0.34375 -0.296875 0.875q-0.171875 0.515625 -0.359375 1.09375q-0.1875 0.578125 -0.375 1.09375q-0.171875 0.5 -0.296875 0.84375l-3.171875 8.359375l-2.203125 0zm2.40625 -3.484375l0.796875 -2.078125l6.359375 0l0.921875 2.078125l-8.078125 0zm21.57811 3.484375l-4.34375 -6.28125l-5.5625 -7.71875l2.734375 0l4.25 6.203125l5.65625 7.796875l-2.734375 0zm-10.0 0l5.328125 -7.625l1.34375 1.578125l-4.140625 6.046875l-2.53125 0zm7.390625 -6.5l-1.3125 -1.515625l3.921875 -5.984375l2.53125 0l-5.140625 7.5zm12.424965 -0.125l0 -1.796875l9.3125 0l0 1.796875l-9.3125 0zm0 3.78125l0 -1.78125l9.3125 0l0 1.78125l-9.3125 0zm20.544983 2.84375l0 -11.921875l-3.921875 0l0 -2.078125l10.109375 0l0 2.078125l-4.03125 0l0 11.921875l-2.15625 0z" fill-rule="nonzero"/><path fill="#cfe2f3" d="m28.590551 89.23622l16.322836 -65.291336l165.56693 0l-16.32283 65.291336z" fill-rule="evenodd"/><path stroke="#000000" stroke-width="1.0" stroke-linejoin="round" stroke-linecap="butt" d="m28.590551 89.23622l16.322836 -65.291336l165.56693 0l-16.32283 65.291336z" fill-rule="evenodd"/><path fill="#000000" d="m88.762955 51.79055l0 -2.0l2.265625 0l0 -10.0l-2.265625 0l0 -2.0l6.6875 0l0 2.0l-2.265625 0l0 10.0l2.265625 0l0 2.0l-6.6875 0zm10.075623 0l0 -14.0l1.953125 0l8.546875 11.453125l-0.3125 0.1875q-0.140625 -0.828125 -0.234375 -1.90625q-0.09375 -1.078125 -0.140625 -2.375q-0.03125 -1.296875 -0.03125 -2.765625l0 -4.59375l2.171875 0l0 14.0l-1.984375 0l-8.421875 -11.046875l0.21875 -0.265625q0.140625 1.515625 0.21875 2.484375q0.078125 0.96875 0.109375 1.546875q0.046875 0.578125 0.0625 0.90625q0.015625 0.328125 0.015625 0.5625l0 5.8125l-2.171875 0zm15.859985 0l0 -14.0l5.703125 0q1.140625 0 2.0625 0.578125q0.9375 0.5625 1.5 1.546875q0.5625 0.96875 0.5625 2.171875q0 1.203125 -0.5625 2.1875q-0.5625 0.96875 -1.5 1.5625q-0.921875 0.59375 -2.0625 0.59375l-3.53125 0l0 5.359375l-2.171875 0zm2.171875 -7.4375l3.5 0q0.53125 0 0.96875 -0.3125q0.453125 -0.3125 0.71875 -0.8125q0.265625 -0.515625 0.265625 -1.140625q0 -0.609375 -0.265625 -1.109375q-0.265625 -0.5 -0.71875 -0.796875q-0.4375 -0.3125 -0.96875 -0.3125l-3.5 0l0 4.484375zm15.961243 7.5625q-1.625 0 -2.90625 -0.703125q-1.28125 -0.71875 -2.015625 -1.96875q-0.71875 -1.25 -0.71875 -2.828125l0 -8.640625l2.15625 0l0 8.453125q0 1.015625 0.46875 1.828125q0.484375 0.8125 1.265625 1.296875q0.796875 0.484375 1.75 0.484375q1.0 0 1.796875 -0.484375q0.8125 -0.484375 1.296875 -1.296875q0.484375 -0.8125 0.484375 -1.828125l0 -8.453125l2.0625 0l0 8.640625q0 1.578125 -0.734375 2.828125q-0.734375 1.25 -2.015625 1.96875q-1.28125 0.703125 -2.890625 0.703125zm12.018738 -0.125l0 -11.921875l-3.921875 0l0 -2.078125l10.109375 0l0 2.078125l-4.03125 0l0 11.921875l-2.15625 0z" fill-rule="nonzero"/><path fill="#000000" d="m117.766685 75.79055l0 -10.984375l-4.125 0l0 -3.015625l11.796875 0l0 3.015625l-4.25 0l0 10.984375l-3.421875 0z" fill-rule="nonzero"/><path fill="#000000" fill-opacity="0.0" d="m271.51575 56.527557l-30.517883 0l0 0.062992096l-38.67897 0" fill-rule="evenodd"/><path stroke="#000000" stroke-width="2.0" stroke-linejoin="round" stroke-linecap="butt" d="m271.51575 56.527557l-30.517883 0l0 0.062992096l-26.67897 0" fill-rule="evenodd"/><path fill="#000000" stroke="#000000" stroke-width="2.0" stroke-linecap="butt" d="m214.3189 53.287086l-9.076187 3.303463l9.076187 3.3034668z" fill-rule="evenodd"/><path fill="#000000" fill-opacity="0.0" d="m119.53543 89.23622l0 42.60269l0.15748596 0l0 42.594162" fill-rule="evenodd"/><path stroke="#000000" stroke-width="2.0" stroke-linejoin="round" stroke-linecap="butt" d="m119.53543 89.23622l0 42.602676l0.15748596 0l0 30.594177" fill-rule="evenodd"/><path fill="#000000" stroke="#000000" stroke-width="2.0" stroke-linecap="butt" d="m116.38945 162.43307l3.3034668 9.076187l3.3034592 -9.076187z" fill-rule="evenodd"/><path fill="#cfe2f3" d="m275.21915 174.44095l181.89502 0l0 65.291336l-181.89502 0z" fill-rule="evenodd"/><path stroke="#000000" stroke-width="1.0" stroke-linejoin="round" stroke-linecap="butt" d="m275.21915 174.44095l181.89502 0l0 65.291336l-181.89502 0z" fill-rule="evenodd"/><path fill="#000000" d="m330.2742 214.28662l0 -2.0l2.265625 0l0 -10.0l-2.265625 0l0 -2.0l6.6875 0l0 2.0l-2.265625 0l0 10.0l2.265625 0l0 2.0l-6.6875 0zm14.722504 -6.625l0 -1.796875l9.3125 0l0 1.796875l-9.3125 0zm0 3.78125l0 -1.78125l9.3125 0l0 1.78125l-9.3125 0zm17.357483 2.84375l0 -2.0l2.265625 0l0 -10.0l-2.265625 0l0 -2.0l6.6875 0l0 2.0l-2.265625 0l0 10.0l2.265625 0l0 2.0l-6.6875 0zm14.628723 -4.703125l0 -1.796875l10.015625 0l0 1.796875l-10.015625 0zm3.9375 3.859375l0 -9.65625l2.09375 0l0 9.65625l-2.09375 0zm16.919983 -0.140625l0 -11.359375l0.734375 0.5625l-2.765625 1.46875l-0.578125 -1.890625l3.75 -2.0l1.03125 0l0 13.21875l-2.171875 0zm-2.21875 0.984375l0 -2.078125l6.671875 0l0 2.078125l-6.671875 0z" fill-rule="nonzero"/><path fill="#cfe2f3" d="m802.43567 462.06155l173.19122 0l0 83.75485c-86.59558 0 -86.59558 31.91211 -173.19122 13.780212z" fill-rule="evenodd"/><path stroke="#000000" stroke-width="1.0" stroke-linejoin="round" stroke-linecap="butt" d="m802.43567 462.06155l173.19122 0l0 83.75485c-86.59558 0 -86.59558 31.91211 -173.19122 13.780212z" fill-rule="evenodd"/><path fill="#000000" d="m859.2244 499.13898l0 -14.0l5.703125 0q1.140625 0 2.0625 0.578125q0.9375 0.5625 1.5 1.546875q0.5625 0.96875 0.5625 2.171875q0 1.203125 -0.5625 2.1875q-0.5625 0.96875 -1.5 1.5625q-0.921875 0.59375 -2.0625 0.59375l-3.53125 0l0 5.359375l-2.171875 0zm2.171875 -7.4375l3.5 0q0.53125 0 0.96875 -0.3125q0.453125 -0.3125 0.71875 -0.8125q0.265625 -0.515625 0.265625 -1.140625q0 -0.609375 -0.265625 -1.109375q-0.265625 -0.5 -0.71875 -0.796875q-0.4375 -0.3125 -0.96875 -0.3125l-3.5 0l0 4.484375zm10.508118 7.4375l0 -14.0l5.96875 0q1.203125 0 2.203125 0.59375q1.015625 0.59375 1.609375 1.609375q0.609375 1.0 0.609375 2.25q0 1.140625 -0.609375 2.125q-0.59375 0.984375 -1.59375 1.578125q-1.0 0.578125 -2.21875 0.578125l-3.796875 0l0 5.265625l-2.171875 0zm8.328125 0l-3.5625 -6.3125l2.21875 -0.5l3.96875 6.828125l-2.625 -0.015625zm-6.15625 -7.34375l4.0 0q0.578125 0 1.03125 -0.28125q0.46875 -0.296875 0.71875 -0.796875q0.265625 -0.515625 0.265625 -1.140625q0 -0.703125 -0.328125 -1.21875q-0.328125 -0.53125 -0.921875 -0.828125q-0.59375 -0.3125 -1.328125 -0.3125l-3.4375 0l0 4.578125zm11.212524 7.34375l0 -2.0l2.265625 0l0 -10.0l-2.265625 0l0 -2.0l6.6875 0l0 2.0l-2.265625 0l0 10.0l2.265625 0l0 2.0l-6.6875 0zm10.075623 0l0 -14.0l1.953125 0l8.546875 11.453125l-0.3125 0.1875q-0.140625 -0.828125 -0.234375 -1.90625q-0.09375 -1.078125 -0.140625 -2.375q-0.03125 -1.296875 -0.03125 -2.765625l0 -4.59375l2.171875 0l0 14.0l-1.984375 0l-8.421875 -11.046875l0.21875 -0.265625q0.140625 1.515625 0.21875 2.484375q0.078125 0.96875 0.109375 1.546875q0.046875 0.578125 0.0625 0.90625q0.015625 0.328125 0.015625 0.5625l0 5.8125l-2.171875 0zm18.53186 0l0 -11.921875l-3.921875 0l0 -2.078125l10.109375 0l0 2.078125l-4.03125 0l0 11.921875l-2.15625 0z" fill-rule="nonzero"/><path fill="#000000" d="m839.4657 523.139l0 -14.0l3.0625 0l5.078125 8.265625l-2.15625 -0.03125l5.140625 -8.234375l2.953125 0l0 14.0l-3.3125 0l0 -4.234375q0 -1.84375 0.09375 -3.3125q0.09375 -1.46875 0.3125 -2.890625l0.375 1.03125l-3.859375 5.984375l-1.359375 0l-3.78125 -5.9375l0.375 -1.078125q0.25 1.34375 0.328125 2.78125q0.09375 1.421875 0.09375 3.421875l0 4.234375l-3.34375 0zm17.309998 0l0 -2.875l2.359375 0l0 -8.25l-2.359375 0l0 -2.875l8.140625 0l0 2.875l-2.359375 0l0 8.25l2.359375 0l0 2.875l-8.140625 0zm11.349976 0l0 -14.0l3.0625 0l7.359375 9.984375l-0.65625 -0.078125q-0.140625 -1.125 -0.25 -2.09375q-0.09375 -0.96875 -0.125 -2.03125q-0.03125 -1.0625 -0.03125 -2.4375l0 -3.34375l3.328125 0l0 14.0l-3.109375 0l-7.625 -10.28125l0.96875 0.140625q0.140625 1.21875 0.21875 2.03125q0.078125 0.796875 0.125 1.359375q0.046875 0.5625 0.0625 1.0625q0.015625 0.484375 0.015625 1.09375l0 4.59375l-3.34375 0zm16.128723 4.015625l-0.9375 -1.140625q0.8125 -0.375 1.296875 -0.9375q0.5 -0.5625 0.5 -0.9375q0 -0.203125 -0.109375 -0.40625q-0.09375 -0.1875 -0.4375 -0.46875q-0.453125 -0.34375 -0.625 -0.671875q-0.171875 -0.328125 -0.171875 -0.734375q0 -0.640625 0.453125 -0.984375q0.46875 -0.359375 1.171875 -0.359375q0.59375 0 1.0625 0.328125q0.46875 0.3125 0.734375 0.890625q0.28125 0.5625 0.28125 1.328125q0 0.65625 -0.25 1.296875q-0.234375 0.640625 -0.671875 1.203125q-0.4375 0.5625 -1.015625 0.96875q-0.578125 0.40625 -1.28125 0.625zm12.171265 -4.015625l0 -14.0l3.0625 0l5.078125 8.265625l-2.15625 -0.03125l5.140625 -8.234375l2.953125 0l0 14.0l-3.3125 0l0 -4.234375q0 -1.84375 0.09375 -3.3125q0.09375 -1.46875 0.3125 -2.890625l0.375 1.03125l-3.859375 5.984375l-1.359375 0l-3.78125 -5.9375l0.375 -1.078125q0.25 1.34375 0.328125 2.78125q0.09375 1.421875 0.09375 3.421875l0 4.234375l-3.34375 0zm15.825623 0l5.546875 -14.0l2.890625 0l5.5 14.0l-3.4375 0l-2.65625 -7.09375q-0.140625 -0.421875 -0.3125 -0.90625q-0.171875 -0.484375 -0.328125 -1.0q-0.15625 -0.515625 -0.296875 -1.0q-0.140625 -0.484375 -0.25 -0.90625l0.578125 -0.015625q-0.109375 0.5 -0.25 0.984375q-0.140625 0.484375 -0.3125 0.96875q-0.15625 0.46875 -0.328125 0.9375q-0.15625 0.46875 -0.34375 0.96875l-2.640625 7.0625l-3.359375 0zm2.640625 -2.6875l1.078125 -2.59375l6.40625 0l1.078125 2.59375l-8.5625 0zm21.283691 2.6875l-4.328125 -6.265625l-5.578125 -7.734375l4.15625 0l4.25 6.1875l5.65625 7.8125l-4.15625 0zm-10.0 0l5.328125 -7.640625l2.75 1.625l-4.125 6.015625l-3.953125 0zm8.8125 -6.484375l-2.71875 -1.5625l3.90625 -5.953125l3.953125 0l-5.140625 7.515625z" fill-rule="nonzero"/><path fill="#000000" fill-opacity="0.0" d="m210.6378 207.08661l32.290558 0l0 0.06300354l32.276352 0" fill-rule="evenodd"/><path stroke="#000000" stroke-width="2.0" stroke-linejoin="round" stroke-linecap="butt" d="m210.6378 207.08661l32.290558 0l0 0.06300354l20.276352 0" fill-rule="evenodd"/><path fill="#000000" stroke="#000000" stroke-width="2.0" stroke-linecap="butt" d="m263.2047 210.45306l9.076202 -3.3034515l-9.076202 -3.3034668z" fill-rule="evenodd"/><path fill="#000000" fill-opacity="0.0" d="m751.5853 206.0762l137.44879 0l0 256.0" fill-rule="evenodd"/><path stroke="#000000" stroke-width="2.0" stroke-linejoin="round" stroke-linecap="butt" d="m751.5853 206.0762l137.44879 0l0 244.0" fill-rule="evenodd"/><path fill="#000000" stroke="#000000" stroke-width="2.0" stroke-linecap="butt" d="m885.73065 450.0762l3.3034668 9.076202l3.3034668 -9.076202z" fill-rule="evenodd"/><path fill="#cfe2f3" d="m553.69556 372.1706l106.897644 -58.92914l106.89758 58.92914l-106.89758 58.92914z" fill-rule="evenodd"/><path stroke="#000000" stroke-width="1.0" stroke-linejoin="round" stroke-linecap="butt" d="m553.69556 372.1706l106.897644 -58.92914l106.89758 58.92914l-106.89758 58.92914z" fill-rule="evenodd"/><path fill="#000000" d="m627.2682 379.3706l0 -11.921875l-3.921875 0l0 -2.078125l10.109375 0l0 2.078125l-4.03125 0l0 11.921875l-2.15625 0zm20.713745 -0.078125l-7.21875 -4.140625l0 -1.625l7.21875 -4.140625l0.96875 1.5l-7.1875 4.125l0 -1.34375l7.1875 4.125l-0.96875 1.5zm9.814392 0.078125l0 -14.0l2.125 0l5.109375 8.296875l-1.03125 -0.015625l5.15625 -8.28125l2.0 0l0 14.0l-2.15625 0l0 -5.734375q0 -1.8125 0.09375 -3.25q0.09375 -1.4375 0.3125 -2.859375l0.28125 0.75l-4.578125 7.078125l-1.328125 0l-4.4375 -7.0l0.21875 -0.828125q0.21875 1.34375 0.3125 2.75q0.09375 1.40625 0.09375 3.359375l0 5.734375l-2.171875 0zm16.764343 0l0 -2.0l2.265625 0l0 -10.0l-2.265625 0l0 -2.0l6.6875 0l0 2.0l-2.265625 0l0 10.0l2.265625 0l0 2.0l-6.6875 0zm10.075623 0l0 -14.0l1.953125 0l8.546875 11.453125l-0.3125 0.1875q-0.140625 -0.828125 -0.234375 -1.90625q-0.09375 -1.078125 -0.140625 -2.375q-0.03125 -1.296875 -0.03125 -2.765625l0 -4.59375l2.171875 0l0 14.0l-1.984375 0l-8.421875 -11.046875l0.21875 -0.265625q0.140625 1.515625 0.21875 2.484375q0.078125 0.96875 0.109375 1.546875q0.046875 0.578125 0.0625 0.90625q0.015625 0.328125 0.015625 0.5625l0 5.8125l-2.171875 0z" fill-rule="nonzero"/><path fill="#cfe2f3" d="m263.59055 372.1706l106.897644 -58.92914l106.897644 58.92914l-106.897644 58.92914z" fill-rule="evenodd"/><path stroke="#000000" stroke-width="1.0" stroke-linejoin="round" stroke-linecap="butt" d="m263.59055 372.1706l106.897644 -58.92914l106.897644 58.92914l-106.897644 58.92914z" fill-rule="evenodd"/><path fill="#000000" d="m336.02322 379.3706l0 -11.921875l-3.921875 0l0 -2.078125l10.109375 0l0 2.078125l-4.03125 0l0 11.921875l-2.15625 0zm14.76062 -0.078125l-0.96875 -1.5l7.1875 -4.125l0 1.34375l-7.1875 -4.125l0.96875 -1.5l7.21875 4.140625l0 1.625l-7.21875 4.140625zm15.767487 0.078125l0 -14.0l2.125 0l5.109375 8.296875l-1.03125 -0.015625l5.15625 -8.28125l2.0 0l0 14.0l-2.15625 0l0 -5.734375q0 -1.8125 0.09375 -3.25q0.09375 -1.4375 0.3125 -2.859375l0.28125 0.75l-4.578125 7.078125l-1.328125 0l-4.4375 -7.0l0.21875 -0.828125q0.21875 1.34375 0.3125 2.75q0.09375 1.40625 0.09375 3.359375l0 5.734375l-2.171875 0zm15.826843 0l5.421875 -14.0l2.203125 0l5.375 14.0l-2.296875 0l-3.203125 -8.4375q-0.0625 -0.140625 -0.234375 -0.671875q-0.171875 -0.546875 -0.390625 -1.203125q-0.21875 -0.671875 -0.40625 -1.21875q-0.171875 -0.546875 -0.234375 -0.703125l0.46875 -0.03125q-0.125 0.34375 -0.296875 0.875q-0.171875 0.515625 -0.359375 1.09375q-0.1875 0.578125 -0.375 1.09375q-0.171875 0.5 -0.296875 0.84375l-3.171875 8.359375l-2.203125 0zm2.40625 -3.484375l0.796875 -2.078125l6.359375 0l0.921875 2.078125l-8.078125 0zm21.578125 3.484375l-4.34375 -6.28125l-5.5625 -7.71875l2.734375 0l4.25 6.203125l5.65625 7.796875l-2.734375 0zm-10.0 0l5.328125 -7.625l1.34375 1.578125l-4.140625 6.046875l-2.53125 0zm7.390625 -6.5l-1.3125 -1.515625l3.921875 -5.984375l2.53125 0l-5.140625 7.5z" fill-rule="nonzero"/><path fill="#000000" fill-opacity="0.0" d="m660.5617 431.09982l0 24.11795l0.06298828 0l0 24.10254" fill-rule="evenodd"/><path stroke="#000000" stroke-width="2.0" stroke-linejoin="round" stroke-linecap="butt" d="m660.5617 431.09982l0 24.11795l0.06298828 0l0 12.102509" fill-rule="evenodd"/><path fill="#000000" stroke="#000000" stroke-width="2.0" stroke-linecap="butt" d="m657.3212 467.32028l3.3034668 9.076202l3.3034668 -9.076202z" fill-rule="evenodd"/><path fill="#000000" fill-opacity="0.0" d="m553.69556 372.1706l-38.153687 0l0 0.06298828l-38.161285 0" fill-rule="evenodd"/><path stroke="#000000" stroke-width="2.0" stroke-linejoin="round" stroke-linecap="butt" d="m553.69556 372.1706l-38.153687 0l0 0.06298828l-26.161285 0" fill-rule="evenodd"/><path fill="#000000" stroke="#000000" stroke-width="2.0" stroke-linecap="butt" d="m489.38058 368.93015l-9.076202 3.3034363l9.076202 3.3034668z" fill-rule="evenodd"/><path fill="#000000" fill-opacity="0.0" d="m650.45404 266.50525l56.346497 0l0 35.55905l-56.346497 0z" fill-rule="evenodd"/><path fill="#000000" d="m672.14087 284.55524l0 3.75l-1.796875 0l0 -3.75l-3.515625 -5.890625l1.578125 0q0.234375 0 0.375 0.125q0.140625 0.109375 0.21875 0.28125l1.78125 3.21875q0.140625 0.28125 0.25 0.546875q0.125 0.25 0.21875 0.5q0.078125 -0.25 0.1875 -0.5q0.109375 -0.265625 0.265625 -0.546875l1.75 -3.21875q0.078125 -0.15625 0.21875 -0.28125q0.15625 -0.125 0.375 -0.125l1.59375 0l-3.5 5.890625zm10.504517 -5.890625l0 1.4375l-4.265625 0l0 2.671875l3.359375 0l0 1.375l-3.359375 0l0 2.71875l4.265625 0l0 1.4375l-6.078125 0l0 -9.640625l6.078125 0zm6.72406 1.75q-0.078125 0.15625 -0.171875 0.21875q-0.09375 0.0625 -0.234375 0.0625q-0.125 0 -0.296875 -0.109375q-0.171875 -0.109375 -0.40625 -0.234375q-0.21875 -0.125 -0.515625 -0.21875q-0.296875 -0.109375 -0.71875 -0.109375q-0.375 0 -0.65625 0.09375q-0.265625 0.078125 -0.453125 0.25q-0.1875 0.15625 -0.28125 0.375q-0.09375 0.21875 -0.09375 0.484375q0 0.34375 0.1875 0.578125q0.1875 0.21875 0.5 0.390625q0.3125 0.15625 0.703125 0.28125q0.40625 0.125 0.8125 0.265625q0.421875 0.140625 0.828125 0.34375q0.40625 0.1875 0.71875 0.484375q0.3125 0.28125 0.5 0.703125q0.1875 0.40625 0.1875 1.015625q0 0.65625 -0.234375 1.234375q-0.21875 0.5625 -0.65625 0.984375q-0.421875 0.421875 -1.046875 0.671875q-0.609375 0.234375 -1.40625 0.234375q-0.453125 0 -0.90625 -0.09375q-0.453125 -0.09375 -0.859375 -0.25q-0.40625 -0.171875 -0.765625 -0.40625q-0.359375 -0.234375 -0.640625 -0.515625l0.53125 -0.859375q0.0625 -0.09375 0.171875 -0.15625q0.109375 -0.0625 0.234375 -0.0625q0.15625 0 0.34375 0.140625q0.203125 0.125 0.46875 0.296875q0.265625 0.171875 0.609375 0.3125q0.359375 0.125 0.859375 0.125q0.765625 0 1.1875 -0.359375q0.421875 -0.359375 0.421875 -1.046875q0 -0.375 -0.1875 -0.609375q-0.1875 -0.25 -0.5 -0.40625q-0.3125 -0.171875 -0.71875 -0.28125q-0.390625 -0.109375 -0.8125 -0.234375q-0.40625 -0.140625 -0.8125 -0.328125q-0.40625 -0.1875 -0.71875 -0.484375q-0.3125 -0.3125 -0.5 -0.75q-0.1875 -0.453125 -0.1875 -1.125q0 -0.515625 0.203125 -1.015625q0.21875 -0.5 0.625 -0.890625q0.40625 -0.390625 0.984375 -0.625q0.59375 -0.234375 1.34375 -0.234375q0.84375 0 1.5625 0.28125q0.734375 0.265625 1.234375 0.734375l-0.4375 0.84375z" fill-rule="nonzero"/><path fill="#000000" fill-opacity="0.0" d="m515.8268 342.21915l56.346436 0l0 35.559082l-56.346436 0z" fill-rule="evenodd"/><path fill="#000000" d="m535.54034 354.37854q0.125 0 0.203125 0.015625q0.078125 0.015625 0.140625 0.046875q0.0625 0.015625 0.125 0.078125q0.0625 0.0625 0.140625 0.15625l5.0625 6.4375q-0.03125 -0.234375 -0.046875 -0.453125q0 -0.21875 0 -0.421875l0 -5.859375l1.578125 0l0 9.640625l-0.9375 0q-0.203125 0 -0.34375 -0.0625q-0.140625 -0.078125 -0.28125 -0.25l-5.03125 -6.40625q0.015625 0.203125 0.015625 0.421875q0.015625 0.203125 0.015625 0.375l0 5.921875l-1.578125 0l0 -9.640625l0.9375 0l0 0zm18.38855 4.828125q0 1.046875 -0.359375 1.953125q-0.34375 0.90625 -0.984375 1.5625q-0.640625 0.65625 -1.546875 1.03125q-0.890625 0.375 -1.984375 0.375q-1.09375 0 -2.0 -0.375q-0.90625 -0.375 -1.546875 -1.03125q-0.640625 -0.65625 -1.0 -1.5625q-0.34375 -0.90625 -0.34375 -1.953125q0 -1.0625 0.34375 -1.96875q0.359375 -0.90625 1.0 -1.5625q0.640625 -0.65625 1.546875 -1.03125q0.90625 -0.375 2.0 -0.375q1.09375 0 1.984375 0.375q0.90625 0.375 1.546875 1.03125q0.640625 0.65625 0.984375 1.5625q0.359375 0.90625 0.359375 1.96875zm-1.84375 0q0 -0.796875 -0.21875 -1.421875q-0.203125 -0.640625 -0.59375 -1.078125q-0.390625 -0.4375 -0.953125 -0.671875q-0.5625 -0.234375 -1.265625 -0.234375q-0.71875 0 -1.28125 0.234375q-0.5625 0.234375 -0.96875 0.671875q-0.390625 0.4375 -0.609375 1.078125q-0.203125 0.625 -0.203125 1.421875q0 0.78125 0.203125 1.421875q0.21875 0.625 0.609375 1.0625q0.40625 0.4375 0.96875 0.671875q0.5625 0.234375 1.28125 0.234375q0.703125 0 1.265625 -0.234375q0.5625 -0.234375 0.953125 -0.671875q0.390625 -0.4375 0.59375 -1.0625q0.21875 -0.640625 0.21875 -1.421875z" fill-rule="nonzero"/><path fill="#000000" fill-opacity="0.0" d="m650.45404 437.437l56.346497 0l0 35.55905l-56.346497 0z" fill-rule="evenodd"/><path fill="#000000" d="m672.14087 455.487l0 3.75l-1.796875 0l0 -3.75l-3.515625 -5.890625l1.578125 0q0.234375 0 0.375 0.125q0.140625 0.109375 0.21875 0.28125l1.78125 3.21875q0.140625 0.28125 0.25 0.546875q0.125 0.25 0.21875 0.5q0.078125 -0.25 0.1875 -0.5q0.109375 -0.265625 0.265625 -0.546875l1.75 -3.21875q0.078125 -0.15625 0.21875 -0.28125q0.15625 -0.125 0.375 -0.125l1.59375 0l-3.5 5.890625zm10.504517 -5.890625l0 1.4375l-4.265625 0l0 2.671875l3.359375 0l0 1.375l-3.359375 0l0 2.71875l4.265625 0l0 1.4375l-6.078125 0l0 -9.640625l6.078125 0zm6.72406 1.75q-0.078125 0.15625 -0.171875 0.21875q-0.09375 0.0625 -0.234375 0.0625q-0.125 0 -0.296875 -0.109375q-0.171875 -0.109375 -0.40625 -0.234375q-0.21875 -0.125 -0.515625 -0.21875q-0.296875 -0.109375 -0.71875 -0.109375q-0.375 0 -0.65625 0.09375q-0.265625 0.078125 -0.453125 0.25q-0.1875 0.15625 -0.28125 0.375q-0.09375 0.21875 -0.09375 0.484375q0 0.34375 0.1875 0.578125q0.1875 0.21875 0.5 0.390625q0.3125 0.15625 0.703125 0.28125q0.40625 0.125 0.8125 0.265625q0.421875 0.140625 0.828125 0.34375q0.40625 0.1875 0.71875 0.484375q0.3125 0.28125 0.5 0.703125q0.1875 0.40625 0.1875 1.015625q0 0.65625 -0.234375 1.234375q-0.21875 0.5625 -0.65625 0.984375q-0.421875 0.421875 -1.046875 0.671875q-0.609375 0.234375 -1.40625 0.234375q-0.453125 0 -0.90625 -0.09375q-0.453125 -0.09375 -0.859375 -0.25q-0.40625 -0.171875 -0.765625 -0.40625q-0.359375 -0.234375 -0.640625 -0.515625l0.53125 -0.859375q0.0625 -0.09375 0.171875 -0.15625q0.109375 -0.0625 0.234375 -0.0625q0.15625 0 0.34375 0.140625q0.203125 0.125 0.46875 0.296875q0.265625 0.171875 0.609375 0.3125q0.359375 0.125 0.859375 0.125q0.765625 0 1.1875 -0.359375q0.421875 -0.359375 0.421875 -1.046875q0 -0.375 -0.1875 -0.609375q-0.1875 -0.25 -0.5 -0.40625q-0.3125 -0.171875 -0.71875 -0.28125q-0.390625 -0.109375 -0.8125 -0.234375q-0.40625 -0.140625 -0.8125 -0.328125q-0.40625 -0.1875 -0.71875 -0.484375q-0.3125 -0.3125 -0.5 -0.75q-0.1875 -0.453125 -0.1875 -1.125q0 -0.515625 0.203125 -1.015625q0.21875 -0.5 0.625 -0.890625q0.40625 -0.390625 0.984375 -0.625q0.59375 -0.234375 1.34375 -0.234375q0.84375 0 1.5625 0.28125q0.734375 0.265625 1.234375 0.734375l-0.4375 0.84375z" fill-rule="nonzero"/><path fill="#000000" fill-opacity="0.0" d="m457.11417 207.08661l56.283478 0l0 0.06300354l56.283447 0" fill-rule="evenodd"/><path stroke="#000000" stroke-width="2.0" stroke-linejoin="round" stroke-linecap="butt" d="m457.11417 207.08661l56.283478 0l0 0.06300354l44.283447 0" fill-rule="evenodd"/><path fill="#000000" stroke="#000000" stroke-width="2.0" stroke-linecap="butt" d="m557.6811 210.45306l9.076233 -3.3034515l-9.076233 -3.3034668z" fill-rule="evenodd"/><path fill="#cfe2f3" d="m279.54068 479.33597l181.89502 0l0 65.29135l-181.89502 0z" fill-rule="evenodd"/><path stroke="#000000" stroke-width="1.0" stroke-linejoin="round" stroke-linecap="butt" d="m279.54068 479.33597l181.89502 0l0 65.29135l-181.89502 0z" fill-rule="evenodd"/><path fill="#000000" d="m332.93137 519.18164l0 -14.0l2.125 0l5.109375 8.296875l-1.03125 -0.015625l5.15625 -8.28125l2.0 0l0 14.0l-2.15625 0l0 -5.734375q0 -1.8125 0.09375 -3.25q0.09375 -1.4375 0.3125 -2.859375l0.28125 0.75l-4.578125 7.078125l-1.328125 0l-4.4375 -7.0l0.21875 -0.828125q0.21875 1.34375 0.3125 2.75q0.09375 1.40625 0.09375 3.359375l0 5.734375l-2.171875 0zm15.826843 0l5.421875 -14.0l2.203125 0l5.375 14.0l-2.296875 0l-3.203125 -8.4375q-0.0625 -0.140625 -0.234375 -0.671875q-0.171875 -0.546875 -0.390625 -1.203125q-0.21875 -0.671875 -0.40625 -1.21875q-0.171875 -0.546875 -0.234375 -0.703125l0.46875 -0.03125q-0.125 0.34375 -0.296875 0.875q-0.171875 0.515625 -0.359375 1.09375q-0.1875 0.578125 -0.375 1.09375q-0.171875 0.5 -0.296875 0.84375l-3.171875 8.359375l-2.203125 0zm2.40625 -3.484375l0.796875 -2.078125l6.359375 0l0.921875 2.078125l-8.078125 0zm21.578125 3.484375l-4.34375 -6.28125l-5.5625 -7.71875l2.734375 0l4.25 6.203125l5.65625 7.796875l-2.734375 0zm-10.0 0l5.328125 -7.625l1.34375 1.578125l-4.140625 6.046875l-2.53125 0zm7.390625 -6.5l-1.3125 -1.515625l3.921875 -5.984375l2.53125 0l-5.140625 7.5zm12.424957 -0.125l0 -1.796875l9.3125 0l0 1.796875l-9.3125 0zm0 3.78125l0 -1.78125l9.3125 0l0 1.78125l-9.3125 0zm20.544983 2.84375l0 -11.921875l-3.921875 0l0 -2.078125l10.109375 0l0 2.078125l-4.03125 0l0 11.921875l-2.15625 0z" fill-rule="nonzero"/><path fill="#000000" fill-opacity="0.0" d="m370.37796 431.09982l0 24.11795l0.06298828 0l0 24.10254" fill-rule="evenodd"/><path stroke="#000000" stroke-width="2.0" stroke-linejoin="round" stroke-linecap="butt" d="m370.37796 431.09982l0 24.11795l0.06298828 0l0 12.102509" fill-rule="evenodd"/><path fill="#000000" stroke="#000000" stroke-width="2.0" stroke-linecap="butt" d="m367.13748 467.32028l3.3034668 9.076202l3.3034668 -9.076202z" fill-rule="evenodd"/><path fill="#000000" fill-opacity="0.0" d="m360.27036 437.437l56.346436 0l0 35.55905l-56.346436 0z" fill-rule="evenodd"/><path fill="#000000" d="m381.95715 455.487l0 3.75l-1.796875 0l0 -3.75l-3.515625 -5.890625l1.578125 0q0.234375 0 0.375 0.125q0.140625 0.109375 0.21875 0.28125l1.78125 3.21875q0.140625 0.28125 0.25 0.546875q0.125 0.25 0.21875 0.5q0.078125 -0.25 0.1875 -0.5q0.109375 -0.265625 0.265625 -0.546875l1.75 -3.21875q0.078125 -0.15625 0.21875 -0.28125q0.15625 -0.125 0.375 -0.125l1.59375 0l-3.5 5.890625zm10.504486 -5.890625l0 1.4375l-4.265625 0l0 2.671875l3.359375 0l0 1.375l-3.359375 0l0 2.71875l4.265625 0l0 1.4375l-6.078125 0l0 -9.640625l6.078125 0zm6.72406 1.75q-0.078125 0.15625 -0.171875 0.21875q-0.09375 0.0625 -0.234375 0.0625q-0.125 0 -0.296875 -0.109375q-0.171875 -0.109375 -0.40625 -0.234375q-0.21875 -0.125 -0.515625 -0.21875q-0.296875 -0.109375 -0.71875 -0.109375q-0.375 0 -0.65625 0.09375q-0.265625 0.078125 -0.453125 0.25q-0.1875 0.15625 -0.28125 0.375q-0.09375 0.21875 -0.09375 0.484375q0 0.34375 0.1875 0.578125q0.1875 0.21875 0.5 0.390625q0.3125 0.15625 0.703125 0.28125q0.40625 0.125 0.8125 0.265625q0.421875 0.140625 0.828125 0.34375q0.40625 0.1875 0.71875 0.484375q0.3125 0.28125 0.5 0.703125q0.1875 0.40625 0.1875 1.015625q0 0.65625 -0.234375 1.234375q-0.21875 0.5625 -0.65625 0.984375q-0.421875 0.421875 -1.046875 0.671875q-0.609375 0.234375 -1.40625 0.234375q-0.453125 0 -0.90625 -0.09375q-0.453125 -0.09375 -0.859375 -0.25q-0.40625 -0.171875 -0.765625 -0.40625q-0.359375 -0.234375 -0.640625 -0.515625l0.53125 -0.859375q0.0625 -0.09375 0.171875 -0.15625q0.109375 -0.0625 0.234375 -0.0625q0.15625 0 0.34375 0.140625q0.203125 0.125 0.46875 0.296875q0.265625 0.171875 0.609375 0.3125q0.359375 0.125 0.859375 0.125q0.765625 0 1.1875 -0.359375q0.421875 -0.359375 0.421875 -1.046875q0 -0.375 -0.1875 -0.609375q-0.1875 -0.25 -0.5 -0.40625q-0.3125 -0.171875 -0.71875 -0.28125q-0.390625 -0.109375 -0.8125 -0.234375q-0.40625 -0.140625 -0.8125 -0.328125q-0.40625 -0.1875 -0.71875 -0.484375q-0.3125 -0.3125 -0.5 -0.75q-0.1875 -0.453125 -0.1875 -1.125q0 -0.515625 0.203125 -1.015625q0.21875 -0.5 0.625 -0.890625q0.40625 -0.390625 0.984375 -0.625q0.59375 -0.234375 1.34375 -0.234375q0.84375 0 1.5625 0.28125q0.734375 0.265625 1.234375 0.734375l-0.4375 0.84375z" fill-rule="nonzero"/><path fill="#000000" fill-opacity="0.0" d="m569.7244 511.98163l-46.167725 0l0 -139.81104l-46.17874 0" fill-rule="evenodd"/><path stroke="#000000" stroke-width="2.0" stroke-linejoin="round" stroke-linecap="butt" d="m569.7244 511.98163l-46.167725 0l0 -139.81104l-34.17874 0" fill-rule="evenodd"/><path fill="#000000" stroke="#000000" stroke-width="2.0" stroke-linecap="butt" d="m489.37796 368.86713l-9.076202 3.3034668l9.076202 3.3034668z" fill-rule="evenodd"/><path fill="#000000" fill-opacity="0.0" d="m370.4882 313.24146l0 -36.75473l-120.26924 0l0 -69.38699l24.993637 0" fill-rule="evenodd"/><path stroke="#000000" stroke-width="2.0" stroke-linejoin="round" stroke-linecap="butt" d="m370.4882 313.24146l0 -36.75473l-120.26924 0l0 -69.38699l12.993637 0" fill-rule="evenodd"/><path fill="#000000" stroke="#000000" stroke-width="2.0" stroke-linecap="butt" d="m263.2126 210.4032l9.076202 -3.3034668l-9.076202 -3.3034515z" fill-rule="evenodd"/><path fill="#000000" fill-opacity="0.0" d="m888.96765 555.62994l0 24.992126l0.06298828 0l0 24.992126" fill-rule="evenodd"/><path stroke="#000000" stroke-width="2.0" stroke-linejoin="round" stroke-linecap="butt" d="m888.9677 555.62994l0 24.992126l0.06298828 0l0 12.992126" fill-rule="evenodd"/><path fill="#000000" stroke="#000000" stroke-width="2.0" stroke-linecap="butt" d="m885.72723 593.6142l3.3034668 9.076172l3.3034668 -9.076172z" fill-rule="evenodd"/><path fill="#000000" fill-opacity="0.0" d="m370.4882 287.10892l56.346466 0l0 35.55905l-56.346466 0z" fill-rule="evenodd"/><path fill="#000000" d="m390.20175 299.2683q0.125 0 0.203125 0.015625q0.078125 0.015625 0.140625 0.046875q0.0625 0.015625 0.125 0.078125q0.0625 0.0625 0.140625 0.15625l5.0625 6.4375q-0.03125 -0.234375 -0.046875 -0.453125q0 -0.21875 0 -0.421875l0 -5.859375l1.578125 0l0 9.640625l-0.9375 0q-0.203125 0 -0.34375 -0.0625q-0.140625 -0.078125 -0.28125 -0.25l-5.03125 -6.40625q0.015625 0.203125 0.015625 0.421875q0.015625 0.203125 0.015625 0.375l0 5.921875l-1.578125 0l0 -9.640625l0.9375 0l0 0zm18.38852 4.828125q0 1.046875 -0.359375 1.953125q-0.34375 0.90625 -0.984375 1.5625q-0.640625 0.65625 -1.546875 1.03125q-0.890625 0.375 -1.984375 0.375q-1.09375 0 -2.0 -0.375q-0.90625 -0.375 -1.546875 -1.03125q-0.640625 -0.65625 -1.0 -1.5625q-0.34375 -0.90625 -0.34375 -1.953125q0 -1.0625 0.34375 -1.96875q0.359375 -0.90625 1.0 -1.5625q0.640625 -0.65625 1.546875 -1.03125q0.90625 -0.375 2.0 -0.375q1.09375 0 1.984375 0.375q0.90625 0.375 1.546875 1.03125q0.640625 0.65625 0.984375 1.5625q0.359375 0.90625 0.359375 1.96875zm-1.84375 0q0 -0.796875 -0.21875 -1.421875q-0.203125 -0.640625 -0.59375 -1.078125q-0.390625 -0.4375 -0.953125 -0.671875q-0.5625 -0.234375 -1.265625 -0.234375q-0.71875 0 -1.28125 0.234375q-0.5625 0.234375 -0.96875 0.671875q-0.390625 0.4375 -0.609375 1.078125q-0.203125 0.625 -0.203125 1.421875q0 0.78125 0.203125 1.421875q0.21875 0.625 0.609375 1.0625q0.40625 0.4375 0.96875 0.671875q0.5625 0.234375 1.28125 0.234375q0.703125 0 1.265625 -0.234375q0.5625 -0.234375 0.953125 -0.671875q0.390625 -0.4375 0.59375 -1.0625q0.21875 -0.640625 0.21875 -1.421875z" fill-rule="nonzero"/><path fill="#000000" fill-opacity="0.0" d="m279.54068 511.98163l-29.321533 0l0 -304.8819l25.006561 0" fill-rule="evenodd"/><path stroke="#000000" stroke-width="2.0" stroke-linejoin="round" stroke-linecap="butt" d="m279.54068 511.98163l-29.321533 0l0 -304.8819l13.006561 0" fill-rule="evenodd"/><path fill="#000000" stroke="#000000" stroke-width="2.0" stroke-linecap="butt" d="m263.2257 210.4032l9.076202 -3.3034668l-9.076202 -3.3034515z" fill-rule="evenodd"/></g></svg>