<svg version="1.1" viewBox="0.0 0.0 919.6272965879265 672.0367454068241" fill="none" stroke="none" stroke-linecap="square" stroke-miterlimit="10" xmlns:xlink="http://www.w3.org/1999/xlink" xmlns="http://www.w3.org/2000/svg"><clipPath id="p.0"><path d="m0 0l919.6273 0l0 672.03674l-919.6273 0l0 -672.03674z" clip-rule="nonzero"/></clipPath><g clip-path="url(#p.0)"><path fill="#000000" fill-opacity="0.0" d="m0 0l919.6273 0l0 672.03674l-919.6273 0z" fill-rule="evenodd"/><path fill="#cfe2f3" d="m521.69556 89.23622l16.322815 -65.291336l165.56696 0l-16.322876 65.291336z" fill-rule="evenodd"/><path stroke="#000000" stroke-width="1.0" stroke-linejoin="round" stroke-linecap="butt" d="m521.69556 89.23622l16.322815 -65.291336l165.56696 0l-16.322876 65.291336z" fill-rule="evenodd"/><path fill="#000000" d="m581.8679 51.79055l0 -2.0l2.265625 0l0 -10.0l-2.265625 0l0 -2.0l6.6875 0l0 2.0l-2.265625 0l0 10.0l2.265625 0l0 2.0l-6.6875 0zm10.075623 0l0 -14.0l1.953125 0l8.546875 11.453125l-0.3125 0.1875q-0.140625 -0.828125 -0.234375 -1.90625q-0.09375 -1.078125 -0.140625 -2.375q-0.03125 -1.296875 -0.03125 -2.765625l0 -4.59375l2.171875 0l0 14.0l-1.984375 0l-8.421875 -11.046875l0.21875 -0.265625q0.140625 1.515625 0.21875 2.484375q0.078125 0.96875 0.109375 1.546875q0.046875 0.578125 0.0625 0.90625q0.015625 0.328125 0.015625 0.5625l0 5.8125l-2.171875 0zm15.859985 0l0 -14.0l5.703125 0q1.140625 0 2.0625 0.578125q0.9375 0.5625 1.5 1.546875q0.5625 0.96875 0.5625 2.171875q0 1.203125 -0.5625 2.1875q-0.5625 0.96875 -1.5 1.5625q-0.921875 0.59375 -2.0625 0.59375l-3.53125 0l0 5.359375l-2.171875 0zm2.171875 -7.4375l3.5 0q0.53125 0 0.96875 -0.3125q0.453125 -0.3125 0.71875 -0.8125q0.265625 -0.515625 0.265625 -1.140625q0 -0.609375 -0.265625 -1.109375q-0.265625 -0.5 -0.71875 -0.796875q-0.4375 -0.3125 -0.96875 -0.3125l-3.5 0l0 4.484375zm15.961243 7.5625q-1.625 0 -2.90625 -0.703125q-1.28125 -0.71875 -2.015625 -1.96875q-0.71875 -1.25 -0.71875 -2.828125l0 -8.640625l2.15625 0l0 8.453125q0 1.015625 0.46875 1.828125q0.484375 0.8125 1.265625 1.296875q0.796875 0.484375 1.75 0.484375q1.0 0 1.796875 -0.484375q0.8125 -0.484375 1.296875 -1.296875q0.484375 -0.8125 0.484375 -1.828125l0 -8.453125l2.0625 0l0 8.640625q0 1.578125 -0.734375 2.828125q-0.734375 1.25 -2.015625 1.96875q-1.28125 0.703125 -2.890625 0.703125zm12.018738 -0.125l0 -11.921875l-3.921875 0l0 -2.078125l10.109375 0l0 2.078125l-4.03125 0l0 11.921875l-2.15625 0z" fill-rule="nonzero"/><path fill="#000000" d="m606.2948 75.79055l0 -14.0l3.0625 0l7.359375 9.984375l-0.65625 -0.078125q-0.140625 -1.125 -0.25 -2.09375q-0.09375 -0.96875 -0.125 -2.03125q-0.03125 -1.0625 -0.03125 -2.4375l0 -3.34375l3.328125 0l0 14.0l-3.109375 0l-7.625 -10.28125l0.96875 0.140625q0.140625 1.21875 0.21875 2.03125q0.078125 0.796875 0.125 1.359375q0.046875 0.5625 0.0625 1.0625q0.015625 0.484375 0.015625 1.09375l0 4.59375l-3.34375 0z" fill-rule="nonzero"/><path fill="#ff9900" d="m782.73145 32.09974l76.40686 0l0 0c10.00946 0 18.12378 10.965145 18.12378 24.491337c0 13.526196 -8.114319 24.491337 -18.12378 24.491337l-76.40686 0l0 0c-10.0095215 0 -18.12384 -10.965141 -18.12384 -24.491337c0 -13.526192 8.114319 -24.491337 18.12384 -24.491337z" fill-rule="evenodd"/><path stroke="#000000" stroke-width="1.0" stroke-linejoin="round" stroke-linecap="butt" d="m782.73145 32.09974l76.40686 0l0 0c10.00946 0 18.12378 10.965145 18.12378 24.491337c0 13.526196 -8.114319 24.491337 -18.12378 24.491337l-76.40686 0l0 0c-10.0095215 0 -18.12384 -10.965141 -18.12384 -24.491337c0 -13.526192 8.114319 -24.491337 18.12384 -24.491337z" fill-rule="evenodd"/><path fill="#000000" d="m796.2061 63.9942q-1.71875 0 -3.03125 -0.671875q-1.3125 -0.6875 -2.25 -2.046875l1.484375 -1.703125q0.96875 1.40625 1.875 1.953125q0.90625 0.53125 2.140625 0.53125q0.765625 0 1.375 -0.234375q0.625 -0.25 0.984375 -0.671875q0.359375 -0.421875 0.359375 -0.953125q0 -0.359375 -0.125 -0.671875q-0.109375 -0.328125 -0.359375 -0.59375q-0.25 -0.265625 -0.640625 -0.484375q-0.390625 -0.21875 -0.921875 -0.390625q-0.515625 -0.171875 -1.1875 -0.28125q-1.078125 -0.21875 -1.890625 -0.578125q-0.796875 -0.359375 -1.34375 -0.90625q-0.53125 -0.546875 -0.796875 -1.234375q-0.25 -0.6875 -0.25 -1.546875q0 -1.140625 0.640625 -2.015625q0.640625 -0.890625 1.71875 -1.390625q1.09375 -0.515625 2.453125 -0.515625q1.625 0 2.828125 0.640625q1.21875 0.625 1.921875 1.828125l-1.53125 1.5q-0.59375 -0.984375 -1.421875 -1.5q-0.828125 -0.53125 -1.859375 -0.53125q-0.765625 0 -1.359375 0.25q-0.578125 0.234375 -0.90625 0.671875q-0.328125 0.421875 -0.328125 1.0q0 0.421875 0.15625 0.78125q0.171875 0.34375 0.5 0.609375q0.328125 0.265625 0.875 0.484375q0.5625 0.203125 1.34375 0.375q1.109375 0.234375 1.96875 0.609375q0.859375 0.359375 1.453125 0.859375q0.609375 0.5 0.90625 1.125q0.3125 0.625 0.3125 1.34375q0 1.34375 -0.625 2.328125q-0.609375 0.96875 -1.75 1.5q-1.140625 0.53125 -2.71875 0.53125zm10.82373 -0.203125l0 -11.921875l-3.921875 0l0 -2.078125l10.109375 0l0 2.078125l-4.03125 0l0 11.921875l-2.15625 0zm6.3950195 0l5.421875 -14.0l2.203125 0l5.375 14.0l-2.296875 0l-3.203125 -8.4375q-0.0625 -0.140625 -0.234375 -0.671875q-0.171875 -0.546875 -0.390625 -1.203125q-0.21875 -0.671875 -0.40625 -1.21875q-0.171875 -0.546875 -0.234375 -0.703125l0.46875 -0.03125q-0.125 0.34375 -0.296875 0.875q-0.171875 0.515625 -0.359375 1.09375q-0.1875 0.578125 -0.375 1.09375q-0.171875 0.5 -0.296875 0.84375l-3.171875 8.359375l-2.203125 0zm2.40625 -3.484375l0.796875 -2.078125l6.359375 0l0.921875 2.078125l-8.078125 0zm13.046875 3.484375l0 -14.0l5.96875 0q1.203125 0 2.203125 0.59375q1.015625 0.59375 1.609375 1.609375q0.609375 1.0 0.609375 2.25q0 1.140625 -0.609375 2.125q-0.59375 0.984375 -1.59375 1.578125q-1.0 0.578125 -2.21875 0.578125l-3.796875 0l0 5.265625l-2.171875 0zm8.328125 0l-3.5625 -6.3125l2.21875 -0.5l3.96875 6.828125l-2.625 -0.015625zm-6.15625 -7.34375l4.0 0q0.578125 0 1.03125 -0.28125q0.46875 -0.296875 0.71875 -0.796875q0.265625 -0.515625 0.265625 -1.140625q0 -0.703125 -0.328125 -1.21875q-0.328125 -0.53125 -0.921875 -0.828125q-0.59375 -0.3125 -1.328125 -0.3125l-3.4375 0l0 4.578125zm14.0 7.34375l0 -11.921875l-3.921875 0l0 -2.078125l10.109375 0l0 2.078125l-4.03125 0l0 11.921875l-2.15625 0z" fill-rule="nonzero"/><path fill="#cfe2f3" d="m271.50394 23.944881l181.89502 0l0 65.291336l-181.89502 0z" fill-rule="evenodd"/><path stroke="#000000" stroke-width="1.0" stroke-linejoin="round" stroke-linecap="butt" d="m271.50394 23.944881l181.89502 0l0 65.291336l-181.89502 0z" fill-rule="evenodd"/><path fill="#000000" d="m342.36896 63.79055l0 -2.0l2.265625 0l0 -10.0l-2.265625 0l0 -2.0l6.6875 0l0 2.0l-2.265625 0l0 10.0l2.265625 0l0 2.0l-6.6875 0zm14.722504 -6.625l0 -1.796875l9.3125 0l0 1.796875l-9.3125 0zm0 3.78125l0 -1.78125l9.3125 0l0 1.78125l-9.3125 0zm17.779358 2.84375l-0.65625 -1.640625l4.28125 -4.8125q0.328125 -0.359375 0.703125 -0.828125q0.375 -0.484375 0.703125 -0.984375q0.34375 -0.5 0.546875 -0.984375q0.21875 -0.484375 0.21875 -0.9375q0 -0.625 -0.25 -1.078125q-0.25 -0.453125 -0.71875 -0.6875q-0.46875 -0.25 -1.125 -0.25q-0.578125 0 -1.140625 0.34375q-0.5625 0.34375 -1.03125 0.96875q-0.453125 0.609375 -0.703125 1.4375l-1.671875 -1.046875q0.34375 -1.15625 1.03125 -1.984375q0.6875 -0.828125 1.65625 -1.265625q0.984375 -0.453125 2.109375 -0.453125q1.1875 0 2.109375 0.5q0.921875 0.484375 1.4375 1.359375q0.515625 0.859375 0.515625 2.0q0 0.578125 -0.15625 1.1875q-0.15625 0.609375 -0.515625 1.28125q-0.34375 0.65625 -0.890625 1.390625q-0.53125 0.71875 -1.296875 1.546875l-3.171875 3.453125l-0.40625 -0.59375l6.875 0l0 2.078125l-8.453125 0z" fill-rule="nonzero"/><path fill="#ff9900" d="m477.17236 584.0l76.40686 0l0 0c10.0095215 0 18.12384 10.965149 18.12384 24.491333c0 13.526184 -8.114319 24.491333 -18.12384 24.491333l-76.40686 0l0 0c-10.009491 0 -18.12381 -10.965149 -18.12381 -24.491333c0 -13.526184 8.114319 -24.491333 18.12381 -24.491333z" fill-rule="evenodd"/><path stroke="#000000" stroke-width="1.0" stroke-linejoin="round" stroke-linecap="butt" d="m477.17236 584.0l76.40686 0l0 0c10.0095215 0 18.12384 10.965149 18.12384 24.491333c0 13.526184 -8.114319 24.491333 -18.12384 24.491333l-76.40686 0l0 0c-10.009491 0 -18.12381 -10.965149 -18.12381 -24.491333c0 -13.526184 8.114319 -24.491333 18.12381 -24.491333z" fill-rule="evenodd"/><path fill="#000000" d="m495.79706 615.8945q-1.71875 0 -3.03125 -0.671875q-1.3125 -0.6875 -2.25 -2.046875l1.484375 -1.703125q0.96875 1.40625 1.875 1.953125q0.90625 0.53125 2.140625 0.53125q0.765625 0 1.375 -0.234375q0.625 -0.25 0.984375 -0.671875q0.359375 -0.421875 0.359375 -0.953125q0 -0.359375 -0.125 -0.671875q-0.109375 -0.328125 -0.359375 -0.59375q-0.25 -0.265625 -0.640625 -0.484375q-0.390625 -0.21875 -0.921875 -0.390625q-0.515625 -0.171875 -1.1875 -0.28125q-1.078125 -0.21875 -1.890625 -0.578125q-0.796875 -0.359375 -1.34375 -0.90625q-0.53125 -0.546875 -0.796875 -1.234375q-0.25 -0.6875 -0.25 -1.546875q0 -1.140625 0.640625 -2.015625q0.640625 -0.890625 1.71875 -1.390625q1.09375 -0.515625 2.453125 -0.515625q1.625 0 2.828125 0.640625q1.21875 0.625 1.921875 1.828125l-1.53125 1.5q-0.59375 -0.984375 -1.421875 -1.5q-0.828125 -0.53125 -1.859375 -0.53125q-0.765625 0 -1.359375 0.25q-0.578125 0.234375 -0.90625 0.671875q-0.328125 0.421875 -0.328125 1.0q0 0.421875 0.15625 0.78125q0.171875 0.34375 0.5 0.609375q0.328125 0.265625 0.875 0.484375q0.5625 0.203125 1.34375 0.375q1.109375 0.234375 1.96875 0.609375q0.859375 0.359375 1.453125 0.859375q0.609375 0.5 0.90625 1.125q0.3125 0.625 0.3125 1.34375q0 1.34375 -0.625 2.328125q-0.609375 0.96875 -1.75 1.5q-1.140625 0.53125 -2.71875 0.53125zm10.823761 -0.203125l0 -11.921875l-3.921875 0l0 -2.078125l10.1093445 0l0 2.078125l-4.0312195 0l0 11.921875l-2.15625 0zm14.107452 0.203125q-1.46875 0 -2.71875 -0.53125q-1.25 -0.546875 -2.1875 -1.515625q-0.921875 -0.96875 -1.4375 -2.28125q-0.515625 -1.3125 -0.515625 -2.875q0 -1.5625 0.515625 -2.875q0.515625 -1.3125 1.4375 -2.28125q0.9375 -0.96875 2.1875 -1.5q1.25 -0.546875 2.71875 -0.546875q1.484375 0 2.734375 0.546875q1.25 0.53125 2.171875 1.515625q0.9375 0.984375 1.453125 2.296875q0.515625 1.296875 0.515625 2.84375q0 1.546875 -0.515625 2.859375q-0.515625 1.296875 -1.453125 2.28125q-0.921875 0.984375 -2.171875 1.53125q-1.25 0.53125 -2.734375 0.53125zm0 -2.109375q1.03125 0 1.875 -0.375q0.859375 -0.375 1.46875 -1.0625q0.625 -0.703125 0.96875 -1.625q0.359375 -0.9375 0.359375 -2.03125q0 -1.09375 -0.359375 -2.015625q-0.34375 -0.9375 -0.96875 -1.625q-0.609375 -0.703125 -1.46875 -1.078125q-0.84375 -0.375 -1.875 -0.375q-1.015625 0 -1.875 0.375q-0.84375 0.375 -1.46875 1.0625q-0.625 0.671875 -0.96875 1.609375q-0.34375 0.921875 -0.34375 2.046875q0 1.484375 0.59375 2.640625q0.609375 1.140625 1.65625 1.796875q1.046875 0.65625 2.40625 0.65625zm9.78064 1.90625l0 -14.0l5.703125 0q1.140625 0 2.0625 0.578125q0.9375 0.5625 1.5 1.546875q0.5625 0.96875 0.5625 2.171875q0 1.203125 -0.5625 2.1875q-0.5625 0.96875 -1.5 1.5625q-0.921875 0.59375 -2.0625 0.59375l-3.53125 0l0 5.359375l-2.171875 0zm2.171875 -7.4375l3.5 0q0.53125 0 0.96875 -0.3125q0.453125 -0.3125 0.71875 -0.8125q0.265625 -0.515625 0.265625 -1.140625q0 -0.609375 -0.265625 -1.109375q-0.265625 -0.5 -0.71875 -0.796875q-0.4375 -0.3125 -0.96875 -0.3125l-3.5 0l0 4.484375z" fill-rule="nonzero"/><path fill="#000000" fill-opacity="0.0" d="m453.39633 195.02493l58.677155 0l0 215.24411" fill-rule="evenodd"/><path stroke="#000000" stroke-width="2.0" stroke-linejoin="round" stroke-linecap="butt" d="m453.39633 195.02493l58.677155 0l0 203.24411" fill-rule="evenodd"/><path fill="#000000" stroke="#000000" stroke-width="2.0" stroke-linecap="butt" d="m508.77002 398.26904l3.3034668 9.076172l3.3034668 -9.076172z" fill-rule="evenodd"/><path fill="#000000" fill-opacity="0.0" d="m11.95538 648.8189l322.83466 0l0 33.921265l-322.83466 0z" fill-rule="evenodd"/><path fill="#000000" d="m27.799131 667.29205q0.125 0 0.21875 0.109375l0.640625 0.6875q-0.53125 0.65625 -1.296875 1.0q-0.765625 0.34375 -1.859375 0.34375q-0.953125 0 -1.734375 -0.328125q-0.765625 -0.328125 -1.3125 -0.90625q-0.546875 -0.59375 -0.84375 -1.40625q-0.28125 -0.828125 -0.28125 -1.796875q0 -0.96875 0.3125 -1.78125q0.328125 -0.8125 0.921875 -1.40625q0.59375 -0.59375 1.40625 -0.90625q0.8125 -0.328125 1.8125 -0.328125q0.96875 0 1.6875 0.3125q0.71875 0.296875 1.234375 0.8125l-0.53125 0.75q-0.0625 0.0625 -0.140625 0.125q-0.0625 0.046875 -0.203125 0.046875q-0.125 0 -0.28125 -0.109375q-0.140625 -0.109375 -0.359375 -0.234375q-0.21875 -0.125 -0.5625 -0.21875q-0.34375 -0.109375 -0.859375 -0.109375q-0.609375 0 -1.125 0.21875q-0.515625 0.203125 -0.890625 0.59375q-0.359375 0.390625 -0.578125 0.96875q-0.203125 0.5625 -0.203125 1.265625q0 0.734375 0.203125 1.3125q0.21875 0.5625 0.5625 0.953125q0.359375 0.390625 0.84375 0.609375q0.484375 0.203125 1.03125 0.203125q0.328125 0 0.59375 -0.03125q0.265625 -0.046875 0.484375 -0.125q0.234375 -0.078125 0.4375 -0.203125q0.203125 -0.125 0.390625 -0.296875q0.0625 -0.0625 0.125 -0.09375q0.078125 -0.03125 0.15625 -0.03125zm10.405424 -2.296875q0 0.953125 -0.328125 1.765625q-0.3125 0.8125 -0.890625 1.421875q-0.578125 0.59375 -1.390625 0.921875q-0.796875 0.328125 -1.78125 0.328125q-0.984375 0 -1.796875 -0.328125q-0.8124981 -0.328125 -1.4062481 -0.921875q-0.578125 -0.609375 -0.890625 -1.421875q-0.3125 -0.8125 -0.3125 -1.765625q0 -0.953125 0.3125 -1.765625q0.3125 -0.8125 0.890625 -1.40625q0.59375 -0.59375 1.4062481 -0.921875q0.8125 -0.328125 1.796875 -0.328125q0.984375 0 1.78125 0.34375q0.8125 0.328125 1.390625 0.921875q0.578125 0.578125 0.890625 1.390625q0.328125 0.8125 0.328125 1.765625zm-1.65625 0q0 -0.703125 -0.203125 -1.265625q-0.1875 -0.578125 -0.546875 -0.96875q-0.34375 -0.40625 -0.859375 -0.609375q-0.5 -0.203125 -1.125 -0.203125q-0.640625 0 -1.15625 0.203125q-0.5 0.203125 -0.8593731 0.609375q-0.359375 0.390625 -0.5625 0.96875q-0.1875 0.5625 -0.1875 1.265625q0 0.71875 0.1875 1.296875q0.203125 0.5625 0.5625 0.953125q0.3593731 0.390625 0.8593731 0.609375q0.515625 0.203125 1.15625 0.203125q0.625 0 1.125 -0.203125q0.515625 -0.21875 0.859375 -0.609375q0.359375 -0.390625 0.546875 -0.953125q0.203125 -0.578125 0.203125 -1.296875zm4.5940704 1.296875l0 3.046875l-1.609375 0l0 -8.671875l2.8125 0q0.875 0 1.5 0.203125q0.640625 0.203125 1.046875 0.578125q0.421875 0.359375 0.625 0.875q0.203125 0.5 0.203125 1.109375q0 0.625 -0.21875 1.15625q-0.203125 0.515625 -0.625 0.90625q-0.421875 0.375 -1.046875 0.59375q-0.625 0.203125 -1.484375 0.203125l-1.203125 0zm0 -1.265625l1.203125 0q0.453125 0 0.78125 -0.109375q0.328125 -0.109375 0.546875 -0.3125q0.21875 -0.21875 0.328125 -0.515625q0.109375 -0.296875 0.109375 -0.65625q0 -0.359375 -0.109375 -0.640625q-0.109375 -0.28125 -0.328125 -0.46875q-0.21875 -0.203125 -0.546875 -0.296875q-0.328125 -0.109375 -0.78125 -0.109375l-1.203125 0l0 3.109375zm9.687546 0.9375l0 3.375l-1.609375 0l0 -3.375l-3.171875 -5.296875l1.421875 0q0.21875 0 0.34375 0.109375q0.125 0.09375 0.203125 0.25l1.59375 2.890625q0.125 0.265625 0.234375 0.5q0.109375 0.21875 0.1875 0.453125q0.078125 -0.234375 0.171875 -0.46875q0.109375 -0.234375 0.234375 -0.484375l1.578125 -2.890625q0.078125 -0.140625 0.203125 -0.25q0.140625 -0.109375 0.34375 -0.109375l1.421875 0l-3.15625 5.296875zm5.6665497 -0.015625l0 3.390625l-1.609375 0l0 -8.671875l2.640625 0q0.890625 0 1.515625 0.1875q0.640625 0.171875 1.046875 0.5q0.40625 0.328125 0.59375 0.796875q0.1875 0.453125 0.1875 1.0q0 0.453125 -0.140625 0.84375q-0.125 0.375 -0.375 0.703125q-0.234375 0.3125 -0.59375 0.5625q-0.359375 0.234375 -0.8125 0.375q0.3125 0.171875 0.53125 0.5l2.171875 3.203125l-1.453125 0q-0.203125 0 -0.359375 -0.078125q-0.140625 -0.09375 -0.25 -0.25l-1.8125 -2.78125q-0.109375 -0.15625 -0.234375 -0.21875q-0.125 -0.0625 -0.359375 -0.0625l-0.6875 0zm0 -1.15625l1.0 0q0.46875 0 0.796875 -0.109375q0.34375 -0.125 0.5625 -0.3125q0.21875 -0.203125 0.328125 -0.484375q0.109375 -0.28125 0.109375 -0.609375q0 -0.65625 -0.4375 -1.0q-0.4375 -0.359375 -1.328125 -0.359375l-1.03125 0l0 2.875zm8.00069 4.546875l-1.6093788 0l0 -8.671875l1.6093788 0l0 8.671875zm5.9398956 -1.1875q0.546875 0 0.953125 -0.09375q0.40625 -0.109375 0.765625 -0.28125l0 -1.578125l-1.078125 0q-0.15625 0 -0.25 -0.078125q-0.09375 -0.09375 -0.09375 -0.21875l0 -0.90625l2.890625 0l0 3.5q-0.328125 0.25 -0.6875 0.421875q-0.359375 0.171875 -0.765625 0.296875q-0.40625 0.109375 -0.875 0.15625q-0.453125 0.0625 -0.984375 0.0625q-0.953125 0 -1.75 -0.328125q-0.796875 -0.328125 -1.375 -0.90625q-0.578125 -0.59375 -0.90625 -1.40625q-0.328125 -0.828125 -0.328125 -1.796875q0 -0.96875 0.3125 -1.78125q0.328125 -0.828125 0.90625 -1.40625q0.578125 -0.59375 1.40625 -0.90625q0.84375 -0.328125 1.890625 -0.328125q1.0625 0 1.828125 0.3125q0.78125 0.3125 1.328125 0.8125l-0.46875 0.734375q-0.140625 0.21875 -0.375 0.21875q-0.140625 0 -0.296875 -0.09375q-0.1875 -0.109375 -0.390625 -0.21875q-0.203125 -0.125 -0.453125 -0.203125q-0.234375 -0.09375 -0.546875 -0.140625q-0.296875 -0.046875 -0.6875 -0.046875q-0.640625 0 -1.15625 0.21875q-0.515625 0.203125 -0.890625 0.609375q-0.359375 0.40625 -0.5625 0.96875q-0.203125 0.5625 -0.203125 1.25q0 0.75 0.203125 1.34375q0.21875 0.578125 0.59375 0.984375q0.390625 0.40625 0.90625 0.625q0.515625 0.203125 1.140625 0.203125zm12.019806 1.1875l-1.640625 0l0 -3.796875l-4.0625 0l0 3.796875l-1.625 0l0 -8.671875l1.625 0l0 3.734375l4.0625 0l0 -3.734375l1.640625 0l0 8.671875zm7.8533173 -8.671875l0 1.328125l-2.609375 0l0 7.34375l-1.609375 0l0 -7.34375l-2.625 0l0 -1.328125l6.84375 0zm8.581055 5.59375q0.0625 0 0.109375 0.03125q0.0625 0.03125 0.09375 0.078125l0.484375 0.515625q-0.328125 0.4375 -0.84375 0.65625q-0.5 0.21875 -1.1875 0.21875q-0.609375 0 -1.09375 -0.203125q-0.484375 -0.21875 -0.828125 -0.59375q-0.34375 -0.375 -0.53125 -0.875q-0.1875 -0.515625 -0.1875 -1.109375q0 -0.609375 0.203125 -1.109375q0.21875 -0.515625 0.578125 -0.875q0.375 -0.375 0.875 -0.578125q0.515625 -0.21875 1.09375 -0.21875q0.671875 0 1.140625 0.234375q0.484375 0.21875 0.8125 0.5625l-0.390625 0.546875q-0.03125 0.046875 -0.09375 0.09375q-0.0625 0.046875 -0.15625 0.046875q-0.109375 0 -0.203125 -0.0625q-0.09375 -0.0625 -0.21875 -0.125q-0.125 -0.078125 -0.3125 -0.140625q-0.1875 -0.0625 -0.5 -0.0625q-0.359375 0 -0.640625 0.125q-0.28125 0.109375 -0.484375 0.328125q-0.1875 0.21875 -0.296875 0.53125q-0.09375 0.3125 -0.09375 0.703125q0 0.40625 0.09375 0.71875q0.109375 0.3125 0.296875 0.53125q0.1875 0.21875 0.4375 0.328125q0.265625 0.109375 0.5625 0.109375q0.296875 0 0.484375 -0.046875q0.1875 -0.046875 0.3125 -0.109375q0.140625 -0.078125 0.234375 -0.140625q0.109375 -0.0625 0.25 -0.109375zm-5.796875 -1.265625q0 -0.609375 0.15625 -1.171875q0.171875 -0.5625 0.453125 -1.046875q0.296875 -0.5 0.6875 -0.90625q0.40625 -0.40625 0.890625 -0.6875q0.5 -0.296875 1.0625 -0.453125q0.578125 -0.15625 1.1875 -0.15625q0.609375 0 1.171875 0.15625q0.5625 0.15625 1.046875 0.453125q0.5 0.28125 0.90625 0.6875q0.40625 0.40625 0.6875 0.90625q0.296875 0.484375 0.453125 1.046875q0.171875 0.5625 0.171875 1.171875q0 0.609375 -0.171875 1.1875q-0.15625 0.5625 -0.453125 1.046875q-0.28125 0.484375 -0.6875 0.890625q-0.40625 0.40625 -0.90625 0.703125q-0.484375 0.28125 -1.046875 0.4375q-0.5625 0.15625 -1.171875 0.15625q-0.609375 0 -1.1875 -0.15625q-0.5625 -0.15625 -1.0625 -0.4375q-0.484375 -0.296875 -0.890625 -0.703125q-0.390625 -0.40625 -0.6875 -0.890625q-0.28125 -0.484375 -0.453125 -1.046875q-0.15625 -0.5625 -0.15625 -1.1875zm0.8125 0q0 0.78125 0.28125 1.46875q0.28125 0.671875 0.765625 1.171875q0.484375 0.5 1.140625 0.796875q0.671875 0.28125 1.4375 0.28125q0.765625 0 1.421875 -0.28125q0.671875 -0.296875 1.15625 -0.796875q0.5 -0.5 0.78125 -1.171875q0.28125 -0.6875 0.28125 -1.46875q0 -0.515625 -0.140625 -0.984375q-0.125 -0.484375 -0.359375 -0.90625q-0.234375 -0.421875 -0.5625 -0.75q-0.328125 -0.34375 -0.734375 -0.578125q-0.40625 -0.25 -0.875 -0.375q-0.46875 -0.140625 -0.96875 -0.140625q-0.515625 0 -0.984375 0.140625q-0.453125 0.125 -0.859375 0.375q-0.40625 0.234375 -0.734375 0.578125q-0.328125 0.328125 -0.5625 0.75q-0.234375 0.421875 -0.359375 0.90625q-0.125 0.46875 -0.125 0.984375zm13.610947 -1.921875q0.390625 0 0.734375 0.078125q0.359375 0.078125 0.640625 0.234375l1.78125 0l0 0.5625q0 0.140625 -0.078125 0.21875q-0.078125 0.078125 -0.25 0.109375l-0.546875 0.09375q0.0625 0.15625 0.09375 0.328125q0.03125 0.171875 0.03125 0.375q0 0.453125 -0.1875 0.828125q-0.171875 0.359375 -0.5 0.625q-0.328125 0.25 -0.765625 0.390625q-0.4375 0.140625 -0.953125 0.140625q-0.34375 0 -0.671875 -0.0625q-0.296875 0.171875 -0.296875 0.390625q0 0.1875 0.171875 0.28125q0.171875 0.078125 0.453125 0.109375q0.28125 0.03125 0.625 0.046875q0.359375 0.015625 0.734375 0.046875q0.375 0.015625 0.71875 0.09375q0.359375 0.078125 0.640625 0.25q0.28125 0.15625 0.453125 0.4375q0.171875 0.28125 0.171875 0.71875q0 0.40625 -0.203125 0.78125q-0.203125 0.390625 -0.59375 0.6875q-0.375 0.296875 -0.9375 0.484375q-0.546875 0.1875 -1.25 0.1875q-0.703125 0 -1.21875 -0.140625q-0.515625 -0.140625 -0.859375 -0.359375q-0.328125 -0.21875 -0.5 -0.515625q-0.171875 -0.296875 -0.171875 -0.609375q0 -0.4375 0.265625 -0.734375q0.265625 -0.296875 0.734375 -0.46875q-0.234375 -0.125 -0.375 -0.328125q-0.125 -0.21875 -0.125 -0.546875q0 -0.140625 0.046875 -0.28125q0.046875 -0.15625 0.140625 -0.296875q0.109375 -0.140625 0.25 -0.265625q0.15625 -0.140625 0.359375 -0.234375q-0.46875 -0.265625 -0.734375 -0.671875q-0.265625 -0.421875 -0.265625 -0.984375q0 -0.46875 0.171875 -0.828125q0.1875 -0.375 0.515625 -0.625q0.328125 -0.265625 0.765625 -0.40625q0.453125 -0.140625 0.984375 -0.140625zm1.625 6.546875q0 -0.1875 -0.109375 -0.296875q-0.109375 -0.109375 -0.296875 -0.171875q-0.1875 -0.078125 -0.4375 -0.09375q-0.234375 -0.03125 -0.515625 -0.046875q-0.28125 -0.015625 -0.578125 -0.03125q-0.296875 -0.015625 -0.578125 -0.046875q-0.25 0.125 -0.40625 0.328125q-0.15625 0.1875 -0.15625 0.421875q0 0.171875 0.078125 0.3125q0.09375 0.140625 0.265625 0.234375q0.171875 0.109375 0.453125 0.15625q0.296875 0.0625 0.703125 0.0625q0.40625 0 0.703125 -0.0625q0.3125 -0.0625 0.5 -0.171875q0.203125 -0.109375 0.28125 -0.265625q0.09375 -0.15625 0.09375 -0.328125zm-1.625 -3.515625q0.28125 0 0.484375 -0.0625q0.203125 -0.078125 0.328125 -0.203125q0.140625 -0.140625 0.203125 -0.328125q0.078125 -0.1875 0.078125 -0.40625q0 -0.453125 -0.28125 -0.71875q-0.265625 -0.265625 -0.8125 -0.265625q-0.546875 0 -0.828125 0.265625q-0.265625 0.265625 -0.265625 0.71875q0 0.21875 0.0625 0.40625q0.078125 0.1875 0.203125 0.328125q0.140625 0.125 0.34375 0.203125q0.21875 0.0625 0.484375 0.0625zm5.663162 -2.921875l0 6.15625l-1.484375 0l0 -6.15625l1.484375 0zm0.21875 -1.796875q0 0.1875 -0.078125 0.359375q-0.078125 0.171875 -0.21875 0.296875q-0.125 0.125 -0.296875 0.203125q-0.171875 0.078125 -0.375 0.078125q-0.1875 0 -0.359375 -0.078125q-0.171875 -0.078125 -0.296875 -0.203125q-0.125 -0.125 -0.203125 -0.296875q-0.0625 -0.171875 -0.0625 -0.359375q0 -0.1875 0.0625 -0.359375q0.078125 -0.1875 0.203125 -0.3125q0.125 -0.125 0.296875 -0.1875q0.171875 -0.078125 0.359375 -0.078125q0.203125 0 0.375 0.078125q0.171875 0.0625 0.296875 0.1875q0.140625 0.125 0.21875 0.3125q0.078125 0.171875 0.078125 0.359375zm3.4707794 8.046875q-0.796875 0 -1.234375 -0.453125q-0.421875 -0.453125 -0.421875 -1.25l0 -3.4375l-0.625 0q-0.125 0 -0.21875 -0.078125q-0.078125 -0.078125 -0.078125 -0.234375l0 -0.59375l0.984375 -0.15625l0.3125 -1.671875q0.03125 -0.125 0.109375 -0.1875q0.09375 -0.078125 0.21875 -0.078125l0.78125 0l0 1.9375l1.609375 0l0 1.0625l-1.609375 0l0 3.34375q0 0.28125 0.140625 0.453125q0.140625 0.15625 0.375 0.15625q0.140625 0 0.234375 -0.03125q0.09375 -0.03125 0.15625 -0.0625q0.078125 -0.046875 0.125 -0.078125q0.0625 -0.03125 0.109375 -0.03125q0.078125 0 0.109375 0.03125q0.046875 0.03125 0.09375 0.09375l0.4375 0.71875q-0.3125 0.265625 -0.734375 0.40625q-0.421875 0.140625 -0.875 0.140625zm2.6284027 -0.09375l0 -8.921875l1.484375 0l0 3.4375q0.359375 -0.34375 0.78125 -0.546875q0.4375 -0.21875 1.015625 -0.21875q0.5 0 0.890625 0.171875q0.390625 0.171875 0.65625 0.484375q0.265625 0.296875 0.390625 0.734375q0.140625 0.421875 0.140625 0.9375l0 3.921875l-1.484375 0l0 -3.921875q0 -0.5625 -0.265625 -0.859375q-0.25 -0.3125 -0.78125 -0.3125q-0.375 0 -0.71875 0.171875q-0.328125 0.171875 -0.625 0.46875l0 4.453125l-1.484375 0zm8.165802 -6.15625l0 3.90625q0 0.5625 0.265625 0.875q0.265625 0.3125 0.78125 0.3125q0.390625 0 0.71875 -0.171875q0.34375 -0.171875 0.640625 -0.46875l0 -4.453125l1.484375 0l0 6.15625l-0.90625 0q-0.28125 0 -0.375 -0.265625l-0.109375 -0.5q-0.1875 0.203125 -0.390625 0.359375q-0.203125 0.15625 -0.4375 0.265625q-0.234375 0.109375 -0.5 0.171875q-0.265625 0.0625 -0.578125 0.0625q-0.5 0 -0.890625 -0.171875q-0.375 -0.171875 -0.640625 -0.484375q-0.265625 -0.3125 -0.40625 -0.734375q-0.125 -0.4375 -0.125 -0.953125l0 -3.90625l1.46875 0zm5.493927 6.15625l0 -8.921875l1.484375 0l0 3.515625q0.359375 -0.390625 0.8125 -0.609375q0.46875 -0.234375 1.09375 -0.234375q0.5 0 0.90625 0.203125q0.421875 0.203125 0.71875 0.609375q0.3125 0.390625 0.46875 0.984375q0.171875 0.578125 0.171875 1.328125q0 0.6875 -0.1875 1.28125q-0.171875 0.578125 -0.53125 1.015625q-0.34375 0.4375 -0.828125 0.6875q-0.484375 0.234375 -1.09375 0.234375q-0.28125 0 -0.515625 -0.0625q-0.234375 -0.0625 -0.4375 -0.15625q-0.1875 -0.109375 -0.359375 -0.25q-0.15625 -0.140625 -0.296875 -0.328125l-0.078125 0.421875q-0.03125 0.15625 -0.125 0.21875q-0.078125 0.0625 -0.234375 0.0625l-0.96875 0zm2.875 -5.09375q-0.453125 0 -0.78125 0.203125q-0.328125 0.1875 -0.609375 0.53125l0 2.765625q0.25 0.3125 0.546875 0.4375q0.296875 0.125 0.640625 0.125q0.34375 0 0.609375 -0.125q0.265625 -0.140625 0.453125 -0.390625q0.1875 -0.265625 0.28125 -0.65625q0.109375 -0.390625 0.109375 -0.921875q0 -0.546875 -0.09375 -0.921875q-0.078125 -0.375 -0.234375 -0.609375q-0.15625 -0.234375 -0.390625 -0.328125q-0.234375 -0.109375 -0.53125 -0.109375zm3.590042 4.28125q0 -0.1875 0.0625 -0.359375q0.078125 -0.171875 0.203125 -0.28125q0.125 -0.125 0.28125 -0.1875q0.171875 -0.078125 0.359375 -0.078125q0.1875 0 0.359375 0.078125q0.171875 0.0625 0.28125 0.1875q0.125 0.109375 0.1875 0.28125q0.078125 0.171875 0.078125 0.359375q0 0.1875 -0.078125 0.359375q-0.0625 0.15625 -0.1875 0.28125q-0.109375 0.125 -0.28125 0.1875q-0.171875 0.0625 -0.359375 0.0625q-0.1875 0 -0.359375 -0.0625q-0.15625 -0.0625 -0.28125 -0.1875q-0.125 -0.125 -0.203125 -0.28125q-0.0625 -0.171875 -0.0625 -0.359375zm7.387512 -4.046875q-0.078125 0.09375 -0.140625 0.140625q-0.0625 0.046875 -0.171875 0.046875q-0.125 0 -0.234375 -0.0625q-0.109375 -0.078125 -0.265625 -0.15625q-0.140625 -0.09375 -0.34375 -0.15625q-0.203125 -0.078125 -0.515625 -0.078125q-0.390625 0 -0.6875 0.140625q-0.28125 0.140625 -0.484375 0.40625q-0.1875 0.265625 -0.296875 0.640625q-0.09375 0.375 -0.09375 0.84375q0 0.5 0.109375 0.890625q0.109375 0.375 0.296875 0.640625q0.203125 0.25 0.484375 0.390625q0.28125 0.140625 0.640625 0.140625q0.359375 0 0.578125 -0.09375q0.21875 -0.09375 0.359375 -0.1875q0.15625 -0.109375 0.265625 -0.1875q0.109375 -0.09375 0.25 -0.09375q0.171875 0 0.265625 0.140625l0.421875 0.53125q-0.234375 0.296875 -0.53125 0.5q-0.28125 0.1875 -0.59375 0.3125q-0.3125 0.109375 -0.640625 0.15625q-0.328125 0.046875 -0.65625 0.046875q-0.5625 0 -1.078125 -0.21875q-0.5 -0.21875 -0.875 -0.625q-0.375 -0.40625 -0.59375 -0.984375q-0.21875 -0.59375 -0.21875 -1.359375q0 -0.671875 0.1875 -1.25q0.203125 -0.578125 0.578125 -1.0q0.390625 -0.421875 0.9375 -0.65625q0.5625 -0.25 1.28125 -0.25q0.703125 0 1.21875 0.21875q0.515625 0.21875 0.9375 0.640625l-0.390625 0.53125zm4.02092 -1.390625q0.6875 0 1.25 0.21875q0.5625 0.21875 0.953125 0.640625q0.40625 0.40625 0.609375 1.0q0.21875 0.578125 0.21875 1.296875q0 0.734375 -0.21875 1.328125q-0.203125 0.578125 -0.609375 1.0q-0.390625 0.40625 -0.953125 0.640625q-0.5625 0.21875 -1.25 0.21875q-0.6875 0 -1.25 -0.21875q-0.5625 -0.234375 -0.96875 -0.640625q-0.40625 -0.421875 -0.625 -1.0q-0.21875 -0.59375 -0.21875 -1.328125q0 -0.71875 0.21875 -1.296875q0.21875 -0.59375 0.625 -1.0q0.40625 -0.421875 0.96875 -0.640625q0.5625 -0.21875 1.25 -0.21875zm0 5.203125q0.765625 0 1.125 -0.515625q0.375 -0.515625 0.375 -1.515625q0 -1.0 -0.375 -1.515625q-0.359375 -0.53125 -1.125 -0.53125q-0.78125 0 -1.15625 0.53125q-0.375 0.53125 -0.375 1.515625q0 0.984375 0.375 1.515625q0.375 0.515625 1.15625 0.515625zm4.197052 1.046875l0 -6.15625l0.90625 0q0.28125 0 0.375 0.265625l0.09375 0.453125q0.15625 -0.171875 0.328125 -0.3125q0.1875 -0.15625 0.390625 -0.265625q0.203125 -0.109375 0.421875 -0.171875q0.234375 -0.0625 0.515625 -0.0625q0.578125 0 0.953125 0.3125q0.375 0.3125 0.5625 0.84375q0.140625 -0.3125 0.359375 -0.53125q0.21875 -0.21875 0.46875 -0.359375q0.265625 -0.140625 0.546875 -0.203125q0.296875 -0.0625 0.59375 -0.0625q0.515625 0 0.90625 0.15625q0.390625 0.15625 0.65625 0.453125q0.28125 0.296875 0.421875 0.734375q0.140625 0.4375 0.140625 0.984375l0 3.921875l-1.484375 0l0 -3.921875q0 -0.578125 -0.265625 -0.875q-0.25 -0.296875 -0.75 -0.296875q-0.21875 0 -0.421875 0.078125q-0.1875 0.078125 -0.34375 0.21875q-0.140625 0.140625 -0.234375 0.375q-0.078125 0.21875 -0.078125 0.5l0 3.921875l-1.484375 0l0 -3.921875q0 -0.609375 -0.25 -0.890625q-0.25 -0.28125 -0.734375 -0.28125q-0.3125 0 -0.59375 0.15625q-0.28125 0.15625 -0.515625 0.4375l0 4.5l-1.484375 0zm10.61969 0.015625q-0.0625 0.140625 -0.140625 0.234375q-0.078125 0.109375 -0.1875 0.171875q-0.109375 0.078125 -0.234375 0.109375q-0.125 0.03125 -0.234375 0.03125l-0.625 0l3.5 -8.953125q0.109375 -0.25 0.296875 -0.390625q0.1875 -0.140625 0.46875 -0.140625l0.625 0l-3.46875 8.9375zm11.534653 -0.015625l-1.640625 0l0 -3.796875l-4.0625 0l0 3.796875l-1.625 0l0 -8.671875l1.625 0l0 3.734375l4.0625 0l0 -3.734375l1.640625 0l0 8.671875zm5.2439423 -1.296875q0.46875 0 0.828125 -0.15625q0.375 -0.15625 0.625 -0.4375q0.25 -0.28125 0.390625 -0.6875q0.140625 -0.40625 0.140625 -0.90625l0 -5.1875l1.609375 0l0 5.1875q0 0.78125 -0.25 1.4375q-0.25 0.65625 -0.71875 1.140625q-0.46875 0.46875 -1.140625 0.734375q-0.65625 0.265625 -1.484375 0.265625q-0.84375 0 -1.515625 -0.265625q-0.65625 -0.265625 -1.125 -0.734375q-0.46875 -0.484375 -0.71875 -1.140625q-0.234375 -0.65625 -0.234375 -1.4375l0 -5.1875l1.609375 0l0 5.1875q0 0.5 0.125 0.90625q0.140625 0.390625 0.390625 0.6875q0.25 0.28125 0.625 0.4375q0.375 0.15625 0.84375 0.15625zm11.345444 -7.375l0 1.328125l-2.609375 0l0 7.34375l-1.609375 0l0 -7.34375l-2.625 0l0 -1.328125l6.84375 0zm-0.33058167 4.4375l3.109375 0l0 1.234375l-3.109375 0l0 -1.234375zm10.558029 2.1875q0.125 0 0.21875 0.109375l0.640625 0.6875q-0.53125 0.65625 -1.296875 1.0q-0.765625 0.34375 -1.859375 0.34375q-0.953125 0 -1.734375 -0.328125q-0.765625 -0.328125 -1.3125 -0.90625q-0.546875 -0.59375 -0.84375 -1.40625q-0.28125 -0.828125 -0.28125 -1.796875q0 -0.96875 0.3125 -1.78125q0.328125 -0.8125 0.921875 -1.40625q0.59375 -0.59375 1.40625 -0.90625q0.8125 -0.328125 1.8125 -0.328125q0.96875 0 1.6875 0.3125q0.71875 0.296875 1.234375 0.8125l-0.53125 0.75q-0.0625 0.0625 -0.140625 0.125q-0.0625 0.046875 -0.203125 0.046875q-0.125 0 -0.28125 -0.109375q-0.140625 -0.109375 -0.359375 -0.234375q-0.21875 -0.125 -0.5625 -0.21875q-0.34375 -0.109375 -0.859375 -0.109375q-0.609375 0 -1.125 0.21875q-0.515625 0.203125 -0.890625 0.59375q-0.359375 0.390625 -0.578125 0.96875q-0.203125 0.5625 -0.203125 1.265625q0 0.734375 0.203125 1.3125q0.21875 0.5625 0.5625 0.953125q0.359375 0.390625 0.84375 0.609375q0.484375 0.203125 1.03125 0.203125q0.328125 0 0.59375 -0.03125q0.265625 -0.046875 0.484375 -0.125q0.234375 -0.078125 0.4375 -0.203125q0.203125 -0.125 0.390625 -0.296875q0.0625 -0.0625 0.125 -0.09375q0.078125 -0.03125 0.15625 -0.03125zm7.546051 -6.625l0 1.28125l-3.84375 0l0 2.40625l3.03125 0l0 1.234375l-3.03125 0l0 2.453125l3.84375 0l0 1.296875l-5.46875 0l0 -8.671875l5.46875 0zm1.8387909 8.6875q-0.0625 0.140625 -0.140625 0.234375q-0.078125 0.109375 -0.1875 0.171875q-0.109375 0.078125 -0.234375 0.109375q-0.125 0.03125 -0.234375 0.03125l-0.625 0l3.5 -8.953125q0.109375 -0.25 0.296875 -0.390625q0.1875 -0.140625 0.46875 -0.140625l0.625 0l-3.46875 8.9375zm5.7065277 -6.171875l0 6.15625l-1.484375 0l0 -6.15625l1.484375 0zm0.21875 -1.796875q0 0.1875 -0.078125 0.359375q-0.078125 0.171875 -0.21875 0.296875q-0.125 0.125 -0.296875 0.203125q-0.171875 0.078125 -0.375 0.078125q-0.1875 0 -0.359375 -0.078125q-0.171875 -0.078125 -0.296875 -0.203125q-0.125 -0.125 -0.203125 -0.296875q-0.0625 -0.171875 -0.0625 -0.359375q0 -0.1875 0.0625 -0.359375q0.078125 -0.1875 0.203125 -0.3125q0.125 -0.125 0.296875 -0.1875q0.171875 -0.078125 0.359375 -0.078125q0.203125 0 0.375 0.078125q0.171875 0.0625 0.296875 0.1875q0.140625 0.125 0.21875 0.3125q0.078125 0.171875 0.078125 0.359375zm1.4551544 7.953125l0 -6.15625l0.90625 0q0.28125 0 0.375 0.265625l0.09375 0.484375q0.1875 -0.1875 0.390625 -0.34375q0.21875 -0.15625 0.4375 -0.265625q0.234375 -0.109375 0.5 -0.171875q0.265625 -0.0625 0.578125 -0.0625q0.5 0 0.890625 0.171875q0.390625 0.171875 0.65625 0.484375q0.265625 0.296875 0.390625 0.734375q0.140625 0.421875 0.140625 0.9375l0 3.921875l-1.484375 0l0 -3.921875q0 -0.5625 -0.265625 -0.859375q-0.25 -0.3125 -0.78125 -0.3125q-0.375 0 -0.71875 0.171875q-0.328125 0.171875 -0.625 0.46875l0 4.453125l-1.484375 0zm8.837677 0.09375q-0.796875 0 -1.234375 -0.453125q-0.421875 -0.453125 -0.421875 -1.25l0 -3.4375l-0.625 0q-0.125 0 -0.21875 -0.078125q-0.078125 -0.078125 -0.078125 -0.234375l0 -0.59375l0.984375 -0.15625l0.3125 -1.671875q0.03125 -0.125 0.109375 -0.1875q0.09375 -0.078125 0.21875 -0.078125l0.78125 0l0 1.9375l1.609375 0l0 1.0625l-1.609375 0l0 3.34375q0 0.28125 0.140625 0.453125q0.140625 0.15625 0.375 0.15625q0.140625 0 0.234375 -0.03125q0.09375 -0.03125 0.15625 -0.0625q0.078125 -0.046875 0.125 -0.078125q0.0625 -0.03125 0.109375 -0.03125q0.078125 0 0.109375 0.03125q0.046875 0.03125 0.09375 0.09375l0.4375 0.71875q-0.3125 0.265625 -0.734375 0.40625q-0.421875 0.140625 -0.875 0.140625zm2.6284027 -0.09375l0 -6.15625l0.859375 0q0.234375 0 0.3125 0.09375q0.09375 0.078125 0.125 0.28125l0.09375 0.734375q0.328125 -0.5625 0.765625 -0.890625q0.453125 -0.328125 1.0 -0.328125q0.46875 0 0.765625 0.203125l-0.1875 1.109375q-0.03125 0.109375 -0.09375 0.15625q-0.046875 0.046875 -0.15625 0.046875q-0.09375 0 -0.25 -0.046875q-0.15625 -0.046875 -0.40625 -0.046875q-0.46875 0 -0.796875 0.265625q-0.328125 0.25 -0.546875 0.75l0 3.828125l-1.484375 0zm7.5270386 -6.25q0.6875 0 1.25 0.21875q0.5625 0.21875 0.953125 0.640625q0.40625 0.40625 0.609375 1.0q0.21875 0.578125 0.21875 1.296875q0 0.734375 -0.21875 1.328125q-0.203125 0.578125 -0.609375 1.0q-0.390625 0.40625 -0.953125 0.640625q-0.5625 0.21875 -1.25 0.21875q-0.6875 0 -1.25 -0.21875q-0.5625 -0.234375 -0.96875 -0.640625q-0.40625 -0.421875 -0.625 -1.0q-0.21875 -0.59375 -0.21875 -1.328125q0 -0.71875 0.21875 -1.296875q0.21875 -0.59375 0.625 -1.0q0.40625 -0.421875 0.96875 -0.640625q0.5625 -0.21875 1.25 -0.21875zm0 5.203125q0.765625 0 1.125 -0.515625q0.375 -0.515625 0.375 -1.515625q0 -1.0 -0.375 -1.515625q-0.359375 -0.53125 -1.125 -0.53125q-0.78125 0 -1.15625 0.53125q-0.375 0.53125 -0.375 1.515625q0 0.984375 0.375 1.515625q0.375 0.515625 1.15625 0.515625zm3.993927 -3.1875l3.109375 0l0 1.234375l-3.109375 0l0 -1.234375zm4.511154 6.25l0 -8.171875l0.90625 0q0.140625 0 0.234375 0.0625q0.109375 0.0625 0.140625 0.203125l0.125 0.578125q0.359375 -0.421875 0.84375 -0.6875q0.484375 -0.265625 1.140625 -0.265625q0.5 0 0.90625 0.21875q0.421875 0.203125 0.71875 0.609375q0.3125 0.390625 0.46875 0.984375q0.171875 0.578125 0.171875 1.328125q0 0.6875 -0.1875 1.28125q-0.1875 0.578125 -0.53125 1.015625q-0.34375 0.4375 -0.828125 0.6875q-0.484375 0.234375 -1.09375 0.234375q-0.53125 0 -0.890625 -0.15625q-0.359375 -0.171875 -0.640625 -0.453125l0 2.53125l-1.484375 0zm2.875 -7.109375q-0.46875 0 -0.796875 0.203125q-0.3125 0.1875 -0.59375 0.53125l0 2.765625q0.25 0.3125 0.546875 0.4375q0.296875 0.125 0.640625 0.125q0.328125 0 0.59375 -0.125q0.28125 -0.140625 0.46875 -0.390625q0.1875 -0.265625 0.28125 -0.65625q0.109375 -0.390625 0.109375 -0.921875q0 -0.546875 -0.09375 -0.921875q-0.078125 -0.375 -0.25 -0.609375q-0.15625 -0.234375 -0.390625 -0.328125q-0.21875 -0.109375 -0.515625 -0.109375zm3.9110413 5.09375l0 -6.15625l0.859375 0q0.234375 0 0.3125 0.09375q0.09375 0.078125 0.125 0.28125l0.09375 0.734375q0.328125 -0.5625 0.765625 -0.890625q0.453125 -0.328125 1.0 -0.328125q0.46875 0 0.765625 0.203125l-0.1875 1.109375q-0.03125 0.109375 -0.09375 0.15625q-0.046875 0.046875 -0.15625 0.046875q-0.09375 0 -0.25 -0.046875q-0.15625 -0.046875 -0.40625 -0.046875q-0.46875 0 -0.796875 0.265625q-0.328125 0.25 -0.546875 0.75l0 3.828125l-1.484375 0zm7.5270386 -6.25q0.6875 0 1.25 0.21875q0.5625 0.21875 0.953125 0.640625q0.40625 0.40625 0.609375 1.0q0.21875 0.578125 0.21875 1.296875q0 0.734375 -0.21875 1.328125q-0.203125 0.578125 -0.609375 1.0q-0.390625 0.40625 -0.953125 0.640625q-0.5625 0.21875 -1.25 0.21875q-0.6875 0 -1.25 -0.21875q-0.5625 -0.234375 -0.96875 -0.640625q-0.40625 -0.421875 -0.625 -1.0q-0.21875 -0.59375 -0.21875 -1.328125q0 -0.71875 0.21875 -1.296875q0.21875 -0.59375 0.625 -1.0q0.40625 -0.421875 0.96875 -0.640625q0.5625 -0.21875 1.25 -0.21875zm0 5.203125q0.765625 0 1.125 -0.515625q0.375 -0.515625 0.375 -1.515625q0 -1.0 -0.375 -1.515625q-0.359375 -0.53125 -1.125 -0.53125q-0.78125 0 -1.15625 0.53125q-0.375 0.53125 -0.375 1.515625q0 0.984375 0.375 1.515625q0.375 0.515625 1.15625 0.515625zm6.322052 -5.21875q0.390625 0 0.734375 0.078125q0.359375 0.078125 0.640625 0.234375l1.78125 0l0 0.5625q0 0.140625 -0.078125 0.21875q-0.078125 0.078125 -0.25 0.109375l-0.546875 0.09375q0.0625 0.15625 0.09375 0.328125q0.03125 0.171875 0.03125 0.375q0 0.453125 -0.1875 0.828125q-0.171875 0.359375 -0.5 0.625q-0.328125 0.25 -0.765625 0.390625q-0.4375 0.140625 -0.953125 0.140625q-0.34375 0 -0.671875 -0.0625q-0.296875 0.171875 -0.296875 0.390625q0 0.1875 0.171875 0.28125q0.171875 0.078125 0.453125 0.109375q0.28125 0.03125 0.625 0.046875q0.359375 0.015625 0.734375 0.046875q0.375 0.015625 0.71875 0.09375q0.359375 0.078125 0.640625 0.25q0.28125 0.15625 0.453125 0.4375q0.171875 0.28125 0.171875 0.71875q0 0.40625 -0.203125 0.78125q-0.203125 0.390625 -0.59375 0.6875q-0.375 0.296875 -0.9375 0.484375q-0.546875 0.1875 -1.25 0.1875q-0.703125 0 -1.21875 -0.140625q-0.515625 -0.140625 -0.859375 -0.359375q-0.328125 -0.21875 -0.5 -0.515625q-0.171875 -0.296875 -0.171875 -0.609375q0 -0.4375 0.265625 -0.734375q0.265625 -0.296875 0.734375 -0.46875q-0.234375 -0.125 -0.375 -0.328125q-0.125 -0.21875 -0.125 -0.546875q0 -0.140625 0.046875 -0.28125q0.046875 -0.15625 0.140625 -0.296875q0.109375 -0.140625 0.25 -0.265625q0.15625 -0.140625 0.359375 -0.234375q-0.46875 -0.265625 -0.734375 -0.671875q-0.265625 -0.421875 -0.265625 -0.984375q0 -0.46875 0.171875 -0.828125q0.1875 -0.375 0.515625 -0.625q0.328125 -0.265625 0.765625 -0.40625q0.453125 -0.140625 0.984375 -0.140625zm1.625 6.546875q0 -0.1875 -0.109375 -0.296875q-0.109375 -0.109375 -0.296875 -0.171875q-0.1875 -0.078125 -0.4375 -0.09375q-0.234375 -0.03125 -0.515625 -0.046875q-0.28125 -0.015625 -0.578125 -0.03125q-0.296875 -0.015625 -0.578125 -0.046875q-0.25 0.125 -0.40625 0.328125q-0.15625 0.1875 -0.15625 0.421875q0 0.171875 0.078125 0.3125q0.09375 0.140625 0.265625 0.234375q0.171875 0.109375 0.453125 0.15625q0.296875 0.0625 0.703125 0.0625q0.40625 0 0.703125 -0.0625q0.3125 -0.0625 0.5 -0.171875q0.203125 -0.109375 0.28125 -0.265625q0.09375 -0.15625 0.09375 -0.328125zm-1.625 -3.515625q0.28125 0 0.484375 -0.0625q0.203125 -0.078125 0.328125 -0.203125q0.140625 -0.140625 0.203125 -0.328125q0.078125 -0.1875 0.078125 -0.40625q0 -0.453125 -0.28125 -0.71875q-0.265625 -0.265625 -0.8125 -0.265625q-0.546875 0 -0.828125 0.265625q-0.265625 0.265625 -0.265625 0.71875q0 0.21875 0.0625 0.40625q0.078125 0.1875 0.203125 0.328125q0.140625 0.125 0.34375 0.203125q0.21875 0.0625 0.484375 0.0625zm4.085022 3.234375l0 -6.15625l0.859375 0q0.234375 0 0.3125 0.09375q0.09375 0.078125 0.125 0.28125l0.09375 0.734375q0.328125 -0.5625 0.765625 -0.890625q0.453125 -0.328125 1.0 -0.328125q0.46875 0 0.765625 0.203125l-0.1875 1.109375q-0.03125 0.109375 -0.09375 0.15625q-0.046875 0.046875 -0.15625 0.046875q-0.09375 0 -0.25 -0.046875q-0.15625 -0.046875 -0.40625 -0.046875q-0.46875 0 -0.796875 0.265625q-0.328125 0.25 -0.546875 0.75l0 3.828125l-1.484375 0zm9.540558 0l-0.65625 0q-0.21875 0 -0.34375 -0.0625q-0.109375 -0.0625 -0.171875 -0.25l-0.125 -0.4375q-0.234375 0.203125 -0.46875 0.359375q-0.21875 0.15625 -0.46875 0.265625q-0.234375 0.109375 -0.5 0.15625q-0.265625 0.0625 -0.59375 0.0625q-0.390625 0 -0.734375 -0.09375q-0.328125 -0.109375 -0.5625 -0.3125q-0.234375 -0.21875 -0.375 -0.53125q-0.125 -0.3125 -0.125 -0.734375q0 -0.34375 0.1875 -0.671875q0.1875 -0.34375 0.609375 -0.609375q0.421875 -0.28125 1.125 -0.453125q0.71875 -0.1875 1.765625 -0.21875l0 -0.359375q0 -0.609375 -0.265625 -0.90625q-0.265625 -0.296875 -0.75 -0.296875q-0.359375 0 -0.609375 0.078125q-0.234375 0.078125 -0.421875 0.1875q-0.171875 0.109375 -0.328125 0.203125q-0.140625 0.078125 -0.328125 0.078125q-0.140625 0 -0.25 -0.078125q-0.109375 -0.078125 -0.171875 -0.203125l-0.265625 -0.46875q1.0625 -0.96875 2.5625 -0.96875q0.53125 0 0.953125 0.171875q0.421875 0.171875 0.71875 0.5q0.296875 0.3125 0.4375 0.75q0.15625 0.4375 0.15625 0.953125l0 3.890625zm-2.875 -0.921875q0.234375 0 0.421875 -0.046875q0.1875 -0.046875 0.359375 -0.125q0.171875 -0.078125 0.328125 -0.203125q0.171875 -0.125 0.328125 -0.296875l0 -1.03125q-0.65625 0.03125 -1.09375 0.109375q-0.421875 0.078125 -0.6875 0.203125q-0.265625 0.125 -0.375 0.296875q-0.109375 0.171875 -0.109375 0.359375q0 0.390625 0.21875 0.5625q0.234375 0.171875 0.609375 0.171875zm4.3445435 0.921875l0 -6.15625l0.90625 0q0.28125 0 0.375 0.265625l0.09375 0.453125q0.15625 -0.171875 0.328125 -0.3125q0.1875 -0.15625 0.390625 -0.265625q0.203125 -0.109375 0.421875 -0.171875q0.234375 -0.0625 0.515625 -0.0625q0.578125 0 0.953125 0.3125q0.375 0.3125 0.5625 0.84375q0.140625 -0.3125 0.359375 -0.53125q0.21875 -0.21875 0.46875 -0.359375q0.265625 -0.140625 0.546875 -0.203125q0.296875 -0.0625 0.59375 -0.0625q0.515625 0 0.90625 0.15625q0.390625 0.15625 0.65625 0.453125q0.28125 0.296875 0.421875 0.734375q0.140625 0.4375 0.140625 0.984375l0 3.921875l-1.484375 0l0 -3.921875q0 -0.578125 -0.265625 -0.875q-0.25 -0.296875 -0.75 -0.296875q-0.21875 0 -0.421875 0.078125q-0.1875 0.078125 -0.34375 0.21875q-0.140625 0.140625 -0.234375 0.375q-0.078125 0.21875 -0.078125 0.5l0 3.921875l-1.484375 0l0 -3.921875q0 -0.609375 -0.25 -0.890625q-0.25 -0.28125 -0.734375 -0.28125q-0.3125 0 -0.59375 0.15625q-0.28125 0.15625 -0.515625 0.4375l0 4.5l-1.484375 0zm10.104065 0l0 -6.15625l0.90625 0q0.28125 0 0.375 0.265625l0.09375 0.453125q0.15625 -0.171875 0.328125 -0.3125q0.1875 -0.15625 0.390625 -0.265625q0.203125 -0.109375 0.421875 -0.171875q0.234375 -0.0625 0.515625 -0.0625q0.578125 0 0.953125 0.3125q0.375 0.3125 0.5625 0.84375q0.140625 -0.3125 0.359375 -0.53125q0.21875 -0.21875 0.46875 -0.359375q0.265625 -0.140625 0.546875 -0.203125q0.296875 -0.0625 0.59375 -0.0625q0.515625 0 0.90625 0.15625q0.390625 0.15625 0.65625 0.453125q0.28125 0.296875 0.421875 0.734375q0.140625 0.4375 0.140625 0.984375l0 3.921875l-1.484375 0l0 -3.921875q0 -0.578125 -0.265625 -0.875q-0.25 -0.296875 -0.75 -0.296875q-0.21875 0 -0.421875 0.078125q-0.1875 0.078125 -0.34375 0.21875q-0.140625 0.140625 -0.234375 0.375q-0.078125 0.21875 -0.078125 0.5l0 3.921875l-1.484375 0l0 -3.921875q0 -0.609375 -0.25 -0.890625q-0.25 -0.28125 -0.734375 -0.28125q-0.3125 0 -0.59375 0.15625q-0.28125 0.15625 -0.515625 0.4375l0 4.5l-1.484375 0zm11.68219 -6.15625l0 6.15625l-1.484375 0l0 -6.15625l1.484375 0zm0.21875 -1.796875q0 0.1875 -0.078125 0.359375q-0.078125 0.171875 -0.21875 0.296875q-0.125 0.125 -0.296875 0.203125q-0.171875 0.078125 -0.375 0.078125q-0.1875 0 -0.359375 -0.078125q-0.171875 -0.078125 -0.296875 -0.203125q-0.125 -0.125 -0.203125 -0.296875q-0.0625 -0.171875 -0.0625 -0.359375q0 -0.1875 0.0625 -0.359375q0.078125 -0.1875 0.203125 -0.3125q0.125 -0.125 0.296875 -0.1875q0.171875 -0.078125 0.359375 -0.078125q0.203125 0 0.375 0.078125q0.171875 0.0625 0.296875 0.1875q0.140625 0.125 0.21875 0.3125q0.078125 0.171875 0.078125 0.359375zm1.4551697 7.953125l0 -6.15625l0.90625 0q0.28125 0 0.375 0.265625l0.09375 0.484375q0.1875 -0.1875 0.390625 -0.34375q0.21875 -0.15625 0.4375 -0.265625q0.234375 -0.109375 0.5 -0.171875q0.265625 -0.0625 0.578125 -0.0625q0.5 0 0.890625 0.171875q0.390625 0.171875 0.65625 0.484375q0.265625 0.296875 0.390625 0.734375q0.140625 0.421875 0.140625 0.9375l0 3.921875l-1.484375 0l0 -3.921875q0 -0.5625 -0.265625 -0.859375q-0.25 -0.3125 -0.78125 -0.3125q-0.375 0 -0.71875 0.171875q-0.328125 0.171875 -0.625 0.46875l0 4.453125l-1.484375 0zm8.947052 -6.265625q0.390625 0 0.734375 0.078125q0.359375 0.078125 0.640625 0.234375l1.78125 0l0 0.5625q0 0.140625 -0.078125 0.21875q-0.078125 0.078125 -0.25 0.109375l-0.546875 0.09375q0.0625 0.15625 0.09375 0.328125q0.03125 0.171875 0.03125 0.375q0 0.453125 -0.1875 0.828125q-0.171875 0.359375 -0.5 0.625q-0.328125 0.25 -0.765625 0.390625q-0.4375 0.140625 -0.953125 0.140625q-0.34375 0 -0.671875 -0.0625q-0.296875 0.171875 -0.296875 0.390625q0 0.1875 0.171875 0.28125q0.171875 0.078125 0.453125 0.109375q0.28125 0.03125 0.625 0.046875q0.359375 0.015625 0.734375 0.046875q0.375 0.015625 0.71875 0.09375q0.359375 0.078125 0.640625 0.25q0.28125 0.15625 0.453125 0.4375q0.171875 0.28125 0.171875 0.71875q0 0.40625 -0.203125 0.78125q-0.203125 0.390625 -0.59375 0.6875q-0.375 0.296875 -0.9375 0.484375q-0.546875 0.1875 -1.25 0.1875q-0.703125 0 -1.21875 -0.140625q-0.515625 -0.140625 -0.859375 -0.359375q-0.328125 -0.21875 -0.5 -0.515625q-0.171875 -0.296875 -0.171875 -0.609375q0 -0.4375 0.265625 -0.734375q0.265625 -0.296875 0.734375 -0.46875q-0.234375 -0.125 -0.375 -0.328125q-0.125 -0.21875 -0.125 -0.546875q0 -0.140625 0.046875 -0.28125q0.046875 -0.15625 0.140625 -0.296875q0.109375 -0.140625 0.25 -0.265625q0.15625 -0.140625 0.359375 -0.234375q-0.46875 -0.265625 -0.734375 -0.671875q-0.265625 -0.421875 -0.265625 -0.984375q0 -0.46875 0.171875 -0.828125q0.1875 -0.375 0.515625 -0.625q0.328125 -0.265625 0.765625 -0.40625q0.453125 -0.140625 0.984375 -0.140625zm1.625 6.546875q0 -0.1875 -0.109375 -0.296875q-0.109375 -0.109375 -0.296875 -0.171875q-0.1875 -0.078125 -0.4375 -0.09375q-0.234375 -0.03125 -0.515625 -0.046875q-0.28125 -0.015625 -0.578125 -0.03125q-0.296875 -0.015625 -0.578125 -0.046875q-0.25 0.125 -0.40625 0.328125q-0.15625 0.1875 -0.15625 0.421875q0 0.171875 0.078125 0.3125q0.09375 0.140625 0.265625 0.234375q0.171875 0.109375 0.453125 0.15625q0.296875 0.0625 0.703125 0.0625q0.40625 0 0.703125 -0.0625q0.3125 -0.0625 0.5 -0.171875q0.203125 -0.109375 0.28125 -0.265625q0.09375 -0.15625 0.09375 -0.328125zm-1.625 -3.515625q0.28125 0 0.484375 -0.0625q0.203125 -0.078125 0.328125 -0.203125q0.140625 -0.140625 0.203125 -0.328125q0.078125 -0.1875 0.078125 -0.40625q0 -0.453125 -0.28125 -0.71875q-0.265625 -0.265625 -0.8125 -0.265625q-0.546875 0 -0.828125 0.265625q-0.265625 0.265625 -0.265625 0.71875q0 0.21875 0.0625 0.40625q0.078125 0.1875 0.203125 0.328125q0.140625 0.125 0.34375 0.203125q0.21875 0.0625 0.484375 0.0625z" fill-rule="nonzero"/><path fill="#000000" fill-opacity="0.0" d="m311.62466 243.90814l56.346466 0l0 35.55905l-56.346466 0z" fill-rule="evenodd"/><path fill="#000000" d="m333.3115 261.95813l0 3.75l-1.796875 0l0 -3.75l-3.515625 -5.890625l1.578125 0q0.234375 0 0.375 0.125q0.140625 0.109375 0.21875 0.28125l1.78125 3.21875q0.140625 0.28125 0.25 0.546875q0.125 0.25 0.21875 0.5q0.078125 -0.25 0.1875 -0.5q0.109375 -0.265625 0.265625 -0.546875l1.75 -3.21875q0.078125 -0.15625 0.21875 -0.28125q0.15625 -0.125 0.375 -0.125l1.59375 0l-3.5 5.890625zm10.504486 -5.890625l0 1.4375l-4.265625 0l0 2.671875l3.359375 0l0 1.375l-3.359375 0l0 2.71875l4.265625 0l0 1.4375l-6.078125 0l0 -9.640625l6.078125 0zm6.72406 1.75q-0.078125 0.15625 -0.171875 0.21875q-0.09375 0.0625 -0.234375 0.0625q-0.125 0 -0.296875 -0.109375q-0.171875 -0.109375 -0.40625 -0.234375q-0.21875 -0.125 -0.515625 -0.21875q-0.296875 -0.109375 -0.71875 -0.109375q-0.375 0 -0.65625 0.09375q-0.265625 0.078125 -0.453125 0.25q-0.1875 0.15625 -0.28125 0.375q-0.09375 0.21875 -0.09375 0.484375q0 0.34375 0.1875 0.578125q0.1875 0.21875 0.5 0.390625q0.3125 0.15625 0.703125 0.28125q0.40625 0.125 0.8125 0.265625q0.421875 0.140625 0.828125 0.34375q0.40625 0.1875 0.71875 0.484375q0.3125 0.28125 0.5 0.703125q0.1875 0.40625 0.1875 1.015625q0 0.65625 -0.234375 1.234375q-0.21875 0.5625 -0.65625 0.984375q-0.421875 0.421875 -1.046875 0.671875q-0.609375 0.234375 -1.40625 0.234375q-0.453125 0 -0.90625 -0.09375q-0.453125 -0.09375 -0.859375 -0.25q-0.40625 -0.171875 -0.765625 -0.40625q-0.359375 -0.234375 -0.640625 -0.515625l0.53125 -0.859375q0.0625 -0.09375 0.171875 -0.15625q0.109375 -0.0625 0.234375 -0.0625q0.15625 0 0.34375 0.140625q0.203125 0.125 0.46875 0.296875q0.265625 0.171875 0.609375 0.3125q0.359375 0.125 0.859375 0.125q0.765625 0 1.1875 -0.359375q0.421875 -0.359375 0.421875 -1.046875q0 -0.375 -0.1875 -0.609375q-0.1875 -0.25 -0.5 -0.40625q-0.3125 -0.171875 -0.71875 -0.28125q-0.390625 -0.109375 -0.8125 -0.234375q-0.40625 -0.140625 -0.8125 -0.328125q-0.40625 -0.1875 -0.71875 -0.484375q-0.3125 -0.3125 -0.5 -0.75q-0.1875 -0.453125 -0.1875 -1.125q0 -0.515625 0.203125 -1.015625q0.21875 -0.5 0.625 -0.890625q0.40625 -0.390625 0.984375 -0.625q0.59375 -0.234375 1.34375 -0.234375q0.84375 0 1.5625 0.28125q0.734375 0.265625 1.234375 0.734375l-0.4375 0.84375z" fill-rule="nonzero"/><path fill="#cfe2f3" d="m271.50656 195.02493l90.944885 -52.220474l90.944885 52.220474l-90.944885 52.220474z" fill-rule="evenodd"/><path stroke="#000000" stroke-width="1.0" stroke-linejoin="round" stroke-linecap="butt" d="m271.50656 195.02493l90.944885 -52.220474l90.944885 52.220474l-90.944885 52.220474z" fill-rule="evenodd"/><path fill="#000000" d="m329.589 202.22493l0 -2.0l2.265625 0l0 -10.0l-2.265625 0l0 -2.0l6.6875 0l0 2.0l-2.265625 0l0 10.0l2.265625 0l0 2.0l-6.6875 0zm21.941223 -0.078125l-7.21875 -4.140625l0 -1.625l7.21875 -4.140625l0.96875 1.5l-7.1875 4.125l0 -1.34375l7.1875 4.125l-0.96875 1.5zm9.814362 0.078125l0 -14.0l1.953125 0l8.546875 11.453125l-0.3125 0.1875q-0.140625 -0.828125 -0.234375 -1.90625q-0.09375 -1.078125 -0.140625 -2.375q-0.03125 -1.296875 -0.03125 -2.765625l0 -4.59375l2.171875 0l0 14.0l-1.984375 0l-8.421875 -11.046875l0.21875 -0.265625q0.140625 1.515625 0.21875 2.484375q0.078125 0.96875 0.109375 1.546875q0.046875 0.578125 0.0625 0.90625q0.015625 0.328125 0.015625 0.5625l0 5.8125l-2.171875 0zm14.266235 2.640625l8.234375 -16.640625l1.984375 0l-8.21875 16.640625l-2.0 0zm12.039978 -2.640625l-0.65625 -1.640625l4.28125 -4.8125q0.328125 -0.359375 0.703125 -0.828125q0.375 -0.484375 0.703125 -0.984375q0.34375 -0.5 0.546875 -0.984375q0.21875 -0.484375 0.21875 -0.9375q0 -0.625 -0.25 -1.078125q-0.25 -0.453125 -0.71875 -0.6875q-0.46875 -0.25 -1.125 -0.25q-0.578125 0 -1.140625 0.34375q-0.5625 0.34375 -1.03125 0.96875q-0.453125 0.609375 -0.703125 1.4375l-1.671875 -1.046875q0.34375 -1.15625 1.03125 -1.984375q0.6875 -0.828125 1.65625 -1.265625q0.984375 -0.453125 2.109375 -0.453125q1.1875 0 2.109375 0.5q0.921875 0.484375 1.4375 1.359375q0.515625 0.859375 0.515625 2.0q0 0.578125 -0.15625 1.1875q-0.15625 0.609375 -0.515625 1.28125q-0.34375 0.65625 -0.890625 1.390625q-0.53125 0.71875 -1.296875 1.546875l-3.171875 3.453125l-0.40625 -0.59375l6.875 0l0 2.078125l-8.453125 0z" fill-rule="nonzero"/><path fill="#cfe2f3" d="m383.48294 462.48294l128.58267 -52.22046l128.5827 52.22046l-128.5827 52.22049z" fill-rule="evenodd"/><path stroke="#000000" stroke-width="1.0" stroke-linejoin="round" stroke-linecap="butt" d="m383.48294 462.48294l128.58267 -52.22046l128.5827 52.22046l-128.5827 52.22049z" fill-rule="evenodd"/><path fill="#000000" d="m473.12317 469.68292l0 -2.0l2.265625 0l0 -10.0l-2.265625 0l0 -2.0l6.6875 0l0 2.0l-2.265625 0l0 10.0l2.265625 0l0 2.0l-6.6875 0zm14.722473 -6.625l0 -1.796875l9.3125 0l0 1.796875l-9.3125 0zm0 3.78125l0 -1.78125l9.3125 0l0 1.78125l-9.3125 0zm11.320007 -3.78125l0 -1.796875l9.3125 0l0 1.796875l-9.3125 0zm0 3.78125l0 -1.78125l9.3125 0l0 1.78125l-9.3125 0zm17.873108 2.84375l0 -14.0l1.953125 0l8.546875 11.453125l-0.3125 0.1875q-0.140625 -0.828125 -0.234375 -1.90625q-0.09375 -1.078125 -0.140625 -2.375q-0.03125 -1.296875 -0.03125 -2.765625l0 -4.59375l2.171875 0l0 14.0l-1.984375 0l-8.421875 -11.046875l0.21875 -0.265625q0.140625 1.515625 0.21875 2.484375q0.078125 0.96875 0.109375 1.546875q0.046875 0.578125 0.0625 0.90625q0.015625 0.328125 0.015625 0.5625l0 5.8125l-2.171875 0zm14.266235 2.640625l8.234375 -16.640625l1.984375 0l-8.21875 16.640625l-2.0 0zm12.039978 -2.640625l-0.65625 -1.640625l4.28125 -4.8125q0.328125 -0.359375 0.703125 -0.828125q0.375 -0.484375 0.703125 -0.984375q0.34375 -0.5 0.546875 -0.984375q0.21875 -0.484375 0.21875 -0.9375q0 -0.625 -0.25 -1.078125q-0.25 -0.453125 -0.71875 -0.6875q-0.46875 -0.25 -1.125 -0.25q-0.578125 0 -1.140625 0.34375q-0.5625 0.34375 -1.03125 0.96875q-0.453125 0.609375 -0.703125 1.4375l-1.671875 -1.046875q0.34375 -1.15625 1.03125 -1.984375q0.6875 -0.828125 1.65625 -1.265625q0.984375 -0.453125 2.109375 -0.453125q1.1875 0 2.109375 0.5q0.921875 0.484375 1.4375 1.359375q0.515625 0.859375 0.515625 2.0q0 0.578125 -0.15625 1.1875q-0.15625 0.609375 -0.515625 1.28125q-0.34375 0.65625 -0.890625 1.390625q-0.53125 0.71875 -1.296875 1.546875l-3.171875 3.453125l-0.40625 -0.59375l6.875 0l0 2.078125l-8.453125 0z" fill-rule="nonzero"/><path fill="#cfe2f3" d="m257.85303 330.7152l104.59842 -52.22046l104.59842 52.22046l-104.59842 52.22049z" fill-rule="evenodd"/><path stroke="#000000" stroke-width="1.0" stroke-linejoin="round" stroke-linecap="butt" d="m257.85303 330.7152l104.59842 -52.22046l104.59842 52.22046l-104.59842 52.22049z" fill-rule="evenodd"/><path fill="#000000" d="m322.249 337.91522l0 -2.0l2.265625 0l0 -10.0l-2.265625 0l0 -2.0l6.6875 0l0 2.0l-2.265625 0l0 10.0l2.265625 0l0 2.0l-6.6875 0zm10.700623 0l9.265625 -14.0l2.0625 0l-9.359375 14.0l-1.96875 0zm1.28125 -6.578125q-0.90625 0 -1.59375 -0.484375q-0.6875 -0.5 -1.078125 -1.34375q-0.390625 -0.859375 -0.390625 -1.953125q0 -1.09375 0.390625 -1.96875q0.390625 -0.875 1.09375 -1.359375q0.703125 -0.5 1.59375 -0.5q0.90625 0 1.59375 0.5q0.6875 0.484375 1.078125 1.359375q0.390625 0.875 0.390625 1.96875q0 1.0625 -0.40625 1.921875q-0.390625 0.859375 -1.09375 1.359375q-0.703125 0.5 -1.578125 0.5zm0.015625 -1.5q0.421875 0 0.734375 -0.28125q0.3125 -0.28125 0.484375 -0.78125q0.171875 -0.515625 0.171875 -1.21875q0 -0.703125 -0.171875 -1.21875q-0.171875 -0.515625 -0.484375 -0.796875q-0.3125 -0.28125 -0.75 -0.28125q-0.421875 0 -0.75 0.296875q-0.3125 0.28125 -0.484375 0.796875q-0.171875 0.5 -0.171875 1.203125q0 1.046875 0.375 1.671875q0.390625 0.609375 1.046875 0.609375zm8.84375 8.265625q-0.90625 0 -1.59375 -0.5q-0.6875 -0.5 -1.09375 -1.34375q-0.390625 -0.859375 -0.390625 -1.9375q0 -1.109375 0.390625 -1.96875q0.390625 -0.875 1.078125 -1.359375q0.703125 -0.5 1.609375 -0.5q0.90625 0 1.59375 0.5q0.6875 0.484375 1.078125 1.359375q0.390625 0.859375 0.390625 1.96875q0 1.046875 -0.40625 1.921875q-0.390625 0.859375 -1.09375 1.359375q-0.6875 0.5 -1.5625 0.5zm0 -1.484375q0.421875 0 0.734375 -0.28125q0.328125 -0.296875 0.5 -0.8125q0.171875 -0.515625 0.171875 -1.203125q0 -1.046875 -0.390625 -1.671875q-0.375 -0.640625 -1.015625 -0.640625q-0.4375 0 -0.765625 0.28125q-0.3125 0.28125 -0.484375 0.8125q-0.171875 0.515625 -0.171875 1.21875q0 1.03125 0.375 1.671875q0.390625 0.625 1.046875 0.625zm5.9205933 1.296875l-0.65625 -1.640625l4.28125 -4.8125q0.328125 -0.359375 0.703125 -0.828125q0.375 -0.484375 0.703125 -0.984375q0.34375 -0.5 0.546875 -0.984375q0.21875 -0.484375 0.21875 -0.9375q0 -0.625 -0.25 -1.078125q-0.25 -0.453125 -0.71875 -0.6875q-0.46875 -0.25 -1.125 -0.25q-0.578125 0 -1.140625 0.34375q-0.5625 0.34375 -1.03125 0.96875q-0.453125 0.609375 -0.703125 1.4375l-1.671875 -1.046875q0.34375 -1.15625 1.03125 -1.984375q0.6875 -0.828125 1.65625 -1.265625q0.984375 -0.453125 2.109375 -0.453125q1.1875 0 2.109375 0.5q0.921875 0.484375 1.4375 1.359375q0.515625 0.859375 0.515625 2.0q0 0.578125 -0.15625 1.1875q-0.15625 0.609375 -0.515625 1.28125q-0.34375 0.65625 -0.890625 1.390625q-0.53125 0.71875 -1.296875 1.546875l-3.171875 3.453125l-0.40625 -0.59375l6.875 0l0 2.078125l-8.453125 0zm15.700623 -6.625l0 -1.796875l9.3125 0l0 1.796875l-9.3125 0zm0 3.78125l0 -1.78125l9.3125 0l0 1.78125l-9.3125 0zm11.319977 -3.78125l0 -1.796875l9.3125 0l0 1.796875l-9.3125 0zm0 3.78125l0 -1.78125l9.3125 0l0 1.78125l-9.3125 0zm21.982483 3.046875q-1.609375 0 -2.765625 -0.875q-1.140625 -0.890625 -1.765625 -2.5q-0.609375 -1.609375 -0.609375 -3.828125q0 -2.21875 0.609375 -3.828125q0.625 -1.609375 1.765625 -2.484375q1.15625 -0.890625 2.765625 -0.890625q1.59375 0 2.75 0.890625q1.171875 0.875 1.78125 2.484375q0.625 1.609375 0.625 3.828125q0 2.21875 -0.625 3.828125q-0.609375 1.609375 -1.78125 2.5q-1.15625 0.875 -2.75 0.875zm0 -1.96875q1.453125 0 2.25 -1.359375q0.8125 -1.375 0.8125 -3.875q0 -2.5 -0.8125 -3.859375q-0.796875 -1.375 -2.25 -1.375q-1.46875 0 -2.265625 1.375q-0.796875 1.359375 -0.796875 3.859375q0 2.5 0.796875 3.875q0.796875 1.359375 2.265625 1.359375z" fill-rule="nonzero"/><path fill="#cfe2f3" d="m37.55118 159.35432l181.89502 0l0 65.29135l-181.89502 0z" fill-rule="evenodd"/><path stroke="#000000" stroke-width="1.0" stroke-linejoin="round" stroke-linecap="butt" d="m37.55118 159.35432l181.89502 0l0 65.29135l-181.89502 0z" fill-rule="evenodd"/><path fill="#000000" d="m92.606224 199.2l0 -2.0l2.265625 0l0 -10.0l-2.265625 0l0 -2.0l6.6875 0l0 2.0l-2.265625 0l0 10.0l2.265625 0l0 2.0l-6.6875 0zm14.722488 -6.625l0 -1.796875l9.3125 0l0 1.796875l-9.3125 0zm0 3.78125l0 -1.78125l9.3125 0l0 1.78125l-9.3125 0zm17.357483 2.84375l0 -2.0l2.265625 0l0 -10.0l-2.265625 0l0 -2.0l6.6875076 0l0 2.0l-2.265625 0l0 10.0l2.265625 0l0 2.0l-6.6875076 0zm14.628746 -4.703125l0 -1.796875l10.015625 0l0 1.796875l-10.015625 0zm3.9375 3.859375l0 -9.65625l2.09375 0l0 9.65625l-2.09375 0zm16.919983 -0.140625l0 -11.359375l0.734375 0.5625l-2.765625 1.46875l-0.578125 -1.890625l3.75 -2.0l1.03125 0l0 13.21875l-2.171875 0zm-2.21875 0.984375l0 -2.078125l6.671875 0l0 2.078125l-6.671875 0z" fill-rule="nonzero"/><path fill="#000000" fill-opacity="0.0" d="m362.45145 247.2454l0 15.6245575l0.06298828 0l0 15.619537" fill-rule="evenodd"/><path stroke="#000000" stroke-width="2.0" stroke-linejoin="round" stroke-linecap="butt" d="m362.45145 247.2454l0 15.6245575l0.06298828 0l0 3.6195374" fill-rule="evenodd"/><path fill="#000000" stroke="#000000" stroke-width="2.0" stroke-linecap="butt" d="m359.21097 266.4895l3.3034668 9.076202l3.3034668 -9.076202z" fill-rule="evenodd"/><path fill="#000000" fill-opacity="0.0" d="m128.49869 159.35432l0 -41.549896l233.95276 0l0 25.014465" fill-rule="evenodd"/><path stroke="#000000" stroke-width="2.0" stroke-linejoin="round" stroke-linecap="butt" d="m128.49869 159.35432l0 -41.549904l233.95276 0l0 13.014473" fill-rule="evenodd"/><path fill="#000000" stroke="#000000" stroke-width="2.0" stroke-linecap="butt" d="m359.14798 130.8189l3.3034668 9.076202l3.3034668 -9.076202z" fill-rule="evenodd"/><path fill="#000000" fill-opacity="0.0" d="m362.45145 89.23622l0 26.784187l0.06298828 0l0 26.790611" fill-rule="evenodd"/><path stroke="#000000" stroke-width="2.0" stroke-linejoin="round" stroke-linecap="butt" d="m362.45145 89.23622l0 26.78418l0.06298828 0l0 14.790619" fill-rule="evenodd"/><path fill="#000000" stroke="#000000" stroke-width="2.0" stroke-linecap="butt" d="m359.21097 130.81102l3.3034668 9.076202l3.3034668 -9.076202z" fill-rule="evenodd"/><path fill="#000000" fill-opacity="0.0" d="m207.34645 324.4987l56.34645 0l0 35.55905l-56.34645 0z" fill-rule="evenodd"/><path fill="#000000" d="m227.06003 336.65805q0.125 0 0.203125 0.015625q0.078125 0.015625 0.140625 0.046875q0.0625 0.015625 0.125 0.078125q0.0625 0.0625 0.140625 0.15625l5.0625 6.4375q-0.03125 -0.234375 -0.046875 -0.453125q0 -0.21875 0 -0.421875l0 -5.859375l1.578125 0l0 9.640625l-0.9375 0q-0.203125 0 -0.34375 -0.0625q-0.140625 -0.078125 -0.28125 -0.25l-5.03125 -6.40625q0.015625 0.203125 0.015625 0.421875q0.015625 0.203125 0.015625 0.375l0 5.921875l-1.578125 0l0 -9.640625l0.9375 0l0 0zm18.38852 4.828125q0 1.046875 -0.359375 1.953125q-0.34375 0.90625 -0.984375 1.5625q-0.640625 0.65625 -1.546875 1.03125q-0.890625 0.375 -1.984375 0.375q-1.09375 0 -2.0 -0.375q-0.90625 -0.375 -1.546875 -1.03125q-0.640625 -0.65625 -1.0 -1.5625q-0.34375 -0.90625 -0.34375 -1.953125q0 -1.0625 0.34375 -1.96875q0.359375 -0.90625 1.0 -1.5625q0.640625 -0.65625 1.546875 -1.03125q0.90625 -0.375 2.0 -0.375q1.09375 0 1.984375 0.375q0.90625 0.375 1.546875 1.03125q0.640625 0.65625 0.984375 1.5625q0.359375 0.90625 0.359375 1.96875zm-1.84375 0q0 -0.796875 -0.21875 -1.421875q-0.203125 -0.640625 -0.59375 -1.078125q-0.390625 -0.4375 -0.953125 -0.671875q-0.5625 -0.234375 -1.265625 -0.234375q-0.71875 0 -1.28125 0.234375q-0.5625 0.234375 -0.96875 0.671875q-0.390625 0.4375 -0.609375 1.078125q-0.203125 0.625 -0.203125 1.421875q0 0.78125 0.203125 1.421875q0.21875 0.625 0.609375 1.0625q0.40625 0.4375 0.96875 0.671875q0.5625 0.234375 1.28125 0.234375q0.703125 0 1.265625 -0.234375q0.5625 -0.234375 0.953125 -0.671875q0.390625 -0.4375 0.59375 -1.0625q0.21875 -0.640625 0.21875 -1.421875z" fill-rule="nonzero"/><path fill="#000000" fill-opacity="0.0" d="m257.85303 330.7152l-129.35434 0l0 -106.07872" fill-rule="evenodd"/><path stroke="#000000" stroke-width="2.0" stroke-linejoin="round" stroke-linecap="butt" d="m257.85303 330.7152l-129.35434 0l0 -94.07872" fill-rule="evenodd"/><path fill="#000000" stroke="#000000" stroke-width="2.0" stroke-linecap="butt" d="m131.80215 236.63649l-3.3034668 -9.076202l-3.3034668 9.076202z" fill-rule="evenodd"/><path fill="#000000" fill-opacity="0.0" d="m467.04987 330.7152l45.007874 0l0 79.55908" fill-rule="evenodd"/><path stroke="#000000" stroke-width="2.0" stroke-linejoin="round" stroke-linecap="butt" d="m467.04987 330.7152l45.007874 0l0 79.55908" fill-rule="evenodd"/><path fill="#000000" fill-opacity="0.0" d="m453.38058 324.56168l56.346436 0l0 35.55905l-56.346436 0z" fill-rule="evenodd"/><path fill="#000000" d="m475.0674 342.61166l0 3.75l-1.796875 0l0 -3.75l-3.515625 -5.890625l1.578125 0q0.234375 0 0.375 0.125q0.140625 0.109375 0.21875 0.28125l1.78125 3.21875q0.140625 0.28125 0.25 0.546875q0.125 0.25 0.21875 0.5q0.078125 -0.25 0.1875 -0.5q0.109375 -0.265625 0.265625 -0.546875l1.75 -3.21875q0.078125 -0.15625 0.21875 -0.28125q0.15625 -0.125 0.375 -0.125l1.59375 0l-3.5 5.890625zm10.504456 -5.890625l0 1.4375l-4.265625 0l0 2.671875l3.359375 0l0 1.375l-3.359375 0l0 2.71875l4.265625 0l0 1.4375l-6.078125 0l0 -9.640625l6.078125 0zm6.7240906 1.75q-0.078125 0.15625 -0.171875 0.21875q-0.09375 0.0625 -0.234375 0.0625q-0.125 0 -0.296875 -0.109375q-0.171875 -0.109375 -0.40625 -0.234375q-0.21875 -0.125 -0.515625 -0.21875q-0.296875 -0.109375 -0.71875 -0.109375q-0.375 0 -0.65625 0.09375q-0.265625 0.078125 -0.453125 0.25q-0.1875 0.15625 -0.28125 0.375q-0.09375 0.21875 -0.09375 0.484375q0 0.34375 0.1875 0.578125q0.1875 0.21875 0.5 0.390625q0.3125 0.15625 0.703125 0.28125q0.40625 0.125 0.8125 0.265625q0.421875 0.140625 0.828125 0.34375q0.40625 0.1875 0.71875 0.484375q0.3125 0.28125 0.5 0.703125q0.1875 0.40625 0.1875 1.015625q0 0.65625 -0.234375 1.234375q-0.21875 0.5625 -0.65625 0.984375q-0.421875 0.421875 -1.046875 0.671875q-0.609375 0.234375 -1.40625 0.234375q-0.453125 0 -0.90625 -0.09375q-0.453125 -0.09375 -0.859375 -0.25q-0.40625 -0.171875 -0.765625 -0.40625q-0.359375 -0.234375 -0.640625 -0.515625l0.53125 -0.859375q0.0625 -0.09375 0.171875 -0.15625q0.109375 -0.0625 0.234375 -0.0625q0.15625 0 0.34375 0.140625q0.203125 0.125 0.46875 0.296875q0.265625 0.171875 0.609375 0.3125q0.359375 0.125 0.859375 0.125q0.765625 0 1.1875 -0.359375q0.421875 -0.359375 0.421875 -1.046875q0 -0.375 -0.1875 -0.609375q-0.1875 -0.25 -0.5 -0.40625q-0.3125 -0.171875 -0.71875 -0.28125q-0.390625 -0.109375 -0.8125 -0.234375q-0.40625 -0.140625 -0.8125 -0.328125q-0.40625 -0.1875 -0.71875 -0.484375q-0.3125 -0.3125 -0.5 -0.75q-0.1875 -0.453125 -0.1875 -1.125q0 -0.515625 0.203125 -1.015625q0.21875 -0.5 0.625 -0.890625q0.40625 -0.390625 0.984375 -0.625q0.59375 -0.234375 1.34375 -0.234375q0.84375 0 1.5625 0.28125q0.734375 0.265625 1.234375 0.734375l-0.4375 0.84375z" fill-rule="nonzero"/><path fill="#cfe2f3" d="m41.902885 410.26236l173.1912 0l0 83.75482c-86.5956 0 -86.5956 31.91214 -173.1912 13.780243z" fill-rule="evenodd"/><path stroke="#000000" stroke-width="1.0" stroke-linejoin="round" stroke-linecap="butt" d="m41.902885 410.26236l173.1912 0l0 83.75482c-86.5956 0 -86.5956 31.91214 -173.1912 13.780243z" fill-rule="evenodd"/><path fill="#000000" d="m98.69162 447.33975l0 -14.0l5.703125 0q1.140625 0 2.0625 0.578125q0.9375 0.5625 1.5 1.546875q0.5625 0.96875 0.5625 2.171875q0 1.203125 -0.5625 2.1875q-0.5625 0.96875 -1.5 1.5625q-0.921875 0.59375 -2.0625 0.59375l-3.53125 0l0 5.359375l-2.171875 0zm2.171875 -7.4375l3.5 0q0.53125 0 0.96875 -0.3125q0.453125 -0.3125 0.71875 -0.8125q0.265625 -0.515625 0.265625 -1.140625q0 -0.609375 -0.265625 -1.109375q-0.265625 -0.5 -0.71875 -0.796875q-0.4375 -0.3125 -0.96875 -0.3125l-3.5 0l0 4.484375zm10.508118 7.4375l0 -14.0l5.96875 0q1.203125 0 2.203125 0.59375q1.015625 0.59375 1.609375 1.609375q0.609375 1.0 0.609375 2.25q0 1.140625 -0.609375 2.125q-0.59375 0.984375 -1.59375 1.578125q-1.0 0.578125 -2.21875 0.578125l-3.796875 0l0 5.265625l-2.171875 0zm8.328125 0l-3.5625 -6.3125l2.21875 -0.5l3.96875 6.828125l-2.625 -0.015625zm-6.15625 -7.34375l4.0 0q0.578125 0 1.03125 -0.28125q0.46875 -0.296875 0.71875 -0.796875q0.265625 -0.515625 0.265625 -1.140625q0 -0.703125 -0.328125 -1.21875q-0.328125 -0.53125 -0.921875 -0.828125q-0.59375 -0.3125 -1.328125 -0.3125l-3.4375 0l0 4.578125zm11.212494 7.34375l0 -2.0l2.265625 0l0 -10.0l-2.265625 0l0 -2.0l6.6875 0l0 2.0l-2.265625 0l0 10.0l2.265625 0l0 2.0l-6.6875 0zm10.075623 0l0 -14.0l1.953125 0l8.546875 11.453125l-0.3125 0.1875q-0.140625 -0.828125 -0.234375 -1.90625q-0.09375 -1.078125 -0.140625 -2.375q-0.03125 -1.296875 -0.03125 -2.765625l0 -4.59375l2.171875 0l0 14.0l-1.984375 0l-8.421875 -11.046875l0.21875 -0.265625q0.140625 1.515625 0.21875 2.484375q0.078125 0.96875 0.109375 1.546875q0.046875 0.578125 0.0625 0.90625q0.015625 0.328125 0.015625 0.5625l0 5.8125l-2.171875 0zm18.53186 0l0 -11.921875l-3.921875 0l0 -2.078125l10.109375 0l0 2.078125l-4.03125 0l0 11.921875l-2.15625 0z" fill-rule="nonzero"/><path fill="#000000" d="m80.452896 471.33975l0 -2.875l2.359375 0l0 -8.25l-2.359375 0l0 -2.875l8.140625 0l0 2.875l-2.359375 0l0 8.25l2.359375 0l0 2.875l-8.140625 0zm16.021866 0.203125q-2.09375 0 -3.53125 -0.734375q-1.421875 -0.734375 -2.4375 -2.0625l2.078125 -2.34375q0.984375 1.34375 1.984375 1.796875q1.0 0.453125 2.0625 0.453125q0.53125 0 0.953125 -0.125q0.4375 -0.140625 0.6875 -0.40625q0.25 -0.28125 0.25 -0.65625q0 -0.3125 -0.15625 -0.546875q-0.140625 -0.234375 -0.40625 -0.40625q-0.25 -0.1875 -0.59375 -0.328125q-0.34375 -0.15625 -0.75 -0.25q-0.40625 -0.109375 -0.828125 -0.1875q-1.15625 -0.25 -2.015625 -0.640625q-0.84375 -0.390625 -1.421875 -0.9375q-0.5625 -0.546875 -0.84375 -1.25q-0.28125 -0.71875 -0.28125 -1.625q0 -1.265625 0.734375 -2.21875q0.734375 -0.96875 1.921875 -1.5q1.203125 -0.546875 2.609375 -0.546875q2.03125 0 3.28125 0.65625q1.25 0.640625 2.0 1.78125l-2.125 2.0625q-0.625 -0.8125 -1.421875 -1.203125q-0.78125 -0.40625 -1.640625 -0.40625q-0.578125 0 -1.015625 0.140625q-0.4375 0.140625 -0.671875 0.421875q-0.234375 0.265625 -0.234375 0.640625q0 0.3125 0.1875 0.5625q0.203125 0.25 0.53125 0.4375q0.34375 0.171875 0.78125 0.3125q0.453125 0.125 0.921875 0.203125q1.109375 0.21875 2.0 0.578125q0.890625 0.359375 1.53125 0.890625q0.640625 0.53125 0.984375 1.25q0.34375 0.703125 0.34375 1.625q0 1.4375 -0.703125 2.46875q-0.6875 1.015625 -1.9375 1.5625q-1.234375 0.53125 -2.828125 0.53125zm14.408096 -0.203125l0 -14.0l6.0625 0q1.328125 0 2.359375 0.609375q1.046875 0.59375 1.640625 1.625q0.609375 1.03125 0.609375 2.34375q0 1.34375 -0.609375 2.421875q-0.59375 1.078125 -1.640625 1.703125q-1.03125 0.609375 -2.359375 0.609375l-2.640625 0l0 4.6875l-3.421875 0zm3.390625 -7.703125l2.21875 0q0.4375 0 0.78125 -0.203125q0.359375 -0.21875 0.578125 -0.59375q0.21875 -0.375 0.21875 -0.859375q0 -0.5 -0.21875 -0.859375q-0.21875 -0.359375 -0.578125 -0.5625q-0.34375 -0.203125 -0.78125 -0.203125l-2.21875 0l0 3.28125zm9.849365 7.703125l0 -14.0l6.34375 0q1.359375 0 2.4375 0.578125q1.078125 0.578125 1.703125 1.59375q0.640625 1.015625 0.640625 2.3125q0 1.3125 -0.640625 2.359375q-0.625 1.03125 -1.703125 1.640625q-1.078125 0.609375 -2.4375 0.609375l-3.078125 0l0 4.90625l-3.265625 0zm7.78125 0l-3.5625 -6.34375l3.5 -0.5l3.96875 6.859375l-3.90625 -0.015625zm-4.515625 -7.5625l2.78125 0q0.515625 0 0.90625 -0.21875q0.390625 -0.234375 0.59375 -0.625q0.21875 -0.40625 0.21875 -0.9375q0 -0.53125 -0.25 -0.9375q-0.25 -0.40625 -0.703125 -0.625q-0.453125 -0.234375 -1.0625 -0.234375l-2.484375 0l0 3.578125zm10.564362 7.5625l0 -2.875l2.359375 0l0 -8.25l-2.359375 0l0 -2.875l8.140625 0l0 2.875l-2.359375 0l0 8.25l2.359375 0l0 2.875l-8.140625 0zm11.349991 0l0 -14.0l3.0625 0l5.078125 8.265625l-2.15625 -0.03125l5.140625 -8.234375l2.953125 0l0 14.0l-3.3125 0l0 -4.234375q0 -1.84375 0.09375 -3.3125q0.09375 -1.46875 0.3125 -2.890625l0.375 1.03125l-3.859375 5.984375l-1.359375 0l-3.78125 -5.9375l0.375 -1.078125q0.25 1.34375 0.328125 2.78125q0.09375 1.421875 0.09375 3.421875l0 4.234375l-3.34375 0zm17.559982 0l0 -14.0l9.76564 0l0 2.921875l-6.421875 0l0 8.15625l6.640625 0l0 2.921875l-9.98439 0zm1.625 -5.71875l0 -2.796875l7.2656403 0l0 2.796875l-7.2656403 0z" fill-rule="nonzero"/><path fill="#000000" fill-opacity="0.0" d="m440.50394 162.24016l56.346466 0l0 35.55905l-56.346466 0z" fill-rule="evenodd"/><path fill="#000000" d="m460.2175 174.39954q0.125 0 0.203125 0.015625q0.078125 0.015625 0.140625 0.046875q0.0625 0.015625 0.125 0.078125q0.0625 0.0625 0.140625 0.15625l5.0625 6.4375q-0.03125 -0.234375 -0.046875 -0.453125q0 -0.21875 0 -0.421875l0 -5.859375l1.578125 0l0 9.640625l-0.9375 0q-0.203125 0 -0.34375 -0.0625q-0.140625 -0.078125 -0.28125 -0.25l-5.03125 -6.40625q0.015625 0.203125 0.015625 0.421875q0.015625 0.203125 0.015625 0.375l0 5.921875l-1.578125 0l0 -9.640625l0.9375 0l0 0zm18.38852 4.828125q0 1.046875 -0.359375 1.953125q-0.34375 0.90625 -0.984375 1.5625q-0.640625 0.65625 -1.546875 1.03125q-0.890625 0.375 -1.984375 0.375q-1.09375 0 -2.0 -0.375q-0.90625 -0.375 -1.546875 -1.03125q-0.640625 -0.65625 -1.0 -1.5625q-0.34375 -0.90625 -0.34375 -1.953125q0 -1.0625 0.34375 -1.96875q0.359375 -0.90625 1.0 -1.5625q0.640625 -0.65625 1.546875 -1.03125q0.90625 -0.375 2.0 -0.375q1.09375 0 1.984375 0.375q0.90625 0.375 1.546875 1.03125q0.640625 0.65625 0.984375 1.5625q0.359375 0.90625 0.359375 1.96875zm-1.84375 0q0 -0.796875 -0.21875 -1.421875q-0.203125 -0.640625 -0.59375 -1.078125q-0.390625 -0.4375 -0.953125 -0.671875q-0.5625 -0.234375 -1.265625 -0.234375q-0.71875 0 -1.28125 0.234375q-0.5625 0.234375 -0.96875 0.671875q-0.390625 0.4375 -0.609375 1.078125q-0.203125 0.625 -0.203125 1.421875q0 0.78125 0.203125 1.421875q0.21875 0.625 0.609375 1.0625q0.40625 0.4375 0.96875 0.671875q0.5625 0.234375 1.28125 0.234375q0.703125 0 1.265625 -0.234375q0.5625 -0.234375 0.953125 -0.671875q0.390625 -0.4375 0.59375 -1.0625q0.21875 -0.640625 0.21875 -1.421875z" fill-rule="nonzero"/><path fill="#000000" fill-opacity="0.0" d="m383.48294 462.48294l-84.19403 0l0 0.06298828l-84.18393 0" fill-rule="evenodd"/><path stroke="#000000" stroke-width="2.0" stroke-linejoin="round" stroke-linecap="butt" d="m383.48294 462.48294l-84.19403 0l0 0.06298828l-72.18393 0" fill-rule="evenodd"/><path fill="#000000" stroke="#000000" stroke-width="2.0" stroke-linecap="butt" d="m227.10498 459.24246l-9.076187 3.3034668l9.076187 3.3034668z" fill-rule="evenodd"/><path fill="#cfe2f3" d="m728.15485 410.26236l173.19116 0l0 83.75482c-86.59558 0 -86.59558 31.91214 -173.19116 13.780243z" fill-rule="evenodd"/><path stroke="#000000" stroke-width="1.0" stroke-linejoin="round" stroke-linecap="butt" d="m728.15485 410.26236l173.19116 0l0 83.75482c-86.59558 0 -86.59558 31.91214 -173.19116 13.780243z" fill-rule="evenodd"/><path fill="#000000" d="m784.9436 447.33975l0 -14.0l5.703125 0q1.140625 0 2.0625 0.578125q0.9375 0.5625 1.5 1.546875q0.5625 0.96875 0.5625 2.171875q0 1.203125 -0.5625 2.1875q-0.5625 0.96875 -1.5 1.5625q-0.921875 0.59375 -2.0625 0.59375l-3.53125 0l0 5.359375l-2.171875 0zm2.171875 -7.4375l3.5 0q0.53125 0 0.96875 -0.3125q0.453125 -0.3125 0.71875 -0.8125q0.265625 -0.515625 0.265625 -1.140625q0 -0.609375 -0.265625 -1.109375q-0.265625 -0.5 -0.71875 -0.796875q-0.4375 -0.3125 -0.96875 -0.3125l-3.5 0l0 4.484375zm10.508118 7.4375l0 -14.0l5.96875 0q1.203125 0 2.203125 0.59375q1.015625 0.59375 1.609375 1.609375q0.609375 1.0 0.609375 2.25q0 1.140625 -0.609375 2.125q-0.59375 0.984375 -1.59375 1.578125q-1.0 0.578125 -2.21875 0.578125l-3.796875 0l0 5.265625l-2.171875 0zm8.328125 0l-3.5625 -6.3125l2.21875 -0.5l3.96875 6.828125l-2.625 -0.015625zm-6.15625 -7.34375l4.0 0q0.578125 0 1.03125 -0.28125q0.46875 -0.296875 0.71875 -0.796875q0.265625 -0.515625 0.265625 -1.140625q0 -0.703125 -0.328125 -1.21875q-0.328125 -0.53125 -0.921875 -0.828125q-0.59375 -0.3125 -1.328125 -0.3125l-3.4375 0l0 4.578125zm11.212463 7.34375l0 -2.0l2.265625 0l0 -10.0l-2.265625 0l0 -2.0l6.6875 0l0 2.0l-2.265625 0l0 10.0l2.265625 0l0 2.0l-6.6875 0zm10.075623 0l0 -14.0l1.953125 0l8.546875 11.453125l-0.3125 0.1875q-0.140625 -0.828125 -0.234375 -1.90625q-0.09375 -1.078125 -0.140625 -2.375q-0.03125 -1.296875 -0.03125 -2.765625l0 -4.59375l2.171875 0l0 14.0l-1.984375 0l-8.421875 -11.046875l0.21875 -0.265625q0.140625 1.515625 0.21875 2.484375q0.078125 0.96875 0.109375 1.546875q0.046875 0.578125 0.0625 0.90625q0.015625 0.328125 0.015625 0.5625l0 5.8125l-2.171875 0zm18.53186 0l0 -11.921875l-3.921875 0l0 -2.078125l10.109375 0l0 2.078125l-4.03125 0l0 11.921875l-2.15625 0z" fill-rule="nonzero"/><path fill="#000000" d="m741.0849 471.33975l0 -2.875l2.359375 0l0 -8.25l-2.359375 0l0 -2.875l8.140625 0l0 2.875l-2.359375 0l0 8.25l2.359375 0l0 2.875l-8.140625 0zm16.02185 0.203125q-2.09375 0 -3.53125 -0.734375q-1.421875 -0.734375 -2.4375 -2.0625l2.078125 -2.34375q0.984375 1.34375 1.984375 1.796875q1.0 0.453125 2.0625 0.453125q0.53125 0 0.953125 -0.125q0.4375 -0.140625 0.6875 -0.40625q0.25 -0.28125 0.25 -0.65625q0 -0.3125 -0.15625 -0.546875q-0.140625 -0.234375 -0.40625 -0.40625q-0.25 -0.1875 -0.59375 -0.328125q-0.34375 -0.15625 -0.75 -0.25q-0.40625 -0.109375 -0.828125 -0.1875q-1.15625 -0.25 -2.015625 -0.640625q-0.84375 -0.390625 -1.421875 -0.9375q-0.5625 -0.546875 -0.84375 -1.25q-0.28125 -0.71875 -0.28125 -1.625q0 -1.265625 0.734375 -2.21875q0.734375 -0.96875 1.921875 -1.5q1.203125 -0.546875 2.609375 -0.546875q2.03125 0 3.28125 0.65625q1.25 0.640625 2.0 1.78125l-2.125 2.0625q-0.625 -0.8125 -1.421875 -1.203125q-0.78125 -0.40625 -1.640625 -0.40625q-0.578125 0 -1.015625 0.140625q-0.4375 0.140625 -0.671875 0.421875q-0.234375 0.265625 -0.234375 0.640625q0 0.3125 0.1875 0.5625q0.203125 0.25 0.53125 0.4375q0.34375 0.171875 0.78125 0.3125q0.453125 0.125 0.921875 0.203125q1.109375 0.21875 2.0 0.578125q0.890625 0.359375 1.53125 0.890625q0.640625 0.53125 0.984375 1.25q0.34375 0.703125 0.34375 1.625q0 1.4375 -0.703125 2.46875q-0.6875 1.015625 -1.9375 1.5625q-1.234375 0.53125 -2.828125 0.53125zm14.408081 -0.203125l0 -14.0l3.0625 0l7.359375 9.984375l-0.65625 -0.078125q-0.140625 -1.125 -0.25 -2.09375q-0.09375 -0.96875 -0.125 -2.03125q-0.03125 -1.0625 -0.03125 -2.4375l0 -3.34375l3.328125 0l0 14.0l-3.109375 0l-7.625 -10.28125l0.96875 0.140625q0.140625 1.21875 0.21875 2.03125q0.078125 0.796875 0.125 1.359375q0.046875 0.5625 0.0625 1.0625q0.015625 0.484375 0.015625 1.09375l0 4.59375l-3.34375 0zm22.55066 0.203125q-1.578125 0 -2.921875 -0.53125q-1.328125 -0.546875 -2.296875 -1.515625q-0.96875 -0.96875 -1.515625 -2.296875q-0.53125 -1.34375 -0.53125 -2.921875q0 -1.5625 0.53125 -2.890625q0.546875 -1.328125 1.515625 -2.296875q0.96875 -0.984375 2.296875 -1.515625q1.34375 -0.546875 2.921875 -0.546875q1.5625 0 2.875 0.546875q1.3125 0.53125 2.28125 1.515625q0.984375 0.96875 1.515625 2.296875q0.546875 1.328125 0.546875 2.90625q0 1.5625 -0.546875 2.890625q-0.53125 1.3125 -1.515625 2.296875q-0.96875 0.984375 -2.28125 1.53125q-1.3125 0.53125 -2.875 0.53125zm0 -3.21875q0.8125 0 1.484375 -0.296875q0.6875 -0.3125 1.1875 -0.84375q0.515625 -0.546875 0.796875 -1.28125q0.28125 -0.75 0.28125 -1.609375q0 -0.875 -0.28125 -1.609375q-0.28125 -0.75 -0.796875 -1.296875q-0.5 -0.546875 -1.1875 -0.84375q-0.671875 -0.296875 -1.484375 -0.296875q-0.828125 0 -1.515625 0.296875q-0.6875 0.296875 -1.203125 0.84375q-0.5 0.546875 -0.78125 1.296875q-0.28125 0.734375 -0.28125 1.609375q0 1.171875 0.484375 2.078125q0.484375 0.90625 1.328125 1.4375q0.859375 0.515625 1.96875 0.515625zm12.256226 3.015625l0 -10.984375l-4.125 0l0 -3.015625l11.796875 0l0 3.015625l-4.25 0l0 10.984375l-3.421875 0zm16.433105 0l0 -14.0l6.0625 0q1.328125 0 2.359375 0.609375q1.046875 0.59375 1.640625 1.625q0.609375 1.03125 0.609375 2.34375q0 1.34375 -0.609375 2.421875q-0.59375 1.078125 -1.640625 1.703125q-1.03125 0.609375 -2.359375 0.609375l-2.640625 0l0 4.6875l-3.421875 0zm3.390625 -7.703125l2.21875 0q0.4375 0 0.78125 -0.203125q0.359375 -0.21875 0.578125 -0.59375q0.21875 -0.375 0.21875 -0.859375q0 -0.5 -0.21875 -0.859375q-0.21875 -0.359375 -0.578125 -0.5625q-0.34375 -0.203125 -0.78125 -0.203125l-2.21875 0l0 3.28125zm9.849365 7.703125l0 -14.0l6.34375 0q1.359375 0 2.4375 0.578125q1.078125 0.578125 1.703125 1.59375q0.640625 1.015625 0.640625 2.3125q0 1.3125 -0.640625 2.359375q-0.625 1.03125 -1.703125 1.640625q-1.078125 0.609375 -2.4375 0.609375l-3.078125 0l0 4.90625l-3.265625 0zm7.78125 0l-3.5625 -6.34375l3.5 -0.5l3.96875 6.859375l-3.90625 -0.015625zm-4.515625 -7.5625l2.78125 0q0.515625 0 0.90625 -0.21875q0.390625 -0.234375 0.59375 -0.625q0.21875 -0.40625 0.21875 -0.9375q0 -0.53125 -0.25 -0.9375q-0.25 -0.40625 -0.703125 -0.625q-0.453125 -0.234375 -1.0625 -0.234375l-2.484375 0l0 3.578125zm10.564331 7.5625l0 -2.875l2.359375 0l0 -8.25l-2.359375 0l0 -2.875l8.140625 0l0 2.875l-2.359375 0l0 8.25l2.359375 0l0 2.875l-8.140625 0zm11.349976 0l0 -14.0l3.0625 0l5.078125 8.265625l-2.15625 -0.03125l5.140625 -8.234375l2.953125 0l0 14.0l-3.3125 0l0 -4.234375q0 -1.84375 0.09375 -3.3125q0.09375 -1.46875 0.3125 -2.890625l0.375 1.03125l-3.859375 5.984375l-1.359375 0l-3.78125 -5.9375l0.375 -1.078125q0.25 1.34375 0.328125 2.78125q0.09375 1.421875 0.09375 3.421875l0 4.234375l-3.34375 0zm17.559998 0l0 -14.0l9.765625 0l0 2.921875l-6.421875 0l0 8.15625l6.640625 0l0 2.921875l-9.984375 0zm1.625 -5.71875l0 -2.796875l7.265625 0l0 2.796875l-7.265625 0z" fill-rule="nonzero"/><path fill="#000000" fill-opacity="0.0" d="m640.6483 462.48294l43.753235 0l0 0.06298828l43.742798 0" fill-rule="evenodd"/><path stroke="#000000" stroke-width="2.0" stroke-linejoin="round" stroke-linecap="butt" d="m640.6483 462.48294l43.753235 0l0 0.06298828l31.742798 0" fill-rule="evenodd"/><path fill="#000000" stroke="#000000" stroke-width="2.0" stroke-linecap="butt" d="m716.14435 465.8494l9.076233 -3.3034668l-9.076233 -3.3034668z" fill-rule="evenodd"/><path fill="#000000" fill-opacity="0.0" d="m814.7504 507.79742l0 40.888306l-299.37006 0l0 35.30066" fill-rule="evenodd"/><path stroke="#000000" stroke-width="2.0" stroke-linejoin="round" stroke-linecap="butt" d="m814.7504 507.7974l0 40.888336l-299.37006 0l0 23.30066" fill-rule="evenodd"/><path fill="#000000" stroke="#000000" stroke-width="2.0" stroke-linecap="butt" d="m512.0769 571.9864l3.3034668 9.076172l3.3034668 -9.076172z" fill-rule="evenodd"/><path fill="#000000" fill-opacity="0.0" d="m128.49847 507.79742l0 40.888306l386.86615 0l0 35.30066" fill-rule="evenodd"/><path stroke="#000000" stroke-width="2.0" stroke-linejoin="round" stroke-linecap="butt" d="m128.49849 507.7974l0 40.888336l386.86615 0l0 23.30066" fill-rule="evenodd"/><path fill="#000000" stroke="#000000" stroke-width="2.0" stroke-linecap="butt" d="m512.06116 571.9864l3.3034668 9.076172l3.3034668 -9.076172z" fill-rule="evenodd"/><path fill="#000000" fill-opacity="0.0" d="m764.6076 56.591076l-30.510986 0l0 0.062992096l-38.685852 0" fill-rule="evenodd"/><path stroke="#000000" stroke-width="2.0" stroke-linejoin="round" stroke-linecap="butt" d="m764.6076 56.591076l-30.510986 0l0 0.062992096l-26.685852 0" fill-rule="evenodd"/><path fill="#000000" stroke="#000000" stroke-width="2.0" stroke-linecap="butt" d="m707.41077 53.3506l-9.076172 3.3034668l9.076172 3.303463z" fill-rule="evenodd"/><path fill="#000000" fill-opacity="0.0" d="m529.85693 56.59055l-42.309875 0l0 0.062992096l-34.162537 0" fill-rule="evenodd"/><path stroke="#000000" stroke-width="2.0" stroke-linejoin="round" stroke-linecap="butt" d="m529.85693 56.59055l-42.309906 0l0 0.062992096l-22.162506 0" fill-rule="evenodd"/><path fill="#000000" stroke="#000000" stroke-width="2.0" stroke-linecap="butt" d="m465.38452 53.35008l-9.076202 3.303463l9.076202 3.3034668z" fill-rule="evenodd"/></g></svg>